<svg preserveAspectRatio="none" width="100%" height="100%" overflow="visible" style="display: block;" viewBox="0 0 112.363 112.363" fill="none" xmlns="http://www.w3.org/2000/svg">
<g id="&#208;&#184;&#208;&#186;&#208;&#190;&#208;&#189;&#208;&#186;&#208;&#176; &#209;&#135;&#208;&#176;&#208;&#184; svg">
<g id="Ellipse 58" filter="url(#filter0_d_0_50)">
<circle cx="56.1815" cy="56.1815" r="30.6815" stroke="var(--stroke-0, white)" stroke-width="3" shape-rendering="crispEdges"/>
</g>
<g id="Vector 117" filter="url(#filter1_f_0_50)">
<path d="M68.9166 45.3303C69.1559 42.0794 59.3082 40.8718 54.3444 40.8719C44.092 40.8719 40.2879 43.4726 40.2879 45.4232C40.288 50.0674 39.9632 55.1296 41.1412 60.3775C41.8352 63.4696 43.5139 65.3778 46.2314 66.4778M40.2879 45.4232C40.4789 47.0487 44.8343 49.9374 55.4114 49.603C59.0917 49.7268 67.8496 48.8599 68.9166 45.3303M68.9166 45.3303C69.0223 46.9094 69.1442 48.327 69.1559 49.603M69.1559 49.603C71.564 48.9683 76.5193 49.0457 77.076 54.433C77.3832 57.3279 76.0175 62.6997 68.0963 61.0278M62.7412 66.7725C63.9267 66.2874 65.1026 65.5085 66.3133 64.2322C67.0045 63.5037 67.6177 62.5507 68.0963 61.0278C68.7964 58.7999 69.2086 55.3523 69.1559 49.603M62.7412 66.7725C60.4427 67.7128 58.1163 67.7619 55.4114 67.7619C51.5834 67.7619 48.5344 67.41 46.2314 66.4778M62.7412 66.7725C66.4896 66.9098 67.2875 68.1334 67.2875 69.1087C67.2875 70.9664 65.0143 71.3844 64.0401 71.4772H48.1744C42.9786 71.663 41.7741 69.9447 41.8188 69.1087C41.8909 67.7619 42.5572 67.3454 46.2314 66.4778" stroke="var(--stroke-0, #F645F9)" stroke-width="2"/>
</g>
<g id="Vector 119" filter="url(#filter2_f_0_50)">
<path d="M68.9166 45.3303C69.1559 42.0794 59.3082 40.8718 54.3444 40.8719C44.092 40.8719 40.2879 43.4726 40.2879 45.4232C40.288 50.0674 39.9632 55.1296 41.1412 60.3775C41.8352 63.4696 43.5139 65.3778 46.2314 66.4778M40.2879 45.4232C40.4789 47.0487 44.8343 49.9374 55.4114 49.603C59.0917 49.7268 67.8496 48.8599 68.9166 45.3303M68.9166 45.3303C69.0223 46.9094 69.1442 48.327 69.1559 49.603M69.1559 49.603C71.564 48.9683 76.5193 49.0457 77.076 54.433C77.3832 57.3279 76.0175 62.6997 68.0963 61.0278M62.7412 66.7725C63.9267 66.2874 65.1026 65.5085 66.3133 64.2322C67.0045 63.5037 67.6177 62.5507 68.0963 61.0278C68.7964 58.7999 69.2086 55.3523 69.1559 49.603M62.7412 66.7725C60.4427 67.7128 58.1163 67.7619 55.4114 67.7619C51.5834 67.7619 48.5344 67.41 46.2314 66.4778M62.7412 66.7725C66.4896 66.9098 67.2875 68.1334 67.2875 69.1087C67.2875 70.9664 65.0143 71.3844 64.0401 71.4772H48.1744C42.9786 71.663 41.7741 69.9447 41.8188 69.1087C41.8909 67.7619 42.5572 67.3454 46.2314 66.4778" stroke="var(--stroke-0, #F645F9)" stroke-width="2"/>
</g>
<path id="Vector 118" d="M68.9166 45.3303C69.1559 42.0794 59.3082 40.8718 54.3444 40.8719C44.092 40.8719 40.2879 43.4726 40.2879 45.4232C40.288 50.0674 39.9632 55.1296 41.1412 60.3775C41.8352 63.4696 43.5139 65.3778 46.2314 66.4778M40.2879 45.4232C40.4789 47.0487 44.8343 49.9374 55.4114 49.603C59.0917 49.7268 67.8496 48.8599 68.9166 45.3303M68.9166 45.3303C69.0223 46.9094 69.1442 48.327 69.1559 49.603M69.1559 49.603C71.564 48.9683 76.5193 49.0457 77.076 54.433C77.3832 57.3279 76.0175 62.6997 68.0963 61.0278M62.7412 66.7725C63.9267 66.2874 65.1026 65.5085 66.3133 64.2322C67.0045 63.5037 67.6177 62.5507 68.0963 61.0278C68.7964 58.7999 69.2086 55.3523 69.1559 49.603M62.7412 66.7725C60.4427 67.7128 58.1163 67.7619 55.4114 67.7619C51.5834 67.7619 48.5344 67.41 46.2314 66.4778M62.7412 66.7725C66.4896 66.9098 67.2875 68.1334 67.2875 69.1087C67.2875 70.9664 65.0143 71.3844 64.0401 71.4772H48.1744C42.9786 71.663 41.7741 69.9447 41.8188 69.1087C41.8909 67.7619 42.5572 67.3454 46.2314 66.4778" stroke="var(--stroke-0, white)"/>
</g>
<defs>
<filter id="filter0_d_0_50" x="7.7486e-07" y="-5.96046e-08" width="112.363" height="112.363" filterUnits="userSpaceOnUse" color-interpolation-filters="sRGB">
<feFlood flood-opacity="0" result="BackgroundImageFix"/>
<feColorMatrix in="SourceAlpha" type="matrix" values="0 0 0 0 0 0 0 0 0 0 0 0 0 0 0 0 0 0 127 0" result="hardAlpha"/>
<feMorphology radius="4" operator="dilate" in="SourceAlpha" result="effect1_dropShadow_0_50"/>
<feOffset/>
<feGaussianBlur stdDeviation="10"/>
<feComposite in2="hardAlpha" operator="out"/>
<feColorMatrix type="matrix" values="0 0 0 0 0.345098 0 0 0 0 1 0 0 0 0 0.937255 0 0 0 1 0"/>
<feBlend mode="normal" in2="BackgroundImageFix" result="effect1_dropShadow_0_50"/>
<feBlend mode="normal" in="SourceGraphic" in2="effect1_dropShadow_0_50" result="shape"/>
</filter>
<filter id="filter1_f_0_50" x="36.7463" y="37.3719" width="43.8685" height="37.6193" filterUnits="userSpaceOnUse" color-interpolation-filters="sRGB">
<feFlood flood-opacity="0" result="BackgroundImageFix"/>
<feBlend mode="normal" in="SourceGraphic" in2="BackgroundImageFix" result="shape"/>
<feGaussianBlur stdDeviation="1.25" result="effect1_foregroundBlur_0_50"/>
</filter>
<filter id="filter2_f_0_50" x="36.7463" y="37.3719" width="43.8685" height="37.6193" filterUnits="userSpaceOnUse" color-interpolation-filters="sRGB">
<feFlood flood-opacity="0" result="BackgroundImageFix"/>
<feBlend mode="normal" in="SourceGraphic" in2="BackgroundImageFix" result="shape"/>
<feGaussianBlur stdDeviation="1.25" result="effect1_foregroundBlur_0_50"/>
</filter>
</defs>
</svg>
