<svg preserveAspectRatio="none" width="100%" height="100%" overflow="visible" style="display: block;" viewBox="0 0 112.932 112.932" fill="none" xmlns="http://www.w3.org/2000/svg">
<g id="&#208;&#184;&#208;&#186;&#208;&#190;&#208;&#189;&#208;&#186;&#208;&#176; &#208;&#186;&#208;&#190;&#209;&#132;&#208;&#181; svg">
<g id="Ellipse 58" filter="url(#filter0_d_0_45)">
<circle cx="56.4661" cy="56.4661" r="30.9661" stroke="var(--stroke-0, white)" stroke-width="3" shape-rendering="crispEdges"/>
</g>
<g id="Vector 130" filter="url(#filter1_f_0_45)">
<path d="M66.4613 66.2019L66.1986 68.6416L66.0914 69.6375H45.2792L45.1631 68.4923L42.8395 45.589H44.8809M44.8809 45.589H67.6349M67.6349 45.589C67.4687 44.2116 67.1674 43.0645 66.6046 42.1036C66.2901 41.5668 65.8941 41.088 65.3944 40.6597C63.2451 38.8175 59.6187 39.0167 55.9841 39.0167C52.1532 39.0167 48.9139 38.7179 46.9223 40.4605C46.279 41.0234 45.8383 41.5655 45.5364 42.1036C44.9037 43.2315 44.8809 44.3418 44.8809 45.589M67.6349 45.589H68.6805L68.0373 51.5637M45.5364 42.1036C53.8218 42.5996 58.4293 42.603 66.6046 42.1036M68.0373 51.5637C69.845 51.1322 73.2114 52.4101 73.3608 58.5841C73.4367 61.7229 72.6125 66.8393 66.4613 66.2019M68.0373 51.5637L66.4613 66.2019M45.1631 68.4923C43.26 68.4923 39.6331 69.1794 40.35 71.9278C40.5492 72.8406 42.3816 74.5766 48.1173 74.2181H67.3363C68.6474 74.1849 71.3194 73.6206 71.5186 71.629C71.6066 70.683 70.6659 68.7611 66.1986 68.6416" stroke="var(--stroke-0, #58FFEF)" stroke-width="2" stroke-linecap="round"/>
</g>
<g id="Vector 131" filter="url(#filter2_f_0_45)">
<path d="M66.4613 66.2019L66.1986 68.6416L66.0914 69.6375H45.2792L45.1631 68.4923L42.8395 45.589H44.8809M44.8809 45.589H67.6349M67.6349 45.589C67.4687 44.2116 67.1674 43.0645 66.6046 42.1036C66.2901 41.5668 65.8941 41.088 65.3944 40.6597C63.2451 38.8175 59.6187 39.0167 55.9841 39.0167C52.1532 39.0167 48.9139 38.7179 46.9223 40.4605C46.279 41.0234 45.8383 41.5655 45.5364 42.1036C44.9037 43.2315 44.8809 44.3418 44.8809 45.589M67.6349 45.589H68.6805L68.0373 51.5637M45.5364 42.1036C53.8218 42.5996 58.4293 42.603 66.6046 42.1036M68.0373 51.5637C69.845 51.1322 73.2114 52.4101 73.3608 58.5841C73.4367 61.7229 72.6125 66.8393 66.4613 66.2019M68.0373 51.5637L66.4613 66.2019M45.1631 68.4923C43.26 68.4923 39.6331 69.1794 40.35 71.9278C40.5492 72.8406 42.3816 74.5766 48.1173 74.2181H67.3363C68.6474 74.1849 71.3194 73.6206 71.5186 71.629C71.6066 70.683 70.6659 68.7611 66.1986 68.6416" stroke="var(--stroke-0, #58FFEF)" stroke-width="2" stroke-linecap="round"/>
</g>
<path id="Vector 130_2" d="M66.4595 66.0768L66.1968 68.4974L66.0895 69.4855H45.2704L45.1541 68.3492L42.8298 45.6248H44.8719M44.8719 45.6248H67.6335M67.6335 45.6248C67.4672 44.2581 67.1658 43.12 66.6029 42.1666C66.2883 41.634 65.8921 41.159 65.3922 40.734C63.2423 38.9062 59.6147 39.1038 55.9788 39.1038C52.1466 39.1038 48.9062 38.8074 46.914 40.5364C46.2705 41.0948 45.8296 41.6327 45.5276 42.1666C44.8947 43.2857 44.8719 44.3873 44.8719 45.6248M67.6335 45.6248H68.6795L68.036 51.5529M45.5276 42.1666C53.8158 42.6588 58.4248 42.6621 66.6029 42.1666M68.036 51.5529C69.8443 51.1247 73.2119 52.3927 73.3613 58.5184C73.4373 61.6327 72.6128 66.7091 66.4595 66.0768M68.036 51.5529L66.4595 66.0768M45.1541 68.3492C43.2504 68.3492 39.6223 69.0309 40.3395 71.7579C40.5388 72.6636 42.3717 74.386 48.1094 74.0303H67.3348C68.6464 73.9974 71.3193 73.4375 71.5185 71.4615C71.6066 70.5229 70.6655 68.616 66.1968 68.4974" stroke="var(--stroke-0, white)" stroke-linecap="round"/>
</g>
<defs>
<filter id="filter0_d_0_45" x="-8.9407e-07" y="-5.96046e-08" width="112.932" height="112.932" filterUnits="userSpaceOnUse" color-interpolation-filters="sRGB">
<feFlood flood-opacity="0" result="BackgroundImageFix"/>
<feColorMatrix in="SourceAlpha" type="matrix" values="0 0 0 0 0 0 0 0 0 0 0 0 0 0 0 0 0 0 127 0" result="hardAlpha"/>
<feMorphology radius="4" operator="dilate" in="SourceAlpha" result="effect1_dropShadow_0_45"/>
<feOffset/>
<feGaussianBlur stdDeviation="10"/>
<feComposite in2="hardAlpha" operator="out"/>
<feColorMatrix type="matrix" values="0 0 0 0 0.345098 0 0 0 0 1 0 0 0 0 0.937255 0 0 0 1 0"/>
<feBlend mode="normal" in2="BackgroundImageFix" result="effect1_dropShadow_0_45"/>
<feBlend mode="normal" in="SourceGraphic" in2="effect1_dropShadow_0_45" result="shape"/>
</filter>
<filter id="filter1_f_0_45" x="36.7577" y="35.4972" width="40.1076" height="42.2689" filterUnits="userSpaceOnUse" color-interpolation-filters="sRGB">
<feFlood flood-opacity="0" result="BackgroundImageFix"/>
<feBlend mode="normal" in="SourceGraphic" in2="BackgroundImageFix" result="shape"/>
<feGaussianBlur stdDeviation="1.25" result="effect1_foregroundBlur_0_45"/>
</filter>
<filter id="filter2_f_0_45" x="36.7577" y="35.4972" width="40.1076" height="42.2689" filterUnits="userSpaceOnUse" color-interpolation-filters="sRGB">
<feFlood flood-opacity="0" result="BackgroundImageFix"/>
<feBlend mode="normal" in="SourceGraphic" in2="BackgroundImageFix" result="shape"/>
<feGaussianBlur stdDeviation="1.25" result="effect1_foregroundBlur_0_45"/>
</filter>
</defs>
</svg>
