<svg preserveAspectRatio="none" width="100%" height="100%" overflow="visible" style="display: block;" viewBox="0 0 112.363 112.363" fill="none" xmlns="http://www.w3.org/2000/svg">
<g id="&#208;&#184;&#208;&#186;&#208;&#190;&#208;&#189;&#208;&#186;&#208;&#176; &#209;&#128;&#208;&#176;&#208;&#188;&#208;&#181;&#208;&#189; svg">
<g id="Ellipse 61" filter="url(#filter0_d_0_55)">
<circle cx="56.1815" cy="56.1815" r="30.6815" stroke="var(--stroke-0, white)" stroke-width="3" shape-rendering="crispEdges"/>
</g>
<g id="Vector 134" filter="url(#filter1_f_0_55)">
<path d="M36.0043 55.753C36.749 56.6041 38.3342 57.2027 39.4992 57.4695C56.019 61.5029 69.3385 59.1501 73.9333 57.4695C75.9898 56.828 77.1238 56.1511 77.6341 55.4948M36.0043 55.753C35.2519 54.893 35.3576 53.7752 37.6221 52.4812C45.5066 48.7802 66.6389 48.5122 75.9715 52.4278C77.397 53.1463 78.5745 54.2855 77.6341 55.4948M36.0043 55.753C35.8641 59.3824 37.3644 67.7353 44.4872 72.1119C45.329 72.6292 47.3164 73.7821 50.4944 74.6113M77.6341 55.4948C78.192 64.0845 72.9678 69.1083 71.1442 71.0392C69.3728 72.7049 66.8845 73.8436 64.3861 74.5601M50.4944 74.6113C52.379 75.1029 54.6822 75.4807 57.4135 75.5446C59.2356 75.5872 61.8162 75.2971 64.3861 74.5601M50.4944 74.6113C49.2608 75.0475 46.4718 76.1346 46.4718 77.2073C46.4718 77.851 46.1499 79.1919 50.119 79.3528H65.0834C66.5494 79.3044 68.3015 78.6555 67.2824 76.7782C66.9249 76.247 65.845 75.0597 64.3861 74.5601" stroke="var(--stroke-0, #BEAF0A)" stroke-width="2" stroke-linecap="round"/>
</g>
<g id="Vector 140" filter="url(#filter2_f_0_55)">
<path d="M36.0043 55.753C36.749 56.6041 38.3342 57.2027 39.4992 57.4695C56.019 61.5029 69.3385 59.1501 73.9333 57.4695C75.9898 56.828 77.1238 56.1511 77.6341 55.4948M36.0043 55.753C35.2519 54.893 35.3576 53.7752 37.6221 52.4812C45.5066 48.7802 66.6389 48.5122 75.9715 52.4278C77.397 53.1463 78.5745 54.2855 77.6341 55.4948M36.0043 55.753C35.8641 59.3824 37.3644 67.7353 44.4872 72.1119C45.329 72.6292 47.3164 73.7821 50.4944 74.6113M77.6341 55.4948C78.192 64.0845 72.9678 69.1083 71.1442 71.0392C69.3728 72.7049 66.8845 73.8436 64.3861 74.5601M50.4944 74.6113C52.379 75.1029 54.6822 75.4807 57.4135 75.5446C59.2356 75.5872 61.8162 75.2971 64.3861 74.5601M50.4944 74.6113C49.2608 75.0475 46.4718 76.1346 46.4718 77.2073C46.4718 77.851 46.1499 79.1919 50.119 79.3528H65.0834C66.5494 79.3044 68.3015 78.6555 67.2824 76.7782C66.9249 76.247 65.845 75.0597 64.3861 74.5601" stroke="var(--stroke-0, #BEAF0A)" stroke-width="2" stroke-linecap="round"/>
</g>
<path id="&#208;&#145;&#208;&#149;&#208;&#155;" d="M36.0043 55.753C36.749 56.6041 38.3342 57.2027 39.4992 57.4695C56.019 61.5029 69.3385 59.1501 73.9333 57.4695C75.9898 56.828 77.1238 56.1511 77.6341 55.4948M36.0043 55.753C35.2519 54.893 35.3576 53.7752 37.6221 52.4812C45.5066 48.7802 66.6389 48.5122 75.9715 52.4278C77.397 53.1463 78.5745 54.2855 77.6341 55.4948M36.0043 55.753C35.8641 59.3824 37.3644 67.7353 44.4872 72.1119C45.329 72.6292 47.3164 73.7821 50.4944 74.6113M77.6341 55.4948C78.192 64.0845 72.9678 69.1083 71.1442 71.0392C69.3728 72.7049 66.8845 73.8436 64.3861 74.5601M50.4944 74.6113C52.379 75.1029 54.6822 75.4807 57.4135 75.5446C59.2356 75.5872 61.8162 75.2971 64.3861 74.5601M50.4944 74.6113C49.2608 75.0475 46.4718 76.1346 46.4718 77.2073C46.4718 77.851 46.1499 79.1919 50.119 79.3528H65.0834C66.5494 79.3044 68.3015 78.6555 67.2824 76.7782C66.9249 76.247 65.845 75.0597 64.3861 74.5601" stroke="var(--stroke-0, white)" stroke-linecap="round"/>
<g id="Vector 135" filter="url(#filter3_f_0_55)">
<path d="M50.7081 31.1873C49.6175 32.3137 48.0156 35.092 50.3326 37.1946C51.4947 38.2494 53.1216 40.7989 50.3326 42.5581C49.3137 43.2009 48.8307 44.4676 50.3326 46.0981" stroke="var(--stroke-0, #58FFEF)" stroke-width="2" stroke-linecap="round"/>
</g>
<g id="Vector 136" filter="url(#filter4_f_0_55)">
<path d="M58.1708 30.4362C56.1175 31.5435 54.731 35.1025 57.1446 37.087C58.4581 38.167 59.3639 40.1985 57.7953 41.5924C56.7692 42.5042 56.2934 43.7164 57.7953 45.3469" stroke="var(--stroke-0, #58FFEF)" stroke-width="2" stroke-linecap="round"/>
</g>
<g id="Vector 137" filter="url(#filter5_f_0_55)">
<path d="M64.4399 32.7959C62.3482 34.1905 62.0265 36.9259 63.1525 38.0522C64.4394 39.3396 65.255 39.5151 65.4591 41.2167C65.6201 42.5576 64.2252 44.0594 63.1525 45.2394" stroke="var(--stroke-0, #58FFEF)" stroke-width="2" stroke-linecap="round"/>
</g>
<g id="Vector 138" filter="url(#filter6_f_0_55)">
<path d="M44.756 56.0742L51.0851 50.8715M49.8514 55.0551C50.7632 53.1064 53.3914 50.4746 56.6095 55.5378M57.8968 55.0551C58.9874 53.4282 61.6298 51.247 63.4749 55.5378M64.0113 53.1242C65.7276 53.16 69.3212 53.8 69.9648 56.0742" stroke="var(--stroke-0, #58FFEF)" stroke-width="2" stroke-linecap="round"/>
</g>
<g id="Vector 141" filter="url(#filter7_f_0_55)">
<path d="M50.7081 31.1873C49.6175 32.3137 48.0156 35.092 50.3326 37.1946C51.4947 38.2494 53.1216 40.7989 50.3326 42.5581C49.3137 43.2009 48.8307 44.4676 50.3326 46.0981" stroke="var(--stroke-0, #58FFEF)" stroke-width="2" stroke-linecap="round"/>
</g>
<g id="Vector 142" filter="url(#filter8_f_0_55)">
<path d="M58.1708 30.4362C56.1175 31.5435 54.731 35.1025 57.1446 37.087C58.4581 38.167 59.3639 40.1985 57.7953 41.5924C56.7692 42.5042 56.2934 43.7164 57.7953 45.3469" stroke="var(--stroke-0, #58FFEF)" stroke-width="2" stroke-linecap="round"/>
</g>
<g id="Vector 143" filter="url(#filter9_f_0_55)">
<path d="M64.4399 32.7959C62.3482 34.1905 62.0265 36.9259 63.1525 38.0522C64.4394 39.3396 65.255 39.5151 65.4591 41.2167C65.6201 42.5576 64.2252 44.0594 63.1525 45.2394" stroke="var(--stroke-0, #58FFEF)" stroke-width="2" stroke-linecap="round"/>
</g>
<g id="Vector 144" filter="url(#filter10_f_0_55)">
<path d="M44.756 56.0742L51.0851 50.8715M49.8514 55.0551C50.7632 53.1064 53.3914 50.4746 56.6095 55.5378M57.8968 55.0551C58.9874 53.4282 61.6298 51.247 63.4749 55.5378M64.0113 53.1242C65.7276 53.16 69.3212 53.8 69.9648 56.0742" stroke="var(--stroke-0, #58FFEF)" stroke-width="2" stroke-linecap="round"/>
</g>
<path id="Vector 135_2" d="M50.708 31.1873C49.6175 32.3137 48.0155 35.092 50.3326 37.1946C51.4947 38.2494 53.1216 40.7989 50.3326 42.5581C49.3136 43.2009 48.8307 44.4676 50.3326 46.0981" stroke="var(--stroke-0, white)" stroke-linecap="round"/>
<path id="Vector 136_2" d="M58.1708 30.4361C56.1175 31.5434 54.731 35.1024 57.1446 37.0869C58.4581 38.1669 59.3639 40.1984 57.7953 41.5924C56.7692 42.5042 56.2934 43.7163 57.7953 45.3469" stroke="var(--stroke-0, white)" stroke-linecap="round"/>
<path id="Vector 137_2" d="M64.44 32.7959C62.3482 34.1904 62.0265 36.9258 63.1525 38.0522C64.4394 39.3395 65.255 39.5151 65.4592 41.2167C65.6201 42.5576 64.2253 44.0594 63.1525 45.2394" stroke="var(--stroke-0, white)" stroke-linecap="round"/>
<path id="Vector 138_2" d="M44.756 56.0741L51.085 50.8714M49.8514 55.055C50.7632 53.1062 53.3914 50.4745 56.6095 55.5377M57.8968 55.055C58.9874 53.4281 61.6298 51.2469 63.4749 55.5377M64.0112 53.1241C65.7276 53.1599 69.3212 53.7999 69.9648 56.0741" stroke="var(--stroke-0, white)" stroke-linecap="round"/>
</g>
<defs>
<filter id="filter0_d_0_55" x="3.27826e-07" y="-5.96046e-08" width="112.363" height="112.363" filterUnits="userSpaceOnUse" color-interpolation-filters="sRGB">
<feFlood flood-opacity="0" result="BackgroundImageFix"/>
<feColorMatrix in="SourceAlpha" type="matrix" values="0 0 0 0 0 0 0 0 0 0 0 0 0 0 0 0 0 0 127 0" result="hardAlpha"/>
<feMorphology radius="4" operator="dilate" in="SourceAlpha" result="effect1_dropShadow_0_55"/>
<feOffset/>
<feGaussianBlur stdDeviation="10"/>
<feComposite in2="hardAlpha" operator="out"/>
<feColorMatrix type="matrix" values="0 0 0 0 0.345098 0 0 0 0 1 0 0 0 0 0.937255 0 0 0 1 0"/>
<feBlend mode="normal" in2="BackgroundImageFix" result="effect1_dropShadow_0_55"/>
<feBlend mode="normal" in="SourceGraphic" in2="effect1_dropShadow_0_55" result="shape"/>
</filter>
<filter id="filter1_f_0_55" x="32.0841" y="46.097" width="49.3874" height="36.7558" filterUnits="userSpaceOnUse" color-interpolation-filters="sRGB">
<feFlood flood-opacity="0" result="BackgroundImageFix"/>
<feBlend mode="normal" in="SourceGraphic" in2="BackgroundImageFix" result="shape"/>
<feGaussianBlur stdDeviation="1.25" result="effect1_foregroundBlur_0_55"/>
</filter>
<filter id="filter2_f_0_55" x="32.0841" y="46.097" width="49.3874" height="36.7558" filterUnits="userSpaceOnUse" color-interpolation-filters="sRGB">
<feFlood flood-opacity="0" result="BackgroundImageFix"/>
<feBlend mode="normal" in="SourceGraphic" in2="BackgroundImageFix" result="shape"/>
<feGaussianBlur stdDeviation="1.25" result="effect1_foregroundBlur_0_55"/>
</filter>
<filter id="filter3_f_0_55" x="45.6463" y="27.6873" width="9.72625" height="21.9108" filterUnits="userSpaceOnUse" color-interpolation-filters="sRGB">
<feFlood flood-opacity="0" result="BackgroundImageFix"/>
<feBlend mode="normal" in="SourceGraphic" in2="BackgroundImageFix" result="shape"/>
<feGaussianBlur stdDeviation="1.25" result="effect1_foregroundBlur_0_55"/>
</filter>
<filter id="filter4_f_0_55" x="52.3681" y="26.936" width="9.75644" height="21.9109" filterUnits="userSpaceOnUse" color-interpolation-filters="sRGB">
<feFlood flood-opacity="0" result="BackgroundImageFix"/>
<feBlend mode="normal" in="SourceGraphic" in2="BackgroundImageFix" result="shape"/>
<feGaussianBlur stdDeviation="1.25" result="effect1_foregroundBlur_0_55"/>
</filter>
<filter id="filter5_f_0_55" x="59.0143" y="29.2958" width="9.95768" height="19.4436" filterUnits="userSpaceOnUse" color-interpolation-filters="sRGB">
<feFlood flood-opacity="0" result="BackgroundImageFix"/>
<feBlend mode="normal" in="SourceGraphic" in2="BackgroundImageFix" result="shape"/>
<feGaussianBlur stdDeviation="1.25" result="effect1_foregroundBlur_0_55"/>
</filter>
<filter id="filter6_f_0_55" x="41.256" y="47.3715" width="32.2091" height="12.203" filterUnits="userSpaceOnUse" color-interpolation-filters="sRGB">
<feFlood flood-opacity="0" result="BackgroundImageFix"/>
<feBlend mode="normal" in="SourceGraphic" in2="BackgroundImageFix" result="shape"/>
<feGaussianBlur stdDeviation="1.25" result="effect1_foregroundBlur_0_55"/>
</filter>
<filter id="filter7_f_0_55" x="45.6463" y="27.6873" width="9.72625" height="21.9108" filterUnits="userSpaceOnUse" color-interpolation-filters="sRGB">
<feFlood flood-opacity="0" result="BackgroundImageFix"/>
<feBlend mode="normal" in="SourceGraphic" in2="BackgroundImageFix" result="shape"/>
<feGaussianBlur stdDeviation="1.25" result="effect1_foregroundBlur_0_55"/>
</filter>
<filter id="filter8_f_0_55" x="52.3681" y="26.936" width="9.75644" height="21.9109" filterUnits="userSpaceOnUse" color-interpolation-filters="sRGB">
<feFlood flood-opacity="0" result="BackgroundImageFix"/>
<feBlend mode="normal" in="SourceGraphic" in2="BackgroundImageFix" result="shape"/>
<feGaussianBlur stdDeviation="1.25" result="effect1_foregroundBlur_0_55"/>
</filter>
<filter id="filter9_f_0_55" x="59.0143" y="29.2958" width="9.95768" height="19.4436" filterUnits="userSpaceOnUse" color-interpolation-filters="sRGB">
<feFlood flood-opacity="0" result="BackgroundImageFix"/>
<feBlend mode="normal" in="SourceGraphic" in2="BackgroundImageFix" result="shape"/>
<feGaussianBlur stdDeviation="1.25" result="effect1_foregroundBlur_0_55"/>
</filter>
<filter id="filter10_f_0_55" x="41.256" y="47.3715" width="32.2091" height="12.203" filterUnits="userSpaceOnUse" color-interpolation-filters="sRGB">
<feFlood flood-opacity="0" result="BackgroundImageFix"/>
<feBlend mode="normal" in="SourceGraphic" in2="BackgroundImageFix" result="shape"/>
<feGaussianBlur stdDeviation="1.25" result="effect1_foregroundBlur_0_55"/>
</filter>
</defs>
</svg>
