<svg preserveAspectRatio="none" width="100%" height="100%" overflow="visible" style="display: block;" viewBox="0 0 112.363 112.363" fill="none" xmlns="http://www.w3.org/2000/svg">
<g id="&#208;&#184;&#208;&#186;&#208;&#190;&#208;&#189;&#208;&#186;&#208;&#176; &#208;&#187;&#208;&#184;&#208;&#188;&#208;&#190;&#208;&#189;&#208;&#176;&#208;&#180; svg">
<g id="Ellipse 58" filter="url(#filter0_d_0_15)">
<circle cx="56.1815" cy="56.1815" r="30.6815" stroke="var(--stroke-0, white)" stroke-width="3" shape-rendering="crispEdges"/>
</g>
<g id="Ellipse 35" filter="url(#filter1_f_0_15)">
<circle cx="52.5991" cy="31.814" r="2.81499" stroke="var(--stroke-0, #F61546)" stroke-width="0.8"/>
</g>
<g id="Ellipse 25" filter="url(#filter2_f_0_15)">
<ellipse cx="49.4828" cy="66.7549" rx="2.24552" ry="2.04592" fill="var(--fill-0, #F61546)"/>
<path d="M49.4824 64.5088C50.8151 64.5088 51.9287 65.4974 51.9287 66.7549C51.9287 68.0124 50.8151 69.001 49.4824 69.001C48.1499 69.0008 47.0371 68.0123 47.0371 66.7549C47.0371 65.4975 48.1499 64.509 49.4824 64.5088Z" stroke="var(--stroke-0, #F61546)" stroke-width="0.4"/>
</g>
<g id="Ellipse 26" filter="url(#filter3_f_0_15)">
<ellipse cx="60.354" cy="66.2546" rx="2.39522" ry="2.04592" transform="rotate(-45.7133 60.354 66.2546)" fill="var(--fill-0, #F61546)"/>
<path d="M58.7463 64.686C59.7257 63.6821 61.2578 63.511 62.166 64.3969C63.0742 65.2828 62.9413 66.8186 61.9621 67.8227C60.9828 68.8267 59.4501 68.9984 58.5418 68.1125C57.6335 67.2265 57.767 65.69 58.7463 64.686Z" stroke="var(--stroke-0, #F61546)" stroke-width="0.4"/>
</g>
<g id="Ellipse 27" filter="url(#filter4_f_0_15)">
<ellipse cx="54.5561" cy="64.3462" rx="1.70197" ry="1.45377" transform="rotate(11.222 54.5561 64.3462)" fill="var(--fill-0, #F61546)"/>
<path d="M54.8781 62.7239C55.8782 62.9224 56.6045 63.7929 56.4212 64.7166C56.2378 65.6401 55.2344 66.1666 54.2344 65.9683C53.2343 65.7699 52.5072 64.9 52.6902 63.9764C52.8735 63.0526 53.8779 62.5255 54.8781 62.7239Z" stroke="var(--stroke-0, #F61546)" stroke-width="0.4"/>
</g>
<g id="Ellipse 28" filter="url(#filter5_f_0_15)">
<ellipse cx="55.7533" cy="70.0795" rx="1.95415" ry="1.70142" transform="rotate(89.183 55.7533 70.0795)" fill="var(--fill-0, #F61546)"/>
<path d="M57.6548 70.0523C57.6713 71.2149 56.8593 72.218 55.7843 72.2335C54.7092 72.2489 53.869 71.2692 53.8524 70.1066C53.8359 68.9439 54.6478 67.9407 55.7229 67.9254C56.7979 67.9102 57.6382 68.8898 57.6548 70.0523Z" stroke="var(--stroke-0, #F61546)" stroke-width="0.4"/>
</g>
<g id="Ellipse 34" filter="url(#filter6_f_0_15)">
<ellipse cx="67.9971" cy="78.1824" rx="2.24826" ry="1.84581" transform="rotate(134.928 67.9971 78.1824)" fill="var(--fill-0, #F61546)"/>
<path d="M69.4458 79.6271C68.5183 80.557 67.0931 80.7383 66.2683 79.9156C65.4436 79.0929 65.6213 77.6673 66.5488 76.7374C67.4764 75.8077 68.9016 75.6263 69.7263 76.4489C70.551 77.2716 70.3732 78.6972 69.4458 79.6271Z" stroke="var(--stroke-0, #F61546)" stroke-width="0.4"/>
</g>
<g id="Ellipse 29" filter="url(#filter7_f_0_15)">
<ellipse cx="59.0403" cy="75.294" rx="1.8309" ry="1.59411" transform="rotate(104.139 59.0403 75.294)" fill="var(--fill-0, #F61546)"/>
<path d="M60.7802 75.7325C60.5128 76.7938 59.5297 77.5109 58.5447 77.263C57.5595 77.0148 57.0327 75.9173 57.3001 74.8558C57.5675 73.7942 58.5516 73.0763 59.5368 73.3245C60.5218 73.5729 61.0476 74.671 60.7802 75.7325Z" stroke="var(--stroke-0, #F61546)" stroke-width="0.4"/>
</g>
<g id="Ellipse 30" filter="url(#filter8_f_0_15)">
<ellipse cx="54.0061" cy="75.9774" rx="1.8309" ry="1.73054" transform="rotate(174.863 54.0061 75.9774)" fill="var(--fill-0, #F61546)"/>
<path d="M54.1788 77.9004C53.0725 77.9998 52.0803 77.2315 51.9838 76.1593C51.8874 75.087 52.7268 74.1541 53.8331 74.0546C54.9395 73.9551 55.9326 74.7233 56.029 75.7956C56.1254 76.868 55.2852 77.801 54.1788 77.9004Z" stroke="var(--stroke-0, #F61546)" stroke-width="0.4"/>
</g>
<g id="Ellipse 31" filter="url(#filter9_f_0_15)">
<ellipse cx="50.9914" cy="71.3508" rx="1.8309" ry="1.73054" transform="rotate(94.1629 50.9914 71.3508)" fill="var(--fill-0, #F61546)"/>
<path d="M52.917 71.4912C52.8363 72.599 51.9178 73.454 50.844 73.3759C49.7702 73.2978 48.9853 72.3187 49.0658 71.2108C49.1465 70.1029 50.065 69.247 51.1389 69.3251C52.2127 69.4033 52.9976 70.3832 52.917 71.4912Z" stroke="var(--stroke-0, #F61546)" stroke-width="0.4"/>
</g>
<g id="Ellipse 32" filter="url(#filter10_f_0_15)">
<ellipse cx="49.8092" cy="74.978" rx="1.37724" ry="1.30175" transform="rotate(51.9735 49.8092 74.978)" fill="var(--fill-0, #F61546)"/>
<path d="M50.9922 74.0526C51.5222 74.7302 51.4422 75.7028 50.7806 76.2202C50.119 76.7375 49.1559 76.5807 48.6259 75.903C48.0962 75.2254 48.176 74.2528 48.8375 73.7354C49.499 73.2181 50.4622 73.3751 50.9922 74.0526Z" stroke="var(--stroke-0, #F61546)" stroke-width="0.4"/>
</g>
<g id="Ellipse 33" filter="url(#filter11_f_0_15)">
<ellipse cx="60.7605" cy="71.1526" rx="1.37724" ry="1.14269" transform="rotate(-9.50177 60.7605 71.1526)" fill="var(--fill-0, #F61546)"/>
<path d="M60.5386 69.8282C61.3616 69.6905 62.1878 70.128 62.3157 70.8922C62.4436 71.6565 61.8049 72.3392 60.9819 72.4769C60.1589 72.6145 59.3326 72.1771 59.2047 71.4129C59.0769 70.6488 59.7157 69.9661 60.5386 69.8282Z" stroke="var(--stroke-0, #F61546)" stroke-width="0.4"/>
</g>
<g id="Vector 131" filter="url(#filter12_f_0_15)">
<path d="M43.7439 51.9331L45.9395 77.0337C46.0061 78.381 46.5383 80.3272 50.8299 80.3272H59.2633C61.8083 80.3272 63.3552 79.8781 63.7544 77.0337L67.0979 50.6357" stroke="var(--stroke-0, #F61546)" stroke-width="2" stroke-linecap="round"/>
</g>
<path id="Vector 131_2" d="M43.744 51.9331L45.9396 77.0337C46.0062 78.381 46.5385 80.3272 50.83 80.3272H59.2634C61.8084 80.3272 63.3553 79.8781 63.7546 77.0337L67.098 50.6357" stroke="var(--stroke-0, white)" stroke-opacity="0.9" stroke-linecap="round"/>
<g id="Vector 133" filter="url(#filter13_f_0_15)">
<path d="M56.1791 35.149L54.7716 60.4839" stroke="var(--stroke-0, #F61546)" stroke-width="2" stroke-linecap="round"/>
</g>
<path id="Vector 133_2" d="M56.1791 35.149L54.7716 60.4839" stroke="var(--stroke-0, white)" stroke-opacity="0.8"/>
<g id="Vector 132" filter="url(#filter14_f_0_15)">
<path d="M53.7737 45.9459C48.5441 45.7862 45.0411 47.4098 43.9433 48.2415C42.4962 48.9899 41.2486 52.2334 47.2368 52.5829C50.447 52.849 59.4287 53.3218 65.5003 51.934C67.2468 51.5348 68.3446 49.1395 65.3506 47.6425C64.3527 46.9938 61.1391 45.9541 57.4664 45.9459" stroke="var(--stroke-0, #F61546)" stroke-width="2" stroke-linecap="round"/>
</g>
<path id="Vector 132_2" d="M53.724 45.9454C46.7379 45.9454 43.9434 48.2411 43.9434 48.2411C42.6458 48.8896 41.2487 52.2329 47.2369 52.5824C50.4471 52.8485 59.4288 53.3213 65.5004 51.9335C67.247 51.5343 68.3447 49.1391 65.3507 47.642C64.2696 47.0721 61.1791 45.9351 57.4665 45.9454" stroke="var(--stroke-0, white)" stroke-opacity="0.77" stroke-linecap="round"/>
<circle id="Ellipse 24" cx="52.599" cy="31.8143" r="2.81499" stroke="var(--stroke-0, white)" stroke-width="0.3"/>
<ellipse id="Ellipse 25_2" cx="49.4826" cy="66.7549" rx="2.24552" ry="2.04592" fill="var(--fill-0, white)" fill-opacity="0.59"/>
<ellipse id="Ellipse 26_2" cx="60.3537" cy="66.2546" rx="2.39522" ry="2.04592" transform="rotate(-45.7133 60.3537 66.2546)" fill="var(--fill-0, white)" fill-opacity="0.59"/>
<ellipse id="Ellipse 27_2" cx="54.5559" cy="64.3468" rx="1.70197" ry="1.45377" transform="rotate(11.222 54.5559 64.3468)" fill="var(--fill-0, white)" fill-opacity="0.59"/>
<ellipse id="Ellipse 28_2" cx="55.7532" cy="70.0795" rx="1.95415" ry="1.70142" transform="rotate(89.183 55.7532 70.0795)" fill="var(--fill-0, white)" fill-opacity="0.59"/>
<ellipse id="Ellipse 34_2" cx="67.9969" cy="78.183" rx="2.24826" ry="1.84581" transform="rotate(134.928 67.9969 78.183)" fill="var(--fill-0, white)" fill-opacity="0.59"/>
<ellipse id="Ellipse 29_2" cx="59.0402" cy="75.294" rx="1.8309" ry="1.59411" transform="rotate(104.139 59.0402 75.294)" fill="var(--fill-0, white)" fill-opacity="0.59"/>
<ellipse id="Ellipse 30_2" cx="54.006" cy="75.978" rx="1.8309" ry="1.73054" transform="rotate(174.863 54.006 75.978)" fill="var(--fill-0, white)" fill-opacity="0.59"/>
<ellipse id="Ellipse 31_2" cx="50.9912" cy="71.3508" rx="1.8309" ry="1.73054" transform="rotate(94.1629 50.9912 71.3508)" fill="var(--fill-0, white)" fill-opacity="0.59"/>
<ellipse id="Ellipse 32_2" cx="49.8091" cy="74.978" rx="1.37724" ry="1.30175" transform="rotate(51.9735 49.8091 74.978)" fill="var(--fill-0, white)" fill-opacity="0.59"/>
<ellipse id="Ellipse 33_2" cx="60.7603" cy="71.1529" rx="1.37724" ry="1.14269" transform="rotate(-9.50177 60.7603 71.1529)" fill="var(--fill-0, white)" fill-opacity="0.59"/>
</g>
<defs>
<filter id="filter0_d_0_15" x="0" y="6.44475e-07" width="112.363" height="112.363" filterUnits="userSpaceOnUse" color-interpolation-filters="sRGB">
<feFlood flood-opacity="0" result="BackgroundImageFix"/>
<feColorMatrix in="SourceAlpha" type="matrix" values="0 0 0 0 0 0 0 0 0 0 0 0 0 0 0 0 0 0 127 0" result="hardAlpha"/>
<feMorphology radius="4" operator="dilate" in="SourceAlpha" result="effect1_dropShadow_0_15"/>
<feOffset/>
<feGaussianBlur stdDeviation="10"/>
<feComposite in2="hardAlpha" operator="out"/>
<feColorMatrix type="matrix" values="0 0 0 0 0.345098 0 0 0 0 1 0 0 0 0 0.937255 0 0 0 1 0"/>
<feBlend mode="normal" in2="BackgroundImageFix" result="effect1_dropShadow_0_15"/>
<feBlend mode="normal" in="SourceGraphic" in2="effect1_dropShadow_0_15" result="shape"/>
</filter>
<filter id="filter1_f_0_15" x="48.3841" y="27.599" width="8.42997" height="8.42997" filterUnits="userSpaceOnUse" color-interpolation-filters="sRGB">
<feFlood flood-opacity="0" result="BackgroundImageFix"/>
<feBlend mode="normal" in="SourceGraphic" in2="BackgroundImageFix" result="shape"/>
<feGaussianBlur stdDeviation="0.5" result="effect1_foregroundBlur_0_15"/>
</filter>
<filter id="filter2_f_0_15" x="45.1373" y="62.609" width="8.69105" height="8.29185" filterUnits="userSpaceOnUse" color-interpolation-filters="sRGB">
<feFlood flood-opacity="0" result="BackgroundImageFix"/>
<feBlend mode="normal" in="SourceGraphic" in2="BackgroundImageFix" result="shape"/>
<feGaussianBlur stdDeviation="0.85" result="effect1_foregroundBlur_0_15"/>
</filter>
<filter id="filter3_f_0_15" x="56.0303" y="61.9219" width="8.64751" height="8.66535" filterUnits="userSpaceOnUse" color-interpolation-filters="sRGB">
<feFlood flood-opacity="0" result="BackgroundImageFix"/>
<feBlend mode="normal" in="SourceGraphic" in2="BackgroundImageFix" result="shape"/>
<feGaussianBlur stdDeviation="0.85" result="effect1_foregroundBlur_0_15"/>
</filter>
<filter id="filter4_f_0_15" x="50.7616" y="60.783" width="7.5889" height="7.12652" filterUnits="userSpaceOnUse" color-interpolation-filters="sRGB">
<feFlood flood-opacity="0" result="BackgroundImageFix"/>
<feBlend mode="normal" in="SourceGraphic" in2="BackgroundImageFix" result="shape"/>
<feGaussianBlur stdDeviation="0.85" result="effect1_foregroundBlur_0_15"/>
</filter>
<filter id="filter5_f_0_15" x="51.9519" y="66.0254" width="7.60295" height="8.10823" filterUnits="userSpaceOnUse" color-interpolation-filters="sRGB">
<feFlood flood-opacity="0" result="BackgroundImageFix"/>
<feBlend mode="normal" in="SourceGraphic" in2="BackgroundImageFix" result="shape"/>
<feGaussianBlur stdDeviation="0.85" result="effect1_foregroundBlur_0_15"/>
</filter>
<filter id="filter6_f_0_15" x="63.8395" y="74.0237" width="8.31517" height="8.31725" filterUnits="userSpaceOnUse" color-interpolation-filters="sRGB">
<feFlood flood-opacity="0" result="BackgroundImageFix"/>
<feBlend mode="normal" in="SourceGraphic" in2="BackgroundImageFix" result="shape"/>
<feGaussianBlur stdDeviation="0.85" result="effect1_foregroundBlur_0_15"/>
</filter>
<filter id="filter7_f_0_15" x="55.3318" y="71.3748" width="7.41696" height="7.83839" filterUnits="userSpaceOnUse" color-interpolation-filters="sRGB">
<feFlood flood-opacity="0" result="BackgroundImageFix"/>
<feBlend mode="normal" in="SourceGraphic" in2="BackgroundImageFix" result="shape"/>
<feGaussianBlur stdDeviation="0.85" result="effect1_foregroundBlur_0_15"/>
</filter>
<filter id="filter8_f_0_15" x="50.0758" y="72.146" width="7.86067" height="7.66281" filterUnits="userSpaceOnUse" color-interpolation-filters="sRGB">
<feFlood flood-opacity="0" result="BackgroundImageFix"/>
<feBlend mode="normal" in="SourceGraphic" in2="BackgroundImageFix" result="shape"/>
<feGaussianBlur stdDeviation="0.85" result="effect1_foregroundBlur_0_15"/>
</filter>
<filter id="filter9_f_0_15" x="47.1602" y="67.4203" width="7.66222" height="7.86107" filterUnits="userSpaceOnUse" color-interpolation-filters="sRGB">
<feFlood flood-opacity="0" result="BackgroundImageFix"/>
<feBlend mode="normal" in="SourceGraphic" in2="BackgroundImageFix" result="shape"/>
<feGaussianBlur stdDeviation="0.85" result="effect1_foregroundBlur_0_15"/>
</filter>
<filter id="filter10_f_0_15" x="46.3786" y="71.5283" width="6.86128" height="6.89936" filterUnits="userSpaceOnUse" color-interpolation-filters="sRGB">
<feFlood flood-opacity="0" result="BackgroundImageFix"/>
<feBlend mode="normal" in="SourceGraphic" in2="BackgroundImageFix" result="shape"/>
<feGaussianBlur stdDeviation="0.85" result="effect1_foregroundBlur_0_15"/>
</filter>
<filter id="filter11_f_0_15" x="57.2881" y="67.9037" width="6.94476" height="6.49796" filterUnits="userSpaceOnUse" color-interpolation-filters="sRGB">
<feFlood flood-opacity="0" result="BackgroundImageFix"/>
<feBlend mode="normal" in="SourceGraphic" in2="BackgroundImageFix" result="shape"/>
<feGaussianBlur stdDeviation="0.85" result="effect1_foregroundBlur_0_15"/>
</filter>
<filter id="filter12_f_0_15" x="40.2438" y="47.1355" width="30.3542" height="36.6916" filterUnits="userSpaceOnUse" color-interpolation-filters="sRGB">
<feFlood flood-opacity="0" result="BackgroundImageFix"/>
<feBlend mode="normal" in="SourceGraphic" in2="BackgroundImageFix" result="shape"/>
<feGaussianBlur stdDeviation="1.25" result="effect1_foregroundBlur_0_15"/>
</filter>
<filter id="filter13_f_0_15" x="51.2716" y="31.649" width="8.40755" height="32.3349" filterUnits="userSpaceOnUse" color-interpolation-filters="sRGB">
<feFlood flood-opacity="0" result="BackgroundImageFix"/>
<feBlend mode="normal" in="SourceGraphic" in2="BackgroundImageFix" result="shape"/>
<feGaussianBlur stdDeviation="1.25" result="effect1_foregroundBlur_0_15"/>
</filter>
<filter id="filter14_f_0_15" x="39.2462" y="42.435" width="31.4753" height="13.9455" filterUnits="userSpaceOnUse" color-interpolation-filters="sRGB">
<feFlood flood-opacity="0" result="BackgroundImageFix"/>
<feBlend mode="normal" in="SourceGraphic" in2="BackgroundImageFix" result="shape"/>
<feGaussianBlur stdDeviation="1.25" result="effect1_foregroundBlur_0_15"/>
</filter>
</defs>
</svg>
