<svg preserveAspectRatio="none" width="100%" height="100%" overflow="visible" style="display: block;" viewBox="0 0 873.94 130.158" fill="none" xmlns="http://www.w3.org/2000/svg">
<g id="svg">
<g id="Vector" filter="url(#filter0_f_0_289)">
<path d="M800.372 107.15C797.99 107.15 796.243 106.037 796.085 102.064C795.767 92.0514 795.608 77.9066 795.608 62.9672C795.449 49.4581 795.132 37.2205 795.608 28.6383C795.608 26.7311 796.879 24.665 799.26 24.665C801.96 24.665 802.754 27.049 802.913 28.9561C803.548 40.3991 803.389 49.776 803.389 62.6493C803.389 70.4369 802.913 93.6407 802.754 96.8193L803.071 96.9782C804.342 95.3889 806.565 92.2103 808.153 89.5085C816.886 75.8405 831.805 44.4609 838.474 28.7268C839.903 25.2303 843.114 24.1828 845.972 24.9775C848.672 25.7721 850.39 30.3865 850.867 59.7886C851.184 74.5691 850.39 91.8869 850.39 100.951C850.39 105.275 848.802 107.309 846.103 107.15C843.562 106.991 842.927 104.65 842.927 100.475C843.404 86.9656 843.721 69.3244 843.721 54.8617C843.721 49.2992 843.949 40.1986 843.473 36.2254H843.16C841.572 39.7218 838.161 47.7857 835.974 52.4724C831.288 61.8456 827.366 70.7547 822.285 79.337C807.676 104.13 803.548 107.15 800.372 107.15Z" fill="var(--fill-0, #F645F9)"/>
<path d="M800.372 107.15C797.99 107.15 796.243 106.037 796.085 102.064C795.767 92.0514 795.608 77.9066 795.608 62.9672C795.449 49.4581 795.132 37.2205 795.608 28.6383C795.608 26.7311 796.879 24.665 799.26 24.665C801.96 24.665 802.754 27.049 802.913 28.9561C803.548 40.3991 803.389 49.776 803.389 62.6493C803.389 70.4369 802.913 93.6407 802.754 96.8193L803.071 96.9782C804.342 95.3889 806.565 92.2103 808.153 89.5085C816.886 75.8405 831.805 44.4609 838.474 28.7268C839.903 25.2303 843.114 24.1828 845.972 24.9775C848.672 25.7721 850.39 30.3865 850.867 59.7886C851.184 74.5691 850.39 91.8869 850.39 100.951C850.39 105.275 848.802 107.309 846.103 107.15C843.562 106.991 842.927 104.65 842.927 100.475C843.404 86.9656 843.721 69.3244 843.721 54.8617C843.721 49.2992 843.949 40.1986 843.473 36.2254H843.16C841.572 39.7218 838.161 47.7857 835.974 52.4724C831.288 61.8456 827.366 70.7547 822.285 79.337C807.676 104.13 803.548 107.15 800.372 107.15Z" stroke="var(--stroke-0, #F645F9)" stroke-width="10"/>
</g>
<g id="Vector_2" filter="url(#filter1_f_0_289)">
<path d="M776.615 100.882C777.86 104.025 776.718 106.5 774.736 106.876C772.445 107.392 770.521 105.9 769.573 102.876C765.538 90.001 751.627 74.1646 741.187 66.3365C740.867 66.7781 732.12 77.4853 732.12 77.4853C732.436 88.7001 732.794 98.8568 732.604 103.694C732.533 105.507 730.962 106.959 728.846 106.876C726.578 106.787 725.58 105.234 725.651 103.42C725.738 89.6479 722.77 30.3405 722.696 28.3696C722.617 26.5499 724.199 24.7955 726.013 24.8668C727.978 24.944 729.593 26.2185 729.824 28.0442C730.026 30.6256 730.626 42.3057 731.156 55.7996C731.218 58.0728 731.525 65.6541 731.442 67.7702L731.896 67.788C733.327 66.0276 736.511 62.0654 738.093 60.311C746.653 50.5047 755.611 38.292 765.318 26.26C766.435 24.7901 768.575 24.2687 770.045 25.3861C771.509 26.6547 771.734 28.6315 770.762 30.2586C763.69 40.7288 753.698 52.2954 745.458 61.6601C757.846 70.0189 772.633 86.6466 776.615 100.882Z" fill="var(--fill-0, #F645F9)"/>
<path d="M776.615 100.882C777.86 104.025 776.718 106.5 774.736 106.876C772.445 107.392 770.521 105.9 769.573 102.876C765.538 90.001 751.627 74.1646 741.187 66.3365C740.867 66.7781 732.12 77.4853 732.12 77.4853C732.436 88.7001 732.794 98.8568 732.604 103.694C732.533 105.507 730.962 106.959 728.846 106.876C726.578 106.787 725.58 105.234 725.651 103.42C725.738 89.6479 722.77 30.3405 722.696 28.3696C722.617 26.5499 724.199 24.7955 726.013 24.8668C727.978 24.944 729.593 26.2185 729.824 28.0442C730.026 30.6256 730.626 42.3057 731.156 55.7996C731.218 58.0728 731.525 65.6541 731.442 67.7702L731.896 67.788C733.327 66.0276 736.511 62.0654 738.093 60.311C746.653 50.5047 755.611 38.292 765.318 26.26C766.435 24.7901 768.575 24.2687 770.045 25.3861C771.509 26.6547 771.734 28.6315 770.762 30.2586C763.69 40.7288 753.698 52.2954 745.458 61.6601C757.846 70.0189 772.633 86.6466 776.615 100.882Z" stroke="var(--stroke-0, #F645F9)" stroke-width="10"/>
</g>
<g id="Vector_3" filter="url(#filter2_f_0_289)">
<path d="M711.175 101C711.935 103.713 711.613 106.295 708.81 106.837C706.168 107.532 704.312 105.734 703.73 103.542C701.997 97.0104 699.889 88.1399 697.285 78.1862C692.586 77.9947 676.629 78.0946 672.408 78.2039C670.248 85.4624 667.108 97.1306 664.941 104.076C664.521 105.966 662.669 106.953 660.628 106.693C658.743 106.429 657.901 104.102 658.329 102.525C663.633 83.7547 676.667 37.2264 678.685 30.5978C680.58 25.2251 683.066 24.5344 685.572 24.6261C688.551 24.8622 690.949 26.8356 692.153 31.0321C697.654 50.149 711.175 101 711.175 101ZM674.122 71.8963C679.594 71.7547 690.239 71.9489 695.555 71.8112C692.1 59.2178 689.664 49.7295 686.726 39.0015C686.381 37.7578 685.683 34.9575 685.313 32.7749L685.001 32.783C684.72 34.0429 684.152 36.2498 683.727 37.9831C681.852 44.1382 679.157 54.8554 674.122 71.8963Z" fill="var(--fill-0, #F645F9)"/>
<path d="M711.175 101C711.935 103.713 711.613 106.295 708.81 106.837C706.168 107.532 704.312 105.734 703.73 103.542C701.997 97.0104 699.889 88.1399 697.285 78.1862C692.586 77.9947 676.629 78.0946 672.408 78.2039C670.248 85.4624 667.108 97.1306 664.941 104.076C664.521 105.966 662.669 106.953 660.628 106.693C658.743 106.429 657.901 104.102 658.329 102.525C663.633 83.7547 676.667 37.2264 678.685 30.5978C680.58 25.2251 683.066 24.5344 685.572 24.6261C688.551 24.8622 690.949 26.8356 692.153 31.0321C697.654 50.149 711.175 101 711.175 101ZM674.122 71.8963C679.594 71.7547 690.239 71.9489 695.555 71.8112C692.1 59.2178 689.664 49.7295 686.726 39.0015C686.381 37.7578 685.683 34.9575 685.313 32.7749L685.001 32.783C684.72 34.0429 684.152 36.2498 683.727 37.9831C681.852 44.1382 679.157 54.8554 674.122 71.8963Z" stroke="var(--stroke-0, #F645F9)" stroke-width="10"/>
</g>
<g id="Vector_4" filter="url(#filter3_f_0_289)">
<path d="M620.182 107.147C612.267 107.29 604.208 102.545 601.042 97.9435C600.035 96.5055 600.179 94.3486 601.618 93.342C603.057 92.3354 605.216 92.9106 606.367 94.061C609.821 97.6559 611.98 100.1 616.585 100.819C621.909 101.538 627.522 100.388 632.127 97.2245C636.156 94.4924 638.171 90.8974 638.891 86.5835C639.754 81.4068 637.452 75.6549 634.573 72.4913C630.112 67.4584 624.068 65.7328 620.902 65.3014C619.319 65.1576 617.016 64.87 617.016 61.9941C617.016 60.9875 617.304 59.4057 620.182 58.6867C630.832 55.9546 634.861 50.9217 633.854 41.7186C633.278 37.1171 629.68 32.947 624.788 31.509C619.319 29.9272 614.282 32.3718 610.253 35.5353C609.101 36.3981 606.655 36.8295 605.216 35.6791C604.064 34.8163 604.208 32.5156 605.216 31.0776C609.245 25.6133 619.751 23.1687 627.522 25.6133C635.005 28.0578 640.186 33.5221 640.905 40.9996C641.913 50.6341 637.452 58.3991 628.961 61.5627V61.8503C633.566 62.8569 637.595 65.0138 640.474 68.6088C644.071 73.0665 646.806 79.9688 645.798 87.7339C644.935 93.342 641.913 98.8063 636.588 102.257C631.551 105.709 625.507 107.003 620.182 107.147Z" fill="var(--fill-0, #F645F9)"/>
<path d="M620.182 107.147C612.267 107.29 604.208 102.545 601.042 97.9435C600.035 96.5055 600.179 94.3486 601.618 93.342C603.057 92.3354 605.216 92.9106 606.367 94.061C609.821 97.6559 611.98 100.1 616.585 100.819C621.909 101.538 627.522 100.388 632.127 97.2245C636.156 94.4924 638.171 90.8974 638.891 86.5835C639.754 81.4068 637.452 75.6549 634.573 72.4913C630.112 67.4584 624.068 65.7328 620.902 65.3014C619.319 65.1576 617.016 64.87 617.016 61.9941C617.016 60.9875 617.304 59.4057 620.182 58.6867C630.832 55.9546 634.861 50.9217 633.854 41.7186C633.278 37.1171 629.68 32.947 624.788 31.509C619.319 29.9272 614.282 32.3718 610.253 35.5353C609.101 36.3981 606.655 36.8295 605.216 35.6791C604.064 34.8163 604.208 32.5156 605.216 31.0776C609.245 25.6133 619.751 23.1687 627.522 25.6133C635.005 28.0578 640.186 33.5221 640.905 40.9996C641.913 50.6341 637.452 58.3991 628.961 61.5627V61.8503C633.566 62.8569 637.595 65.0138 640.474 68.6088C644.071 73.0665 646.806 79.9688 645.798 87.7339C644.935 93.342 641.913 98.8063 636.588 102.257C631.551 105.709 625.507 107.003 620.182 107.147Z" stroke="var(--stroke-0, #F645F9)" stroke-width="10"/>
</g>
<g id="Vector_5" filter="url(#filter4_f_0_289)">
<path d="M800.372 107.15C797.99 107.15 796.243 106.037 796.085 102.064C795.767 92.0514 795.608 77.9066 795.608 62.9672C795.449 49.4581 795.132 37.2205 795.608 28.6383C795.608 26.7311 796.879 24.665 799.26 24.665C801.96 24.665 802.754 27.049 802.913 28.9561C803.548 40.3991 803.389 49.776 803.389 62.6493C803.389 70.4369 802.913 93.6407 802.754 96.8193L803.071 96.9782C804.342 95.3889 806.565 92.2103 808.153 89.5085C816.886 75.8405 831.805 44.4609 838.474 28.7268C839.903 25.2303 843.114 24.1828 845.972 24.9775C848.672 25.7721 850.39 30.3865 850.867 59.7886C851.184 74.5691 850.39 91.8869 850.39 100.951C850.39 105.275 848.802 107.309 846.103 107.15C843.562 106.991 842.927 104.65 842.927 100.475C843.404 86.9656 843.721 69.3244 843.721 54.8617C843.721 49.2992 843.949 40.1986 843.473 36.2254H843.16C841.572 39.7218 838.161 47.7857 835.974 52.4724C831.288 61.8456 827.366 70.7547 822.285 79.337C807.676 104.13 803.548 107.15 800.372 107.15Z" fill="var(--fill-0, #F645F9)"/>
<path d="M800.372 107.15C797.99 107.15 796.243 106.037 796.085 102.064C795.767 92.0514 795.608 77.9066 795.608 62.9672C795.449 49.4581 795.132 37.2205 795.608 28.6383C795.608 26.7311 796.879 24.665 799.26 24.665C801.96 24.665 802.754 27.049 802.913 28.9561C803.548 40.3991 803.389 49.776 803.389 62.6493C803.389 70.4369 802.913 93.6407 802.754 96.8193L803.071 96.9782C804.342 95.3889 806.565 92.2103 808.153 89.5085C816.886 75.8405 831.805 44.4609 838.474 28.7268C839.903 25.2303 843.114 24.1828 845.972 24.9775C848.672 25.7721 850.39 30.3865 850.867 59.7886C851.184 74.5691 850.39 91.8869 850.39 100.951C850.39 105.275 848.802 107.309 846.103 107.15C843.562 106.991 842.927 104.65 842.927 100.475C843.404 86.9656 843.721 69.3244 843.721 54.8617C843.721 49.2992 843.949 40.1986 843.473 36.2254H843.16C841.572 39.7218 838.161 47.7857 835.974 52.4724C831.288 61.8456 827.366 70.7547 822.285 79.337C807.676 104.13 803.548 107.15 800.372 107.15Z" stroke="var(--stroke-0, #F645F9)" stroke-width="10"/>
</g>
<g id="Vector_6" filter="url(#filter5_f_0_289)">
<path d="M776.615 100.882C777.86 104.025 776.718 106.5 774.736 106.876C772.445 107.392 770.521 105.9 769.573 102.876C765.538 90.001 751.627 74.1646 741.187 66.3365C740.867 66.7781 732.12 77.4853 732.12 77.4853C732.436 88.7001 732.794 98.8568 732.604 103.694C732.533 105.507 730.962 106.959 728.846 106.876C726.578 106.787 725.58 105.234 725.651 103.42C725.738 89.6479 722.77 30.3405 722.696 28.3696C722.617 26.5499 724.199 24.7955 726.013 24.8668C727.978 24.944 729.593 26.2185 729.824 28.0442C730.026 30.6256 730.626 42.3057 731.156 55.7996C731.218 58.0728 731.525 65.6541 731.442 67.7702L731.896 67.788C733.327 66.0276 736.511 62.0654 738.093 60.311C746.653 50.5047 755.611 38.292 765.318 26.26C766.435 24.7901 768.575 24.2687 770.045 25.3861C771.509 26.6547 771.734 28.6315 770.762 30.2586C763.69 40.7288 753.698 52.2954 745.458 61.6601C757.846 70.0189 772.633 86.6466 776.615 100.882Z" fill="var(--fill-0, #F645F9)"/>
<path d="M776.615 100.882C777.86 104.025 776.718 106.5 774.736 106.876C772.445 107.392 770.521 105.9 769.573 102.876C765.538 90.001 751.627 74.1646 741.187 66.3365C740.867 66.7781 732.12 77.4853 732.12 77.4853C732.436 88.7001 732.794 98.8568 732.604 103.694C732.533 105.507 730.962 106.959 728.846 106.876C726.578 106.787 725.58 105.234 725.651 103.42C725.738 89.6479 722.77 30.3405 722.696 28.3696C722.617 26.5499 724.199 24.7955 726.013 24.8668C727.978 24.944 729.593 26.2185 729.824 28.0442C730.026 30.6256 730.626 42.3057 731.156 55.7996C731.218 58.0728 731.525 65.6541 731.442 67.7702L731.896 67.788C733.327 66.0276 736.511 62.0654 738.093 60.311C746.653 50.5047 755.611 38.292 765.318 26.26C766.435 24.7901 768.575 24.2687 770.045 25.3861C771.509 26.6547 771.734 28.6315 770.762 30.2586C763.69 40.7288 753.698 52.2954 745.458 61.6601C757.846 70.0189 772.633 86.6466 776.615 100.882Z" stroke="var(--stroke-0, #F645F9)" stroke-width="10"/>
</g>
<g id="Vector_7" filter="url(#filter6_f_0_289)">
<path d="M711.175 101C711.935 103.713 711.613 106.295 708.81 106.837C706.168 107.532 704.312 105.734 703.73 103.542C701.997 97.0104 699.889 88.1399 697.285 78.1862C692.586 77.9947 676.629 78.0946 672.408 78.2039C670.248 85.4624 667.108 97.1306 664.941 104.076C664.521 105.966 662.669 106.953 660.628 106.693C658.743 106.429 657.901 104.102 658.329 102.525C663.633 83.7547 676.667 37.2264 678.685 30.5978C680.58 25.2251 683.066 24.5344 685.572 24.6261C688.551 24.8622 690.949 26.8356 692.153 31.0321C697.654 50.149 711.175 101 711.175 101ZM674.122 71.8963C679.594 71.7547 690.239 71.9489 695.555 71.8112C692.1 59.2178 689.664 49.7295 686.726 39.0015C686.381 37.7578 685.683 34.9575 685.313 32.7749L685.001 32.783C684.72 34.0429 684.152 36.2498 683.727 37.9831C681.852 44.1382 679.157 54.8554 674.122 71.8963Z" fill="var(--fill-0, #F645F9)"/>
<path d="M711.175 101C711.935 103.713 711.613 106.295 708.81 106.837C706.168 107.532 704.312 105.734 703.73 103.542C701.997 97.0104 699.889 88.1399 697.285 78.1862C692.586 77.9947 676.629 78.0946 672.408 78.2039C670.248 85.4624 667.108 97.1306 664.941 104.076C664.521 105.966 662.669 106.953 660.628 106.693C658.743 106.429 657.901 104.102 658.329 102.525C663.633 83.7547 676.667 37.2264 678.685 30.5978C680.58 25.2251 683.066 24.5344 685.572 24.6261C688.551 24.8622 690.949 26.8356 692.153 31.0321C697.654 50.149 711.175 101 711.175 101ZM674.122 71.8963C679.594 71.7547 690.239 71.9489 695.555 71.8112C692.1 59.2178 689.664 49.7295 686.726 39.0015C686.381 37.7578 685.683 34.9575 685.313 32.7749L685.001 32.783C684.72 34.0429 684.152 36.2498 683.727 37.9831C681.852 44.1382 679.157 54.8554 674.122 71.8963Z" stroke="var(--stroke-0, #F645F9)" stroke-width="10"/>
</g>
<g id="Vector_8" filter="url(#filter7_f_0_289)">
<path d="M620.182 107.147C612.267 107.29 604.208 102.545 601.042 97.9435C600.035 96.5055 600.179 94.3486 601.618 93.342C603.057 92.3354 605.216 92.9106 606.367 94.061C609.821 97.6559 611.98 100.1 616.585 100.819C621.909 101.538 627.522 100.388 632.127 97.2245C636.156 94.4924 638.171 90.8974 638.891 86.5835C639.754 81.4068 637.452 75.6549 634.573 72.4913C630.112 67.4584 624.068 65.7328 620.902 65.3014C619.319 65.1576 617.016 64.87 617.016 61.9941C617.016 60.9875 617.304 59.4057 620.182 58.6867C630.832 55.9546 634.861 50.9217 633.854 41.7186C633.278 37.1171 629.68 32.947 624.788 31.509C619.319 29.9272 614.282 32.3718 610.253 35.5353C609.101 36.3981 606.655 36.8295 605.216 35.6791C604.064 34.8163 604.208 32.5156 605.216 31.0776C609.245 25.6133 619.751 23.1687 627.522 25.6133C635.005 28.0578 640.186 33.5221 640.905 40.9996C641.913 50.6341 637.452 58.3991 628.961 61.5627V61.8503C633.566 62.8569 637.595 65.0138 640.474 68.6088C644.071 73.0665 646.806 79.9688 645.798 87.7339C644.935 93.342 641.913 98.8063 636.588 102.257C631.551 105.709 625.507 107.003 620.182 107.147Z" fill="var(--fill-0, #F645F9)"/>
<path d="M620.182 107.147C612.267 107.29 604.208 102.545 601.042 97.9435C600.035 96.5055 600.179 94.3486 601.618 93.342C603.057 92.3354 605.216 92.9106 606.367 94.061C609.821 97.6559 611.98 100.1 616.585 100.819C621.909 101.538 627.522 100.388 632.127 97.2245C636.156 94.4924 638.171 90.8974 638.891 86.5835C639.754 81.4068 637.452 75.6549 634.573 72.4913C630.112 67.4584 624.068 65.7328 620.902 65.3014C619.319 65.1576 617.016 64.87 617.016 61.9941C617.016 60.9875 617.304 59.4057 620.182 58.6867C630.832 55.9546 634.861 50.9217 633.854 41.7186C633.278 37.1171 629.68 32.947 624.788 31.509C619.319 29.9272 614.282 32.3718 610.253 35.5353C609.101 36.3981 606.655 36.8295 605.216 35.6791C604.064 34.8163 604.208 32.5156 605.216 31.0776C609.245 25.6133 619.751 23.1687 627.522 25.6133C635.005 28.0578 640.186 33.5221 640.905 40.9996C641.913 50.6341 637.452 58.3991 628.961 61.5627V61.8503C633.566 62.8569 637.595 65.0138 640.474 68.6088C644.071 73.0665 646.806 79.9688 645.798 87.7339C644.935 93.342 641.913 98.8063 636.588 102.257C631.551 105.709 625.507 107.003 620.182 107.147Z" stroke="var(--stroke-0, #F645F9)" stroke-width="10"/>
</g>
<path id="Vector_9" d="M800.372 107.15C797.99 107.15 796.243 106.037 796.085 102.064C795.767 92.0514 795.608 77.9066 795.608 62.9672C795.449 49.4581 795.132 37.2205 795.608 28.6383C795.608 26.7311 796.879 24.665 799.26 24.665C801.96 24.665 802.754 27.049 802.913 28.9561C803.548 40.3991 803.389 49.776 803.389 62.6493C803.389 70.4369 802.913 93.6407 802.754 96.8193L803.071 96.9782C804.342 95.3889 806.565 92.2103 808.153 89.5085C816.886 75.8405 831.805 44.4609 838.474 28.7268C839.903 25.2303 843.114 24.1828 845.972 24.9775C848.672 25.7721 850.39 30.3865 850.867 59.7886C851.184 74.5691 850.39 91.8869 850.39 100.951C850.39 105.275 848.802 107.309 846.103 107.15C843.562 106.991 842.927 104.65 842.927 100.475C843.404 86.9656 843.721 69.3244 843.721 54.8617C843.721 49.2992 843.949 40.1986 843.473 36.2254H843.16C841.572 39.7218 838.161 47.7857 835.974 52.4724C831.288 61.8456 827.366 70.7547 822.285 79.337C807.676 104.13 803.548 107.15 800.372 107.15Z" fill="var(--fill-0, white)"/>
<path id="Vector_10" d="M776.615 100.882C777.86 104.025 776.718 106.5 774.736 106.876C772.445 107.392 770.521 105.9 769.573 102.876C765.538 90.001 751.627 74.1646 741.187 66.3365C740.867 66.7781 732.12 77.4853 732.12 77.4853C732.436 88.7001 732.794 98.8568 732.604 103.694C732.533 105.507 730.962 106.959 728.846 106.876C726.578 106.787 725.58 105.234 725.651 103.42C725.738 89.6479 722.77 30.3405 722.696 28.3696C722.617 26.5499 724.199 24.7955 726.013 24.8668C727.978 24.944 729.593 26.2185 729.824 28.0442C730.026 30.6256 730.626 42.3057 731.156 55.7996C731.218 58.0728 731.525 65.6541 731.442 67.7702L731.896 67.788C733.327 66.0276 736.511 62.0654 738.093 60.311C746.653 50.5047 755.611 38.292 765.318 26.26C766.435 24.7901 768.575 24.2687 770.045 25.3861C771.509 26.6547 771.734 28.6315 770.762 30.2586C763.69 40.7288 753.698 52.2954 745.458 61.6601C757.846 70.0189 772.633 86.6466 776.615 100.882Z" fill="var(--fill-0, white)"/>
<path id="Vector_11" d="M711.175 101C711.935 103.713 711.613 106.295 708.81 106.837C706.168 107.532 704.312 105.734 703.73 103.542C701.997 97.0104 699.889 88.1399 697.285 78.1862C692.586 77.9947 676.629 78.0946 672.408 78.2039C670.248 85.4624 667.108 97.1306 664.941 104.076C664.521 105.966 662.669 106.953 660.628 106.693C658.743 106.429 657.901 104.102 658.329 102.525C663.633 83.7547 676.667 37.2264 678.685 30.5978C680.58 25.2251 683.066 24.5344 685.572 24.6261C688.551 24.8622 690.949 26.8356 692.153 31.0321C697.654 50.149 711.175 101 711.175 101ZM674.122 71.8963C679.594 71.7547 690.239 71.9489 695.555 71.8112C692.1 59.2178 689.664 49.7295 686.726 39.0015C686.381 37.7578 685.683 34.9575 685.313 32.7749L685.001 32.783C684.72 34.0429 684.152 36.2498 683.727 37.9831C681.852 44.1382 679.157 54.8554 674.122 71.8963Z" fill="var(--fill-0, white)"/>
<path id="Vector_12" d="M620.182 107.147C612.267 107.29 604.208 102.545 601.042 97.9435C600.035 96.5055 600.179 94.3486 601.618 93.342C603.057 92.3354 605.216 92.9106 606.367 94.061C609.821 97.6559 611.98 100.1 616.585 100.819C621.909 101.538 627.522 100.388 632.127 97.2245C636.156 94.4924 638.171 90.8974 638.891 86.5835C639.754 81.4068 637.452 75.6549 634.573 72.4913C630.112 67.4584 624.068 65.7328 620.902 65.3014C619.319 65.1576 617.016 64.87 617.016 61.9941C617.016 60.9875 617.304 59.4057 620.182 58.6867C630.832 55.9546 634.861 50.9217 633.854 41.7186C633.278 37.1171 629.68 32.947 624.788 31.509C619.319 29.9272 614.282 32.3718 610.253 35.5353C609.101 36.3981 606.655 36.8295 605.216 35.6791C604.064 34.8163 604.208 32.5156 605.216 31.0776C609.245 25.6133 619.751 23.1687 627.522 25.6133C635.005 28.0578 640.186 33.5221 640.905 40.9996C641.913 50.6341 637.452 58.3991 628.961 61.5627V61.8503C633.566 62.8569 637.595 65.0138 640.474 68.6088C644.071 73.0665 646.806 79.9688 645.798 87.7339C644.935 93.342 641.913 98.8063 636.588 102.257C631.551 105.709 625.507 107.003 620.182 107.147Z" fill="var(--fill-0, white)"/>
<g id="Vector_13" filter="url(#filter8_f_0_289)">
<path d="M387.068 102.397C374.923 95.9839 367.732 82.6761 366.134 72.8957C363.737 57.8242 366.933 37.7823 384.991 26.7192C392.501 22.0695 403.048 22.0695 412.956 25.1159C423.983 28.6433 432.133 36.66 435.009 44.5164C442.04 64.8789 437.087 92.6169 411.997 103.52C404.966 106.726 393.141 105.764 387.068 102.397ZM399.533 29.4449C396.017 29.4449 391.223 30.888 388.986 32.1706C377.32 38.9047 370.768 55.0985 373.645 71.613C374.923 79.6297 380.676 91.3342 390.584 96.4649C396.497 99.6716 402.249 99.9923 407.843 97.7476C430.535 87.9671 433.731 64.2376 427.498 46.7611C425.421 40.989 418.39 34.255 409.76 31.0483C407.523 30.2466 403.848 29.4449 399.533 29.4449Z" fill="var(--fill-0, #F645F9)"/>
<path d="M387.068 102.397C374.923 95.9839 367.732 82.6761 366.134 72.8957C363.737 57.8242 366.933 37.7823 384.991 26.7192C392.501 22.0695 403.048 22.0695 412.956 25.1159C423.983 28.6433 432.133 36.66 435.009 44.5164C442.04 64.8789 437.087 92.6169 411.997 103.52C404.966 106.726 393.141 105.764 387.068 102.397ZM399.533 29.4449C396.017 29.4449 391.223 30.888 388.986 32.1706C377.32 38.9047 370.768 55.0985 373.645 71.613C374.923 79.6297 380.676 91.3342 390.584 96.4649C396.497 99.6716 402.249 99.9923 407.843 97.7476C430.535 87.9671 433.731 64.2376 427.498 46.7611C425.421 40.989 418.39 34.255 409.76 31.0483C407.523 30.2466 403.848 29.4449 399.533 29.4449Z" stroke="var(--stroke-0, #F645F9)" stroke-width="10"/>
</g>
<g id="Vector_14" filter="url(#filter9_f_0_289)">
<path d="M319.567 105.485C317.248 105.485 315.923 102.978 315.923 101.307C315.923 77.9088 313.935 41.8095 313.604 29.4421C313.438 28.6065 313.935 27.2694 314.432 26.9352C318.904 22.4228 330.996 22.0885 339.61 24.4283C352.199 28.1051 358.66 36.7957 359.157 47.826C359.488 56.1824 357.169 63.0345 352.199 68.0483C346.236 74.0649 336.297 77.0732 323.708 77.4074C324.205 86.098 324.205 94.2872 324.205 101.307C324.205 103.479 322.052 105.485 319.567 105.485ZM321.555 30.7791C321.886 38.9683 322.548 54.5111 323.377 70.5552C333.978 70.5552 341.598 67.547 346.07 63.0345C349.715 59.3578 351.04 54.5111 351.04 48.3274C351.04 37.1299 341.267 31.949 336.628 30.7791C330.665 29.275 324.039 29.6092 321.555 30.7791Z" fill="var(--fill-0, #F645F9)"/>
<path d="M319.567 105.485C317.248 105.485 315.923 102.978 315.923 101.307C315.923 77.9088 313.935 41.8095 313.604 29.4421C313.438 28.6065 313.935 27.2694 314.432 26.9352C318.904 22.4228 330.996 22.0885 339.61 24.4283C352.199 28.1051 358.66 36.7957 359.157 47.826C359.488 56.1824 357.169 63.0345 352.199 68.0483C346.236 74.0649 336.297 77.0732 323.708 77.4074C324.205 86.098 324.205 94.2872 324.205 101.307C324.205 103.479 322.052 105.485 319.567 105.485ZM321.555 30.7791C321.886 38.9683 322.548 54.5111 323.377 70.5552C333.978 70.5552 341.598 67.547 346.07 63.0345C349.715 59.3578 351.04 54.5111 351.04 48.3274C351.04 37.1299 341.267 31.949 336.628 30.7791C330.665 29.275 324.039 29.6092 321.555 30.7791Z" stroke="var(--stroke-0, #F645F9)" stroke-width="10"/>
</g>
<g id="Vector_15" filter="url(#filter10_f_0_289)">
<path d="M252.532 102.397C240.491 95.9839 233.362 82.6761 231.778 72.8957C229.401 57.8242 232.57 37.7823 250.472 26.7192C257.918 22.0695 268.374 22.0695 278.197 25.1159C289.128 28.6433 297.208 36.66 300.059 44.5164C307.03 64.8789 302.119 92.6169 277.246 103.52C270.275 106.726 258.552 105.764 252.532 102.397ZM264.889 29.4449C261.403 29.4449 256.651 30.888 254.433 32.1706C242.868 38.9047 236.372 55.0985 239.224 71.613C240.491 79.6297 246.195 91.3342 256.017 96.4649C261.879 99.6716 267.582 99.9923 273.127 97.7476C295.623 87.9671 298.792 64.2376 292.613 46.7611C290.554 40.989 283.583 34.255 275.028 31.0483C272.81 30.2466 269.166 29.4449 264.889 29.4449Z" fill="var(--fill-0, #F645F9)"/>
<path d="M252.532 102.397C240.491 95.9839 233.362 82.6761 231.778 72.8957C229.401 57.8242 232.57 37.7823 250.472 26.7192C257.918 22.0695 268.374 22.0695 278.197 25.1159C289.128 28.6433 297.208 36.66 300.059 44.5164C307.03 64.8789 302.119 92.6169 277.246 103.52C270.275 106.726 258.552 105.764 252.532 102.397ZM264.889 29.4449C261.403 29.4449 256.651 30.888 254.433 32.1706C242.868 38.9047 236.372 55.0985 239.224 71.613C240.491 79.6297 246.195 91.3342 256.017 96.4649C261.879 99.6716 267.582 99.9923 273.127 97.7476C295.623 87.9671 298.792 64.2376 292.613 46.7611C290.554 40.989 283.583 34.255 275.028 31.0483C272.81 30.2466 269.166 29.4449 264.889 29.4449Z" stroke="var(--stroke-0, #F645F9)" stroke-width="10"/>
</g>
<g id="Vector_16" filter="url(#filter11_f_0_289)">
<path d="M224.199 23C226.291 23 227.337 24.7439 227.337 26.8365C227.337 28.9291 225.419 30.673 223.327 30.673C217.748 30.673 209.379 30.673 199.965 31.1962C200.313 44.7983 200.313 83.8608 200.313 101.823C200.313 104.09 198.396 105.485 195.955 105.485C193.34 105.485 191.77 103.915 191.77 101.648C191.77 81.9426 191.77 44.7983 191.422 31.1962C182.879 31.1962 170.675 32.4169 167.536 32.4169C165.967 32.4169 164.224 30.673 164.224 28.9291C164.224 27.3597 165.444 25.267 167.536 25.0926C183.402 23.8719 211.297 23 224.199 23Z" fill="var(--fill-0, #F645F9)"/>
<path d="M224.199 23C226.291 23 227.337 24.7439 227.337 26.8365C227.337 28.9291 225.419 30.673 223.327 30.673C217.748 30.673 209.379 30.673 199.965 31.1962C200.313 44.7983 200.313 83.8608 200.313 101.823C200.313 104.09 198.396 105.485 195.955 105.485C193.34 105.485 191.77 103.915 191.77 101.648C191.77 81.9426 191.77 44.7983 191.422 31.1962C182.879 31.1962 170.675 32.4169 167.536 32.4169C165.967 32.4169 164.224 30.673 164.224 28.9291C164.224 27.3597 165.444 25.267 167.536 25.0926C183.402 23.8719 211.297 23 224.199 23Z" stroke="var(--stroke-0, #F645F9)" stroke-width="10"/>
</g>
<g id="Vector_17" filter="url(#filter12_f_0_289)">
<path d="M111.056 102.397C98.806 95.9839 91.5529 82.6761 89.9411 72.8957C87.5234 57.8242 90.747 37.7823 108.96 26.7192C116.536 22.0695 127.174 22.0695 137.167 25.1159C148.289 28.6433 156.509 36.66 159.41 44.5164C166.502 64.8789 161.505 92.6169 136.2 103.52C129.108 106.726 117.181 105.764 111.056 102.397ZM123.628 29.4449C120.082 29.4449 115.247 30.888 112.99 32.1706C101.224 38.9047 94.6153 55.0985 97.5166 71.613C98.806 79.6297 104.609 91.3342 114.602 96.4649C120.565 99.6716 126.368 99.9923 132.009 97.7476C154.897 87.9671 158.121 64.2376 151.835 46.7611C149.739 40.989 142.647 34.255 133.944 31.0483C131.687 30.2466 127.98 29.4449 123.628 29.4449Z" fill="var(--fill-0, #F645F9)"/>
<path d="M111.056 102.397C98.806 95.9839 91.5529 82.6761 89.9411 72.8957C87.5234 57.8242 90.747 37.7823 108.96 26.7192C116.536 22.0695 127.174 22.0695 137.167 25.1159C148.289 28.6433 156.509 36.66 159.41 44.5164C166.502 64.8789 161.505 92.6169 136.2 103.52C129.108 106.726 117.181 105.764 111.056 102.397ZM123.628 29.4449C120.082 29.4449 115.247 30.888 112.99 32.1706C101.224 38.9047 94.6153 55.0985 97.5166 71.613C98.806 79.6297 104.609 91.3342 114.602 96.4649C120.565 99.6716 126.368 99.9923 132.009 97.7476C154.897 87.9671 158.121 64.2376 151.835 46.7611C149.739 40.989 142.647 34.255 133.944 31.0483C131.687 30.2466 127.98 29.4449 123.628 29.4449Z" stroke="var(--stroke-0, #F645F9)" stroke-width="10"/>
</g>
<g id="Vector_18" filter="url(#filter13_f_0_289)">
<path d="M82.9751 23C85.0672 23 86.1133 24.7439 86.1133 26.8365C86.1133 28.9292 84.1955 30.673 82.1033 30.673C76.5243 30.673 68.1556 30.673 58.741 31.1962C59.0896 44.7983 59.0896 83.8608 59.0896 101.823C59.0896 104.09 57.1718 105.485 54.731 105.485C52.1158 105.485 50.5467 103.915 50.5467 101.648C50.5467 81.9426 50.5467 44.7983 50.198 31.1962C41.655 31.1962 29.4508 32.4169 26.3126 32.4169C24.7435 32.4169 23 30.673 23 28.9292C23 27.3597 24.2204 25.2671 26.3126 25.0927C42.1781 23.872 70.0735 23 82.9751 23Z" fill="var(--fill-0, #F645F9)"/>
<path d="M82.9751 23C85.0672 23 86.1133 24.7439 86.1133 26.8365C86.1133 28.9292 84.1955 30.673 82.1033 30.673C76.5243 30.673 68.1556 30.673 58.741 31.1962C59.0896 44.7983 59.0896 83.8608 59.0896 101.823C59.0896 104.09 57.1718 105.485 54.731 105.485C52.1158 105.485 50.5467 103.915 50.5467 101.648C50.5467 81.9426 50.5467 44.7983 50.198 31.1962C41.655 31.1962 29.4508 32.4169 26.3126 32.4169C24.7435 32.4169 23 30.673 23 28.9292C23 27.3597 24.2204 25.2671 26.3126 25.0927C42.1781 23.872 70.0735 23 82.9751 23Z" stroke="var(--stroke-0, #F645F9)" stroke-width="10"/>
</g>
<g id="Vector_19" filter="url(#filter14_f_0_289)">
<path d="M387.068 102.397C374.923 95.9839 367.732 82.6761 366.134 72.8957C363.737 57.8242 366.933 37.7823 384.991 26.7192C392.501 22.0695 403.048 22.0695 412.956 25.1159C423.983 28.6433 432.133 36.66 435.009 44.5164C442.04 64.8789 437.087 92.6169 411.997 103.52C404.966 106.726 393.141 105.764 387.068 102.397ZM399.533 29.4449C396.017 29.4449 391.223 30.888 388.986 32.1706C377.32 38.9047 370.768 55.0985 373.645 71.613C374.923 79.6297 380.676 91.3342 390.584 96.4649C396.497 99.6716 402.249 99.9923 407.843 97.7476C430.535 87.9671 433.731 64.2376 427.498 46.7611C425.421 40.989 418.39 34.255 409.76 31.0483C407.523 30.2466 403.848 29.4449 399.533 29.4449Z" fill="var(--fill-0, #F645F9)"/>
<path d="M387.068 102.397C374.923 95.9839 367.732 82.6761 366.134 72.8957C363.737 57.8242 366.933 37.7823 384.991 26.7192C392.501 22.0695 403.048 22.0695 412.956 25.1159C423.983 28.6433 432.133 36.66 435.009 44.5164C442.04 64.8789 437.087 92.6169 411.997 103.52C404.966 106.726 393.141 105.764 387.068 102.397ZM399.533 29.4449C396.017 29.4449 391.223 30.888 388.986 32.1706C377.32 38.9047 370.768 55.0985 373.645 71.613C374.923 79.6297 380.676 91.3342 390.584 96.4649C396.497 99.6716 402.249 99.9923 407.843 97.7476C430.535 87.9671 433.731 64.2376 427.498 46.7611C425.421 40.989 418.39 34.255 409.76 31.0483C407.523 30.2466 403.848 29.4449 399.533 29.4449Z" stroke="var(--stroke-0, #F645F9)" stroke-width="10"/>
</g>
<g id="Vector_20" filter="url(#filter15_f_0_289)">
<path d="M319.567 105.485C317.248 105.485 315.923 102.978 315.923 101.307C315.923 77.9088 313.935 41.8095 313.604 29.4421C313.438 28.6065 313.935 27.2694 314.432 26.9352C318.904 22.4228 330.996 22.0885 339.61 24.4283C352.199 28.1051 358.66 36.7957 359.157 47.826C359.488 56.1824 357.169 63.0345 352.199 68.0483C346.236 74.0649 336.297 77.0732 323.708 77.4074C324.205 86.098 324.205 94.2872 324.205 101.307C324.205 103.479 322.052 105.485 319.567 105.485ZM321.555 30.7791C321.886 38.9683 322.548 54.5111 323.377 70.5552C333.978 70.5552 341.598 67.547 346.07 63.0345C349.715 59.3578 351.04 54.5111 351.04 48.3274C351.04 37.1299 341.267 31.949 336.628 30.7791C330.665 29.275 324.039 29.6092 321.555 30.7791Z" fill="var(--fill-0, #F645F9)"/>
<path d="M319.567 105.485C317.248 105.485 315.923 102.978 315.923 101.307C315.923 77.9088 313.935 41.8095 313.604 29.4421C313.438 28.6065 313.935 27.2694 314.432 26.9352C318.904 22.4228 330.996 22.0885 339.61 24.4283C352.199 28.1051 358.66 36.7957 359.157 47.826C359.488 56.1824 357.169 63.0345 352.199 68.0483C346.236 74.0649 336.297 77.0732 323.708 77.4074C324.205 86.098 324.205 94.2872 324.205 101.307C324.205 103.479 322.052 105.485 319.567 105.485ZM321.555 30.7791C321.886 38.9683 322.548 54.5111 323.377 70.5552C333.978 70.5552 341.598 67.547 346.07 63.0345C349.715 59.3578 351.04 54.5111 351.04 48.3274C351.04 37.1299 341.267 31.949 336.628 30.7791C330.665 29.275 324.039 29.6092 321.555 30.7791Z" stroke="var(--stroke-0, #F645F9)" stroke-width="10"/>
</g>
<g id="Vector_21" filter="url(#filter16_f_0_289)">
<path d="M252.532 102.397C240.491 95.9839 233.362 82.6761 231.778 72.8957C229.401 57.8242 232.57 37.7823 250.472 26.7192C257.918 22.0695 268.374 22.0695 278.197 25.1159C289.128 28.6433 297.208 36.66 300.059 44.5164C307.03 64.8789 302.119 92.6169 277.246 103.52C270.275 106.726 258.552 105.764 252.532 102.397ZM264.889 29.4449C261.403 29.4449 256.651 30.888 254.433 32.1706C242.868 38.9047 236.372 55.0985 239.224 71.613C240.491 79.6297 246.195 91.3342 256.017 96.4649C261.879 99.6716 267.582 99.9923 273.127 97.7476C295.623 87.9671 298.792 64.2376 292.613 46.7611C290.554 40.989 283.583 34.255 275.028 31.0483C272.81 30.2466 269.166 29.4449 264.889 29.4449Z" fill="var(--fill-0, #F645F9)"/>
<path d="M252.532 102.397C240.491 95.9839 233.362 82.6761 231.778 72.8957C229.401 57.8242 232.57 37.7823 250.472 26.7192C257.918 22.0695 268.374 22.0695 278.197 25.1159C289.128 28.6433 297.208 36.66 300.059 44.5164C307.03 64.8789 302.119 92.6169 277.246 103.52C270.275 106.726 258.552 105.764 252.532 102.397ZM264.889 29.4449C261.403 29.4449 256.651 30.888 254.433 32.1706C242.868 38.9047 236.372 55.0985 239.224 71.613C240.491 79.6297 246.195 91.3342 256.017 96.4649C261.879 99.6716 267.582 99.9923 273.127 97.7476C295.623 87.9671 298.792 64.2376 292.613 46.7611C290.554 40.989 283.583 34.255 275.028 31.0483C272.81 30.2466 269.166 29.4449 264.889 29.4449Z" stroke="var(--stroke-0, #F645F9)" stroke-width="10"/>
</g>
<g id="Vector_22" filter="url(#filter17_f_0_289)">
<path d="M224.199 23C226.291 23 227.337 24.7439 227.337 26.8365C227.337 28.9291 225.419 30.673 223.327 30.673C217.748 30.673 209.379 30.673 199.965 31.1962C200.313 44.7983 200.313 83.8608 200.313 101.823C200.313 104.09 198.396 105.485 195.955 105.485C193.34 105.485 191.77 103.915 191.77 101.648C191.77 81.9426 191.77 44.7983 191.422 31.1962C182.879 31.1962 170.675 32.4169 167.536 32.4169C165.967 32.4169 164.224 30.673 164.224 28.9291C164.224 27.3597 165.444 25.267 167.536 25.0926C183.402 23.8719 211.297 23 224.199 23Z" fill="var(--fill-0, #F645F9)"/>
<path d="M224.199 23C226.291 23 227.337 24.7439 227.337 26.8365C227.337 28.9291 225.419 30.673 223.327 30.673C217.748 30.673 209.379 30.673 199.965 31.1962C200.313 44.7983 200.313 83.8608 200.313 101.823C200.313 104.09 198.396 105.485 195.955 105.485C193.34 105.485 191.77 103.915 191.77 101.648C191.77 81.9426 191.77 44.7983 191.422 31.1962C182.879 31.1962 170.675 32.4169 167.536 32.4169C165.967 32.4169 164.224 30.673 164.224 28.9291C164.224 27.3597 165.444 25.267 167.536 25.0926C183.402 23.8719 211.297 23 224.199 23Z" stroke="var(--stroke-0, #F645F9)" stroke-width="10"/>
</g>
<g id="Vector_23" filter="url(#filter18_f_0_289)">
<path d="M111.056 102.397C98.806 95.9839 91.5529 82.6761 89.9411 72.8957C87.5234 57.8242 90.747 37.7823 108.96 26.7192C116.536 22.0695 127.174 22.0695 137.167 25.1159C148.289 28.6433 156.509 36.66 159.41 44.5164C166.502 64.8789 161.505 92.6169 136.2 103.52C129.108 106.726 117.181 105.764 111.056 102.397ZM123.628 29.4449C120.082 29.4449 115.247 30.888 112.99 32.1706C101.224 38.9047 94.6153 55.0985 97.5166 71.613C98.806 79.6297 104.609 91.3342 114.602 96.4649C120.565 99.6716 126.368 99.9923 132.009 97.7476C154.897 87.9671 158.121 64.2376 151.835 46.7611C149.739 40.989 142.647 34.255 133.944 31.0483C131.687 30.2466 127.98 29.4449 123.628 29.4449Z" fill="var(--fill-0, #F645F9)"/>
<path d="M111.056 102.397C98.806 95.9839 91.5529 82.6761 89.9411 72.8957C87.5234 57.8242 90.747 37.7823 108.96 26.7192C116.536 22.0695 127.174 22.0695 137.167 25.1159C148.289 28.6433 156.509 36.66 159.41 44.5164C166.502 64.8789 161.505 92.6169 136.2 103.52C129.108 106.726 117.181 105.764 111.056 102.397ZM123.628 29.4449C120.082 29.4449 115.247 30.888 112.99 32.1706C101.224 38.9047 94.6153 55.0985 97.5166 71.613C98.806 79.6297 104.609 91.3342 114.602 96.4649C120.565 99.6716 126.368 99.9923 132.009 97.7476C154.897 87.9671 158.121 64.2376 151.835 46.7611C149.739 40.989 142.647 34.255 133.944 31.0483C131.687 30.2466 127.98 29.4449 123.628 29.4449Z" stroke="var(--stroke-0, #F645F9)" stroke-width="10"/>
</g>
<g id="Vector_24" filter="url(#filter19_f_0_289)">
<path d="M82.9751 23C85.0672 23 86.1133 24.7439 86.1133 26.8365C86.1133 28.9292 84.1955 30.673 82.1033 30.673C76.5243 30.673 68.1556 30.673 58.741 31.1962C59.0896 44.7983 59.0896 83.8608 59.0896 101.823C59.0896 104.09 57.1718 105.485 54.731 105.485C52.1158 105.485 50.5467 103.915 50.5467 101.648C50.5467 81.9426 50.5467 44.7983 50.198 31.1962C41.655 31.1962 29.4508 32.4169 26.3126 32.4169C24.7435 32.4169 23 30.673 23 28.9292C23 27.3597 24.2204 25.2671 26.3126 25.0927C42.1781 23.872 70.0735 23 82.9751 23Z" fill="var(--fill-0, #F645F9)"/>
<path d="M82.9751 23C85.0672 23 86.1133 24.7439 86.1133 26.8365C86.1133 28.9292 84.1955 30.673 82.1033 30.673C76.5243 30.673 68.1556 30.673 58.741 31.1962C59.0896 44.7983 59.0896 83.8608 59.0896 101.823C59.0896 104.09 57.1718 105.485 54.731 105.485C52.1158 105.485 50.5467 103.915 50.5467 101.648C50.5467 81.9426 50.5467 44.7983 50.198 31.1962C41.655 31.1962 29.4508 32.4169 26.3126 32.4169C24.7435 32.4169 23 30.673 23 28.9292C23 27.3597 24.2204 25.2671 26.3126 25.0927C42.1781 23.872 70.0735 23 82.9751 23Z" stroke="var(--stroke-0, #F645F9)" stroke-width="10"/>
</g>
<path id="Vector_25" d="M387.068 102.397C374.923 95.9839 367.732 82.6761 366.134 72.8957C363.737 57.8242 366.933 37.7823 384.991 26.7192C392.501 22.0695 403.048 22.0695 412.956 25.1159C423.983 28.6433 432.133 36.66 435.009 44.5164C442.04 64.8789 437.087 92.6169 411.997 103.52C404.966 106.726 393.141 105.764 387.068 102.397ZM399.533 29.4449C396.017 29.4449 391.223 30.888 388.986 32.1706C377.32 38.9047 370.768 55.0985 373.645 71.613C374.923 79.6297 380.676 91.3342 390.584 96.4649C396.497 99.6716 402.249 99.9923 407.843 97.7476C430.535 87.9671 433.731 64.2376 427.498 46.7611C425.421 40.989 418.39 34.255 409.76 31.0483C407.523 30.2466 403.848 29.4449 399.533 29.4449Z" fill="var(--fill-0, white)"/>
<path id="Vector_26" d="M319.567 105.485C317.248 105.485 315.923 102.978 315.923 101.307C315.923 77.9088 313.935 41.8095 313.604 29.4421C313.438 28.6065 313.935 27.2694 314.432 26.9352C318.904 22.4228 330.996 22.0885 339.61 24.4283C352.199 28.1051 358.66 36.7957 359.157 47.826C359.488 56.1824 357.169 63.0345 352.199 68.0483C346.236 74.0649 336.297 77.0732 323.708 77.4074C324.205 86.098 324.205 94.2872 324.205 101.307C324.205 103.479 322.052 105.485 319.567 105.485ZM321.555 30.7791C321.886 38.9683 322.548 54.5111 323.377 70.5552C333.978 70.5552 341.598 67.547 346.07 63.0345C349.715 59.3578 351.04 54.5111 351.04 48.3274C351.04 37.1299 341.267 31.949 336.628 30.7791C330.665 29.275 324.039 29.6092 321.555 30.7791Z" fill="var(--fill-0, white)"/>
<path id="Vector_27" d="M252.532 102.397C240.491 95.9839 233.362 82.6761 231.778 72.8957C229.401 57.8242 232.57 37.7823 250.472 26.7192C257.918 22.0695 268.374 22.0695 278.197 25.1159C289.128 28.6433 297.208 36.66 300.059 44.5164C307.03 64.8789 302.119 92.6169 277.246 103.52C270.275 106.726 258.552 105.764 252.532 102.397ZM264.889 29.4449C261.403 29.4449 256.651 30.888 254.433 32.1706C242.868 38.9047 236.372 55.0985 239.224 71.613C240.491 79.6297 246.195 91.3342 256.017 96.4649C261.879 99.6716 267.582 99.9923 273.127 97.7476C295.623 87.9671 298.792 64.2376 292.613 46.7611C290.554 40.989 283.583 34.255 275.028 31.0483C272.81 30.2466 269.166 29.4449 264.889 29.4449Z" fill="var(--fill-0, white)"/>
<path id="Vector_28" d="M224.199 23C226.291 23 227.337 24.7439 227.337 26.8365C227.337 28.9291 225.419 30.673 223.327 30.673C217.748 30.673 209.379 30.673 199.965 31.1962C200.313 44.7983 200.313 83.8608 200.313 101.823C200.313 104.09 198.396 105.485 195.955 105.485C193.34 105.485 191.77 103.915 191.77 101.648C191.77 81.9426 191.77 44.7983 191.422 31.1962C182.879 31.1962 170.675 32.4169 167.536 32.4169C165.967 32.4169 164.224 30.673 164.224 28.9291C164.224 27.3597 165.444 25.267 167.536 25.0926C183.402 23.8719 211.297 23 224.199 23Z" fill="var(--fill-0, white)"/>
<path id="Vector_29" d="M111.056 102.397C98.806 95.9839 91.5529 82.6761 89.9411 72.8957C87.5234 57.8242 90.747 37.7823 108.96 26.7192C116.536 22.0695 127.174 22.0695 137.167 25.1159C148.289 28.6433 156.509 36.66 159.41 44.5164C166.502 64.8789 161.505 92.6169 136.2 103.52C129.108 106.726 117.181 105.764 111.056 102.397ZM123.628 29.4449C120.082 29.4449 115.247 30.888 112.99 32.1706C101.224 38.9047 94.6153 55.0985 97.5166 71.613C98.806 79.6297 104.609 91.3342 114.602 96.4649C120.565 99.6716 126.368 99.9923 132.009 97.7476C154.897 87.9671 158.121 64.2376 151.835 46.7611C149.739 40.989 142.647 34.255 133.944 31.0483C131.687 30.2466 127.98 29.4449 123.628 29.4449Z" fill="var(--fill-0, white)"/>
<path id="Vector_30" d="M82.9751 23C85.0672 23 86.1133 24.7439 86.1133 26.8365C86.1133 28.9292 84.1955 30.673 82.1033 30.673C76.5243 30.673 68.1556 30.673 58.741 31.1962C59.0896 44.7983 59.0896 83.8608 59.0896 101.823C59.0896 104.09 57.1718 105.485 54.731 105.485C52.1158 105.485 50.5467 103.915 50.5467 101.648C50.5467 81.9426 50.5467 44.7983 50.198 31.1962C41.655 31.1962 29.4508 32.4169 26.3126 32.4169C24.7435 32.4169 23 30.673 23 28.9292C23 27.3597 24.2204 25.2671 26.3126 25.0927C42.1781 23.872 70.0735 23 82.9751 23Z" fill="var(--fill-0, white)"/>
</g>
<defs>
<filter id="filter0_f_0_289" x="772.357" y="1.66503" width="101.583" height="128.493" filterUnits="userSpaceOnUse" color-interpolation-filters="sRGB">
<feFlood flood-opacity="0" result="BackgroundImageFix"/>
<feBlend mode="normal" in="SourceGraphic" in2="BackgroundImageFix" result="shape"/>
<feGaussianBlur stdDeviation="9" result="effect1_foregroundBlur_0_289"/>
</filter>
<filter id="filter1_f_0_289" x="699.693" y="1.76581" width="100.441" height="128.211" filterUnits="userSpaceOnUse" color-interpolation-filters="sRGB">
<feFlood flood-opacity="0" result="BackgroundImageFix"/>
<feBlend mode="normal" in="SourceGraphic" in2="BackgroundImageFix" result="shape"/>
<feGaussianBlur stdDeviation="9" result="effect1_foregroundBlur_0_289"/>
</filter>
<filter id="filter2_f_0_289" x="635.22" y="1.61874" width="99.3093" height="128.37" filterUnits="userSpaceOnUse" color-interpolation-filters="sRGB">
<feFlood flood-opacity="0" result="BackgroundImageFix"/>
<feBlend mode="normal" in="SourceGraphic" in2="BackgroundImageFix" result="shape"/>
<feGaussianBlur stdDeviation="9" result="effect1_foregroundBlur_0_289"/>
</filter>
<filter id="filter3_f_0_289" x="577.403" y="1.66507" width="91.6073" height="128.485" filterUnits="userSpaceOnUse" color-interpolation-filters="sRGB">
<feFlood flood-opacity="0" result="BackgroundImageFix"/>
<feBlend mode="normal" in="SourceGraphic" in2="BackgroundImageFix" result="shape"/>
<feGaussianBlur stdDeviation="9" result="effect1_foregroundBlur_0_289"/>
</filter>
<filter id="filter4_f_0_289" x="772.357" y="1.66503" width="101.583" height="128.493" filterUnits="userSpaceOnUse" color-interpolation-filters="sRGB">
<feFlood flood-opacity="0" result="BackgroundImageFix"/>
<feBlend mode="normal" in="SourceGraphic" in2="BackgroundImageFix" result="shape"/>
<feGaussianBlur stdDeviation="9" result="effect1_foregroundBlur_0_289"/>
</filter>
<filter id="filter5_f_0_289" x="699.693" y="1.76581" width="100.441" height="128.211" filterUnits="userSpaceOnUse" color-interpolation-filters="sRGB">
<feFlood flood-opacity="0" result="BackgroundImageFix"/>
<feBlend mode="normal" in="SourceGraphic" in2="BackgroundImageFix" result="shape"/>
<feGaussianBlur stdDeviation="9" result="effect1_foregroundBlur_0_289"/>
</filter>
<filter id="filter6_f_0_289" x="635.22" y="1.61874" width="99.3093" height="128.37" filterUnits="userSpaceOnUse" color-interpolation-filters="sRGB">
<feFlood flood-opacity="0" result="BackgroundImageFix"/>
<feBlend mode="normal" in="SourceGraphic" in2="BackgroundImageFix" result="shape"/>
<feGaussianBlur stdDeviation="9" result="effect1_foregroundBlur_0_289"/>
</filter>
<filter id="filter7_f_0_289" x="577.403" y="1.66507" width="91.6073" height="128.485" filterUnits="userSpaceOnUse" color-interpolation-filters="sRGB">
<feFlood flood-opacity="0" result="BackgroundImageFix"/>
<feBlend mode="normal" in="SourceGraphic" in2="BackgroundImageFix" result="shape"/>
<feGaussianBlur stdDeviation="9" result="effect1_foregroundBlur_0_289"/>
</filter>
<filter id="filter8_f_0_289" x="342.444" y="0.0008955" width="118.456" height="128.484" filterUnits="userSpaceOnUse" color-interpolation-filters="sRGB">
<feFlood flood-opacity="0" result="BackgroundImageFix"/>
<feBlend mode="normal" in="SourceGraphic" in2="BackgroundImageFix" result="shape"/>
<feGaussianBlur stdDeviation="9" result="effect1_foregroundBlur_0_289"/>
</filter>
<filter id="filter9_f_0_289" x="290.571" y="3.95775e-05" width="91.6164" height="128.485" filterUnits="userSpaceOnUse" color-interpolation-filters="sRGB">
<feFlood flood-opacity="0" result="BackgroundImageFix"/>
<feBlend mode="normal" in="SourceGraphic" in2="BackgroundImageFix" result="shape"/>
<feGaussianBlur stdDeviation="9" result="effect1_foregroundBlur_0_289"/>
</filter>
<filter id="filter10_f_0_289" x="208.094" y="0.000928402" width="117.831" height="128.484" filterUnits="userSpaceOnUse" color-interpolation-filters="sRGB">
<feFlood flood-opacity="0" result="BackgroundImageFix"/>
<feBlend mode="normal" in="SourceGraphic" in2="BackgroundImageFix" result="shape"/>
<feGaussianBlur stdDeviation="9" result="effect1_foregroundBlur_0_289"/>
</filter>
<filter id="filter11_f_0_289" x="141.224" y="9.53674e-07" width="109.113" height="128.485" filterUnits="userSpaceOnUse" color-interpolation-filters="sRGB">
<feFlood flood-opacity="0" result="BackgroundImageFix"/>
<feBlend mode="normal" in="SourceGraphic" in2="BackgroundImageFix" result="shape"/>
<feGaussianBlur stdDeviation="9" result="effect1_foregroundBlur_0_289"/>
</filter>
<filter id="filter12_f_0_289" x="66.2451" y="0.000864029" width="119.081" height="128.484" filterUnits="userSpaceOnUse" color-interpolation-filters="sRGB">
<feFlood flood-opacity="0" result="BackgroundImageFix"/>
<feBlend mode="normal" in="SourceGraphic" in2="BackgroundImageFix" result="shape"/>
<feGaussianBlur stdDeviation="9" result="effect1_foregroundBlur_0_289"/>
</filter>
<filter id="filter13_f_0_289" x="-4.76837e-07" y="3.14713e-05" width="109.113" height="128.485" filterUnits="userSpaceOnUse" color-interpolation-filters="sRGB">
<feFlood flood-opacity="0" result="BackgroundImageFix"/>
<feBlend mode="normal" in="SourceGraphic" in2="BackgroundImageFix" result="shape"/>
<feGaussianBlur stdDeviation="9" result="effect1_foregroundBlur_0_289"/>
</filter>
<filter id="filter14_f_0_289" x="342.444" y="0.0008955" width="118.456" height="128.484" filterUnits="userSpaceOnUse" color-interpolation-filters="sRGB">
<feFlood flood-opacity="0" result="BackgroundImageFix"/>
<feBlend mode="normal" in="SourceGraphic" in2="BackgroundImageFix" result="shape"/>
<feGaussianBlur stdDeviation="9" result="effect1_foregroundBlur_0_289"/>
</filter>
<filter id="filter15_f_0_289" x="290.571" y="3.95775e-05" width="91.6164" height="128.485" filterUnits="userSpaceOnUse" color-interpolation-filters="sRGB">
<feFlood flood-opacity="0" result="BackgroundImageFix"/>
<feBlend mode="normal" in="SourceGraphic" in2="BackgroundImageFix" result="shape"/>
<feGaussianBlur stdDeviation="9" result="effect1_foregroundBlur_0_289"/>
</filter>
<filter id="filter16_f_0_289" x="208.094" y="0.000928402" width="117.831" height="128.484" filterUnits="userSpaceOnUse" color-interpolation-filters="sRGB">
<feFlood flood-opacity="0" result="BackgroundImageFix"/>
<feBlend mode="normal" in="SourceGraphic" in2="BackgroundImageFix" result="shape"/>
<feGaussianBlur stdDeviation="9" result="effect1_foregroundBlur_0_289"/>
</filter>
<filter id="filter17_f_0_289" x="141.224" y="9.53674e-07" width="109.113" height="128.485" filterUnits="userSpaceOnUse" color-interpolation-filters="sRGB">
<feFlood flood-opacity="0" result="BackgroundImageFix"/>
<feBlend mode="normal" in="SourceGraphic" in2="BackgroundImageFix" result="shape"/>
<feGaussianBlur stdDeviation="9" result="effect1_foregroundBlur_0_289"/>
</filter>
<filter id="filter18_f_0_289" x="66.2451" y="0.000864029" width="119.081" height="128.484" filterUnits="userSpaceOnUse" color-interpolation-filters="sRGB">
<feFlood flood-opacity="0" result="BackgroundImageFix"/>
<feBlend mode="normal" in="SourceGraphic" in2="BackgroundImageFix" result="shape"/>
<feGaussianBlur stdDeviation="9" result="effect1_foregroundBlur_0_289"/>
</filter>
<filter id="filter19_f_0_289" x="-4.76837e-07" y="3.14713e-05" width="109.113" height="128.485" filterUnits="userSpaceOnUse" color-interpolation-filters="sRGB">
<feFlood flood-opacity="0" result="BackgroundImageFix"/>
<feBlend mode="normal" in="SourceGraphic" in2="BackgroundImageFix" result="shape"/>
<feGaussianBlur stdDeviation="9" result="effect1_foregroundBlur_0_289"/>
</filter>
</defs>
</svg>
