<svg preserveAspectRatio="none" width="100%" height="100%" overflow="visible" style="display: block;" viewBox="0 0 198.673 166.774" fill="none" xmlns="http://www.w3.org/2000/svg">
<g id="svg">
<g id="&#209;&#130;&#208;&#181;&#208;&#187;&#209;&#140;&#209;&#134;&#208;&#181;" filter="url(#filter0_f_0_211)">
<path d="M175.172 143.273C171.402 129.933 163.628 119.928 158.787 111.68C156.177 107.233 151.102 96.1644 148.637 87.3193C147.187 83.4043 143.902 77.3729 140.262 72.0942C137.305 67.8044 134.282 65.5692 131.382 63.1041C130.511 62.3643 131.134 61.6138 131.329 59.7691M131.416 57.4491C131.443 56.921 131.488 56.43 131.545 55.9991C131.677 55.0091 131.878 54.3363 132.107 54.2591C132.955 53.9733 137.667 53.854 136.892 46.864C137.037 45.124 134.844 27.5574 133.847 26.2738C133.364 25.1621 131.933 23.6058 130.077 26.2738C127.273 31.8322 121.855 42.7474 121.377 45.704C120.657 50.1478 123.592 51.7908 123.987 52.519C124.157 52.8332 124.086 53.6352 123.874 54.5491C123.719 55.2149 123.491 55.94 123.226 56.5791M131.545 55.9991L134.862 56.5791M131.416 57.4491C131.394 57.8648 131.382 58.3035 131.382 58.7541C131.382 59.1259 131.361 59.4626 131.329 59.7691M131.416 57.4491L134.862 59.0441M131.329 59.7691L133.122 60.6391M123.874 54.5491L120.652 52.519M123.226 56.5791C123.013 57.0961 122.776 57.5568 122.537 57.8841C121.667 58.8991 120.484 57.8187 119.057 57.4491C112.387 54.8874 95.1605 51.301 79.6164 57.4491C78.5018 58.2103 76.8521 58.6198 75.7508 57.5941C75.5556 57.4123 75.379 57.0418 75.2274 56.5791M123.226 56.5791L119.782 54.5491M74.9763 54.2591L78.1664 52.374M75.2274 56.5791C74.8071 55.2958 74.5798 53.3035 74.6863 52.664C74.8313 51.794 75.4113 51.649 76.1363 51.069C76.8613 50.489 77.1513 49.619 77.1513 49.619C77.5863 48.314 77.1513 43.529 74.1063 36.2789C65.8413 12.9337 63.7146 27.7722 63.0862 32.6539L61.6362 48.459C61.4394 49.7583 61.9262 52.3579 64.2462 53.3891C65.5513 53.9691 66.4213 53.9691 67.0013 54.8391C67.062 55.0819 67.1148 55.3232 67.1607 55.5641M75.2274 56.5791L78.7464 54.6941M67.1607 55.5641L63.8112 56.5791M23.501 143.273C26.981 133.848 34.086 123.425 39.161 111.68C39.741 110.055 49.7945 88.7693 51.7762 84.4193C54.9662 75.1392 61.0562 68.0342 64.8262 65.1341C66.2763 64.0188 67.1463 63.6841 67.5813 62.3791C67.5336 61.3789 67.5173 60.4726 67.4963 59.6241C67.4787 58.9139 67.4578 58.2443 67.4125 57.5941C67.3645 56.9039 67.289 56.2356 67.1607 55.5641M67.4125 57.5941L64.2462 58.7541M67.4963 59.6241L65.8413 60.4941" stroke="var(--stroke-0, #4515F4)" stroke-width="7" stroke-linecap="round"/>
</g>
<g id="&#209;&#130;&#208;&#181;&#208;&#187;&#209;&#140;&#209;&#134;&#208;&#181;_2" filter="url(#filter1_f_0_211)">
<path d="M175.172 143.273C171.402 129.933 163.628 119.928 158.787 111.68C156.177 107.233 151.102 96.1644 148.637 87.3193C147.187 83.4043 143.902 77.3729 140.262 72.0942C137.305 67.8044 134.282 65.5692 131.382 63.1041C130.511 62.3643 131.134 61.6138 131.329 59.7691M131.416 57.4491C131.443 56.921 131.488 56.43 131.545 55.9991C131.677 55.0091 131.878 54.3363 132.107 54.2591C132.955 53.9733 137.667 53.854 136.892 46.864C137.037 45.124 134.844 27.5574 133.847 26.2738C133.364 25.1621 131.933 23.6058 130.077 26.2738C127.273 31.8322 121.855 42.7474 121.377 45.704C120.657 50.1478 123.592 51.7908 123.987 52.519C124.157 52.8332 124.086 53.6352 123.874 54.5491C123.719 55.2149 123.491 55.94 123.226 56.5791M131.545 55.9991L134.862 56.5791M131.416 57.4491C131.394 57.8648 131.382 58.3035 131.382 58.7541C131.382 59.1259 131.361 59.4626 131.329 59.7691M131.416 57.4491L134.862 59.0441M131.329 59.7691L133.122 60.6391M123.874 54.5491L120.652 52.519M123.226 56.5791C123.013 57.0961 122.776 57.5568 122.537 57.8841C121.667 58.8991 120.484 57.8187 119.057 57.4491C112.387 54.8874 95.1605 51.301 79.6164 57.4491C78.5018 58.2103 76.8521 58.6198 75.7508 57.5941C75.5556 57.4123 75.379 57.0418 75.2274 56.5791M123.226 56.5791L119.782 54.5491M74.9763 54.2591L78.1664 52.374M75.2274 56.5791C74.8071 55.2958 74.5798 53.3035 74.6863 52.664C74.8313 51.794 75.4113 51.649 76.1363 51.069C76.8613 50.489 77.1513 49.619 77.1513 49.619C77.5863 48.314 77.1513 43.529 74.1063 36.2789C65.8413 12.9337 63.7146 27.7722 63.0862 32.6539L61.6362 48.459C61.4394 49.7583 61.9262 52.3579 64.2462 53.3891C65.5513 53.9691 66.4213 53.9691 67.0013 54.8391C67.062 55.0819 67.1148 55.3232 67.1607 55.5641M75.2274 56.5791L78.7464 54.6941M67.1607 55.5641L63.8112 56.5791M23.501 143.273C26.981 133.848 34.086 123.425 39.161 111.68C39.741 110.055 49.7945 88.7693 51.7762 84.4193C54.9662 75.1392 61.0562 68.0342 64.8262 65.1341C66.2763 64.0188 67.1463 63.6841 67.5813 62.3791C67.5336 61.3789 67.5173 60.4726 67.4963 59.6241C67.4787 58.9139 67.4578 58.2443 67.4125 57.5941C67.3645 56.9039 67.289 56.2356 67.1607 55.5641M67.4125 57.5941L64.2462 58.7541M67.4963 59.6241L65.8413 60.4941" stroke="var(--stroke-0, #4515F4)" stroke-width="7" stroke-linecap="round"/>
</g>
<g id="&#209;&#130;&#208;&#181;&#208;&#187;&#209;&#140;&#209;&#134;&#208;&#181;_3" filter="url(#filter2_f_0_211)">
<path d="M175.172 143.273C171.402 129.933 163.628 119.928 158.787 111.68C156.177 107.233 151.102 96.1644 148.637 87.3193C147.187 83.4043 143.902 77.3729 140.262 72.0942C137.305 67.8044 134.282 65.5692 131.382 63.1041C130.511 62.3643 131.134 61.6138 131.329 59.7691M131.416 57.4491C131.443 56.921 131.488 56.43 131.545 55.9991C131.677 55.0091 131.878 54.3363 132.107 54.2591C132.955 53.9733 137.667 53.854 136.892 46.864C137.037 45.124 134.844 27.5574 133.847 26.2738C133.364 25.1621 131.933 23.6058 130.077 26.2738C127.273 31.8322 121.855 42.7474 121.377 45.704C120.657 50.1478 123.592 51.7908 123.987 52.519C124.157 52.8332 124.086 53.6352 123.874 54.5491C123.719 55.2149 123.491 55.94 123.226 56.5791M131.545 55.9991L134.862 56.5791M131.416 57.4491C131.394 57.8648 131.382 58.3035 131.382 58.7541C131.382 59.1259 131.361 59.4626 131.329 59.7691M131.416 57.4491L134.862 59.0441M131.329 59.7691L133.122 60.6391M123.874 54.5491L120.652 52.519M123.226 56.5791C123.013 57.0961 122.776 57.5568 122.537 57.8841C121.667 58.8991 120.484 57.8187 119.057 57.4491C112.387 54.8874 95.1605 51.301 79.6164 57.4491C78.5018 58.2103 76.8521 58.6198 75.7508 57.5941C75.5556 57.4123 75.379 57.0418 75.2274 56.5791M123.226 56.5791L119.782 54.5491M74.9763 54.2591L78.1664 52.374M75.2274 56.5791C74.8071 55.2958 74.5798 53.3035 74.6863 52.664C74.8313 51.794 75.4113 51.649 76.1363 51.069C76.8613 50.489 77.1513 49.619 77.1513 49.619C77.5863 48.314 77.1513 43.529 74.1063 36.2789C65.8413 12.9337 63.7146 27.7722 63.0862 32.6539L61.6362 48.459C61.4394 49.7583 61.9262 52.3579 64.2462 53.3891C65.5513 53.9691 66.4213 53.9691 67.0013 54.8391C67.062 55.0819 67.1148 55.3232 67.1607 55.5641M75.2274 56.5791L78.7464 54.6941M67.1607 55.5641L63.8112 56.5791M23.501 143.273C26.981 133.848 34.086 123.425 39.161 111.68C39.741 110.055 49.7945 88.7693 51.7762 84.4193C54.9662 75.1392 61.0562 68.0342 64.8262 65.1341C66.2763 64.0188 67.1463 63.6841 67.5813 62.3791C67.5336 61.3789 67.5173 60.4726 67.4963 59.6241C67.4787 58.9139 67.4578 58.2443 67.4125 57.5941C67.3645 56.9039 67.289 56.2356 67.1607 55.5641M67.4125 57.5941L64.2462 58.7541M67.4963 59.6241L65.8413 60.4941" stroke="var(--stroke-0, #4515F4)" stroke-width="7" stroke-linecap="round"/>
</g>
<g id="&#209;&#130;&#208;&#181;&#208;&#187;&#209;&#140;&#209;&#134;&#208;&#181;_4" filter="url(#filter3_f_0_211)">
<path d="M175.172 143.273C171.402 129.933 163.628 119.928 158.787 111.68C156.177 107.233 151.102 96.1644 148.637 87.3193C147.187 83.4043 143.902 77.3729 140.262 72.0942C137.305 67.8044 134.282 65.5692 131.382 63.1041C130.511 62.3643 131.134 61.6138 131.329 59.7691M131.416 57.4491C131.443 56.921 131.488 56.43 131.545 55.9991C131.677 55.0091 131.878 54.3363 132.107 54.2591C132.955 53.9733 137.667 53.854 136.892 46.864C137.037 45.124 134.844 27.5574 133.847 26.2738C133.364 25.1621 131.933 23.6058 130.077 26.2738C127.273 31.8322 121.855 42.7474 121.377 45.704C120.657 50.1478 123.592 51.7908 123.987 52.519C124.157 52.8332 124.086 53.6352 123.874 54.5491C123.719 55.2149 123.491 55.94 123.226 56.5791M131.545 55.9991L134.862 56.5791M131.416 57.4491C131.394 57.8648 131.382 58.3035 131.382 58.7541C131.382 59.1259 131.361 59.4626 131.329 59.7691M131.416 57.4491L134.862 59.0441M131.329 59.7691L133.122 60.6391M123.874 54.5491L120.652 52.519M123.226 56.5791C123.013 57.0961 122.776 57.5568 122.537 57.8841C121.667 58.8991 120.484 57.8187 119.057 57.4491C112.387 54.8874 95.1605 51.301 79.6164 57.4491C78.5018 58.2103 76.8521 58.6198 75.7508 57.5941C75.5556 57.4123 75.379 57.0418 75.2274 56.5791M123.226 56.5791L119.782 54.5491M74.9763 54.2591L78.1664 52.374M75.2274 56.5791C74.8071 55.2958 74.5798 53.3035 74.6863 52.664C74.8313 51.794 75.4113 51.649 76.1363 51.069C76.8613 50.489 77.1513 49.619 77.1513 49.619C77.5863 48.314 77.1513 43.529 74.1063 36.2789C65.8413 12.9337 63.7146 27.7722 63.0862 32.6539L61.6362 48.459C61.4394 49.7583 61.9262 52.3579 64.2462 53.3891C65.5513 53.9691 66.4213 53.9691 67.0013 54.8391C67.062 55.0819 67.1148 55.3232 67.1607 55.5641M75.2274 56.5791L78.7464 54.6941M67.1607 55.5641L63.8112 56.5791M23.501 143.273C26.981 133.848 34.086 123.425 39.161 111.68C39.741 110.055 49.7945 88.7693 51.7762 84.4193C54.9662 75.1392 61.0562 68.0342 64.8262 65.1341C66.2763 64.0188 67.1463 63.6841 67.5813 62.3791C67.5336 61.3789 67.5173 60.4726 67.4963 59.6241C67.4787 58.9139 67.4578 58.2443 67.4125 57.5941C67.3645 56.9039 67.289 56.2356 67.1607 55.5641M67.4125 57.5941L64.2462 58.7541M67.4963 59.6241L65.8413 60.4941" stroke="var(--stroke-0, #4515F4)" stroke-width="7" stroke-linecap="round"/>
</g>
<path id="&#209;&#130;&#208;&#181;&#208;&#187;&#209;&#140;&#209;&#134;&#208;&#181; &#208;&#177;&#208;&#181;&#208;&#187;" d="M175.172 143.273C171.402 129.933 163.628 119.928 158.787 111.68C156.177 107.233 151.102 96.1644 148.637 87.3193C147.187 83.4043 143.902 77.3729 140.262 72.0942C137.305 67.8044 134.282 65.5692 131.382 63.1041C130.511 62.3643 131.134 61.6138 131.329 59.7691M131.416 57.4491C131.443 56.921 131.488 56.43 131.545 55.9991C131.677 55.0091 131.878 54.3363 132.107 54.2591C132.955 53.9733 137.667 53.854 136.892 46.864C137.037 45.124 134.844 27.5574 133.847 26.2738C133.364 25.1621 131.933 23.6058 130.077 26.2738C127.273 31.8322 121.855 42.7474 121.377 45.704C120.657 50.1478 123.592 51.7908 123.987 52.519C124.157 52.8332 124.086 53.6352 123.874 54.5491C123.719 55.2149 123.491 55.94 123.226 56.5791M131.545 55.9991L134.862 56.5791M131.416 57.4491C131.394 57.8648 131.382 58.3035 131.382 58.7541C131.382 59.1259 131.361 59.4626 131.329 59.7691M131.416 57.4491L134.862 59.0441M131.329 59.7691L133.122 60.6391M123.874 54.5491L120.652 52.519M123.226 56.5791C123.013 57.0961 122.776 57.5568 122.537 57.8841C121.667 58.8991 120.484 57.8187 119.057 57.4491C112.387 54.8874 95.1605 51.301 79.6164 57.4491C78.5018 58.2103 76.8521 58.6198 75.7508 57.5941C75.5556 57.4123 75.379 57.0418 75.2274 56.5791M123.226 56.5791L119.782 54.5491M74.9763 54.2591L78.1664 52.374M75.2274 56.5791C74.8071 55.2958 74.5798 53.3035 74.6863 52.664C74.8313 51.794 75.4113 51.649 76.1363 51.069C76.8613 50.489 77.1513 49.619 77.1513 49.619C77.5863 48.314 77.1513 43.529 74.1063 36.2789C65.8413 12.9337 63.7146 27.7722 63.0862 32.6539L61.6362 48.459C61.4394 49.7583 61.9262 52.3579 64.2462 53.3891C65.5513 53.9691 66.4213 53.9691 67.0013 54.8391C67.062 55.0819 67.1148 55.3232 67.1607 55.5641M75.2274 56.5791L78.7464 54.6941M67.1607 55.5641L63.8112 56.5791M23.501 143.273C26.981 133.848 34.086 123.425 39.161 111.68C39.741 110.055 49.7945 88.7693 51.7762 84.4193C54.9662 75.1392 61.0562 68.0342 64.8262 65.1341C66.2763 64.0188 67.1463 63.6841 67.5813 62.3791C67.5336 61.3789 67.5173 60.4726 67.4963 59.6241C67.4787 58.9139 67.4578 58.2443 67.4125 57.5941C67.3645 56.9039 67.289 56.2356 67.1607 55.5641M67.4125 57.5941L64.2462 58.7541M67.4963 59.6241L65.8413 60.4941" stroke="var(--stroke-0, white)" stroke-width="4" stroke-linecap="round"/>
<g id="&#208;&#191;&#209;&#131;&#208;&#183;&#208;&#190;" filter="url(#filter4_f_0_211)">
<path d="M153.567 145.738C147.912 130.803 130.512 113.855 100.207 113.855C69.9013 113.855 51.1962 128.628 46.4112 145.738" stroke="var(--stroke-0, #F645F9)" stroke-width="5"/>
</g>
<g id="&#208;&#191;&#209;&#131;&#208;&#183;&#208;&#190;_2" filter="url(#filter5_f_0_211)">
<path d="M153.567 145.738C147.912 130.803 130.512 113.855 100.207 113.855C69.9013 113.855 51.1962 128.628 46.4112 145.738" stroke="var(--stroke-0, #F645F9)" stroke-width="5"/>
</g>
<g id="&#208;&#191;&#209;&#131;&#208;&#183;&#208;&#190;_3" filter="url(#filter6_f_0_211)">
<path d="M153.567 145.738C147.912 130.803 130.512 113.855 100.207 113.855C69.9013 113.855 51.1962 128.628 46.4112 145.738" stroke="var(--stroke-0, #F645F9)" stroke-width="5"/>
</g>
<path id="&#208;&#191;&#209;&#131;&#208;&#183;&#208;&#190; &#208;&#177;&#208;&#181;&#208;&#187;" d="M153.567 145.738C147.912 130.803 130.512 113.855 100.207 113.855C69.9013 113.855 51.1962 128.628 46.4112 145.738" stroke="var(--stroke-0, white)" stroke-width="3" stroke-linecap="round"/>
<g id="Vector 77" filter="url(#filter7_f_0_211)">
<path d="M70.9159 95.8744L70.9159 103.124" stroke="var(--stroke-0, #4515F4)" stroke-width="3" stroke-linecap="round"/>
</g>
<g id="Vector 78" filter="url(#filter8_f_0_211)">
<path d="M83.6761 95.2944L83.6761 106.894" stroke="var(--stroke-0, #4515F4)" stroke-width="3" stroke-linecap="round"/>
</g>
<g id="Vector 82" filter="url(#filter9_f_0_211)">
<path d="M115.286 95.5844V106.604" stroke="var(--stroke-0, #4515F4)" stroke-width="3" stroke-linecap="round"/>
</g>
<g id="Vector 79" filter="url(#filter10_f_0_211)">
<path d="M99.6262 95.0042V108.054" stroke="var(--stroke-0, #4515F4)" stroke-width="3" stroke-linecap="round"/>
</g>
<g id="Vector 81" filter="url(#filter11_f_0_211)">
<path d="M128.047 96.7443V102.544" stroke="var(--stroke-0, #4515F4)" stroke-width="3" stroke-linecap="round"/>
</g>
<g id="Vector 83" filter="url(#filter12_f_0_211)">
<path d="M70.9159 95.8744L70.9159 103.124" stroke="var(--stroke-0, #4515F4)" stroke-width="3" stroke-linecap="round"/>
</g>
<g id="Vector 84" filter="url(#filter13_f_0_211)">
<path d="M83.6761 95.2944L83.6761 106.894" stroke="var(--stroke-0, #4515F4)" stroke-width="3" stroke-linecap="round"/>
</g>
<g id="Vector 85" filter="url(#filter14_f_0_211)">
<path d="M115.286 95.5844V106.604" stroke="var(--stroke-0, #4515F4)" stroke-width="3" stroke-linecap="round"/>
</g>
<g id="Vector 86" filter="url(#filter15_f_0_211)">
<path d="M99.6262 95.0042V108.054" stroke="var(--stroke-0, #4515F4)" stroke-width="3" stroke-linecap="round"/>
</g>
<g id="Vector 87" filter="url(#filter16_f_0_211)">
<path d="M128.047 96.7443V102.544" stroke="var(--stroke-0, #4515F4)" stroke-width="3" stroke-linecap="round"/>
</g>
<g id="Vector 88" filter="url(#filter17_f_0_211)">
<path d="M70.9159 95.8744L70.9159 103.124" stroke="var(--stroke-0, #4515F4)" stroke-width="3" stroke-linecap="round"/>
</g>
<g id="Vector 89" filter="url(#filter18_f_0_211)">
<path d="M83.6761 95.2944L83.6761 106.894" stroke="var(--stroke-0, #4515F4)" stroke-width="3" stroke-linecap="round"/>
</g>
<g id="Vector 90" filter="url(#filter19_f_0_211)">
<path d="M115.286 95.5844V106.604" stroke="var(--stroke-0, #4515F4)" stroke-width="3" stroke-linecap="round"/>
</g>
<g id="Vector 91" filter="url(#filter20_f_0_211)">
<path d="M99.6262 95.0042V108.054" stroke="var(--stroke-0, #4515F4)" stroke-width="3" stroke-linecap="round"/>
</g>
<g id="Vector 92" filter="url(#filter21_f_0_211)">
<path d="M128.047 96.7443V102.544" stroke="var(--stroke-0, #4515F4)" stroke-width="3" stroke-linecap="round"/>
</g>
<path id="Vector 77_2" d="M71.2064 96.1644L71.2064 102.834" stroke="var(--stroke-0, white)" stroke-width="2" stroke-linecap="round"/>
<path id="Vector 78_2" d="M83.6761 95.0042L83.6761 106.604" stroke="var(--stroke-0, white)" stroke-width="2" stroke-linecap="round"/>
<path id="Vector 82_2" d="M115.287 95.2942V106.894" stroke="var(--stroke-0, white)" stroke-width="2" stroke-linecap="round"/>
<path id="Vector 79_2" d="M99.6262 94.7145V108.345" stroke="var(--stroke-0, white)" stroke-width="2" stroke-linecap="round"/>
<path id="Vector 81_2" d="M128.047 96.4544V102.834" stroke="var(--stroke-0, white)" stroke-width="2" stroke-linecap="round"/>
<g id="&#209;&#131;&#208;&#187;&#209;&#139;&#208;&#177;&#208;&#186;&#208;&#176;" filter="url(#filter22_f_0_211)">
<path d="M62.9411 99.0643C66.8561 101.964 69.8414 102.822 74.9762 104.574C93.2463 110.809 111.042 109.351 122.972 104.984C129.705 103.003 132.616 101.14 136.181 98.8578L136.312 98.7743C137.182 98.2175 137.327 97.2297 136.022 97.0343C107.876 92.8196 79.0561 94.2158 64.5361 96.5993C62.5061 96.922 61.1825 97.7617 62.9411 99.0643Z" stroke="var(--stroke-0, #4515F4)" stroke-width="3" stroke-linecap="round"/>
</g>
<g id="&#209;&#131;&#208;&#187;&#209;&#139;&#208;&#177;&#208;&#186;&#208;&#176;_2" filter="url(#filter23_f_0_211)">
<path d="M62.9411 99.0643C66.8561 101.964 69.8414 102.822 74.9762 104.574C93.2463 110.809 111.042 109.351 122.972 104.984C129.705 103.003 132.616 101.14 136.181 98.8578L136.312 98.7743C137.182 98.2175 137.327 97.2297 136.022 97.0343C107.876 92.8196 79.0561 94.2158 64.5361 96.5993C62.5061 96.922 61.1825 97.7617 62.9411 99.0643Z" stroke="var(--stroke-0, #4515F4)" stroke-width="3" stroke-linecap="round"/>
</g>
<g id="&#209;&#131;&#208;&#187;&#209;&#139;&#208;&#177;&#208;&#186;&#208;&#176;_3" filter="url(#filter24_f_0_211)">
<path d="M62.9411 99.0643C66.8561 101.964 69.8414 102.822 74.9762 104.574C93.2463 110.809 111.042 109.351 122.972 104.984C129.705 103.003 132.616 101.14 136.181 98.8578L136.312 98.7743C137.182 98.2175 137.327 97.2297 136.022 97.0343C107.876 92.8196 79.0561 94.2158 64.5361 96.5993C62.5061 96.922 61.1825 97.7617 62.9411 99.0643Z" stroke="var(--stroke-0, #4515F4)" stroke-width="3" stroke-linecap="round"/>
</g>
<path id="&#209;&#131;&#208;&#187;&#209;&#139;&#208;&#177;&#208;&#186;&#208;&#176; &#208;&#177;&#208;&#181;&#208;&#187;" d="M62.9411 99.0643C66.8561 101.964 69.8414 102.822 74.9762 104.574C93.2463 110.809 111.042 109.351 122.972 104.984C129.705 103.003 132.616 101.14 136.181 98.8578L136.312 98.7743C137.182 98.2175 137.327 97.2297 136.022 97.0343C107.876 92.8196 79.0561 94.2158 64.5361 96.5993C62.5061 96.922 61.1825 97.7617 62.9411 99.0643Z" stroke="var(--stroke-0, white)" stroke-opacity="0.9" stroke-width="2" stroke-linecap="round"/>
<g id="Ellipse 7" filter="url(#filter25_f_0_211)">
<circle cx="72.5108" cy="80.9393" r="8.26507" stroke="var(--stroke-0, #F645F9)" stroke-opacity="0.85" stroke-width="3"/>
</g>
<g id="Ellipse 9" filter="url(#filter26_f_0_211)">
<circle cx="72.5108" cy="80.9393" r="8.26507" stroke="var(--stroke-0, #F645F9)" stroke-opacity="0.85" stroke-width="3"/>
</g>
<g id="Ellipse 10" filter="url(#filter27_f_0_211)">
<circle cx="72.5108" cy="80.9393" r="8.26507" stroke="var(--stroke-0, #F645F9)" stroke-opacity="0.85" stroke-width="3"/>
</g>
<g id="Ellipse 11" filter="url(#filter28_f_0_211)">
<circle cx="72.5108" cy="80.9393" r="8.26507" stroke="var(--stroke-0, #F645F9)" stroke-opacity="0.85" stroke-width="3"/>
</g>
<g id="Ellipse 12" filter="url(#filter29_f_0_211)">
<circle cx="72.5108" cy="80.9393" r="8.26507" stroke="var(--stroke-0, #F645F9)" stroke-opacity="0.85" stroke-width="3"/>
</g>
<circle id="&#208;&#177;&#208;&#181;&#208;&#187;&#209;&#139;&#208;&#185; &#208;&#177;&#208;&#190;&#208;&#187;&#209;&#140;&#209;&#136;&#208;&#190;&#208;&#185;" cx="72.5108" cy="80.9393" r="8.26507" stroke="var(--stroke-0, white)" stroke-width="2"/>
<g id="Ellipse" filter="url(#filter30_f_0_211)">
<circle cx="73.526" cy="81.0844" r="2.32002" stroke="var(--stroke-0, #F645F9)" stroke-opacity="0.85" stroke-width="3"/>
</g>
<g id="Ellipse_2" filter="url(#filter31_f_0_211)">
<circle cx="73.526" cy="81.0844" r="2.32002" stroke="var(--stroke-0, #F645F9)" stroke-opacity="0.85" stroke-width="3"/>
</g>
<g id="Ellipse_3" filter="url(#filter32_f_0_211)">
<circle cx="73.526" cy="81.0844" r="2.32002" stroke="var(--stroke-0, #F645F9)" stroke-opacity="0.85" stroke-width="3"/>
</g>
<g id="Ellipse_4" filter="url(#filter33_f_0_211)">
<circle cx="73.526" cy="81.0844" r="2.32002" stroke="var(--stroke-0, #F645F9)" stroke-opacity="0.85" stroke-width="3"/>
</g>
<circle id="&#208;&#177;&#208;&#181;&#208;&#187;&#209;&#139;&#208;&#185; &#208;&#188;&#208;&#176;&#208;&#187;&#209;&#139;&#208;&#185;" cx="73.526" cy="81.0844" r="2.32002" stroke="var(--stroke-0, white)" stroke-width="2"/>
<g id="Ellipse 9_2" filter="url(#filter34_f_0_211)">
<circle cx="8.26507" cy="8.26507" r="8.26507" transform="matrix(-1 0 0 1 134.427 72.6742)" stroke="var(--stroke-0, #F645F9)" stroke-opacity="0.85" stroke-width="3"/>
</g>
<g id="Ellipse 11_2" filter="url(#filter35_f_0_211)">
<circle cx="8.26507" cy="8.26507" r="8.26507" transform="matrix(-1 0 0 1 134.427 72.6742)" stroke="var(--stroke-0, #F645F9)" stroke-opacity="0.85" stroke-width="3"/>
</g>
<g id="Ellipse 12_2" filter="url(#filter36_f_0_211)">
<circle cx="8.26507" cy="8.26507" r="8.26507" transform="matrix(-1 0 0 1 134.427 72.6742)" stroke="var(--stroke-0, #F645F9)" stroke-opacity="0.85" stroke-width="3"/>
</g>
<g id="Ellipse 16" filter="url(#filter37_f_0_211)">
<circle cx="8.26507" cy="8.26507" r="8.26507" transform="matrix(-1 0 0 1 134.427 72.6742)" stroke="var(--stroke-0, #F645F9)" stroke-opacity="0.85" stroke-width="3"/>
</g>
<g id="Ellipse 17" filter="url(#filter38_f_0_211)">
<circle cx="8.26507" cy="8.26507" r="8.26507" transform="matrix(-1 0 0 1 134.427 72.6742)" stroke="var(--stroke-0, #F645F9)" stroke-opacity="0.85" stroke-width="3"/>
</g>
<circle id="&#208;&#177;&#208;&#190;&#208;&#187;&#209;&#140;&#209;&#136;&#208;&#190;&#208;&#185; &#208;&#177;&#208;&#181;&#208;&#187;&#209;&#139;&#208;&#185;" cx="8.26507" cy="8.26507" r="8.26507" transform="matrix(-1 0 0 1 134.427 72.6742)" stroke="var(--stroke-0, white)" stroke-width="2"/>
<g id="Ellipse 10_2" filter="url(#filter39_f_0_211)">
<circle cx="2.32002" cy="2.32002" r="2.32002" transform="matrix(-1 0 0 1 127.466 78.7644)" stroke="var(--stroke-0, #F645F9)" stroke-opacity="0.85" stroke-width="3"/>
</g>
<g id="Ellipse 13" filter="url(#filter40_f_0_211)">
<circle cx="2.32002" cy="2.32002" r="2.32002" transform="matrix(-1 0 0 1 127.466 78.7644)" stroke="var(--stroke-0, #F645F9)" stroke-opacity="0.85" stroke-width="3"/>
</g>
<g id="Ellipse 14" filter="url(#filter41_f_0_211)">
<circle cx="2.32002" cy="2.32002" r="2.32002" transform="matrix(-1 0 0 1 127.466 78.7644)" stroke="var(--stroke-0, #F645F9)" stroke-opacity="0.85" stroke-width="3"/>
</g>
<g id="Ellipse 15" filter="url(#filter42_f_0_211)">
<circle cx="2.32002" cy="2.32002" r="2.32002" transform="matrix(-1 0 0 1 127.466 78.7644)" stroke="var(--stroke-0, #F645F9)" stroke-opacity="0.85" stroke-width="3"/>
</g>
<circle id="&#208;&#188;&#208;&#176;&#208;&#187;&#209;&#139;&#208;&#185; &#208;&#177;&#208;&#181;&#208;&#187;&#209;&#139;&#208;&#185;" cx="2.32002" cy="2.32002" r="2.32002" transform="matrix(-1 0 0 1 127.466 78.7644)" stroke="var(--stroke-0, white)" stroke-width="2"/>
<g id="&#208;&#189;&#208;&#190;&#209;&#129;" filter="url(#filter43_f_0_211)">
<path d="M106.732 82.3895C100.584 79.4894 94.5516 80.9395 92.0865 82.3895C90.3464 83.9845 92.9565 84.2745 94.5515 84.2745C95.1315 84.2745 96.9102 84.9995 97.4515 85.5795C99.0755 87.3195 100.787 86.5945 101.512 85.5795C102.092 84.7675 103.735 84.2745 104.557 84.2745C108.037 84.4195 107.747 82.9695 106.732 82.3895Z" stroke="var(--stroke-0, #F645F9)" stroke-width="3" stroke-linecap="round"/>
</g>
<g id="&#208;&#189;&#208;&#190;&#209;&#129;_2" filter="url(#filter44_f_0_211)">
<path d="M106.732 82.3895C100.584 79.4894 94.5516 80.9395 92.0865 82.3895C90.3464 83.9845 92.9565 84.2745 94.5515 84.2745C95.1315 84.2745 96.9102 84.9995 97.4515 85.5795C99.0755 87.3195 100.787 86.5945 101.512 85.5795C102.092 84.7675 103.735 84.2745 104.557 84.2745C108.037 84.4195 107.747 82.9695 106.732 82.3895Z" stroke="var(--stroke-0, #F645F9)" stroke-width="3" stroke-linecap="round"/>
</g>
<g id="&#208;&#189;&#208;&#190;&#209;&#129;_3" filter="url(#filter45_f_0_211)">
<path d="M106.732 82.3895C100.584 79.4894 94.5516 80.9395 92.0865 82.3895C90.3464 83.9845 92.9565 84.2745 94.5515 84.2745C95.1315 84.2745 96.9102 84.9995 97.4515 85.5795C99.0755 87.3195 100.787 86.5945 101.512 85.5795C102.092 84.7675 103.735 84.2745 104.557 84.2745C108.037 84.4195 107.747 82.9695 106.732 82.3895Z" stroke="var(--stroke-0, #F645F9)" stroke-width="3" stroke-linecap="round"/>
</g>
<path id="&#208;&#189;&#208;&#190;&#209;&#129; &#208;&#177;&#208;&#181;&#208;&#187;&#209;&#139;&#208;&#185;" d="M106.732 82.3895C100.584 79.4894 94.5516 80.9395 92.0865 82.3895C90.3464 83.9845 92.9565 84.2745 94.5515 84.2745C95.1315 84.2745 96.9102 84.9995 97.4515 85.5795C99.0755 87.3195 100.787 86.5945 101.512 85.5795C102.092 84.7675 103.735 84.2745 104.557 84.2745C108.037 84.4195 107.747 82.9695 106.732 82.3895Z" stroke="var(--stroke-0, white)" stroke-width="2" stroke-linecap="round"/>
<g id="Vector 93" filter="url(#filter46_f_0_211)">
<path d="M139.502 89.2046L166.037 80.7945M142.112 93.8446C148.927 92.9263 165.08 91.2346 175.172 91.8146M143.707 98.9196L171.112 103.125" stroke="var(--stroke-0, #F645F9)" stroke-width="3" stroke-linecap="round"/>
</g>
<g id="Vector 94" filter="url(#filter47_f_0_211)">
<path d="M59.6059 89.3494L31.7657 80.5043M57.1409 93.8444L22.9206 91.3794M55.5459 99.0645L26.8357 103.125" stroke="var(--stroke-0, #F645F9)" stroke-width="3" stroke-linecap="round"/>
</g>
<g id="Vector 97" filter="url(#filter48_f_0_211)">
<path d="M139.502 89.2046L166.037 80.7945M142.112 93.8446C148.927 92.9263 165.08 91.2346 175.172 91.8146M143.707 98.9196L171.112 103.125" stroke="var(--stroke-0, #F645F9)" stroke-width="3" stroke-linecap="round"/>
</g>
<g id="Vector 98" filter="url(#filter49_f_0_211)">
<path d="M59.6059 89.3494L31.7657 80.5043M57.1409 93.8444L22.9206 91.3794M55.5459 99.0645L26.8357 103.125" stroke="var(--stroke-0, #F645F9)" stroke-width="3" stroke-linecap="round"/>
</g>
<g id="Vector 99" filter="url(#filter50_f_0_211)">
<path d="M139.502 89.2046L166.037 80.7945M142.112 93.8446C148.927 92.9263 165.08 91.2346 175.172 91.8146M143.707 98.9196L171.112 103.125" stroke="var(--stroke-0, #F645F9)" stroke-width="3" stroke-linecap="round"/>
</g>
<g id="Vector 103" filter="url(#filter51_f_0_211)">
<path d="M139.502 89.2046L166.037 80.7945M142.112 93.8446C148.927 92.9263 165.08 91.2346 175.172 91.8146M143.707 98.9196L171.112 103.125" stroke="var(--stroke-0, #F645F9)" stroke-width="3" stroke-linecap="round"/>
</g>
<g id="Vector 101" filter="url(#filter52_f_0_211)">
<path d="M59.6059 89.3494L31.7657 80.5043M57.1409 93.8444L22.9206 91.3794M55.5459 99.0645L26.8357 103.125" stroke="var(--stroke-0, #F645F9)" stroke-width="3" stroke-linecap="round"/>
</g>
<g id="Vector 102" filter="url(#filter53_f_0_211)">
<path d="M59.6059 89.3494L31.7657 80.5043M57.1409 93.8444L22.9206 91.3794M55.5459 99.0645L26.8357 103.125" stroke="var(--stroke-0, #F645F9)" stroke-width="3" stroke-linecap="round"/>
</g>
<path id="&#209;&#131;&#209;&#129;&#208;&#187;&#209;&#139; &#208;&#177;&#208;&#181;&#208;&#187; &#208;&#191;&#209;&#128;&#208;&#176;&#208;&#178;" d="M139.502 89.2046L166.037 80.7945M142.112 93.8446C148.927 92.9263 165.08 91.2346 175.172 91.8146M143.707 98.9196L171.112 103.125" stroke="var(--stroke-0, white)" stroke-width="2" stroke-linecap="round"/>
<path id="&#209;&#131;&#209;&#129;&#209;&#139; &#208;&#177;&#208;&#181;&#208;&#187; &#208;&#187;&#208;&#181;&#208;&#178;" d="M59.6059 89.3494L31.7657 80.5043M57.1409 93.8444L22.9206 91.3794M55.5459 99.0645L26.8357 103.125" stroke="var(--stroke-0, white)" stroke-width="2" stroke-linecap="round"/>
</g>
<defs>
<filter id="filter0_f_0_211" x="9.53674e-07" y="7.15256e-07" width="198.673" height="166.774" filterUnits="userSpaceOnUse" color-interpolation-filters="sRGB">
<feFlood flood-opacity="0" result="BackgroundImageFix"/>
<feBlend mode="normal" in="SourceGraphic" in2="BackgroundImageFix" result="shape"/>
<feGaussianBlur stdDeviation="10" result="effect1_foregroundBlur_0_211"/>
</filter>
<filter id="filter1_f_0_211" x="9.53674e-07" y="7.15256e-07" width="198.673" height="166.774" filterUnits="userSpaceOnUse" color-interpolation-filters="sRGB">
<feFlood flood-opacity="0" result="BackgroundImageFix"/>
<feBlend mode="normal" in="SourceGraphic" in2="BackgroundImageFix" result="shape"/>
<feGaussianBlur stdDeviation="10" result="effect1_foregroundBlur_0_211"/>
</filter>
<filter id="filter2_f_0_211" x="9.53674e-07" y="7.15256e-07" width="198.673" height="166.774" filterUnits="userSpaceOnUse" color-interpolation-filters="sRGB">
<feFlood flood-opacity="0" result="BackgroundImageFix"/>
<feBlend mode="normal" in="SourceGraphic" in2="BackgroundImageFix" result="shape"/>
<feGaussianBlur stdDeviation="10" result="effect1_foregroundBlur_0_211"/>
</filter>
<filter id="filter3_f_0_211" x="9.53674e-07" y="7.15256e-07" width="198.673" height="166.774" filterUnits="userSpaceOnUse" color-interpolation-filters="sRGB">
<feFlood flood-opacity="0" result="BackgroundImageFix"/>
<feBlend mode="normal" in="SourceGraphic" in2="BackgroundImageFix" result="shape"/>
<feGaussianBlur stdDeviation="10" result="effect1_foregroundBlur_0_211"/>
</filter>
<filter id="filter4_f_0_211" x="24.0036" y="91.3546" width="151.901" height="75.2684" filterUnits="userSpaceOnUse" color-interpolation-filters="sRGB">
<feFlood flood-opacity="0" result="BackgroundImageFix"/>
<feBlend mode="normal" in="SourceGraphic" in2="BackgroundImageFix" result="shape"/>
<feGaussianBlur stdDeviation="10" result="effect1_foregroundBlur_0_211"/>
</filter>
<filter id="filter5_f_0_211" x="24.0036" y="91.3546" width="151.901" height="75.2684" filterUnits="userSpaceOnUse" color-interpolation-filters="sRGB">
<feFlood flood-opacity="0" result="BackgroundImageFix"/>
<feBlend mode="normal" in="SourceGraphic" in2="BackgroundImageFix" result="shape"/>
<feGaussianBlur stdDeviation="10" result="effect1_foregroundBlur_0_211"/>
</filter>
<filter id="filter6_f_0_211" x="24.0036" y="91.3546" width="151.901" height="75.2684" filterUnits="userSpaceOnUse" color-interpolation-filters="sRGB">
<feFlood flood-opacity="0" result="BackgroundImageFix"/>
<feBlend mode="normal" in="SourceGraphic" in2="BackgroundImageFix" result="shape"/>
<feGaussianBlur stdDeviation="10" result="effect1_foregroundBlur_0_211"/>
</filter>
<filter id="filter7_f_0_211" x="62.4159" y="87.3744" width="17" height="24.2501" filterUnits="userSpaceOnUse" color-interpolation-filters="sRGB">
<feFlood flood-opacity="0" result="BackgroundImageFix"/>
<feBlend mode="normal" in="SourceGraphic" in2="BackgroundImageFix" result="shape"/>
<feGaussianBlur stdDeviation="3.5" result="effect1_foregroundBlur_0_211"/>
</filter>
<filter id="filter8_f_0_211" x="75.1761" y="86.7944" width="17" height="28.6001" filterUnits="userSpaceOnUse" color-interpolation-filters="sRGB">
<feFlood flood-opacity="0" result="BackgroundImageFix"/>
<feBlend mode="normal" in="SourceGraphic" in2="BackgroundImageFix" result="shape"/>
<feGaussianBlur stdDeviation="3.5" result="effect1_foregroundBlur_0_211"/>
</filter>
<filter id="filter9_f_0_211" x="106.786" y="87.0844" width="17" height="28.0201" filterUnits="userSpaceOnUse" color-interpolation-filters="sRGB">
<feFlood flood-opacity="0" result="BackgroundImageFix"/>
<feBlend mode="normal" in="SourceGraphic" in2="BackgroundImageFix" result="shape"/>
<feGaussianBlur stdDeviation="3.5" result="effect1_foregroundBlur_0_211"/>
</filter>
<filter id="filter10_f_0_211" x="91.1262" y="86.5042" width="17" height="30.0501" filterUnits="userSpaceOnUse" color-interpolation-filters="sRGB">
<feFlood flood-opacity="0" result="BackgroundImageFix"/>
<feBlend mode="normal" in="SourceGraphic" in2="BackgroundImageFix" result="shape"/>
<feGaussianBlur stdDeviation="3.5" result="effect1_foregroundBlur_0_211"/>
</filter>
<filter id="filter11_f_0_211" x="119.547" y="88.2443" width="17" height="22.8" filterUnits="userSpaceOnUse" color-interpolation-filters="sRGB">
<feFlood flood-opacity="0" result="BackgroundImageFix"/>
<feBlend mode="normal" in="SourceGraphic" in2="BackgroundImageFix" result="shape"/>
<feGaussianBlur stdDeviation="3.5" result="effect1_foregroundBlur_0_211"/>
</filter>
<filter id="filter12_f_0_211" x="62.4159" y="87.3744" width="17" height="24.2501" filterUnits="userSpaceOnUse" color-interpolation-filters="sRGB">
<feFlood flood-opacity="0" result="BackgroundImageFix"/>
<feBlend mode="normal" in="SourceGraphic" in2="BackgroundImageFix" result="shape"/>
<feGaussianBlur stdDeviation="3.5" result="effect1_foregroundBlur_0_211"/>
</filter>
<filter id="filter13_f_0_211" x="75.1761" y="86.7944" width="17" height="28.6001" filterUnits="userSpaceOnUse" color-interpolation-filters="sRGB">
<feFlood flood-opacity="0" result="BackgroundImageFix"/>
<feBlend mode="normal" in="SourceGraphic" in2="BackgroundImageFix" result="shape"/>
<feGaussianBlur stdDeviation="3.5" result="effect1_foregroundBlur_0_211"/>
</filter>
<filter id="filter14_f_0_211" x="106.786" y="87.0844" width="17" height="28.0201" filterUnits="userSpaceOnUse" color-interpolation-filters="sRGB">
<feFlood flood-opacity="0" result="BackgroundImageFix"/>
<feBlend mode="normal" in="SourceGraphic" in2="BackgroundImageFix" result="shape"/>
<feGaussianBlur stdDeviation="3.5" result="effect1_foregroundBlur_0_211"/>
</filter>
<filter id="filter15_f_0_211" x="91.1262" y="86.5042" width="17" height="30.0501" filterUnits="userSpaceOnUse" color-interpolation-filters="sRGB">
<feFlood flood-opacity="0" result="BackgroundImageFix"/>
<feBlend mode="normal" in="SourceGraphic" in2="BackgroundImageFix" result="shape"/>
<feGaussianBlur stdDeviation="3.5" result="effect1_foregroundBlur_0_211"/>
</filter>
<filter id="filter16_f_0_211" x="119.547" y="88.2443" width="17" height="22.8" filterUnits="userSpaceOnUse" color-interpolation-filters="sRGB">
<feFlood flood-opacity="0" result="BackgroundImageFix"/>
<feBlend mode="normal" in="SourceGraphic" in2="BackgroundImageFix" result="shape"/>
<feGaussianBlur stdDeviation="3.5" result="effect1_foregroundBlur_0_211"/>
</filter>
<filter id="filter17_f_0_211" x="62.4159" y="87.3744" width="17" height="24.2501" filterUnits="userSpaceOnUse" color-interpolation-filters="sRGB">
<feFlood flood-opacity="0" result="BackgroundImageFix"/>
<feBlend mode="normal" in="SourceGraphic" in2="BackgroundImageFix" result="shape"/>
<feGaussianBlur stdDeviation="3.5" result="effect1_foregroundBlur_0_211"/>
</filter>
<filter id="filter18_f_0_211" x="75.1761" y="86.7944" width="17" height="28.6001" filterUnits="userSpaceOnUse" color-interpolation-filters="sRGB">
<feFlood flood-opacity="0" result="BackgroundImageFix"/>
<feBlend mode="normal" in="SourceGraphic" in2="BackgroundImageFix" result="shape"/>
<feGaussianBlur stdDeviation="3.5" result="effect1_foregroundBlur_0_211"/>
</filter>
<filter id="filter19_f_0_211" x="106.786" y="87.0844" width="17" height="28.0201" filterUnits="userSpaceOnUse" color-interpolation-filters="sRGB">
<feFlood flood-opacity="0" result="BackgroundImageFix"/>
<feBlend mode="normal" in="SourceGraphic" in2="BackgroundImageFix" result="shape"/>
<feGaussianBlur stdDeviation="3.5" result="effect1_foregroundBlur_0_211"/>
</filter>
<filter id="filter20_f_0_211" x="91.1262" y="86.5042" width="17" height="30.0501" filterUnits="userSpaceOnUse" color-interpolation-filters="sRGB">
<feFlood flood-opacity="0" result="BackgroundImageFix"/>
<feBlend mode="normal" in="SourceGraphic" in2="BackgroundImageFix" result="shape"/>
<feGaussianBlur stdDeviation="3.5" result="effect1_foregroundBlur_0_211"/>
</filter>
<filter id="filter21_f_0_211" x="119.547" y="88.2443" width="17" height="22.8" filterUnits="userSpaceOnUse" color-interpolation-filters="sRGB">
<feFlood flood-opacity="0" result="BackgroundImageFix"/>
<feBlend mode="normal" in="SourceGraphic" in2="BackgroundImageFix" result="shape"/>
<feGaussianBlur stdDeviation="3.5" result="effect1_foregroundBlur_0_211"/>
</filter>
<filter id="filter22_f_0_211" x="50.6208" y="82.8296" width="97.8626" height="37.4349" filterUnits="userSpaceOnUse" color-interpolation-filters="sRGB">
<feFlood flood-opacity="0" result="BackgroundImageFix"/>
<feBlend mode="normal" in="SourceGraphic" in2="BackgroundImageFix" result="shape"/>
<feGaussianBlur stdDeviation="5" result="effect1_foregroundBlur_0_211"/>
</filter>
<filter id="filter23_f_0_211" x="50.6208" y="82.8296" width="97.8626" height="37.4349" filterUnits="userSpaceOnUse" color-interpolation-filters="sRGB">
<feFlood flood-opacity="0" result="BackgroundImageFix"/>
<feBlend mode="normal" in="SourceGraphic" in2="BackgroundImageFix" result="shape"/>
<feGaussianBlur stdDeviation="5" result="effect1_foregroundBlur_0_211"/>
</filter>
<filter id="filter24_f_0_211" x="50.6208" y="82.8296" width="97.8626" height="37.4349" filterUnits="userSpaceOnUse" color-interpolation-filters="sRGB">
<feFlood flood-opacity="0" result="BackgroundImageFix"/>
<feBlend mode="normal" in="SourceGraphic" in2="BackgroundImageFix" result="shape"/>
<feGaussianBlur stdDeviation="5" result="effect1_foregroundBlur_0_211"/>
</filter>
<filter id="filter25_f_0_211" x="52.7457" y="61.1742" width="39.5301" height="39.5301" filterUnits="userSpaceOnUse" color-interpolation-filters="sRGB">
<feFlood flood-opacity="0" result="BackgroundImageFix"/>
<feBlend mode="normal" in="SourceGraphic" in2="BackgroundImageFix" result="shape"/>
<feGaussianBlur stdDeviation="5" result="effect1_foregroundBlur_0_211"/>
</filter>
<filter id="filter26_f_0_211" x="52.7457" y="61.1742" width="39.5301" height="39.5301" filterUnits="userSpaceOnUse" color-interpolation-filters="sRGB">
<feFlood flood-opacity="0" result="BackgroundImageFix"/>
<feBlend mode="normal" in="SourceGraphic" in2="BackgroundImageFix" result="shape"/>
<feGaussianBlur stdDeviation="5" result="effect1_foregroundBlur_0_211"/>
</filter>
<filter id="filter27_f_0_211" x="52.7457" y="61.1742" width="39.5301" height="39.5301" filterUnits="userSpaceOnUse" color-interpolation-filters="sRGB">
<feFlood flood-opacity="0" result="BackgroundImageFix"/>
<feBlend mode="normal" in="SourceGraphic" in2="BackgroundImageFix" result="shape"/>
<feGaussianBlur stdDeviation="5" result="effect1_foregroundBlur_0_211"/>
</filter>
<filter id="filter28_f_0_211" x="52.7457" y="61.1742" width="39.5301" height="39.5301" filterUnits="userSpaceOnUse" color-interpolation-filters="sRGB">
<feFlood flood-opacity="0" result="BackgroundImageFix"/>
<feBlend mode="normal" in="SourceGraphic" in2="BackgroundImageFix" result="shape"/>
<feGaussianBlur stdDeviation="5" result="effect1_foregroundBlur_0_211"/>
</filter>
<filter id="filter29_f_0_211" x="52.7457" y="61.1742" width="39.5301" height="39.5301" filterUnits="userSpaceOnUse" color-interpolation-filters="sRGB">
<feFlood flood-opacity="0" result="BackgroundImageFix"/>
<feBlend mode="normal" in="SourceGraphic" in2="BackgroundImageFix" result="shape"/>
<feGaussianBlur stdDeviation="5" result="effect1_foregroundBlur_0_211"/>
</filter>
<filter id="filter30_f_0_211" x="62.706" y="70.2644" width="21.64" height="21.64" filterUnits="userSpaceOnUse" color-interpolation-filters="sRGB">
<feFlood flood-opacity="0" result="BackgroundImageFix"/>
<feBlend mode="normal" in="SourceGraphic" in2="BackgroundImageFix" result="shape"/>
<feGaussianBlur stdDeviation="3.5" result="effect1_foregroundBlur_0_211"/>
</filter>
<filter id="filter31_f_0_211" x="62.706" y="70.2644" width="21.64" height="21.64" filterUnits="userSpaceOnUse" color-interpolation-filters="sRGB">
<feFlood flood-opacity="0" result="BackgroundImageFix"/>
<feBlend mode="normal" in="SourceGraphic" in2="BackgroundImageFix" result="shape"/>
<feGaussianBlur stdDeviation="3.5" result="effect1_foregroundBlur_0_211"/>
</filter>
<filter id="filter32_f_0_211" x="62.706" y="70.2644" width="21.64" height="21.64" filterUnits="userSpaceOnUse" color-interpolation-filters="sRGB">
<feFlood flood-opacity="0" result="BackgroundImageFix"/>
<feBlend mode="normal" in="SourceGraphic" in2="BackgroundImageFix" result="shape"/>
<feGaussianBlur stdDeviation="3.5" result="effect1_foregroundBlur_0_211"/>
</filter>
<filter id="filter33_f_0_211" x="62.706" y="70.2644" width="21.64" height="21.64" filterUnits="userSpaceOnUse" color-interpolation-filters="sRGB">
<feFlood flood-opacity="0" result="BackgroundImageFix"/>
<feBlend mode="normal" in="SourceGraphic" in2="BackgroundImageFix" result="shape"/>
<feGaussianBlur stdDeviation="3.5" result="effect1_foregroundBlur_0_211"/>
</filter>
<filter id="filter34_f_0_211" x="106.397" y="61.1742" width="39.5301" height="39.5301" filterUnits="userSpaceOnUse" color-interpolation-filters="sRGB">
<feFlood flood-opacity="0" result="BackgroundImageFix"/>
<feBlend mode="normal" in="SourceGraphic" in2="BackgroundImageFix" result="shape"/>
<feGaussianBlur stdDeviation="5" result="effect1_foregroundBlur_0_211"/>
</filter>
<filter id="filter35_f_0_211" x="106.397" y="61.1742" width="39.5301" height="39.5301" filterUnits="userSpaceOnUse" color-interpolation-filters="sRGB">
<feFlood flood-opacity="0" result="BackgroundImageFix"/>
<feBlend mode="normal" in="SourceGraphic" in2="BackgroundImageFix" result="shape"/>
<feGaussianBlur stdDeviation="5" result="effect1_foregroundBlur_0_211"/>
</filter>
<filter id="filter36_f_0_211" x="106.397" y="61.1742" width="39.5301" height="39.5301" filterUnits="userSpaceOnUse" color-interpolation-filters="sRGB">
<feFlood flood-opacity="0" result="BackgroundImageFix"/>
<feBlend mode="normal" in="SourceGraphic" in2="BackgroundImageFix" result="shape"/>
<feGaussianBlur stdDeviation="5" result="effect1_foregroundBlur_0_211"/>
</filter>
<filter id="filter37_f_0_211" x="106.397" y="61.1742" width="39.5301" height="39.5301" filterUnits="userSpaceOnUse" color-interpolation-filters="sRGB">
<feFlood flood-opacity="0" result="BackgroundImageFix"/>
<feBlend mode="normal" in="SourceGraphic" in2="BackgroundImageFix" result="shape"/>
<feGaussianBlur stdDeviation="5" result="effect1_foregroundBlur_0_211"/>
</filter>
<filter id="filter38_f_0_211" x="106.397" y="61.1742" width="39.5301" height="39.5301" filterUnits="userSpaceOnUse" color-interpolation-filters="sRGB">
<feFlood flood-opacity="0" result="BackgroundImageFix"/>
<feBlend mode="normal" in="SourceGraphic" in2="BackgroundImageFix" result="shape"/>
<feGaussianBlur stdDeviation="5" result="effect1_foregroundBlur_0_211"/>
</filter>
<filter id="filter39_f_0_211" x="114.326" y="70.2644" width="21.64" height="21.64" filterUnits="userSpaceOnUse" color-interpolation-filters="sRGB">
<feFlood flood-opacity="0" result="BackgroundImageFix"/>
<feBlend mode="normal" in="SourceGraphic" in2="BackgroundImageFix" result="shape"/>
<feGaussianBlur stdDeviation="3.5" result="effect1_foregroundBlur_0_211"/>
</filter>
<filter id="filter40_f_0_211" x="114.326" y="70.2644" width="21.64" height="21.64" filterUnits="userSpaceOnUse" color-interpolation-filters="sRGB">
<feFlood flood-opacity="0" result="BackgroundImageFix"/>
<feBlend mode="normal" in="SourceGraphic" in2="BackgroundImageFix" result="shape"/>
<feGaussianBlur stdDeviation="3.5" result="effect1_foregroundBlur_0_211"/>
</filter>
<filter id="filter41_f_0_211" x="114.326" y="70.2644" width="21.64" height="21.64" filterUnits="userSpaceOnUse" color-interpolation-filters="sRGB">
<feFlood flood-opacity="0" result="BackgroundImageFix"/>
<feBlend mode="normal" in="SourceGraphic" in2="BackgroundImageFix" result="shape"/>
<feGaussianBlur stdDeviation="3.5" result="effect1_foregroundBlur_0_211"/>
</filter>
<filter id="filter42_f_0_211" x="114.326" y="70.2644" width="21.64" height="21.64" filterUnits="userSpaceOnUse" color-interpolation-filters="sRGB">
<feFlood flood-opacity="0" result="BackgroundImageFix"/>
<feBlend mode="normal" in="SourceGraphic" in2="BackgroundImageFix" result="shape"/>
<feGaussianBlur stdDeviation="3.5" result="effect1_foregroundBlur_0_211"/>
</filter>
<filter id="filter43_f_0_211" x="83.0104" y="72.2149" width="32.8978" height="22.9153" filterUnits="userSpaceOnUse" color-interpolation-filters="sRGB">
<feFlood flood-opacity="0" result="BackgroundImageFix"/>
<feBlend mode="normal" in="SourceGraphic" in2="BackgroundImageFix" result="shape"/>
<feGaussianBlur stdDeviation="3.5" result="effect1_foregroundBlur_0_211"/>
</filter>
<filter id="filter44_f_0_211" x="83.0104" y="72.2149" width="32.8978" height="22.9153" filterUnits="userSpaceOnUse" color-interpolation-filters="sRGB">
<feFlood flood-opacity="0" result="BackgroundImageFix"/>
<feBlend mode="normal" in="SourceGraphic" in2="BackgroundImageFix" result="shape"/>
<feGaussianBlur stdDeviation="3.5" result="effect1_foregroundBlur_0_211"/>
</filter>
<filter id="filter45_f_0_211" x="83.0104" y="72.2149" width="32.8978" height="22.9153" filterUnits="userSpaceOnUse" color-interpolation-filters="sRGB">
<feFlood flood-opacity="0" result="BackgroundImageFix"/>
<feBlend mode="normal" in="SourceGraphic" in2="BackgroundImageFix" result="shape"/>
<feGaussianBlur stdDeviation="3.5" result="effect1_foregroundBlur_0_211"/>
</filter>
<filter id="filter46_f_0_211" x="123.001" y="64.2941" width="68.6707" height="55.3308" filterUnits="userSpaceOnUse" color-interpolation-filters="sRGB">
<feFlood flood-opacity="0" result="BackgroundImageFix"/>
<feBlend mode="normal" in="SourceGraphic" in2="BackgroundImageFix" result="shape"/>
<feGaussianBlur stdDeviation="7.5" result="effect1_foregroundBlur_0_211"/>
</filter>
<filter id="filter47_f_0_211" x="6.42056" y="64.0039" width="69.6858" height="55.6208" filterUnits="userSpaceOnUse" color-interpolation-filters="sRGB">
<feFlood flood-opacity="0" result="BackgroundImageFix"/>
<feBlend mode="normal" in="SourceGraphic" in2="BackgroundImageFix" result="shape"/>
<feGaussianBlur stdDeviation="7.5" result="effect1_foregroundBlur_0_211"/>
</filter>
<filter id="filter48_f_0_211" x="123.001" y="64.2941" width="68.6707" height="55.3308" filterUnits="userSpaceOnUse" color-interpolation-filters="sRGB">
<feFlood flood-opacity="0" result="BackgroundImageFix"/>
<feBlend mode="normal" in="SourceGraphic" in2="BackgroundImageFix" result="shape"/>
<feGaussianBlur stdDeviation="7.5" result="effect1_foregroundBlur_0_211"/>
</filter>
<filter id="filter49_f_0_211" x="6.42056" y="64.0039" width="69.6858" height="55.6208" filterUnits="userSpaceOnUse" color-interpolation-filters="sRGB">
<feFlood flood-opacity="0" result="BackgroundImageFix"/>
<feBlend mode="normal" in="SourceGraphic" in2="BackgroundImageFix" result="shape"/>
<feGaussianBlur stdDeviation="7.5" result="effect1_foregroundBlur_0_211"/>
</filter>
<filter id="filter50_f_0_211" x="123.001" y="64.2941" width="68.6707" height="55.3308" filterUnits="userSpaceOnUse" color-interpolation-filters="sRGB">
<feFlood flood-opacity="0" result="BackgroundImageFix"/>
<feBlend mode="normal" in="SourceGraphic" in2="BackgroundImageFix" result="shape"/>
<feGaussianBlur stdDeviation="7.5" result="effect1_foregroundBlur_0_211"/>
</filter>
<filter id="filter51_f_0_211" x="123.001" y="64.2941" width="68.6707" height="55.3308" filterUnits="userSpaceOnUse" color-interpolation-filters="sRGB">
<feFlood flood-opacity="0" result="BackgroundImageFix"/>
<feBlend mode="normal" in="SourceGraphic" in2="BackgroundImageFix" result="shape"/>
<feGaussianBlur stdDeviation="7.5" result="effect1_foregroundBlur_0_211"/>
</filter>
<filter id="filter52_f_0_211" x="6.42056" y="64.0039" width="69.6858" height="55.6208" filterUnits="userSpaceOnUse" color-interpolation-filters="sRGB">
<feFlood flood-opacity="0" result="BackgroundImageFix"/>
<feBlend mode="normal" in="SourceGraphic" in2="BackgroundImageFix" result="shape"/>
<feGaussianBlur stdDeviation="7.5" result="effect1_foregroundBlur_0_211"/>
</filter>
<filter id="filter53_f_0_211" x="6.42056" y="64.0039" width="69.6858" height="55.6208" filterUnits="userSpaceOnUse" color-interpolation-filters="sRGB">
<feFlood flood-opacity="0" result="BackgroundImageFix"/>
<feBlend mode="normal" in="SourceGraphic" in2="BackgroundImageFix" result="shape"/>
<feGaussianBlur stdDeviation="7.5" result="effect1_foregroundBlur_0_211"/>
</filter>
</defs>
</svg>
