<svg width="46" height="38" viewBox="0 0 46 38" fill="none" xmlns="http://www.w3.org/2000/svg">
<g filter="url(#filter0_f_16_1516)">
<path d="M14.4654 11.2231V17.9613M11.2988 14.6474H17.4847M23.3759 14.1688H25.4747M16.9692 20.06C17.0796 18.845 18.6261 17.2985 19.6939 18.624C20.1848 19.1764 20.7985 19.9864 20.2094 20.686C19.5466 21.4731 17.0428 21.3488 16.9692 20.06ZM26.7266 18.8818C26.0638 19.2132 25.2538 19.5077 25.5483 20.686C25.8061 21.2015 26.6898 22.041 28.1626 21.2751C28.5676 21.0542 29.0094 20.3914 28.7885 19.6182C28.633 19.0738 27.9416 18.4399 26.7266 18.8818ZM28.6412 13.911C28.3712 13.8988 27.8533 14.0289 27.9416 14.6474C27.9539 14.8806 28.111 15.3176 28.6412 15.1997C28.8499 15.1752 29.2525 15.0304 29.1935 14.6474C29.1935 14.402 29.0831 13.911 28.6412 13.911ZM31.1082 11.5545C30.9241 11.5545 30.1141 11.665 30.1141 12.07C30.1141 12.3646 30.2613 12.9169 31.145 12.9169C31.6973 12.8432 32.0655 12.5855 32.1392 12.1805C32.1919 11.8907 31.771 11.5545 31.1082 11.5545ZM33.9434 13.911C33.5752 13.911 32.9198 14.1393 32.9492 14.6106C32.9738 14.8193 33.1701 15.3102 33.9434 15.3838C34.2625 15.3716 34.9007 15.1997 34.9007 14.6106C34.913 14.3652 34.7387 13.911 33.9434 13.911ZM30.7032 16.8567C30.4909 16.5278 29.9889 16.5106 29.6354 17.0408C29.4881 17.2985 29.6722 17.814 30.1877 18.0717C30.4454 18.219 31.145 18.6977 31.8814 18.1454C32.2866 17.8415 32.9492 17.409 32.7651 16.783C32.6178 16.5253 31.9551 16.3412 31.6237 16.9671C31.4262 17.314 31.1145 17.494 30.7032 16.8567Z" stroke="#F645F9" stroke-width="1.25" stroke-linecap="round"/>
</g>
<g filter="url(#filter1_f_16_1516)">
<path d="M10.3413 8.86653C13.3238 5.51588 17.2021 7.17279 18.1104 8.68243H28.0519C30.4968 5.29494 33.5627 6.97642 34.7901 8.24059C37.2349 10.7738 38.5536 18.9221 39.0244 22.6005C39.6136 27.2031 38.4779 29.1621 37.6621 29.7805C35.3792 31.5111 33.3418 30.296 32.5072 29.1178L28.862 23.3738C27.3008 25.4946 25.6341 24.2575 24.9958 23.3738H20.7247C19.1929 25.3768 17.239 24.4538 16.4535 23.742C13.449 30.5169 10.6359 30.7326 9.23661 30.3328C6.55608 29.567 6.69607 26.5035 6.69604 25.178C6.54273 19.394 8.47976 11.6051 10.3413 8.86653Z" stroke="#F645F9" stroke-width="3.125" stroke-linecap="round"/>
</g>
<path d="M14.4654 11.2231V17.9613M11.2988 14.6474H17.4847M23.3759 14.1688H25.4747M16.9692 20.06C17.0796 18.845 18.6261 17.2985 19.6939 18.624C20.1848 19.1764 20.7985 19.9864 20.2094 20.686C19.5466 21.4731 17.0428 21.3488 16.9692 20.06ZM26.7266 18.8818C26.0638 19.2132 25.2538 19.5077 25.5483 20.686C25.8061 21.2015 26.6898 22.041 28.1626 21.2751C28.5676 21.0542 29.0094 20.3914 28.7885 19.6182C28.633 19.0738 27.9416 18.4399 26.7266 18.8818ZM28.6412 13.911C28.3712 13.8988 27.8533 14.0289 27.9416 14.6474C27.9539 14.8806 28.111 15.3176 28.6412 15.1997C28.8499 15.1752 29.2525 15.0304 29.1935 14.6474C29.1935 14.402 29.0831 13.911 28.6412 13.911ZM31.1082 11.5545C30.9241 11.5545 30.1141 11.665 30.1141 12.07C30.1141 12.3646 30.2613 12.9169 31.145 12.9169C31.6973 12.8432 32.0655 12.5855 32.1392 12.1805C32.1919 11.8907 31.771 11.5545 31.1082 11.5545ZM33.9434 13.911C33.5752 13.911 32.9198 14.1393 32.9492 14.6106C32.9738 14.8193 33.1701 15.3102 33.9434 15.3838C34.2625 15.3716 34.9007 15.1997 34.9007 14.6106C34.913 14.3652 34.7387 13.911 33.9434 13.911ZM30.7032 16.8567C30.4909 16.5278 29.9889 16.5106 29.6354 17.0408C29.4881 17.2985 29.6722 17.814 30.1877 18.0717C30.4454 18.219 31.145 18.6977 31.8814 18.1454C32.2866 17.8415 32.9492 17.409 32.7651 16.783C32.6178 16.5253 31.9551 16.3412 31.6237 16.9671C31.4262 17.314 31.1145 17.494 30.7032 16.8567Z" stroke="white" stroke-width="0.625" stroke-linecap="round"/>
<path d="M10.3413 8.86653C13.3238 5.51588 17.2021 7.17279 18.1104 8.68243H28.0519C30.4968 5.29494 33.5627 6.97642 34.7901 8.24059C37.2349 10.7738 38.5536 18.9221 39.0244 22.6005C39.6136 27.2031 38.4779 29.1621 37.6621 29.7805C35.3792 31.5111 33.3418 30.296 32.5072 29.1178L28.862 23.3738C27.3008 25.4946 25.6341 24.2575 24.9958 23.3738H20.7247C19.1929 25.3768 17.239 24.4538 16.4535 23.742C13.449 30.5169 10.6359 30.7326 9.23661 30.3328C6.55608 29.567 6.69607 26.5035 6.69604 25.178C6.54273 19.394 8.47976 11.6051 10.3413 8.86653Z" stroke="white" stroke-width="1.25" stroke-linecap="round"/>
<defs>
<filter id="filter0_f_16_1516" x="9.61133" y="9.53564" width="26.9775" height="13.7354" filterUnits="userSpaceOnUse" color-interpolation-filters="sRGB">
<feFlood flood-opacity="0" result="BackgroundImageFix"/>
<feBlend mode="normal" in="SourceGraphic" in2="BackgroundImageFix" result="shape"/>
<feGaussianBlur stdDeviation="0.53125" result="effect1_foregroundBlur_16_1516"/>
</filter>
<filter id="filter1_f_16_1516" x="0" y="0" width="45.8735" height="37.3311" filterUnits="userSpaceOnUse" color-interpolation-filters="sRGB">
<feFlood flood-opacity="0" result="BackgroundImageFix"/>
<feBlend mode="normal" in="SourceGraphic" in2="BackgroundImageFix" result="shape"/>
<feGaussianBlur stdDeviation="2.5625" result="effect1_foregroundBlur_16_1516"/>
</filter>
</defs>
</svg>
