<svg width="380" height="68" viewBox="0 0 380 68" fill="none" xmlns="http://www.w3.org/2000/svg">
<g filter="url(#filter0_f_16_1020)">
<path d="M349.023 59.06C347.983 59.06 347.22 58.5744 347.151 56.84C347.013 52.4694 346.943 46.2949 346.943 39.7736C346.874 33.8767 346.735 28.5348 346.943 24.7885C346.943 23.956 347.498 23.0541 348.537 23.0541C349.716 23.0541 350.062 24.0948 350.132 24.9273C350.409 29.9223 350.34 34.0155 350.34 39.6349C350.34 43.0343 350.132 53.1631 350.062 54.5506L350.201 54.62C350.755 53.9262 351.726 52.5387 352.419 51.3594C356.231 45.3931 362.743 31.6953 365.655 24.8272C366.278 23.3009 367.68 22.8436 368.928 23.1905C370.106 23.5374 370.856 25.5517 371.064 38.3861C371.203 44.8381 370.856 52.3976 370.856 56.3544C370.856 58.2417 370.163 59.1294 368.985 59.06C367.876 58.9907 367.599 57.9689 367.599 56.1463C367.807 50.2493 367.945 42.5487 367.945 36.2355C367.945 33.8073 368.045 29.8348 367.837 28.1004H367.7C367.007 29.6267 365.518 33.1467 364.564 35.1925C362.518 39.2841 360.806 43.173 358.588 46.9193C352.211 57.7419 350.409 59.06 349.023 59.06Z" fill="#F645F9"/>
<path d="M349.023 59.06C347.983 59.06 347.22 58.5744 347.151 56.84C347.013 52.4694 346.943 46.2949 346.943 39.7736C346.874 33.8767 346.735 28.5348 346.943 24.7885C346.943 23.956 347.498 23.0541 348.537 23.0541C349.716 23.0541 350.062 24.0948 350.132 24.9273C350.409 29.9223 350.34 34.0155 350.34 39.6349C350.34 43.0343 350.132 53.1631 350.062 54.5506L350.201 54.62C350.755 53.9262 351.726 52.5387 352.419 51.3594C356.231 45.3931 362.743 31.6953 365.655 24.8272C366.278 23.3009 367.68 22.8436 368.928 23.1905C370.106 23.5374 370.856 25.5517 371.064 38.3861C371.203 44.8381 370.856 52.3976 370.856 56.3544C370.856 58.2417 370.163 59.1294 368.985 59.06C367.876 58.9907 367.599 57.9689 367.599 56.1463C367.807 50.2493 367.945 42.5487 367.945 36.2355C367.945 33.8073 368.045 29.8348 367.837 28.1004H367.7C367.007 29.6267 365.518 33.1467 364.564 35.1925C362.518 39.2841 360.806 43.173 358.588 46.9193C352.211 57.7419 350.409 59.06 349.023 59.06Z" stroke="#F645F9" stroke-width="3.125"/>
</g>
<g filter="url(#filter1_f_16_1020)">
<path d="M338.653 56.324C339.196 57.6962 338.698 58.7765 337.832 58.9407C336.832 59.1657 335.993 58.5145 335.579 57.1944C333.817 51.5743 327.745 44.6615 323.188 41.2444C323.048 41.4372 319.23 46.111 319.23 46.111C319.368 51.0065 319.524 55.4401 319.441 57.5514C319.41 58.3431 318.724 58.977 317.8 58.9407C316.811 58.9018 316.375 58.2239 316.406 57.4321C316.444 51.4202 315.148 25.5316 315.116 24.6713C315.081 23.8769 315.772 23.1111 316.564 23.1422C317.422 23.1759 318.127 23.7323 318.228 24.5292C318.315 25.656 318.578 30.7546 318.809 36.6449C318.836 37.6372 318.97 40.9465 318.934 41.8702L319.132 41.878C319.757 41.1096 321.146 39.38 321.837 38.6142C325.574 34.3336 329.484 29.0025 333.721 23.7504C334.209 23.1087 335.143 22.8811 335.785 23.3689C336.424 23.9227 336.522 24.7856 336.098 25.4958C333.01 30.0662 328.649 35.1153 325.052 39.2031C330.459 42.8518 336.914 50.1101 338.653 56.324Z" fill="#F645F9"/>
<path d="M338.653 56.324C339.196 57.6962 338.698 58.7765 337.832 58.9407C336.832 59.1657 335.993 58.5145 335.579 57.1944C333.817 51.5743 327.745 44.6615 323.188 41.2444C323.048 41.4372 319.23 46.111 319.23 46.111C319.368 51.0065 319.524 55.4401 319.441 57.5514C319.41 58.3431 318.724 58.977 317.8 58.9407C316.811 58.9018 316.375 58.2239 316.406 57.4321C316.444 51.4202 315.148 25.5316 315.116 24.6713C315.081 23.8769 315.772 23.1111 316.564 23.1422C317.422 23.1759 318.127 23.7323 318.228 24.5292C318.315 25.656 318.578 30.7546 318.809 36.6449C318.836 37.6372 318.97 40.9465 318.934 41.8702L319.132 41.878C319.757 41.1096 321.146 39.38 321.837 38.6142C325.574 34.3336 329.484 29.0025 333.721 23.7504C334.209 23.1087 335.143 22.8811 335.785 23.3689C336.424 23.9227 336.522 24.7856 336.098 25.4958C333.01 30.0662 328.649 35.1153 325.052 39.2031C330.459 42.8518 336.914 50.1101 338.653 56.324Z" stroke="#F645F9" stroke-width="3.125"/>
</g>
<g filter="url(#filter2_f_16_1020)">
<path d="M310.087 56.3757C310.419 57.5597 310.278 58.6868 309.055 58.9236C307.902 59.2268 307.092 58.442 306.838 57.4851C306.081 54.634 305.161 50.7619 304.024 46.417C301.973 46.3334 295.007 46.377 293.165 46.4247C292.222 49.5931 290.851 54.6865 289.905 57.7184C289.722 58.5433 288.913 58.9743 288.023 58.8607C287.2 58.7453 286.832 57.7295 287.019 57.0412C289.334 48.8477 295.024 28.5374 295.905 25.6439C296.732 23.2986 297.817 22.9971 298.911 23.0371C300.211 23.1402 301.258 24.0016 301.784 25.8334C304.185 34.1783 310.087 56.3757 310.087 56.3757ZM293.913 43.6713C296.302 43.6095 300.948 43.6943 303.269 43.6342C301.761 38.1369 300.697 33.9951 299.415 29.3122C299.264 28.7693 298.959 27.5469 298.798 26.5942L298.662 26.5978C298.539 27.1477 298.291 28.111 298.106 28.8677C297.287 31.5545 296.111 36.2327 293.913 43.6713Z" fill="#F645F9"/>
<path d="M310.087 56.3757C310.419 57.5597 310.278 58.6868 309.055 58.9236C307.902 59.2268 307.092 58.442 306.838 57.4851C306.081 54.634 305.161 50.7619 304.024 46.417C301.973 46.3334 295.007 46.377 293.165 46.4247C292.222 49.5931 290.851 54.6865 289.905 57.7184C289.722 58.5433 288.913 58.9743 288.023 58.8607C287.2 58.7453 286.832 57.7295 287.019 57.0412C289.334 48.8477 295.024 28.5374 295.905 25.6439C296.732 23.2986 297.817 22.9971 298.911 23.0371C300.211 23.1402 301.258 24.0016 301.784 25.8334C304.185 34.1783 310.087 56.3757 310.087 56.3757ZM293.913 43.6713C296.302 43.6095 300.948 43.6943 303.269 43.6342C301.761 38.1369 300.697 33.9951 299.415 29.3122C299.264 28.7693 298.959 27.5469 298.798 26.5942L298.662 26.5978C298.539 27.1477 298.291 28.111 298.106 28.8677C297.287 31.5545 296.111 36.2327 293.913 43.6713Z" stroke="#F645F9" stroke-width="3.125"/>
</g>
<g filter="url(#filter3_f_16_1020)">
<path d="M270.367 59.0586C266.912 59.1214 263.395 57.05 262.013 55.0414C261.573 54.4137 261.636 53.4721 262.264 53.0327C262.892 52.5933 263.834 52.8444 264.337 53.3466C265.844 54.9158 266.787 55.9829 268.797 56.2968C271.121 56.6106 273.571 56.1085 275.581 54.7275C277.34 53.5349 278.22 51.9656 278.534 50.0825C278.911 47.8228 277.906 45.312 276.649 43.9311C274.702 41.7341 272.064 40.9809 270.682 40.7926C269.991 40.7298 268.985 40.6043 268.985 39.3489C268.985 38.9095 269.111 38.219 270.367 37.9052C275.016 36.7125 276.775 34.5156 276.335 30.4983C276.084 28.4897 274.514 26.6693 272.378 26.0416C269.991 25.3512 267.792 26.4183 266.033 27.7992C265.53 28.1758 264.462 28.3641 263.834 27.862C263.332 27.4853 263.395 26.481 263.834 25.8533C265.593 23.4681 270.179 22.401 273.571 23.4681C276.838 24.5351 279.099 26.9204 279.413 30.1844C279.853 34.39 277.906 37.7796 274.199 39.1606V39.2861C276.21 39.7255 277.969 40.667 279.225 42.2363C280.795 44.1822 281.989 47.1951 281.549 50.5847C281.172 53.0327 279.853 55.418 277.529 56.9245C275.33 58.4309 272.692 58.9959 270.367 59.0586Z" fill="#F645F9"/>
<path d="M270.367 59.0586C266.912 59.1214 263.395 57.05 262.013 55.0414C261.573 54.4137 261.636 53.4721 262.264 53.0327C262.892 52.5933 263.834 52.8444 264.337 53.3466C265.844 54.9158 266.787 55.9829 268.797 56.2968C271.121 56.6106 273.571 56.1085 275.581 54.7275C277.34 53.5349 278.22 51.9656 278.534 50.0825C278.911 47.8228 277.906 45.312 276.649 43.9311C274.702 41.7341 272.064 40.9809 270.682 40.7926C269.991 40.7298 268.985 40.6043 268.985 39.3489C268.985 38.9095 269.111 38.219 270.367 37.9052C275.016 36.7125 276.775 34.5156 276.335 30.4983C276.084 28.4897 274.514 26.6693 272.378 26.0416C269.991 25.3512 267.792 26.4183 266.033 27.7992C265.53 28.1758 264.462 28.3641 263.834 27.862C263.332 27.4853 263.395 26.481 263.834 25.8533C265.593 23.4681 270.179 22.401 273.571 23.4681C276.838 24.5351 279.099 26.9204 279.413 30.1844C279.853 34.39 277.906 37.7796 274.199 39.1606V39.2861C276.21 39.7255 277.969 40.667 279.225 42.2363C280.795 44.1822 281.989 47.1951 281.549 50.5847C281.172 53.0327 279.853 55.418 277.529 56.9245C275.33 58.4309 272.692 58.9959 270.367 59.0586Z" stroke="#F645F9" stroke-width="3.125"/>
</g>
<g filter="url(#filter4_f_16_1020)">
<path d="M349.023 59.06C347.983 59.06 347.22 58.5744 347.151 56.84C347.013 52.4694 346.943 46.2949 346.943 39.7736C346.874 33.8767 346.735 28.5348 346.943 24.7885C346.943 23.956 347.498 23.0541 348.537 23.0541C349.716 23.0541 350.062 24.0948 350.132 24.9273C350.409 29.9223 350.34 34.0155 350.34 39.6349C350.34 43.0343 350.132 53.1631 350.062 54.5506L350.201 54.62C350.755 53.9262 351.726 52.5387 352.419 51.3594C356.231 45.3931 362.743 31.6953 365.655 24.8272C366.278 23.3009 367.68 22.8436 368.928 23.1905C370.106 23.5374 370.856 25.5517 371.064 38.3861C371.203 44.8381 370.856 52.3976 370.856 56.3544C370.856 58.2417 370.163 59.1294 368.985 59.06C367.876 58.9907 367.599 57.9689 367.599 56.1463C367.807 50.2493 367.945 42.5487 367.945 36.2355C367.945 33.8073 368.045 29.8348 367.837 28.1004H367.7C367.007 29.6267 365.518 33.1467 364.564 35.1925C362.518 39.2841 360.806 43.173 358.588 46.9193C352.211 57.7419 350.409 59.06 349.023 59.06Z" fill="#F645F9"/>
<path d="M349.023 59.06C347.983 59.06 347.22 58.5744 347.151 56.84C347.013 52.4694 346.943 46.2949 346.943 39.7736C346.874 33.8767 346.735 28.5348 346.943 24.7885C346.943 23.956 347.498 23.0541 348.537 23.0541C349.716 23.0541 350.062 24.0948 350.132 24.9273C350.409 29.9223 350.34 34.0155 350.34 39.6349C350.34 43.0343 350.132 53.1631 350.062 54.5506L350.201 54.62C350.755 53.9262 351.726 52.5387 352.419 51.3594C356.231 45.3931 362.743 31.6953 365.655 24.8272C366.278 23.3009 367.68 22.8436 368.928 23.1905C370.106 23.5374 370.856 25.5517 371.064 38.3861C371.203 44.8381 370.856 52.3976 370.856 56.3544C370.856 58.2417 370.163 59.1294 368.985 59.06C367.876 58.9907 367.599 57.9689 367.599 56.1463C367.807 50.2493 367.945 42.5487 367.945 36.2355C367.945 33.8073 368.045 29.8348 367.837 28.1004H367.7C367.007 29.6267 365.518 33.1467 364.564 35.1925C362.518 39.2841 360.806 43.173 358.588 46.9193C352.211 57.7419 350.409 59.06 349.023 59.06Z" stroke="#F645F9" stroke-width="3.125"/>
</g>
<g filter="url(#filter5_f_16_1020)">
<path d="M338.653 56.324C339.196 57.6962 338.698 58.7765 337.832 58.9407C336.832 59.1657 335.993 58.5145 335.579 57.1944C333.817 51.5743 327.745 44.6615 323.188 41.2444C323.048 41.4372 319.23 46.111 319.23 46.111C319.368 51.0065 319.524 55.4401 319.441 57.5514C319.41 58.3431 318.724 58.977 317.8 58.9407C316.811 58.9018 316.375 58.2239 316.406 57.4321C316.444 51.4202 315.148 25.5316 315.116 24.6713C315.081 23.8769 315.772 23.1111 316.564 23.1422C317.422 23.1759 318.127 23.7323 318.228 24.5292C318.315 25.656 318.578 30.7546 318.809 36.6449C318.836 37.6372 318.97 40.9465 318.934 41.8702L319.132 41.878C319.757 41.1096 321.146 39.38 321.837 38.6142C325.574 34.3336 329.484 29.0025 333.721 23.7504C334.209 23.1087 335.143 22.8811 335.785 23.3689C336.424 23.9227 336.522 24.7856 336.098 25.4958C333.01 30.0662 328.649 35.1153 325.052 39.2031C330.459 42.8518 336.914 50.1101 338.653 56.324Z" fill="#F645F9"/>
<path d="M338.653 56.324C339.196 57.6962 338.698 58.7765 337.832 58.9407C336.832 59.1657 335.993 58.5145 335.579 57.1944C333.817 51.5743 327.745 44.6615 323.188 41.2444C323.048 41.4372 319.23 46.111 319.23 46.111C319.368 51.0065 319.524 55.4401 319.441 57.5514C319.41 58.3431 318.724 58.977 317.8 58.9407C316.811 58.9018 316.375 58.2239 316.406 57.4321C316.444 51.4202 315.148 25.5316 315.116 24.6713C315.081 23.8769 315.772 23.1111 316.564 23.1422C317.422 23.1759 318.127 23.7323 318.228 24.5292C318.315 25.656 318.578 30.7546 318.809 36.6449C318.836 37.6372 318.97 40.9465 318.934 41.8702L319.132 41.878C319.757 41.1096 321.146 39.38 321.837 38.6142C325.574 34.3336 329.484 29.0025 333.721 23.7504C334.209 23.1087 335.143 22.8811 335.785 23.3689C336.424 23.9227 336.522 24.7856 336.098 25.4958C333.01 30.0662 328.649 35.1153 325.052 39.2031C330.459 42.8518 336.914 50.1101 338.653 56.324Z" stroke="#F645F9" stroke-width="3.125"/>
</g>
<g filter="url(#filter6_f_16_1020)">
<path d="M310.087 56.3757C310.419 57.5597 310.278 58.6868 309.055 58.9236C307.902 59.2268 307.092 58.442 306.838 57.4851C306.081 54.634 305.161 50.7619 304.024 46.417C301.973 46.3334 295.007 46.377 293.165 46.4247C292.222 49.5931 290.851 54.6865 289.905 57.7184C289.722 58.5433 288.913 58.9743 288.023 58.8607C287.2 58.7453 286.832 57.7295 287.019 57.0412C289.334 48.8477 295.024 28.5374 295.905 25.6439C296.732 23.2986 297.817 22.9971 298.911 23.0371C300.211 23.1402 301.258 24.0016 301.784 25.8334C304.185 34.1783 310.087 56.3757 310.087 56.3757ZM293.913 43.6713C296.302 43.6095 300.948 43.6943 303.269 43.6342C301.761 38.1369 300.697 33.9951 299.415 29.3122C299.264 28.7693 298.959 27.5469 298.798 26.5942L298.662 26.5978C298.539 27.1477 298.291 28.111 298.106 28.8677C297.287 31.5545 296.111 36.2327 293.913 43.6713Z" fill="#F645F9"/>
<path d="M310.087 56.3757C310.419 57.5597 310.278 58.6868 309.055 58.9236C307.902 59.2268 307.092 58.442 306.838 57.4851C306.081 54.634 305.161 50.7619 304.024 46.417C301.973 46.3334 295.007 46.377 293.165 46.4247C292.222 49.5931 290.851 54.6865 289.905 57.7184C289.722 58.5433 288.913 58.9743 288.023 58.8607C287.2 58.7453 286.832 57.7295 287.019 57.0412C289.334 48.8477 295.024 28.5374 295.905 25.6439C296.732 23.2986 297.817 22.9971 298.911 23.0371C300.211 23.1402 301.258 24.0016 301.784 25.8334C304.185 34.1783 310.087 56.3757 310.087 56.3757ZM293.913 43.6713C296.302 43.6095 300.948 43.6943 303.269 43.6342C301.761 38.1369 300.697 33.9951 299.415 29.3122C299.264 28.7693 298.959 27.5469 298.798 26.5942L298.662 26.5978C298.539 27.1477 298.291 28.111 298.106 28.8677C297.287 31.5545 296.111 36.2327 293.913 43.6713Z" stroke="#F645F9" stroke-width="3.125"/>
</g>
<g filter="url(#filter7_f_16_1020)">
<path d="M270.367 59.0586C266.912 59.1214 263.395 57.05 262.013 55.0414C261.573 54.4137 261.636 53.4721 262.264 53.0327C262.892 52.5933 263.834 52.8444 264.337 53.3466C265.844 54.9158 266.787 55.9829 268.797 56.2968C271.121 56.6106 273.571 56.1085 275.581 54.7275C277.34 53.5349 278.22 51.9656 278.534 50.0825C278.911 47.8228 277.906 45.312 276.649 43.9311C274.702 41.7341 272.064 40.9809 270.682 40.7926C269.991 40.7298 268.985 40.6043 268.985 39.3489C268.985 38.9095 269.111 38.219 270.367 37.9052C275.016 36.7125 276.775 34.5156 276.335 30.4983C276.084 28.4897 274.514 26.6693 272.378 26.0416C269.991 25.3512 267.792 26.4183 266.033 27.7992C265.53 28.1758 264.462 28.3641 263.834 27.862C263.332 27.4853 263.395 26.481 263.834 25.8533C265.593 23.4681 270.179 22.401 273.571 23.4681C276.838 24.5351 279.099 26.9204 279.413 30.1844C279.853 34.39 277.906 37.7796 274.199 39.1606V39.2861C276.21 39.7255 277.969 40.667 279.225 42.2363C280.795 44.1822 281.989 47.1951 281.549 50.5847C281.172 53.0327 279.853 55.418 277.529 56.9245C275.33 58.4309 272.692 58.9959 270.367 59.0586Z" fill="#F645F9"/>
<path d="M270.367 59.0586C266.912 59.1214 263.395 57.05 262.013 55.0414C261.573 54.4137 261.636 53.4721 262.264 53.0327C262.892 52.5933 263.834 52.8444 264.337 53.3466C265.844 54.9158 266.787 55.9829 268.797 56.2968C271.121 56.6106 273.571 56.1085 275.581 54.7275C277.34 53.5349 278.22 51.9656 278.534 50.0825C278.911 47.8228 277.906 45.312 276.649 43.9311C274.702 41.7341 272.064 40.9809 270.682 40.7926C269.991 40.7298 268.985 40.6043 268.985 39.3489C268.985 38.9095 269.111 38.219 270.367 37.9052C275.016 36.7125 276.775 34.5156 276.335 30.4983C276.084 28.4897 274.514 26.6693 272.378 26.0416C269.991 25.3512 267.792 26.4183 266.033 27.7992C265.53 28.1758 264.462 28.3641 263.834 27.862C263.332 27.4853 263.395 26.481 263.834 25.8533C265.593 23.4681 270.179 22.401 273.571 23.4681C276.838 24.5351 279.099 26.9204 279.413 30.1844C279.853 34.39 277.906 37.7796 274.199 39.1606V39.2861C276.21 39.7255 277.969 40.667 279.225 42.2363C280.795 44.1822 281.989 47.1951 281.549 50.5847C281.172 53.0327 279.853 55.418 277.529 56.9245C275.33 58.4309 272.692 58.9959 270.367 59.0586Z" stroke="#F645F9" stroke-width="3.125"/>
</g>
<path d="M349.023 59.06C347.983 59.06 347.22 58.5744 347.151 56.84C347.013 52.4694 346.943 46.2949 346.943 39.7736C346.874 33.8767 346.735 28.5348 346.943 24.7885C346.943 23.956 347.498 23.0541 348.537 23.0541C349.716 23.0541 350.062 24.0948 350.132 24.9273C350.409 29.9223 350.34 34.0155 350.34 39.6349C350.34 43.0343 350.132 53.1631 350.062 54.5506L350.201 54.62C350.755 53.9262 351.726 52.5387 352.419 51.3594C356.231 45.3931 362.743 31.6953 365.655 24.8272C366.278 23.3009 367.68 22.8436 368.928 23.1905C370.106 23.5374 370.856 25.5517 371.064 38.3861C371.203 44.8381 370.856 52.3976 370.856 56.3544C370.856 58.2417 370.163 59.1294 368.985 59.06C367.876 58.9907 367.599 57.9689 367.599 56.1463C367.807 50.2493 367.945 42.5487 367.945 36.2355C367.945 33.8073 368.045 29.8348 367.837 28.1004H367.7C367.007 29.6267 365.518 33.1467 364.564 35.1925C362.518 39.2841 360.806 43.173 358.588 46.9193C352.211 57.7419 350.409 59.06 349.023 59.06Z" fill="white"/>
<path d="M338.653 56.324C339.196 57.6962 338.698 58.7765 337.832 58.9407C336.832 59.1657 335.993 58.5145 335.579 57.1944C333.817 51.5743 327.745 44.6615 323.188 41.2444C323.048 41.4372 319.23 46.111 319.23 46.111C319.368 51.0065 319.524 55.4401 319.441 57.5514C319.41 58.3431 318.724 58.977 317.8 58.9407C316.811 58.9018 316.375 58.2239 316.406 57.4321C316.444 51.4202 315.148 25.5316 315.116 24.6713C315.081 23.8769 315.772 23.1111 316.564 23.1422C317.422 23.1759 318.127 23.7323 318.228 24.5292C318.315 25.656 318.578 30.7546 318.809 36.6449C318.836 37.6372 318.97 40.9465 318.934 41.8702L319.132 41.878C319.757 41.1096 321.146 39.38 321.837 38.6142C325.574 34.3336 329.484 29.0025 333.721 23.7504C334.209 23.1087 335.143 22.8811 335.785 23.3689C336.424 23.9227 336.522 24.7856 336.098 25.4958C333.01 30.0662 328.649 35.1153 325.052 39.2031C330.459 42.8518 336.914 50.1101 338.653 56.324Z" fill="white"/>
<path d="M310.087 56.3757C310.419 57.5597 310.278 58.6868 309.055 58.9236C307.902 59.2268 307.092 58.442 306.838 57.4851C306.081 54.634 305.161 50.7619 304.024 46.417C301.973 46.3334 295.007 46.377 293.165 46.4247C292.222 49.5931 290.851 54.6865 289.905 57.7184C289.722 58.5433 288.913 58.9743 288.023 58.8607C287.2 58.7453 286.832 57.7295 287.019 57.0412C289.334 48.8477 295.024 28.5374 295.905 25.6439C296.732 23.2986 297.817 22.9971 298.911 23.0371C300.211 23.1402 301.258 24.0016 301.784 25.8334C304.185 34.1783 310.087 56.3757 310.087 56.3757ZM293.913 43.6713C296.302 43.6095 300.948 43.6943 303.269 43.6342C301.761 38.1369 300.697 33.9951 299.415 29.3122C299.264 28.7693 298.959 27.5469 298.798 26.5942L298.662 26.5978C298.539 27.1477 298.291 28.111 298.106 28.8677C297.287 31.5545 296.111 36.2327 293.913 43.6713Z" fill="white"/>
<path d="M270.367 59.0586C266.912 59.1214 263.395 57.05 262.013 55.0414C261.573 54.4137 261.636 53.4721 262.264 53.0327C262.892 52.5933 263.834 52.8444 264.337 53.3466C265.844 54.9158 266.787 55.9829 268.797 56.2968C271.121 56.6106 273.571 56.1085 275.581 54.7275C277.34 53.5349 278.22 51.9656 278.534 50.0825C278.911 47.8228 277.906 45.312 276.649 43.9311C274.702 41.7341 272.064 40.9809 270.682 40.7926C269.991 40.7298 268.985 40.6043 268.985 39.3489C268.985 38.9095 269.111 38.219 270.367 37.9052C275.016 36.7125 276.775 34.5156 276.335 30.4983C276.084 28.4897 274.514 26.6693 272.378 26.0416C269.991 25.3512 267.792 26.4183 266.033 27.7992C265.53 28.1758 264.462 28.3641 263.834 27.862C263.332 27.4853 263.395 26.481 263.834 25.8533C265.593 23.4681 270.179 22.401 273.571 23.4681C276.838 24.5351 279.099 26.9204 279.413 30.1844C279.853 34.39 277.906 37.7796 274.199 39.1606V39.2861C276.21 39.7255 277.969 40.667 279.225 42.2363C280.795 44.1822 281.989 47.1951 281.549 50.5847C281.172 53.0327 279.853 55.418 277.529 56.9245C275.33 58.4309 272.692 58.9959 270.367 59.0586Z" fill="white"/>
<g filter="url(#filter8_f_16_1020)">
<path d="M167.359 56.9855C162.058 54.186 158.919 48.3769 158.221 44.1076C157.175 37.5287 158.57 28.7801 166.452 23.9508C169.731 21.9212 174.335 21.9212 178.66 23.251C183.473 24.7907 187.031 28.2901 188.286 31.7196C191.356 40.6082 189.193 52.7162 178.241 57.4754C175.172 58.8752 170.01 58.4553 167.359 56.9855ZM172.8 25.1407C171.266 25.1407 169.173 25.7706 168.196 26.3305C163.104 29.27 160.244 36.3388 161.5 43.5477C162.058 47.0471 164.569 52.1563 168.894 54.3959C171.475 55.7957 173.986 55.9357 176.428 54.9558C186.333 50.6865 187.728 40.3282 185.008 32.6994C184.101 30.1798 181.032 27.2403 177.265 25.8405C176.288 25.4906 174.684 25.1407 172.8 25.1407Z" fill="#F645F9"/>
<path d="M167.359 56.9855C162.058 54.186 158.919 48.3769 158.221 44.1076C157.175 37.5287 158.57 28.7801 166.452 23.9508C169.731 21.9212 174.335 21.9212 178.66 23.251C183.473 24.7907 187.031 28.2901 188.286 31.7196C191.356 40.6082 189.193 52.7162 178.241 57.4754C175.172 58.8752 170.01 58.4553 167.359 56.9855ZM172.8 25.1407C171.266 25.1407 169.173 25.7706 168.196 26.3305C163.104 29.27 160.244 36.3388 161.5 43.5477C162.058 47.0471 164.569 52.1563 168.894 54.3959C171.475 55.7957 173.986 55.9357 176.428 54.9558C186.333 50.6865 187.728 40.3282 185.008 32.6994C184.101 30.1798 181.032 27.2403 177.265 25.8405C176.288 25.4906 174.684 25.1407 172.8 25.1407Z" stroke="#F645F9" stroke-width="3.125"/>
</g>
<g filter="url(#filter9_f_16_1020)">
<path d="M137.894 58.3332C136.881 58.3332 136.303 57.2389 136.303 56.5094C136.303 46.2959 135.435 30.538 135.291 25.1394C135.218 24.7746 135.435 24.191 135.652 24.0451C137.604 22.0754 142.883 21.9295 146.643 22.9508C152.138 24.5558 154.958 28.3494 155.175 33.1643C155.32 36.812 154.307 39.8031 152.138 41.9917C149.535 44.618 145.197 45.9311 139.701 46.077C139.918 49.8706 139.918 53.4453 139.918 56.5094C139.918 57.4578 138.978 58.3332 137.894 58.3332ZM138.761 25.723C138.906 29.2978 139.195 36.0824 139.557 43.086C144.184 43.086 147.511 41.7728 149.463 39.8031C151.054 38.1981 151.632 36.0824 151.632 33.3832C151.632 28.4953 147.366 26.2337 145.341 25.723C142.738 25.0665 139.846 25.2124 138.761 25.723Z" fill="#F645F9"/>
<path d="M137.894 58.3332C136.881 58.3332 136.303 57.2389 136.303 56.5094C136.303 46.2959 135.435 30.538 135.291 25.1394C135.218 24.7746 135.435 24.191 135.652 24.0451C137.604 22.0754 142.883 21.9295 146.643 22.9508C152.138 24.5558 154.958 28.3494 155.175 33.1643C155.32 36.812 154.307 39.8031 152.138 41.9917C149.535 44.618 145.197 45.9311 139.701 46.077C139.918 49.8706 139.918 53.4453 139.918 56.5094C139.918 57.4578 138.978 58.3332 137.894 58.3332ZM138.761 25.723C138.906 29.2978 139.195 36.0824 139.557 43.086C144.184 43.086 147.511 41.7728 149.463 39.8031C151.054 38.1981 151.632 36.0824 151.632 33.3832C151.632 28.4953 147.366 26.2337 145.341 25.723C142.738 25.0665 139.846 25.2124 138.761 25.723Z" stroke="#F645F9" stroke-width="3.125"/>
</g>
<g filter="url(#filter10_f_16_1020)">
<path d="M108.632 56.9855C103.376 54.186 100.264 48.3769 99.5723 44.1076C98.535 37.5287 99.9181 28.7801 107.733 23.9508C110.983 21.9212 115.547 21.9212 119.835 23.251C124.607 24.7907 128.133 28.2901 129.378 31.7196C132.421 40.6082 130.277 52.7162 119.42 57.4754C116.377 58.8752 111.26 58.4553 108.632 56.9855ZM114.026 25.1407C112.504 25.1407 110.43 25.7706 109.462 26.3305C104.413 29.27 101.578 36.3388 102.823 43.5477C103.376 47.0471 105.865 52.1563 110.153 54.3959C112.712 55.7957 115.201 55.9357 117.622 54.9558C127.442 50.6865 128.825 40.3282 126.128 32.6994C125.229 30.1798 122.186 27.2403 118.452 25.8405C117.484 25.4906 115.893 25.1407 114.026 25.1407Z" fill="#F645F9"/>
<path d="M108.632 56.9855C103.376 54.186 100.264 48.3769 99.5723 44.1076C98.535 37.5287 99.9181 28.7801 107.733 23.9508C110.983 21.9212 115.547 21.9212 119.835 23.251C124.607 24.7907 128.133 28.2901 129.378 31.7196C132.421 40.6082 130.277 52.7162 119.42 57.4754C116.377 58.8752 111.26 58.4553 108.632 56.9855ZM114.026 25.1407C112.504 25.1407 110.43 25.7706 109.462 26.3305C104.413 29.27 101.578 36.3388 102.823 43.5477C103.376 47.0471 105.865 52.1563 110.153 54.3959C112.712 55.7957 115.201 55.9357 117.622 54.9558C127.442 50.6865 128.825 40.3282 126.128 32.6994C125.229 30.1798 122.186 27.2403 118.452 25.8405C117.484 25.4906 115.893 25.1407 114.026 25.1407Z" stroke="#F645F9" stroke-width="3.125"/>
</g>
<g filter="url(#filter11_f_16_1020)">
<path d="M96.2642 22.3273C97.1774 22.3273 97.6341 23.0886 97.6341 24.002C97.6341 24.9155 96.7969 25.6767 95.8837 25.6767C93.4483 25.6767 89.7953 25.6767 85.6856 25.9051C85.8378 31.8426 85.8378 48.894 85.8378 56.7347C85.8378 57.7242 85.0007 58.3332 83.9352 58.3332C82.7936 58.3332 82.1087 57.6481 82.1087 56.6585C82.1087 48.0567 82.1087 31.8426 81.9565 25.9051C78.2273 25.9051 72.9 26.4379 71.5301 26.4379C70.8452 26.4379 70.0841 25.6767 70.0841 24.9155C70.0841 24.2304 70.6168 23.3169 71.5301 23.2408C78.4556 22.7079 90.6324 22.3273 96.2642 22.3273Z" fill="#F645F9"/>
<path d="M96.2642 22.3273C97.1774 22.3273 97.6341 23.0886 97.6341 24.002C97.6341 24.9155 96.7969 25.6767 95.8837 25.6767C93.4483 25.6767 89.7953 25.6767 85.6856 25.9051C85.8378 31.8426 85.8378 48.894 85.8378 56.7347C85.8378 57.7242 85.0007 58.3332 83.9352 58.3332C82.7936 58.3332 82.1087 57.6481 82.1087 56.6585C82.1087 48.0567 82.1087 31.8426 81.9565 25.9051C78.2273 25.9051 72.9 26.4379 71.5301 26.4379C70.8452 26.4379 70.0841 25.6767 70.0841 24.9155C70.0841 24.2304 70.6168 23.3169 71.5301 23.2408C78.4556 22.7079 90.6324 22.3273 96.2642 22.3273Z" stroke="#F645F9" stroke-width="3.125"/>
</g>
<g filter="url(#filter12_f_16_1020)">
<path d="M46.8753 56.9855C41.5281 54.186 38.362 48.3769 37.6584 44.1076C36.603 37.5287 38.0102 28.7801 45.9606 23.9508C49.2675 21.9212 53.9111 21.9212 58.2733 23.251C63.128 24.7907 66.7163 28.2901 67.9827 31.7196C71.0785 40.6082 68.8974 52.7162 57.8512 57.4754C54.7554 58.8752 49.5489 58.4553 46.8753 56.9855ZM52.3632 25.1407C50.8153 25.1407 48.7046 25.7706 47.7196 26.3305C42.5834 29.27 39.6988 36.3388 40.9652 43.5477C41.5281 47.0471 44.061 52.1563 48.4232 54.3959C51.0264 55.7957 53.5593 55.9357 56.0218 54.9558C66.0127 50.6865 67.4199 40.3282 64.6759 32.6994C63.7612 30.1798 60.6655 27.2403 56.8661 25.8405C55.8811 25.4906 54.2629 25.1407 52.3632 25.1407Z" fill="#F645F9"/>
<path d="M46.8753 56.9855C41.5281 54.186 38.362 48.3769 37.6584 44.1076C36.603 37.5287 38.0102 28.7801 45.9606 23.9508C49.2675 21.9212 53.9111 21.9212 58.2733 23.251C63.128 24.7907 66.7163 28.2901 67.9827 31.7196C71.0785 40.6082 68.8974 52.7162 57.8512 57.4754C54.7554 58.8752 49.5489 58.4553 46.8753 56.9855ZM52.3632 25.1407C50.8153 25.1407 48.7046 25.7706 47.7196 26.3305C42.5834 29.27 39.6988 36.3388 40.9652 43.5477C41.5281 47.0471 44.061 52.1563 48.4232 54.3959C51.0264 55.7957 53.5593 55.9357 56.0218 54.9558C66.0127 50.6865 67.4199 40.3282 64.6759 32.6994C63.7612 30.1798 60.6655 27.2403 56.8661 25.8405C55.8811 25.4906 54.2629 25.1407 52.3632 25.1407Z" stroke="#F645F9" stroke-width="3.125"/>
</g>
<g filter="url(#filter13_f_16_1020)">
<path d="M34.6176 22.3272C35.5308 22.3272 35.9875 23.0884 35.9875 24.0019C35.9875 24.9154 35.1503 25.6766 34.2371 25.6766C31.8017 25.6766 28.1487 25.6766 24.039 25.905C24.1912 31.8425 24.1912 48.8939 24.1912 56.7345C24.1912 57.7241 23.3541 58.3331 22.2886 58.3331C21.147 58.3331 20.4621 57.648 20.4621 56.6584C20.4621 48.0566 20.4621 31.8425 20.3099 25.905C16.5807 25.905 11.2534 26.4378 9.88349 26.4378C9.19855 26.4378 8.4375 25.6766 8.4375 24.9154C8.4375 24.2303 8.97023 23.3168 9.88349 23.2407C16.809 22.7078 28.9858 22.3272 34.6176 22.3272Z" fill="#F645F9"/>
<path d="M34.6176 22.3272C35.5308 22.3272 35.9875 23.0884 35.9875 24.0019C35.9875 24.9154 35.1503 25.6766 34.2371 25.6766C31.8017 25.6766 28.1487 25.6766 24.039 25.905C24.1912 31.8425 24.1912 48.8939 24.1912 56.7345C24.1912 57.7241 23.3541 58.3331 22.2886 58.3331C21.147 58.3331 20.4621 57.648 20.4621 56.6584C20.4621 48.0566 20.4621 31.8425 20.3099 25.905C16.5807 25.905 11.2534 26.4378 9.88349 26.4378C9.19855 26.4378 8.4375 25.6766 8.4375 24.9154C8.4375 24.2303 8.97023 23.3168 9.88349 23.2407C16.809 22.7078 28.9858 22.3272 34.6176 22.3272Z" stroke="#F645F9" stroke-width="3.125"/>
</g>
<g filter="url(#filter14_f_16_1020)">
<path d="M167.359 56.9855C162.058 54.186 158.919 48.3769 158.221 44.1076C157.175 37.5287 158.57 28.7801 166.452 23.9508C169.731 21.9212 174.335 21.9212 178.66 23.251C183.473 24.7907 187.031 28.2901 188.286 31.7196C191.356 40.6082 189.193 52.7162 178.241 57.4754C175.172 58.8752 170.01 58.4553 167.359 56.9855ZM172.8 25.1407C171.266 25.1407 169.173 25.7706 168.196 26.3305C163.104 29.27 160.244 36.3388 161.5 43.5477C162.058 47.0471 164.569 52.1563 168.894 54.3959C171.475 55.7957 173.986 55.9357 176.428 54.9558C186.333 50.6865 187.728 40.3282 185.008 32.6994C184.101 30.1798 181.032 27.2403 177.265 25.8405C176.288 25.4906 174.684 25.1407 172.8 25.1407Z" fill="#F645F9"/>
<path d="M167.359 56.9855C162.058 54.186 158.919 48.3769 158.221 44.1076C157.175 37.5287 158.57 28.7801 166.452 23.9508C169.731 21.9212 174.335 21.9212 178.66 23.251C183.473 24.7907 187.031 28.2901 188.286 31.7196C191.356 40.6082 189.193 52.7162 178.241 57.4754C175.172 58.8752 170.01 58.4553 167.359 56.9855ZM172.8 25.1407C171.266 25.1407 169.173 25.7706 168.196 26.3305C163.104 29.27 160.244 36.3388 161.5 43.5477C162.058 47.0471 164.569 52.1563 168.894 54.3959C171.475 55.7957 173.986 55.9357 176.428 54.9558C186.333 50.6865 187.728 40.3282 185.008 32.6994C184.101 30.1798 181.032 27.2403 177.265 25.8405C176.288 25.4906 174.684 25.1407 172.8 25.1407Z" stroke="#F645F9" stroke-width="3.125"/>
</g>
<g filter="url(#filter15_f_16_1020)">
<path d="M137.894 58.3332C136.881 58.3332 136.303 57.2389 136.303 56.5094C136.303 46.2959 135.435 30.538 135.291 25.1394C135.218 24.7746 135.435 24.191 135.652 24.0451C137.604 22.0754 142.883 21.9295 146.643 22.9508C152.138 24.5558 154.958 28.3494 155.175 33.1643C155.32 36.812 154.307 39.8031 152.138 41.9917C149.535 44.618 145.197 45.9311 139.701 46.077C139.918 49.8706 139.918 53.4453 139.918 56.5094C139.918 57.4578 138.978 58.3332 137.894 58.3332ZM138.761 25.723C138.906 29.2978 139.195 36.0824 139.557 43.086C144.184 43.086 147.511 41.7728 149.463 39.8031C151.054 38.1981 151.632 36.0824 151.632 33.3832C151.632 28.4953 147.366 26.2337 145.341 25.723C142.738 25.0665 139.846 25.2124 138.761 25.723Z" fill="#F645F9"/>
<path d="M137.894 58.3332C136.881 58.3332 136.303 57.2389 136.303 56.5094C136.303 46.2959 135.435 30.538 135.291 25.1394C135.218 24.7746 135.435 24.191 135.652 24.0451C137.604 22.0754 142.883 21.9295 146.643 22.9508C152.138 24.5558 154.958 28.3494 155.175 33.1643C155.32 36.812 154.307 39.8031 152.138 41.9917C149.535 44.618 145.197 45.9311 139.701 46.077C139.918 49.8706 139.918 53.4453 139.918 56.5094C139.918 57.4578 138.978 58.3332 137.894 58.3332ZM138.761 25.723C138.906 29.2978 139.195 36.0824 139.557 43.086C144.184 43.086 147.511 41.7728 149.463 39.8031C151.054 38.1981 151.632 36.0824 151.632 33.3832C151.632 28.4953 147.366 26.2337 145.341 25.723C142.738 25.0665 139.846 25.2124 138.761 25.723Z" stroke="#F645F9" stroke-width="3.125"/>
</g>
<g filter="url(#filter16_f_16_1020)">
<path d="M108.632 56.9855C103.376 54.186 100.264 48.3769 99.5723 44.1076C98.535 37.5287 99.9181 28.7801 107.733 23.9508C110.983 21.9212 115.547 21.9212 119.835 23.251C124.607 24.7907 128.133 28.2901 129.378 31.7196C132.421 40.6082 130.277 52.7162 119.42 57.4754C116.377 58.8752 111.26 58.4553 108.632 56.9855ZM114.026 25.1407C112.504 25.1407 110.43 25.7706 109.462 26.3305C104.413 29.27 101.578 36.3388 102.823 43.5477C103.376 47.0471 105.865 52.1563 110.153 54.3959C112.712 55.7957 115.201 55.9357 117.622 54.9558C127.442 50.6865 128.825 40.3282 126.128 32.6994C125.229 30.1798 122.186 27.2403 118.452 25.8405C117.484 25.4906 115.893 25.1407 114.026 25.1407Z" fill="#F645F9"/>
<path d="M108.632 56.9855C103.376 54.186 100.264 48.3769 99.5723 44.1076C98.535 37.5287 99.9181 28.7801 107.733 23.9508C110.983 21.9212 115.547 21.9212 119.835 23.251C124.607 24.7907 128.133 28.2901 129.378 31.7196C132.421 40.6082 130.277 52.7162 119.42 57.4754C116.377 58.8752 111.26 58.4553 108.632 56.9855ZM114.026 25.1407C112.504 25.1407 110.43 25.7706 109.462 26.3305C104.413 29.27 101.578 36.3388 102.823 43.5477C103.376 47.0471 105.865 52.1563 110.153 54.3959C112.712 55.7957 115.201 55.9357 117.622 54.9558C127.442 50.6865 128.825 40.3282 126.128 32.6994C125.229 30.1798 122.186 27.2403 118.452 25.8405C117.484 25.4906 115.893 25.1407 114.026 25.1407Z" stroke="#F645F9" stroke-width="3.125"/>
</g>
<g filter="url(#filter17_f_16_1020)">
<path d="M96.2642 22.3273C97.1774 22.3273 97.6341 23.0886 97.6341 24.002C97.6341 24.9155 96.7969 25.6767 95.8837 25.6767C93.4483 25.6767 89.7953 25.6767 85.6856 25.9051C85.8378 31.8426 85.8378 48.894 85.8378 56.7347C85.8378 57.7242 85.0007 58.3332 83.9352 58.3332C82.7936 58.3332 82.1087 57.6481 82.1087 56.6585C82.1087 48.0567 82.1087 31.8426 81.9565 25.9051C78.2273 25.9051 72.9 26.4379 71.5301 26.4379C70.8452 26.4379 70.0841 25.6767 70.0841 24.9155C70.0841 24.2304 70.6168 23.3169 71.5301 23.2408C78.4556 22.7079 90.6324 22.3273 96.2642 22.3273Z" fill="#F645F9"/>
<path d="M96.2642 22.3273C97.1774 22.3273 97.6341 23.0886 97.6341 24.002C97.6341 24.9155 96.7969 25.6767 95.8837 25.6767C93.4483 25.6767 89.7953 25.6767 85.6856 25.9051C85.8378 31.8426 85.8378 48.894 85.8378 56.7347C85.8378 57.7242 85.0007 58.3332 83.9352 58.3332C82.7936 58.3332 82.1087 57.6481 82.1087 56.6585C82.1087 48.0567 82.1087 31.8426 81.9565 25.9051C78.2273 25.9051 72.9 26.4379 71.5301 26.4379C70.8452 26.4379 70.0841 25.6767 70.0841 24.9155C70.0841 24.2304 70.6168 23.3169 71.5301 23.2408C78.4556 22.7079 90.6324 22.3273 96.2642 22.3273Z" stroke="#F645F9" stroke-width="3.125"/>
</g>
<g filter="url(#filter18_f_16_1020)">
<path d="M46.8753 56.9855C41.5281 54.186 38.362 48.3769 37.6584 44.1076C36.603 37.5287 38.0102 28.7801 45.9606 23.9508C49.2675 21.9212 53.9111 21.9212 58.2733 23.251C63.128 24.7907 66.7163 28.2901 67.9827 31.7196C71.0785 40.6082 68.8974 52.7162 57.8512 57.4754C54.7554 58.8752 49.5489 58.4553 46.8753 56.9855ZM52.3632 25.1407C50.8153 25.1407 48.7046 25.7706 47.7196 26.3305C42.5834 29.27 39.6988 36.3388 40.9652 43.5477C41.5281 47.0471 44.061 52.1563 48.4232 54.3959C51.0264 55.7957 53.5593 55.9357 56.0218 54.9558C66.0127 50.6865 67.4199 40.3282 64.6759 32.6994C63.7612 30.1798 60.6655 27.2403 56.8661 25.8405C55.8811 25.4906 54.2629 25.1407 52.3632 25.1407Z" fill="#F645F9"/>
<path d="M46.8753 56.9855C41.5281 54.186 38.362 48.3769 37.6584 44.1076C36.603 37.5287 38.0102 28.7801 45.9606 23.9508C49.2675 21.9212 53.9111 21.9212 58.2733 23.251C63.128 24.7907 66.7163 28.2901 67.9827 31.7196C71.0785 40.6082 68.8974 52.7162 57.8512 57.4754C54.7554 58.8752 49.5489 58.4553 46.8753 56.9855ZM52.3632 25.1407C50.8153 25.1407 48.7046 25.7706 47.7196 26.3305C42.5834 29.27 39.6988 36.3388 40.9652 43.5477C41.5281 47.0471 44.061 52.1563 48.4232 54.3959C51.0264 55.7957 53.5593 55.9357 56.0218 54.9558C66.0127 50.6865 67.4199 40.3282 64.6759 32.6994C63.7612 30.1798 60.6655 27.2403 56.8661 25.8405C55.8811 25.4906 54.2629 25.1407 52.3632 25.1407Z" stroke="#F645F9" stroke-width="3.125"/>
</g>
<g filter="url(#filter19_f_16_1020)">
<path d="M34.6176 22.3272C35.5308 22.3272 35.9875 23.0884 35.9875 24.0019C35.9875 24.9154 35.1503 25.6766 34.2371 25.6766C31.8017 25.6766 28.1487 25.6766 24.039 25.905C24.1912 31.8425 24.1912 48.8939 24.1912 56.7345C24.1912 57.7241 23.3541 58.3331 22.2886 58.3331C21.147 58.3331 20.4621 57.648 20.4621 56.6584C20.4621 48.0566 20.4621 31.8425 20.3099 25.905C16.5807 25.905 11.2534 26.4378 9.88349 26.4378C9.19855 26.4378 8.4375 25.6766 8.4375 24.9154C8.4375 24.2303 8.97023 23.3168 9.88349 23.2407C16.809 22.7078 28.9858 22.3272 34.6176 22.3272Z" fill="#F645F9"/>
<path d="M34.6176 22.3272C35.5308 22.3272 35.9875 23.0884 35.9875 24.0019C35.9875 24.9154 35.1503 25.6766 34.2371 25.6766C31.8017 25.6766 28.1487 25.6766 24.039 25.905C24.1912 31.8425 24.1912 48.8939 24.1912 56.7345C24.1912 57.7241 23.3541 58.3331 22.2886 58.3331C21.147 58.3331 20.4621 57.648 20.4621 56.6584C20.4621 48.0566 20.4621 31.8425 20.3099 25.905C16.5807 25.905 11.2534 26.4378 9.88349 26.4378C9.19855 26.4378 8.4375 25.6766 8.4375 24.9154C8.4375 24.2303 8.97023 23.3168 9.88349 23.2407C16.809 22.7078 28.9858 22.3272 34.6176 22.3272Z" stroke="#F645F9" stroke-width="3.125"/>
</g>
<path d="M167.359 56.9855C162.058 54.186 158.919 48.3769 158.221 44.1076C157.175 37.5287 158.57 28.7801 166.452 23.9508C169.731 21.9212 174.335 21.9212 178.66 23.251C183.473 24.7907 187.031 28.2901 188.286 31.7196C191.356 40.6082 189.193 52.7162 178.241 57.4754C175.172 58.8752 170.01 58.4553 167.359 56.9855ZM172.8 25.1407C171.266 25.1407 169.173 25.7706 168.196 26.3305C163.104 29.27 160.244 36.3388 161.5 43.5477C162.058 47.0471 164.569 52.1563 168.894 54.3959C171.475 55.7957 173.986 55.9357 176.428 54.9558C186.333 50.6865 187.728 40.3282 185.008 32.6994C184.101 30.1798 181.032 27.2403 177.265 25.8405C176.288 25.4906 174.684 25.1407 172.8 25.1407Z" fill="white"/>
<path d="M137.894 58.3332C136.881 58.3332 136.303 57.2389 136.303 56.5094C136.303 46.2959 135.435 30.538 135.291 25.1394C135.218 24.7746 135.435 24.191 135.652 24.0451C137.604 22.0754 142.883 21.9295 146.643 22.9508C152.138 24.5558 154.958 28.3494 155.175 33.1643C155.32 36.812 154.307 39.8031 152.138 41.9917C149.535 44.618 145.197 45.9311 139.701 46.077C139.918 49.8706 139.918 53.4453 139.918 56.5094C139.918 57.4578 138.978 58.3332 137.894 58.3332ZM138.761 25.723C138.906 29.2978 139.195 36.0824 139.557 43.086C144.184 43.086 147.511 41.7728 149.463 39.8031C151.054 38.1981 151.632 36.0824 151.632 33.3832C151.632 28.4953 147.366 26.2337 145.341 25.723C142.738 25.0665 139.846 25.2124 138.761 25.723Z" fill="white"/>
<path d="M108.632 56.9855C103.376 54.186 100.264 48.3769 99.5723 44.1076C98.535 37.5287 99.9181 28.7801 107.733 23.9508C110.983 21.9212 115.547 21.9212 119.835 23.251C124.607 24.7907 128.133 28.2901 129.378 31.7196C132.421 40.6082 130.277 52.7162 119.42 57.4754C116.377 58.8752 111.26 58.4553 108.632 56.9855ZM114.026 25.1407C112.504 25.1407 110.43 25.7706 109.462 26.3305C104.413 29.27 101.578 36.3388 102.823 43.5477C103.376 47.0471 105.865 52.1563 110.153 54.3959C112.712 55.7957 115.201 55.9357 117.622 54.9558C127.442 50.6865 128.825 40.3282 126.128 32.6994C125.229 30.1798 122.186 27.2403 118.452 25.8405C117.484 25.4906 115.893 25.1407 114.026 25.1407Z" fill="white"/>
<path d="M96.2642 22.3273C97.1774 22.3273 97.6341 23.0886 97.6341 24.002C97.6341 24.9155 96.7969 25.6767 95.8837 25.6767C93.4483 25.6767 89.7953 25.6767 85.6856 25.9051C85.8378 31.8426 85.8378 48.894 85.8378 56.7347C85.8378 57.7242 85.0007 58.3332 83.9352 58.3332C82.7936 58.3332 82.1087 57.6481 82.1087 56.6585C82.1087 48.0567 82.1087 31.8426 81.9565 25.9051C78.2273 25.9051 72.9 26.4379 71.5301 26.4379C70.8452 26.4379 70.0841 25.6767 70.0841 24.9155C70.0841 24.2304 70.6168 23.3169 71.5301 23.2408C78.4556 22.7079 90.6324 22.3273 96.2642 22.3273Z" fill="white"/>
<path d="M46.8753 56.9855C41.5281 54.186 38.362 48.3769 37.6584 44.1076C36.603 37.5287 38.0102 28.7801 45.9606 23.9508C49.2675 21.9212 53.9111 21.9212 58.2733 23.251C63.128 24.7907 66.7163 28.2901 67.9827 31.7196C71.0785 40.6082 68.8974 52.7162 57.8512 57.4754C54.7554 58.8752 49.5489 58.4553 46.8753 56.9855ZM52.3632 25.1407C50.8153 25.1407 48.7046 25.7706 47.7196 26.3305C42.5834 29.27 39.6988 36.3388 40.9652 43.5477C41.5281 47.0471 44.061 52.1563 48.4232 54.3959C51.0264 55.7957 53.5593 55.9357 56.0218 54.9558C66.0127 50.6865 67.4199 40.3282 64.6759 32.6994C63.7612 30.1798 60.6655 27.2403 56.8661 25.8405C55.8811 25.4906 54.2629 25.1407 52.3632 25.1407Z" fill="white"/>
<path d="M34.6176 22.3272C35.5308 22.3272 35.9875 23.0884 35.9875 24.0019C35.9875 24.9154 35.1503 25.6766 34.2371 25.6766C31.8017 25.6766 28.1487 25.6766 24.039 25.905C24.1912 31.8425 24.1912 48.8939 24.1912 56.7345C24.1912 57.7241 23.3541 58.3331 22.2886 58.3331C21.147 58.3331 20.4621 57.648 20.4621 56.6584C20.4621 48.0566 20.4621 31.8425 20.3099 25.905C16.5807 25.905 11.2534 26.4378 9.88349 26.4378C9.19855 26.4378 8.4375 25.6766 8.4375 24.9154C8.4375 24.2303 8.97023 23.3168 9.88349 23.2407C16.809 22.7078 28.9858 22.3272 34.6176 22.3272Z" fill="white"/>
<g filter="url(#filter20_f_16_1020)">
<path d="M258.474 57.9702C256.828 52.1471 253.435 47.7797 251.321 44.1793C250.182 42.2382 247.967 37.4067 246.891 33.5457C246.258 31.8367 244.824 29.2039 243.235 26.8997C241.944 25.0271 240.624 24.0514 239.358 22.9753C238.979 22.6524 239.25 22.3248 239.335 21.5196M239.373 20.5068C239.385 20.2763 239.405 20.062 239.43 19.8739C239.487 19.4417 239.575 19.148 239.675 19.1143C240.045 18.9896 242.102 18.9375 241.764 15.8863C241.827 15.1267 240.87 7.45861 240.434 6.89833C240.224 6.41306 239.599 5.73369 238.789 6.89833C237.565 9.32465 235.2 14.0893 234.991 15.3799C234.677 17.3197 235.958 18.0369 236.13 18.3548C236.205 18.4919 236.174 18.842 236.081 19.2409C236.014 19.5316 235.914 19.8481 235.798 20.1271M239.43 19.8739L240.878 20.1271M239.373 20.5068C239.364 20.6883 239.358 20.8798 239.358 21.0765C239.358 21.2388 239.349 21.3858 239.335 21.5196M239.373 20.5068L240.878 21.2031M239.335 21.5196L240.118 21.8993M236.081 19.2409L234.675 18.3548M235.798 20.1271C235.705 20.3527 235.602 20.5538 235.497 20.6967C235.118 21.1398 234.601 20.6682 233.978 20.5068C231.067 19.3886 223.547 17.8231 216.762 20.5068C216.275 20.8391 215.555 21.0178 215.075 20.5701C214.989 20.4908 214.912 20.329 214.846 20.1271M235.798 20.1271L234.295 19.2409M214.737 19.1143L216.129 18.2915M214.846 20.1271C214.663 19.5669 214.563 18.6972 214.61 18.4181C214.673 18.0383 214.926 17.975 215.243 17.7218C215.559 17.4687 215.686 17.0889 215.686 17.0889C215.876 16.5192 215.686 14.4305 214.357 11.2657C210.749 1.07516 209.821 7.55238 209.546 9.68332L208.913 16.5825C208.827 17.1497 209.04 18.2845 210.053 18.7346C210.622 18.9877 211.002 18.9877 211.255 19.3675C211.282 19.4735 211.305 19.5789 211.325 19.684M214.846 20.1271L216.382 19.3042M211.325 19.684L209.863 20.1271M192.267 57.9702C193.786 53.856 196.887 49.3062 199.103 44.1793C199.356 43.4704 203.744 34.1786 204.609 32.2798C206.002 28.2289 208.66 25.1274 210.306 23.8615C210.939 23.3746 211.319 23.2285 211.508 22.6589C211.488 22.2223 211.481 21.8266 211.471 21.4563C211.464 21.1462 211.455 20.8539 211.435 20.5701C211.414 20.2688 211.381 19.9771 211.325 19.684M211.435 20.5701L210.053 21.0765M211.471 21.4563L210.749 21.836" stroke="#4515F4" stroke-width="3.125" stroke-linecap="round"/>
</g>
<g filter="url(#filter21_f_16_1020)">
<path d="M258.474 57.9702C256.828 52.1471 253.435 47.7797 251.321 44.1793C250.182 42.2382 247.967 37.4067 246.891 33.5457C246.258 31.8367 244.824 29.2039 243.235 26.8997C241.944 25.0271 240.624 24.0514 239.358 22.9753C238.979 22.6524 239.25 22.3248 239.335 21.5196M239.373 20.5068C239.385 20.2763 239.405 20.062 239.43 19.8739C239.487 19.4417 239.575 19.148 239.675 19.1143C240.045 18.9896 242.102 18.9375 241.764 15.8863C241.827 15.1267 240.87 7.45861 240.434 6.89833C240.224 6.41306 239.599 5.73369 238.789 6.89833C237.565 9.32465 235.2 14.0893 234.991 15.3799C234.677 17.3197 235.958 18.0369 236.13 18.3548C236.205 18.4919 236.174 18.842 236.081 19.2409C236.014 19.5316 235.914 19.8481 235.798 20.1271M239.43 19.8739L240.878 20.1271M239.373 20.5068C239.364 20.6883 239.358 20.8798 239.358 21.0765C239.358 21.2388 239.349 21.3858 239.335 21.5196M239.373 20.5068L240.878 21.2031M239.335 21.5196L240.118 21.8993M236.081 19.2409L234.675 18.3548M235.798 20.1271C235.705 20.3527 235.602 20.5538 235.497 20.6967C235.118 21.1398 234.601 20.6682 233.978 20.5068C231.067 19.3886 223.547 17.8231 216.762 20.5068C216.275 20.8391 215.555 21.0178 215.075 20.5701C214.989 20.4908 214.912 20.329 214.846 20.1271M235.798 20.1271L234.295 19.2409M214.737 19.1143L216.129 18.2915M214.846 20.1271C214.663 19.5669 214.563 18.6972 214.61 18.4181C214.673 18.0383 214.926 17.975 215.243 17.7218C215.559 17.4687 215.686 17.0889 215.686 17.0889C215.876 16.5192 215.686 14.4305 214.357 11.2657C210.749 1.07516 209.821 7.55238 209.546 9.68332L208.913 16.5825C208.827 17.1497 209.04 18.2845 210.053 18.7346C210.622 18.9877 211.002 18.9877 211.255 19.3675C211.282 19.4735 211.305 19.5789 211.325 19.684M214.846 20.1271L216.382 19.3042M211.325 19.684L209.863 20.1271M192.267 57.9702C193.786 53.856 196.887 49.3062 199.103 44.1793C199.356 43.4704 203.744 34.1786 204.609 32.2798C206.002 28.2289 208.66 25.1274 210.306 23.8615C210.939 23.3746 211.319 23.2285 211.508 22.6589C211.488 22.2223 211.481 21.8266 211.471 21.4563C211.464 21.1462 211.455 20.8539 211.435 20.5701C211.414 20.2688 211.381 19.9771 211.325 19.684M211.435 20.5701L210.053 21.0765M211.471 21.4563L210.749 21.836" stroke="#4515F4" stroke-width="3.125" stroke-linecap="round"/>
</g>
<g filter="url(#filter22_f_16_1020)">
<path d="M258.474 57.9702C256.828 52.1471 253.435 47.7797 251.321 44.1793C250.182 42.2382 247.967 37.4067 246.891 33.5457C246.258 31.8367 244.824 29.2039 243.235 26.8997C241.944 25.0271 240.624 24.0514 239.358 22.9753C238.979 22.6524 239.25 22.3248 239.335 21.5196M239.373 20.5068C239.385 20.2763 239.405 20.062 239.43 19.8739C239.487 19.4417 239.575 19.148 239.675 19.1143C240.045 18.9896 242.102 18.9375 241.764 15.8863C241.827 15.1267 240.87 7.45861 240.434 6.89833C240.224 6.41306 239.599 5.73369 238.789 6.89833C237.565 9.32465 235.2 14.0893 234.991 15.3799C234.677 17.3197 235.958 18.0369 236.13 18.3548C236.205 18.4919 236.174 18.842 236.081 19.2409C236.014 19.5316 235.914 19.8481 235.798 20.1271M239.43 19.8739L240.878 20.1271M239.373 20.5068C239.364 20.6883 239.358 20.8798 239.358 21.0765C239.358 21.2388 239.349 21.3858 239.335 21.5196M239.373 20.5068L240.878 21.2031M239.335 21.5196L240.118 21.8993M236.081 19.2409L234.675 18.3548M235.798 20.1271C235.705 20.3527 235.602 20.5538 235.497 20.6967C235.118 21.1398 234.601 20.6682 233.978 20.5068C231.067 19.3886 223.547 17.8231 216.762 20.5068C216.275 20.8391 215.555 21.0178 215.075 20.5701C214.989 20.4908 214.912 20.329 214.846 20.1271M235.798 20.1271L234.295 19.2409M214.737 19.1143L216.129 18.2915M214.846 20.1271C214.663 19.5669 214.563 18.6972 214.61 18.4181C214.673 18.0383 214.926 17.975 215.243 17.7218C215.559 17.4687 215.686 17.0889 215.686 17.0889C215.876 16.5192 215.686 14.4305 214.357 11.2657C210.749 1.07516 209.821 7.55238 209.546 9.68332L208.913 16.5825C208.827 17.1497 209.04 18.2845 210.053 18.7346C210.622 18.9877 211.002 18.9877 211.255 19.3675C211.282 19.4735 211.305 19.5789 211.325 19.684M214.846 20.1271L216.382 19.3042M211.325 19.684L209.863 20.1271M192.267 57.9702C193.786 53.856 196.887 49.3062 199.103 44.1793C199.356 43.4704 203.744 34.1786 204.609 32.2798C206.002 28.2289 208.66 25.1274 210.306 23.8615C210.939 23.3746 211.319 23.2285 211.508 22.6589C211.488 22.2223 211.481 21.8266 211.471 21.4563C211.464 21.1462 211.455 20.8539 211.435 20.5701C211.414 20.2688 211.381 19.9771 211.325 19.684M211.435 20.5701L210.053 21.0765M211.471 21.4563L210.749 21.836" stroke="#4515F4" stroke-width="3.125" stroke-linecap="round"/>
</g>
<path d="M258.474 57.9702C256.828 52.1471 253.435 47.7797 251.321 44.1793C250.182 42.2382 247.967 37.4067 246.891 33.5457C246.258 31.8367 244.824 29.2039 243.235 26.8997C241.944 25.0271 240.624 24.0514 239.358 22.9753C238.979 22.6524 239.25 22.3248 239.335 21.5196M239.373 20.5068C239.385 20.2763 239.405 20.062 239.43 19.8739C239.487 19.4417 239.575 19.148 239.675 19.1143C240.045 18.9896 242.102 18.9375 241.764 15.8863C241.827 15.1267 240.87 7.45861 240.434 6.89833C240.224 6.41306 239.599 5.73369 238.789 6.89833C237.565 9.32465 235.2 14.0893 234.991 15.3799C234.677 17.3197 235.958 18.0369 236.13 18.3548C236.205 18.4919 236.174 18.842 236.081 19.2409C236.014 19.5316 235.914 19.8481 235.798 20.1271M239.43 19.8739L240.878 20.1271M239.373 20.5068C239.364 20.6883 239.358 20.8798 239.358 21.0765C239.358 21.2388 239.349 21.3858 239.335 21.5196M239.373 20.5068L240.878 21.2031M239.335 21.5196L240.118 21.8993M236.081 19.2409L234.675 18.3548M235.798 20.1271C235.705 20.3527 235.602 20.5538 235.497 20.6967C235.118 21.1398 234.601 20.6682 233.978 20.5068C231.067 19.3886 223.547 17.8231 216.762 20.5068C216.275 20.8391 215.555 21.0178 215.075 20.5701C214.989 20.4908 214.912 20.329 214.846 20.1271M235.798 20.1271L234.295 19.2409M214.737 19.1143L216.129 18.2915M214.846 20.1271C214.663 19.5669 214.563 18.6972 214.61 18.4181C214.673 18.0383 214.926 17.975 215.243 17.7218C215.559 17.4687 215.686 17.0889 215.686 17.0889C215.876 16.5192 215.686 14.4305 214.357 11.2657C210.749 1.07516 209.821 7.55238 209.546 9.68332L208.913 16.5825C208.827 17.1497 209.04 18.2845 210.053 18.7346C210.622 18.9877 211.002 18.9877 211.255 19.3675C211.282 19.4735 211.305 19.5789 211.325 19.684M214.846 20.1271L216.382 19.3042M211.325 19.684L209.863 20.1271M192.267 57.9702C193.786 53.856 196.887 49.3062 199.103 44.1793C199.356 43.4704 203.744 34.1786 204.609 32.2798C206.002 28.2289 208.66 25.1274 210.306 23.8615C210.939 23.3746 211.319 23.2285 211.508 22.6589C211.488 22.2223 211.481 21.8266 211.471 21.4563C211.464 21.1462 211.455 20.8539 211.435 20.5701C211.414 20.2688 211.381 19.9771 211.325 19.684M211.435 20.5701L210.053 21.0765M211.471 21.4563L210.749 21.836" stroke="white" stroke-width="1.25" stroke-linecap="round"/>
<g filter="url(#filter23_f_16_1020)">
<path d="M249.043 59.0462C246.574 52.5268 238.979 45.1287 225.75 45.1287C212.521 45.1287 204.356 51.5774 202.267 59.0462" stroke="#F645F9" stroke-width="2.5"/>
</g>
<g filter="url(#filter24_f_16_1020)">
<path d="M249.043 59.0462C246.574 52.5268 238.979 45.1287 225.75 45.1287C212.521 45.1287 204.356 51.5774 202.267 59.0462" stroke="#F645F9" stroke-width="2.5"/>
</g>
<g filter="url(#filter25_f_16_1020)">
<path d="M249.043 59.0462C246.574 52.5268 238.979 45.1287 225.75 45.1287C212.521 45.1287 204.356 51.5774 202.267 59.0462" stroke="#F645F9" stroke-width="2.5"/>
</g>
<path d="M249.043 59.0462C246.574 52.5268 238.979 45.1287 225.75 45.1287C212.521 45.1287 204.356 51.5774 202.267 59.0462" stroke="white" stroke-width="1.25" stroke-linecap="round"/>
<g filter="url(#filter26_f_16_1020)">
<path d="M212.964 37.2803L212.964 40.4451" stroke="#4515F4" stroke-width="1.25" stroke-linecap="round"/>
</g>
<g filter="url(#filter27_f_16_1020)">
<path d="M218.534 37.0272L218.534 42.0908" stroke="#4515F4" stroke-width="1.25" stroke-linecap="round"/>
</g>
<g filter="url(#filter28_f_16_1020)">
<path d="M232.333 37.1539V41.9643" stroke="#4515F4" stroke-width="1.25" stroke-linecap="round"/>
</g>
<g filter="url(#filter29_f_16_1020)">
<path d="M225.497 36.9006V42.5972" stroke="#4515F4" stroke-width="1.25" stroke-linecap="round"/>
</g>
<g filter="url(#filter30_f_16_1020)">
<path d="M237.903 37.6602V40.192" stroke="#4515F4" stroke-width="1.25" stroke-linecap="round"/>
</g>
<g filter="url(#filter31_f_16_1020)">
<path d="M212.964 37.2803L212.964 40.4451" stroke="#4515F4" stroke-width="1.25" stroke-linecap="round"/>
</g>
<g filter="url(#filter32_f_16_1020)">
<path d="M218.534 37.0272L218.534 42.0908" stroke="#4515F4" stroke-width="1.25" stroke-linecap="round"/>
</g>
<g filter="url(#filter33_f_16_1020)">
<path d="M232.333 37.1539V41.9643" stroke="#4515F4" stroke-width="1.25" stroke-linecap="round"/>
</g>
<g filter="url(#filter34_f_16_1020)">
<path d="M225.497 36.9006V42.5972" stroke="#4515F4" stroke-width="1.25" stroke-linecap="round"/>
</g>
<g filter="url(#filter35_f_16_1020)">
<path d="M237.903 37.6602V40.192" stroke="#4515F4" stroke-width="1.25" stroke-linecap="round"/>
</g>
<g filter="url(#filter36_f_16_1020)">
<path d="M212.964 37.2803L212.964 40.4451" stroke="#4515F4" stroke-width="1.25" stroke-linecap="round"/>
</g>
<g filter="url(#filter37_f_16_1020)">
<path d="M218.534 37.0272L218.534 42.0908" stroke="#4515F4" stroke-width="1.25" stroke-linecap="round"/>
</g>
<g filter="url(#filter38_f_16_1020)">
<path d="M232.333 37.1539V41.9643" stroke="#4515F4" stroke-width="1.25" stroke-linecap="round"/>
</g>
<g filter="url(#filter39_f_16_1020)">
<path d="M225.497 36.9006V42.5972" stroke="#4515F4" stroke-width="1.25" stroke-linecap="round"/>
</g>
<g filter="url(#filter40_f_16_1020)">
<path d="M237.903 37.6602V40.192" stroke="#4515F4" stroke-width="1.25" stroke-linecap="round"/>
</g>
<path d="M213.091 37.407L213.091 40.3186" stroke="white" stroke-width="0.625" stroke-linecap="round"/>
<path d="M218.534 36.9007L218.534 41.9643" stroke="white" stroke-width="0.625" stroke-linecap="round"/>
<path d="M232.333 37.0272V42.0908" stroke="white" stroke-width="0.625" stroke-linecap="round"/>
<path d="M225.497 36.7742V42.724" stroke="white" stroke-width="0.625" stroke-linecap="round"/>
<path d="M237.903 37.5338V40.3188" stroke="white" stroke-width="0.625" stroke-linecap="round"/>
<g filter="url(#filter41_f_16_1020)">
<path d="M209.483 38.6731C211.192 39.939 212.495 40.3133 214.736 41.0783C222.712 43.8 230.48 43.1632 235.687 41.2572C238.626 40.3926 239.897 39.579 241.453 38.5829L241.51 38.5465C241.89 38.3034 241.953 37.8722 241.384 37.7869C229.098 35.9472 216.517 36.5566 210.179 37.597C209.293 37.7379 208.715 38.1044 209.483 38.6731Z" stroke="#4515F4" stroke-width="1.25" stroke-linecap="round"/>
</g>
<g filter="url(#filter42_f_16_1020)">
<path d="M209.483 38.6731C211.192 39.939 212.495 40.3133 214.736 41.0783C222.712 43.8 230.48 43.1632 235.687 41.2572C238.626 40.3926 239.897 39.579 241.453 38.5829L241.51 38.5465C241.89 38.3034 241.953 37.8722 241.384 37.7869C229.098 35.9472 216.517 36.5566 210.179 37.597C209.293 37.7379 208.715 38.1044 209.483 38.6731Z" stroke="#4515F4" stroke-width="1.25" stroke-linecap="round"/>
</g>
<g filter="url(#filter43_f_16_1020)">
<path d="M209.483 38.6731C211.192 39.939 212.495 40.3133 214.736 41.0783C222.712 43.8 230.48 43.1632 235.687 41.2572C238.626 40.3926 239.897 39.579 241.453 38.5829L241.51 38.5465C241.89 38.3034 241.953 37.8722 241.384 37.7869C229.098 35.9472 216.517 36.5566 210.179 37.597C209.293 37.7379 208.715 38.1044 209.483 38.6731Z" stroke="#4515F4" stroke-width="1.25" stroke-linecap="round"/>
</g>
<path d="M209.483 38.6729C211.192 39.9388 212.495 40.3132 214.736 41.0781C222.712 43.7998 230.48 43.1631 235.687 41.257C238.626 40.3924 239.897 39.5788 241.453 38.5827L241.51 38.5463C241.89 38.3032 241.953 37.872 241.384 37.7867C229.098 35.947 216.517 36.5564 210.179 37.5969C209.293 37.7377 208.715 38.1043 209.483 38.6729Z" stroke="white" stroke-opacity="0.9" stroke-width="0.625" stroke-linecap="round"/>
<g filter="url(#filter44_f_16_1020)">
<circle cx="213.66" cy="30.7611" r="3.60783" stroke="#F645F9" stroke-opacity="0.85" stroke-width="1.25"/>
</g>
<g filter="url(#filter45_f_16_1020)">
<circle cx="213.66" cy="30.7611" r="3.60783" stroke="#F645F9" stroke-opacity="0.85" stroke-width="1.25"/>
</g>
<g filter="url(#filter46_f_16_1020)">
<circle cx="213.66" cy="30.7611" r="3.60783" stroke="#F645F9" stroke-opacity="0.85" stroke-width="1.25"/>
</g>
<g filter="url(#filter47_f_16_1020)">
<circle cx="213.66" cy="30.7611" r="3.60783" stroke="#F645F9" stroke-opacity="0.85" stroke-width="1.25"/>
</g>
<g filter="url(#filter48_f_16_1020)">
<circle cx="213.66" cy="30.7611" r="3.60783" stroke="#F645F9" stroke-opacity="0.85" stroke-width="1.25"/>
</g>
<circle cx="213.66" cy="30.7611" r="3.60783" stroke="white" stroke-width="0.625"/>
<g filter="url(#filter49_f_16_1020)">
<circle cx="214.103" cy="30.8244" r="1.01273" stroke="#F645F9" stroke-opacity="0.85" stroke-width="1.25"/>
</g>
<g filter="url(#filter50_f_16_1020)">
<circle cx="214.103" cy="30.8244" r="1.01273" stroke="#F645F9" stroke-opacity="0.85" stroke-width="1.25"/>
</g>
<g filter="url(#filter51_f_16_1020)">
<circle cx="214.103" cy="30.8244" r="1.01273" stroke="#F645F9" stroke-opacity="0.85" stroke-width="1.25"/>
</g>
<g filter="url(#filter52_f_16_1020)">
<circle cx="214.103" cy="30.8244" r="1.01273" stroke="#F645F9" stroke-opacity="0.85" stroke-width="1.25"/>
</g>
<circle cx="214.103" cy="30.8244" r="1.01273" stroke="white" stroke-width="0.625"/>
<g filter="url(#filter53_f_16_1020)">
<circle cx="3.60783" cy="3.60783" r="3.60783" transform="matrix(-1 0 0 1 240.687 27.1533)" stroke="#F645F9" stroke-opacity="0.85" stroke-width="1.25"/>
</g>
<g filter="url(#filter54_f_16_1020)">
<circle cx="3.60783" cy="3.60783" r="3.60783" transform="matrix(-1 0 0 1 240.687 27.1533)" stroke="#F645F9" stroke-opacity="0.85" stroke-width="1.25"/>
</g>
<g filter="url(#filter55_f_16_1020)">
<circle cx="3.60783" cy="3.60783" r="3.60783" transform="matrix(-1 0 0 1 240.687 27.1533)" stroke="#F645F9" stroke-opacity="0.85" stroke-width="1.25"/>
</g>
<g filter="url(#filter56_f_16_1020)">
<circle cx="3.60783" cy="3.60783" r="3.60783" transform="matrix(-1 0 0 1 240.687 27.1533)" stroke="#F645F9" stroke-opacity="0.85" stroke-width="1.25"/>
</g>
<g filter="url(#filter57_f_16_1020)">
<circle cx="3.60783" cy="3.60783" r="3.60783" transform="matrix(-1 0 0 1 240.687 27.1533)" stroke="#F645F9" stroke-opacity="0.85" stroke-width="1.25"/>
</g>
<circle cx="3.60783" cy="3.60783" r="3.60783" transform="matrix(-1 0 0 1 240.687 27.1533)" stroke="white" stroke-width="0.625"/>
<g filter="url(#filter58_f_16_1020)">
<circle cx="1.01273" cy="1.01273" r="1.01273" transform="matrix(-1 0 0 1 237.649 29.8116)" stroke="#F645F9" stroke-opacity="0.85" stroke-width="1.25"/>
</g>
<g filter="url(#filter59_f_16_1020)">
<circle cx="1.01273" cy="1.01273" r="1.01273" transform="matrix(-1 0 0 1 237.649 29.8116)" stroke="#F645F9" stroke-opacity="0.85" stroke-width="1.25"/>
</g>
<g filter="url(#filter60_f_16_1020)">
<circle cx="1.01273" cy="1.01273" r="1.01273" transform="matrix(-1 0 0 1 237.649 29.8116)" stroke="#F645F9" stroke-opacity="0.85" stroke-width="1.25"/>
</g>
<g filter="url(#filter61_f_16_1020)">
<circle cx="1.01273" cy="1.01273" r="1.01273" transform="matrix(-1 0 0 1 237.649 29.8116)" stroke="#F645F9" stroke-opacity="0.85" stroke-width="1.25"/>
</g>
<circle cx="1.01273" cy="1.01273" r="1.01273" transform="matrix(-1 0 0 1 237.649 29.8116)" stroke="white" stroke-width="0.625"/>
<g filter="url(#filter62_f_16_1020)">
<path d="M228.598 31.3938C225.914 30.1279 223.281 30.7608 222.205 31.3938C221.445 32.09 222.585 32.2166 223.281 32.2166C223.534 32.2166 224.311 32.5331 224.547 32.7863C225.256 33.5458 226.003 33.2293 226.319 32.7863C226.572 32.4318 227.29 32.2166 227.648 32.2166C229.167 32.2799 229.041 31.647 228.598 31.3938Z" stroke="#F645F9" stroke-width="1.25" stroke-linecap="round"/>
</g>
<g filter="url(#filter63_f_16_1020)">
<path d="M228.598 31.3938C225.914 30.1279 223.281 30.7608 222.205 31.3938C221.445 32.09 222.585 32.2166 223.281 32.2166C223.534 32.2166 224.311 32.5331 224.547 32.7863C225.256 33.5458 226.003 33.2293 226.319 32.7863C226.572 32.4318 227.29 32.2166 227.648 32.2166C229.167 32.2799 229.041 31.647 228.598 31.3938Z" stroke="#F645F9" stroke-width="1.25" stroke-linecap="round"/>
</g>
<g filter="url(#filter64_f_16_1020)">
<path d="M228.598 31.3938C225.914 30.1279 223.281 30.7608 222.205 31.3938C221.445 32.09 222.585 32.2166 223.281 32.2166C223.534 32.2166 224.311 32.5331 224.547 32.7863C225.256 33.5458 226.003 33.2293 226.319 32.7863C226.572 32.4318 227.29 32.2166 227.648 32.2166C229.167 32.2799 229.041 31.647 228.598 31.3938Z" stroke="#F645F9" stroke-width="1.25" stroke-linecap="round"/>
</g>
<path d="M228.598 31.3938C225.914 30.1279 223.281 30.7608 222.205 31.3938C221.445 32.09 222.585 32.2166 223.281 32.2166C223.534 32.2166 224.311 32.5331 224.547 32.7863C225.256 33.5458 226.003 33.2293 226.319 32.7863C226.572 32.4318 227.29 32.2166 227.648 32.2166C229.167 32.2799 229.041 31.647 228.598 31.3938Z" stroke="white" stroke-width="0.625" stroke-linecap="round"/>
<g filter="url(#filter65_f_16_1020)">
<path d="M242.903 34.3687L254.486 30.6976M244.042 36.3942C247.017 35.9933 254.068 35.2548 258.473 35.508M244.738 38.6095L256.701 40.4451" stroke="#F645F9" stroke-width="1.25" stroke-linecap="round"/>
</g>
<g filter="url(#filter66_f_16_1020)">
<path d="M208.027 34.4318L195.874 30.5707M206.951 36.3939L192.013 35.3179M206.255 38.6725L193.722 40.4448" stroke="#F645F9" stroke-width="1.25" stroke-linecap="round"/>
</g>
<g filter="url(#filter67_f_16_1020)">
<path d="M242.903 34.3687L254.486 30.6976M244.042 36.3942C247.017 35.9933 254.068 35.2548 258.473 35.508M244.738 38.6095L256.701 40.4451" stroke="#F645F9" stroke-width="1.25" stroke-linecap="round"/>
</g>
<g filter="url(#filter68_f_16_1020)">
<path d="M208.027 34.4318L195.874 30.5707M206.951 36.3939L192.013 35.3179M206.255 38.6725L193.722 40.4448" stroke="#F645F9" stroke-width="1.25" stroke-linecap="round"/>
</g>
<g filter="url(#filter69_f_16_1020)">
<path d="M242.903 34.3687L254.486 30.6976M244.042 36.3942C247.017 35.9933 254.068 35.2548 258.473 35.508M244.738 38.6095L256.701 40.4451" stroke="#F645F9" stroke-width="1.25" stroke-linecap="round"/>
</g>
<g filter="url(#filter70_f_16_1020)">
<path d="M242.903 34.3687L254.486 30.6976M244.042 36.3942C247.017 35.9933 254.068 35.2548 258.473 35.508M244.738 38.6095L256.701 40.4451" stroke="#F645F9" stroke-width="1.25" stroke-linecap="round"/>
</g>
<g filter="url(#filter71_f_16_1020)">
<path d="M208.027 34.4318L195.874 30.5707M206.951 36.3939L192.013 35.3179M206.255 38.6725L193.722 40.4448" stroke="#F645F9" stroke-width="1.25" stroke-linecap="round"/>
</g>
<g filter="url(#filter72_f_16_1020)">
<path d="M208.027 34.4318L195.874 30.5707M206.951 36.3939L192.013 35.3179M206.255 38.6725L193.722 40.4448" stroke="#F645F9" stroke-width="1.25" stroke-linecap="round"/>
</g>
<path d="M242.903 34.3687L254.486 30.6976M244.042 36.3942C247.017 35.9933 254.068 35.2548 258.473 35.508M244.738 38.6095L256.701 40.4451" stroke="white" stroke-width="0.625" stroke-linecap="round"/>
<path d="M208.027 34.4318L195.874 30.5707M206.951 36.3939L192.013 35.3179M206.255 38.6725L193.722 40.4448" stroke="white" stroke-width="0.625" stroke-linecap="round"/>
<defs>
<filter id="filter0_f_16_1020" x="338.396" y="14.6166" width="41.1381" height="52.8845" filterUnits="userSpaceOnUse" color-interpolation-filters="sRGB">
<feFlood flood-opacity="0" result="BackgroundImageFix"/>
<feBlend mode="normal" in="SourceGraphic" in2="BackgroundImageFix" result="shape"/>
<feGaussianBlur stdDeviation="3.4375" result="effect1_foregroundBlur_16_1020"/>
</filter>
<filter id="filter1_f_16_1020" x="306.677" y="14.6629" width="40.6393" height="52.759" filterUnits="userSpaceOnUse" color-interpolation-filters="sRGB">
<feFlood flood-opacity="0" result="BackgroundImageFix"/>
<feBlend mode="normal" in="SourceGraphic" in2="BackgroundImageFix" result="shape"/>
<feGaussianBlur stdDeviation="3.4375" result="effect1_foregroundBlur_16_1020"/>
</filter>
<filter id="filter2_f_16_1020" x="278.534" y="14.5964" width="40.1453" height="52.8307" filterUnits="userSpaceOnUse" color-interpolation-filters="sRGB">
<feFlood flood-opacity="0" result="BackgroundImageFix"/>
<feBlend mode="normal" in="SourceGraphic" in2="BackgroundImageFix" result="shape"/>
<feGaussianBlur stdDeviation="3.4375" result="effect1_foregroundBlur_16_1020"/>
</filter>
<filter id="filter3_f_16_1020" x="253.295" y="14.6166" width="36.7844" height="52.8809" filterUnits="userSpaceOnUse" color-interpolation-filters="sRGB">
<feFlood flood-opacity="0" result="BackgroundImageFix"/>
<feBlend mode="normal" in="SourceGraphic" in2="BackgroundImageFix" result="shape"/>
<feGaussianBlur stdDeviation="3.4375" result="effect1_foregroundBlur_16_1020"/>
</filter>
<filter id="filter4_f_16_1020" x="338.396" y="14.6166" width="41.1381" height="52.8845" filterUnits="userSpaceOnUse" color-interpolation-filters="sRGB">
<feFlood flood-opacity="0" result="BackgroundImageFix"/>
<feBlend mode="normal" in="SourceGraphic" in2="BackgroundImageFix" result="shape"/>
<feGaussianBlur stdDeviation="3.4375" result="effect1_foregroundBlur_16_1020"/>
</filter>
<filter id="filter5_f_16_1020" x="306.677" y="14.6629" width="40.6393" height="52.759" filterUnits="userSpaceOnUse" color-interpolation-filters="sRGB">
<feFlood flood-opacity="0" result="BackgroundImageFix"/>
<feBlend mode="normal" in="SourceGraphic" in2="BackgroundImageFix" result="shape"/>
<feGaussianBlur stdDeviation="3.4375" result="effect1_foregroundBlur_16_1020"/>
</filter>
<filter id="filter6_f_16_1020" x="278.534" y="14.5964" width="40.1453" height="52.8307" filterUnits="userSpaceOnUse" color-interpolation-filters="sRGB">
<feFlood flood-opacity="0" result="BackgroundImageFix"/>
<feBlend mode="normal" in="SourceGraphic" in2="BackgroundImageFix" result="shape"/>
<feGaussianBlur stdDeviation="3.4375" result="effect1_foregroundBlur_16_1020"/>
</filter>
<filter id="filter7_f_16_1020" x="253.295" y="14.6166" width="36.7844" height="52.8809" filterUnits="userSpaceOnUse" color-interpolation-filters="sRGB">
<feFlood flood-opacity="0" result="BackgroundImageFix"/>
<feBlend mode="normal" in="SourceGraphic" in2="BackgroundImageFix" result="shape"/>
<feGaussianBlur stdDeviation="3.4375" result="effect1_foregroundBlur_16_1020"/>
</filter>
<filter id="filter8_f_16_1020" x="149.482" y="13.8901" width="48.507" height="52.8806" filterUnits="userSpaceOnUse" color-interpolation-filters="sRGB">
<feFlood flood-opacity="0" result="BackgroundImageFix"/>
<feBlend mode="normal" in="SourceGraphic" in2="BackgroundImageFix" result="shape"/>
<feGaussianBlur stdDeviation="3.4375" result="effect1_foregroundBlur_16_1020"/>
</filter>
<filter id="filter9_f_16_1020" x="126.839" y="13.8898" width="36.7872" height="52.8809" filterUnits="userSpaceOnUse" color-interpolation-filters="sRGB">
<feFlood flood-opacity="0" result="BackgroundImageFix"/>
<feBlend mode="normal" in="SourceGraphic" in2="BackgroundImageFix" result="shape"/>
<feGaussianBlur stdDeviation="3.4375" result="effect1_foregroundBlur_16_1020"/>
</filter>
<filter id="filter10_f_16_1020" x="90.8353" y="13.8901" width="48.2341" height="52.8806" filterUnits="userSpaceOnUse" color-interpolation-filters="sRGB">
<feFlood flood-opacity="0" result="BackgroundImageFix"/>
<feBlend mode="normal" in="SourceGraphic" in2="BackgroundImageFix" result="shape"/>
<feGaussianBlur stdDeviation="3.4375" result="effect1_foregroundBlur_16_1020"/>
</filter>
<filter id="filter11_f_16_1020" x="61.6466" y="13.8898" width="44.4249" height="52.8809" filterUnits="userSpaceOnUse" color-interpolation-filters="sRGB">
<feFlood flood-opacity="0" result="BackgroundImageFix"/>
<feBlend mode="normal" in="SourceGraphic" in2="BackgroundImageFix" result="shape"/>
<feGaussianBlur stdDeviation="3.4375" result="effect1_foregroundBlur_16_1020"/>
</filter>
<filter id="filter12_f_16_1020" x="28.9161" y="13.8901" width="48.7797" height="52.8806" filterUnits="userSpaceOnUse" color-interpolation-filters="sRGB">
<feFlood flood-opacity="0" result="BackgroundImageFix"/>
<feBlend mode="normal" in="SourceGraphic" in2="BackgroundImageFix" result="shape"/>
<feGaussianBlur stdDeviation="3.4375" result="effect1_foregroundBlur_16_1020"/>
</filter>
<filter id="filter13_f_16_1020" x="0" y="13.8897" width="44.4249" height="52.8809" filterUnits="userSpaceOnUse" color-interpolation-filters="sRGB">
<feFlood flood-opacity="0" result="BackgroundImageFix"/>
<feBlend mode="normal" in="SourceGraphic" in2="BackgroundImageFix" result="shape"/>
<feGaussianBlur stdDeviation="3.4375" result="effect1_foregroundBlur_16_1020"/>
</filter>
<filter id="filter14_f_16_1020" x="149.482" y="13.8901" width="48.507" height="52.8806" filterUnits="userSpaceOnUse" color-interpolation-filters="sRGB">
<feFlood flood-opacity="0" result="BackgroundImageFix"/>
<feBlend mode="normal" in="SourceGraphic" in2="BackgroundImageFix" result="shape"/>
<feGaussianBlur stdDeviation="3.4375" result="effect1_foregroundBlur_16_1020"/>
</filter>
<filter id="filter15_f_16_1020" x="126.839" y="13.8898" width="36.7872" height="52.8809" filterUnits="userSpaceOnUse" color-interpolation-filters="sRGB">
<feFlood flood-opacity="0" result="BackgroundImageFix"/>
<feBlend mode="normal" in="SourceGraphic" in2="BackgroundImageFix" result="shape"/>
<feGaussianBlur stdDeviation="3.4375" result="effect1_foregroundBlur_16_1020"/>
</filter>
<filter id="filter16_f_16_1020" x="90.8353" y="13.8901" width="48.2341" height="52.8806" filterUnits="userSpaceOnUse" color-interpolation-filters="sRGB">
<feFlood flood-opacity="0" result="BackgroundImageFix"/>
<feBlend mode="normal" in="SourceGraphic" in2="BackgroundImageFix" result="shape"/>
<feGaussianBlur stdDeviation="3.4375" result="effect1_foregroundBlur_16_1020"/>
</filter>
<filter id="filter17_f_16_1020" x="61.6466" y="13.8898" width="44.4249" height="52.8809" filterUnits="userSpaceOnUse" color-interpolation-filters="sRGB">
<feFlood flood-opacity="0" result="BackgroundImageFix"/>
<feBlend mode="normal" in="SourceGraphic" in2="BackgroundImageFix" result="shape"/>
<feGaussianBlur stdDeviation="3.4375" result="effect1_foregroundBlur_16_1020"/>
</filter>
<filter id="filter18_f_16_1020" x="28.9161" y="13.8901" width="48.7797" height="52.8806" filterUnits="userSpaceOnUse" color-interpolation-filters="sRGB">
<feFlood flood-opacity="0" result="BackgroundImageFix"/>
<feBlend mode="normal" in="SourceGraphic" in2="BackgroundImageFix" result="shape"/>
<feGaussianBlur stdDeviation="3.4375" result="effect1_foregroundBlur_16_1020"/>
</filter>
<filter id="filter19_f_16_1020" x="0" y="13.8897" width="44.4249" height="52.8809" filterUnits="userSpaceOnUse" color-interpolation-filters="sRGB">
<feFlood flood-opacity="0" result="BackgroundImageFix"/>
<feBlend mode="normal" in="SourceGraphic" in2="BackgroundImageFix" result="shape"/>
<feGaussianBlur stdDeviation="3.4375" result="effect1_foregroundBlur_16_1020"/>
</filter>
<filter id="filter20_f_16_1020" x="186.579" y="0" width="77.5826" height="63.6581" filterUnits="userSpaceOnUse" color-interpolation-filters="sRGB">
<feFlood flood-opacity="0" result="BackgroundImageFix"/>
<feBlend mode="normal" in="SourceGraphic" in2="BackgroundImageFix" result="shape"/>
<feGaussianBlur stdDeviation="2.0625" result="effect1_foregroundBlur_16_1020"/>
</filter>
<filter id="filter21_f_16_1020" x="186.579" y="0" width="77.5826" height="63.6581" filterUnits="userSpaceOnUse" color-interpolation-filters="sRGB">
<feFlood flood-opacity="0" result="BackgroundImageFix"/>
<feBlend mode="normal" in="SourceGraphic" in2="BackgroundImageFix" result="shape"/>
<feGaussianBlur stdDeviation="2.0625" result="effect1_foregroundBlur_16_1020"/>
</filter>
<filter id="filter22_f_16_1020" x="186.579" y="0" width="77.5826" height="63.6581" filterUnits="userSpaceOnUse" color-interpolation-filters="sRGB">
<feFlood flood-opacity="0" result="BackgroundImageFix"/>
<feBlend mode="normal" in="SourceGraphic" in2="BackgroundImageFix" result="shape"/>
<feGaussianBlur stdDeviation="2.0625" result="effect1_foregroundBlur_16_1020"/>
</filter>
<filter id="filter23_f_16_1020" x="193.563" y="36.3787" width="64.1481" height="30.6102" filterUnits="userSpaceOnUse" color-interpolation-filters="sRGB">
<feFlood flood-opacity="0" result="BackgroundImageFix"/>
<feBlend mode="normal" in="SourceGraphic" in2="BackgroundImageFix" result="shape"/>
<feGaussianBlur stdDeviation="3.75" result="effect1_foregroundBlur_16_1020"/>
</filter>
<filter id="filter24_f_16_1020" x="193.563" y="36.3787" width="64.1481" height="30.6102" filterUnits="userSpaceOnUse" color-interpolation-filters="sRGB">
<feFlood flood-opacity="0" result="BackgroundImageFix"/>
<feBlend mode="normal" in="SourceGraphic" in2="BackgroundImageFix" result="shape"/>
<feGaussianBlur stdDeviation="3.75" result="effect1_foregroundBlur_16_1020"/>
</filter>
<filter id="filter25_f_16_1020" x="193.563" y="36.3787" width="64.1481" height="30.6102" filterUnits="userSpaceOnUse" color-interpolation-filters="sRGB">
<feFlood flood-opacity="0" result="BackgroundImageFix"/>
<feBlend mode="normal" in="SourceGraphic" in2="BackgroundImageFix" result="shape"/>
<feGaussianBlur stdDeviation="3.75" result="effect1_foregroundBlur_16_1020"/>
</filter>
<filter id="filter26_f_16_1020" x="209.214" y="33.5303" width="7.5" height="10.6648" filterUnits="userSpaceOnUse" color-interpolation-filters="sRGB">
<feFlood flood-opacity="0" result="BackgroundImageFix"/>
<feBlend mode="normal" in="SourceGraphic" in2="BackgroundImageFix" result="shape"/>
<feGaussianBlur stdDeviation="1.5625" result="effect1_foregroundBlur_16_1020"/>
</filter>
<filter id="filter27_f_16_1020" x="214.784" y="33.2772" width="7.5" height="12.5636" filterUnits="userSpaceOnUse" color-interpolation-filters="sRGB">
<feFlood flood-opacity="0" result="BackgroundImageFix"/>
<feBlend mode="normal" in="SourceGraphic" in2="BackgroundImageFix" result="shape"/>
<feGaussianBlur stdDeviation="1.5625" result="effect1_foregroundBlur_16_1020"/>
</filter>
<filter id="filter28_f_16_1020" x="228.583" y="33.4039" width="7.5" height="12.3104" filterUnits="userSpaceOnUse" color-interpolation-filters="sRGB">
<feFlood flood-opacity="0" result="BackgroundImageFix"/>
<feBlend mode="normal" in="SourceGraphic" in2="BackgroundImageFix" result="shape"/>
<feGaussianBlur stdDeviation="1.5625" result="effect1_foregroundBlur_16_1020"/>
</filter>
<filter id="filter29_f_16_1020" x="221.747" y="33.1506" width="7.5" height="13.1966" filterUnits="userSpaceOnUse" color-interpolation-filters="sRGB">
<feFlood flood-opacity="0" result="BackgroundImageFix"/>
<feBlend mode="normal" in="SourceGraphic" in2="BackgroundImageFix" result="shape"/>
<feGaussianBlur stdDeviation="1.5625" result="effect1_foregroundBlur_16_1020"/>
</filter>
<filter id="filter30_f_16_1020" x="234.153" y="33.9102" width="7.5" height="10.0318" filterUnits="userSpaceOnUse" color-interpolation-filters="sRGB">
<feFlood flood-opacity="0" result="BackgroundImageFix"/>
<feBlend mode="normal" in="SourceGraphic" in2="BackgroundImageFix" result="shape"/>
<feGaussianBlur stdDeviation="1.5625" result="effect1_foregroundBlur_16_1020"/>
</filter>
<filter id="filter31_f_16_1020" x="209.214" y="33.5303" width="7.5" height="10.6648" filterUnits="userSpaceOnUse" color-interpolation-filters="sRGB">
<feFlood flood-opacity="0" result="BackgroundImageFix"/>
<feBlend mode="normal" in="SourceGraphic" in2="BackgroundImageFix" result="shape"/>
<feGaussianBlur stdDeviation="1.5625" result="effect1_foregroundBlur_16_1020"/>
</filter>
<filter id="filter32_f_16_1020" x="214.784" y="33.2772" width="7.5" height="12.5636" filterUnits="userSpaceOnUse" color-interpolation-filters="sRGB">
<feFlood flood-opacity="0" result="BackgroundImageFix"/>
<feBlend mode="normal" in="SourceGraphic" in2="BackgroundImageFix" result="shape"/>
<feGaussianBlur stdDeviation="1.5625" result="effect1_foregroundBlur_16_1020"/>
</filter>
<filter id="filter33_f_16_1020" x="228.583" y="33.4039" width="7.5" height="12.3104" filterUnits="userSpaceOnUse" color-interpolation-filters="sRGB">
<feFlood flood-opacity="0" result="BackgroundImageFix"/>
<feBlend mode="normal" in="SourceGraphic" in2="BackgroundImageFix" result="shape"/>
<feGaussianBlur stdDeviation="1.5625" result="effect1_foregroundBlur_16_1020"/>
</filter>
<filter id="filter34_f_16_1020" x="221.747" y="33.1506" width="7.5" height="13.1966" filterUnits="userSpaceOnUse" color-interpolation-filters="sRGB">
<feFlood flood-opacity="0" result="BackgroundImageFix"/>
<feBlend mode="normal" in="SourceGraphic" in2="BackgroundImageFix" result="shape"/>
<feGaussianBlur stdDeviation="1.5625" result="effect1_foregroundBlur_16_1020"/>
</filter>
<filter id="filter35_f_16_1020" x="234.153" y="33.9102" width="7.5" height="10.0318" filterUnits="userSpaceOnUse" color-interpolation-filters="sRGB">
<feFlood flood-opacity="0" result="BackgroundImageFix"/>
<feBlend mode="normal" in="SourceGraphic" in2="BackgroundImageFix" result="shape"/>
<feGaussianBlur stdDeviation="1.5625" result="effect1_foregroundBlur_16_1020"/>
</filter>
<filter id="filter36_f_16_1020" x="209.214" y="33.5303" width="7.5" height="10.6648" filterUnits="userSpaceOnUse" color-interpolation-filters="sRGB">
<feFlood flood-opacity="0" result="BackgroundImageFix"/>
<feBlend mode="normal" in="SourceGraphic" in2="BackgroundImageFix" result="shape"/>
<feGaussianBlur stdDeviation="1.5625" result="effect1_foregroundBlur_16_1020"/>
</filter>
<filter id="filter37_f_16_1020" x="214.784" y="33.2772" width="7.5" height="12.5636" filterUnits="userSpaceOnUse" color-interpolation-filters="sRGB">
<feFlood flood-opacity="0" result="BackgroundImageFix"/>
<feBlend mode="normal" in="SourceGraphic" in2="BackgroundImageFix" result="shape"/>
<feGaussianBlur stdDeviation="1.5625" result="effect1_foregroundBlur_16_1020"/>
</filter>
<filter id="filter38_f_16_1020" x="228.583" y="33.4039" width="7.5" height="12.3104" filterUnits="userSpaceOnUse" color-interpolation-filters="sRGB">
<feFlood flood-opacity="0" result="BackgroundImageFix"/>
<feBlend mode="normal" in="SourceGraphic" in2="BackgroundImageFix" result="shape"/>
<feGaussianBlur stdDeviation="1.5625" result="effect1_foregroundBlur_16_1020"/>
</filter>
<filter id="filter39_f_16_1020" x="221.747" y="33.1506" width="7.5" height="13.1966" filterUnits="userSpaceOnUse" color-interpolation-filters="sRGB">
<feFlood flood-opacity="0" result="BackgroundImageFix"/>
<feBlend mode="normal" in="SourceGraphic" in2="BackgroundImageFix" result="shape"/>
<feGaussianBlur stdDeviation="1.5625" result="effect1_foregroundBlur_16_1020"/>
</filter>
<filter id="filter40_f_16_1020" x="234.153" y="33.9102" width="7.5" height="10.0318" filterUnits="userSpaceOnUse" color-interpolation-filters="sRGB">
<feFlood flood-opacity="0" result="BackgroundImageFix"/>
<feBlend mode="normal" in="SourceGraphic" in2="BackgroundImageFix" result="shape"/>
<feGaussianBlur stdDeviation="1.5625" result="effect1_foregroundBlur_16_1020"/>
</filter>
<filter id="filter41_f_16_1020" x="205.375" y="32.8563" width="40.1787" height="13.8011" filterUnits="userSpaceOnUse" color-interpolation-filters="sRGB">
<feFlood flood-opacity="0" result="BackgroundImageFix"/>
<feBlend mode="normal" in="SourceGraphic" in2="BackgroundImageFix" result="shape"/>
<feGaussianBlur stdDeviation="1.5625" result="effect1_foregroundBlur_16_1020"/>
</filter>
<filter id="filter42_f_16_1020" x="205.375" y="32.8563" width="40.1787" height="13.8011" filterUnits="userSpaceOnUse" color-interpolation-filters="sRGB">
<feFlood flood-opacity="0" result="BackgroundImageFix"/>
<feBlend mode="normal" in="SourceGraphic" in2="BackgroundImageFix" result="shape"/>
<feGaussianBlur stdDeviation="1.5625" result="effect1_foregroundBlur_16_1020"/>
</filter>
<filter id="filter43_f_16_1020" x="205.375" y="32.8563" width="40.1787" height="13.8011" filterUnits="userSpaceOnUse" color-interpolation-filters="sRGB">
<feFlood flood-opacity="0" result="BackgroundImageFix"/>
<feBlend mode="normal" in="SourceGraphic" in2="BackgroundImageFix" result="shape"/>
<feGaussianBlur stdDeviation="1.5625" result="effect1_foregroundBlur_16_1020"/>
</filter>
<filter id="filter44_f_16_1020" x="205.365" y="22.4658" width="16.5907" height="16.5907" filterUnits="userSpaceOnUse" color-interpolation-filters="sRGB">
<feFlood flood-opacity="0" result="BackgroundImageFix"/>
<feBlend mode="normal" in="SourceGraphic" in2="BackgroundImageFix" result="shape"/>
<feGaussianBlur stdDeviation="2.03125" result="effect1_foregroundBlur_16_1020"/>
</filter>
<filter id="filter45_f_16_1020" x="205.365" y="22.4658" width="16.5907" height="16.5907" filterUnits="userSpaceOnUse" color-interpolation-filters="sRGB">
<feFlood flood-opacity="0" result="BackgroundImageFix"/>
<feBlend mode="normal" in="SourceGraphic" in2="BackgroundImageFix" result="shape"/>
<feGaussianBlur stdDeviation="2.03125" result="effect1_foregroundBlur_16_1020"/>
</filter>
<filter id="filter46_f_16_1020" x="205.365" y="22.4658" width="16.5907" height="16.5907" filterUnits="userSpaceOnUse" color-interpolation-filters="sRGB">
<feFlood flood-opacity="0" result="BackgroundImageFix"/>
<feBlend mode="normal" in="SourceGraphic" in2="BackgroundImageFix" result="shape"/>
<feGaussianBlur stdDeviation="2.03125" result="effect1_foregroundBlur_16_1020"/>
</filter>
<filter id="filter47_f_16_1020" x="205.365" y="22.4658" width="16.5907" height="16.5907" filterUnits="userSpaceOnUse" color-interpolation-filters="sRGB">
<feFlood flood-opacity="0" result="BackgroundImageFix"/>
<feBlend mode="normal" in="SourceGraphic" in2="BackgroundImageFix" result="shape"/>
<feGaussianBlur stdDeviation="2.03125" result="effect1_foregroundBlur_16_1020"/>
</filter>
<filter id="filter48_f_16_1020" x="205.365" y="22.4658" width="16.5907" height="16.5907" filterUnits="userSpaceOnUse" color-interpolation-filters="sRGB">
<feFlood flood-opacity="0" result="BackgroundImageFix"/>
<feBlend mode="normal" in="SourceGraphic" in2="BackgroundImageFix" result="shape"/>
<feGaussianBlur stdDeviation="2.03125" result="effect1_foregroundBlur_16_1020"/>
</filter>
<filter id="filter49_f_16_1020" x="208.528" y="25.2491" width="11.1504" height="11.1505" filterUnits="userSpaceOnUse" color-interpolation-filters="sRGB">
<feFlood flood-opacity="0" result="BackgroundImageFix"/>
<feBlend mode="normal" in="SourceGraphic" in2="BackgroundImageFix" result="shape"/>
<feGaussianBlur stdDeviation="1.96875" result="effect1_foregroundBlur_16_1020"/>
</filter>
<filter id="filter50_f_16_1020" x="208.528" y="25.2491" width="11.1504" height="11.1505" filterUnits="userSpaceOnUse" color-interpolation-filters="sRGB">
<feFlood flood-opacity="0" result="BackgroundImageFix"/>
<feBlend mode="normal" in="SourceGraphic" in2="BackgroundImageFix" result="shape"/>
<feGaussianBlur stdDeviation="1.96875" result="effect1_foregroundBlur_16_1020"/>
</filter>
<filter id="filter51_f_16_1020" x="208.528" y="25.2491" width="11.1504" height="11.1505" filterUnits="userSpaceOnUse" color-interpolation-filters="sRGB">
<feFlood flood-opacity="0" result="BackgroundImageFix"/>
<feBlend mode="normal" in="SourceGraphic" in2="BackgroundImageFix" result="shape"/>
<feGaussianBlur stdDeviation="1.96875" result="effect1_foregroundBlur_16_1020"/>
</filter>
<filter id="filter52_f_16_1020" x="208.528" y="25.2491" width="11.1504" height="11.1505" filterUnits="userSpaceOnUse" color-interpolation-filters="sRGB">
<feFlood flood-opacity="0" result="BackgroundImageFix"/>
<feBlend mode="normal" in="SourceGraphic" in2="BackgroundImageFix" result="shape"/>
<feGaussianBlur stdDeviation="1.96875" result="effect1_foregroundBlur_16_1020"/>
</filter>
<filter id="filter53_f_16_1020" x="229.784" y="23.4658" width="14.5907" height="14.5907" filterUnits="userSpaceOnUse" color-interpolation-filters="sRGB">
<feFlood flood-opacity="0" result="BackgroundImageFix"/>
<feBlend mode="normal" in="SourceGraphic" in2="BackgroundImageFix" result="shape"/>
<feGaussianBlur stdDeviation="1.53125" result="effect1_foregroundBlur_16_1020"/>
</filter>
<filter id="filter54_f_16_1020" x="229.784" y="23.4658" width="14.5907" height="14.5907" filterUnits="userSpaceOnUse" color-interpolation-filters="sRGB">
<feFlood flood-opacity="0" result="BackgroundImageFix"/>
<feBlend mode="normal" in="SourceGraphic" in2="BackgroundImageFix" result="shape"/>
<feGaussianBlur stdDeviation="1.53125" result="effect1_foregroundBlur_16_1020"/>
</filter>
<filter id="filter55_f_16_1020" x="229.784" y="23.4658" width="14.5907" height="14.5907" filterUnits="userSpaceOnUse" color-interpolation-filters="sRGB">
<feFlood flood-opacity="0" result="BackgroundImageFix"/>
<feBlend mode="normal" in="SourceGraphic" in2="BackgroundImageFix" result="shape"/>
<feGaussianBlur stdDeviation="1.53125" result="effect1_foregroundBlur_16_1020"/>
</filter>
<filter id="filter56_f_16_1020" x="229.784" y="23.4658" width="14.5907" height="14.5907" filterUnits="userSpaceOnUse" color-interpolation-filters="sRGB">
<feFlood flood-opacity="0" result="BackgroundImageFix"/>
<feBlend mode="normal" in="SourceGraphic" in2="BackgroundImageFix" result="shape"/>
<feGaussianBlur stdDeviation="1.53125" result="effect1_foregroundBlur_16_1020"/>
</filter>
<filter id="filter57_f_16_1020" x="229.784" y="23.4658" width="14.5907" height="14.5907" filterUnits="userSpaceOnUse" color-interpolation-filters="sRGB">
<feFlood flood-opacity="0" result="BackgroundImageFix"/>
<feBlend mode="normal" in="SourceGraphic" in2="BackgroundImageFix" result="shape"/>
<feGaussianBlur stdDeviation="1.53125" result="effect1_foregroundBlur_16_1020"/>
</filter>
<filter id="filter58_f_16_1020" x="231.249" y="25.4366" width="10.7754" height="10.7755" filterUnits="userSpaceOnUse" color-interpolation-filters="sRGB">
<feFlood flood-opacity="0" result="BackgroundImageFix"/>
<feBlend mode="normal" in="SourceGraphic" in2="BackgroundImageFix" result="shape"/>
<feGaussianBlur stdDeviation="1.875" result="effect1_foregroundBlur_16_1020"/>
</filter>
<filter id="filter59_f_16_1020" x="231.249" y="25.4366" width="10.7754" height="10.7755" filterUnits="userSpaceOnUse" color-interpolation-filters="sRGB">
<feFlood flood-opacity="0" result="BackgroundImageFix"/>
<feBlend mode="normal" in="SourceGraphic" in2="BackgroundImageFix" result="shape"/>
<feGaussianBlur stdDeviation="1.875" result="effect1_foregroundBlur_16_1020"/>
</filter>
<filter id="filter60_f_16_1020" x="231.249" y="25.4366" width="10.7754" height="10.7755" filterUnits="userSpaceOnUse" color-interpolation-filters="sRGB">
<feFlood flood-opacity="0" result="BackgroundImageFix"/>
<feBlend mode="normal" in="SourceGraphic" in2="BackgroundImageFix" result="shape"/>
<feGaussianBlur stdDeviation="1.875" result="effect1_foregroundBlur_16_1020"/>
</filter>
<filter id="filter61_f_16_1020" x="231.249" y="25.4366" width="10.7754" height="10.7755" filterUnits="userSpaceOnUse" color-interpolation-filters="sRGB">
<feFlood flood-opacity="0" result="BackgroundImageFix"/>
<feBlend mode="normal" in="SourceGraphic" in2="BackgroundImageFix" result="shape"/>
<feGaussianBlur stdDeviation="1.875" result="effect1_foregroundBlur_16_1020"/>
</filter>
<filter id="filter62_f_16_1020" x="217.203" y="25.9128" width="16.4396" height="12.0822" filterUnits="userSpaceOnUse" color-interpolation-filters="sRGB">
<feFlood flood-opacity="0" result="BackgroundImageFix"/>
<feBlend mode="normal" in="SourceGraphic" in2="BackgroundImageFix" result="shape"/>
<feGaussianBlur stdDeviation="2.0625" result="effect1_foregroundBlur_16_1020"/>
</filter>
<filter id="filter63_f_16_1020" x="217.203" y="25.9128" width="16.4396" height="12.0822" filterUnits="userSpaceOnUse" color-interpolation-filters="sRGB">
<feFlood flood-opacity="0" result="BackgroundImageFix"/>
<feBlend mode="normal" in="SourceGraphic" in2="BackgroundImageFix" result="shape"/>
<feGaussianBlur stdDeviation="2.0625" result="effect1_foregroundBlur_16_1020"/>
</filter>
<filter id="filter64_f_16_1020" x="217.203" y="25.9128" width="16.4396" height="12.0822" filterUnits="userSpaceOnUse" color-interpolation-filters="sRGB">
<feFlood flood-opacity="0" result="BackgroundImageFix"/>
<feBlend mode="normal" in="SourceGraphic" in2="BackgroundImageFix" result="shape"/>
<feGaussianBlur stdDeviation="2.0625" result="effect1_foregroundBlur_16_1020"/>
</filter>
<filter id="filter65_f_16_1020" x="235.34" y="23.1349" width="30.6958" height="24.8727" filterUnits="userSpaceOnUse" color-interpolation-filters="sRGB">
<feFlood flood-opacity="0" result="BackgroundImageFix"/>
<feBlend mode="normal" in="SourceGraphic" in2="BackgroundImageFix" result="shape"/>
<feGaussianBlur stdDeviation="3.46875" result="effect1_foregroundBlur_16_1020"/>
</filter>
<filter id="filter66_f_16_1020" x="184.451" y="23.0081" width="31.1389" height="24.9993" filterUnits="userSpaceOnUse" color-interpolation-filters="sRGB">
<feFlood flood-opacity="0" result="BackgroundImageFix"/>
<feBlend mode="normal" in="SourceGraphic" in2="BackgroundImageFix" result="shape"/>
<feGaussianBlur stdDeviation="3.46875" result="effect1_foregroundBlur_16_1020"/>
</filter>
<filter id="filter67_f_16_1020" x="235.34" y="23.1349" width="30.6958" height="24.8727" filterUnits="userSpaceOnUse" color-interpolation-filters="sRGB">
<feFlood flood-opacity="0" result="BackgroundImageFix"/>
<feBlend mode="normal" in="SourceGraphic" in2="BackgroundImageFix" result="shape"/>
<feGaussianBlur stdDeviation="3.46875" result="effect1_foregroundBlur_16_1020"/>
</filter>
<filter id="filter68_f_16_1020" x="184.451" y="23.0081" width="31.1389" height="24.9993" filterUnits="userSpaceOnUse" color-interpolation-filters="sRGB">
<feFlood flood-opacity="0" result="BackgroundImageFix"/>
<feBlend mode="normal" in="SourceGraphic" in2="BackgroundImageFix" result="shape"/>
<feGaussianBlur stdDeviation="3.46875" result="effect1_foregroundBlur_16_1020"/>
</filter>
<filter id="filter69_f_16_1020" x="235.34" y="23.1349" width="30.6958" height="24.8727" filterUnits="userSpaceOnUse" color-interpolation-filters="sRGB">
<feFlood flood-opacity="0" result="BackgroundImageFix"/>
<feBlend mode="normal" in="SourceGraphic" in2="BackgroundImageFix" result="shape"/>
<feGaussianBlur stdDeviation="3.46875" result="effect1_foregroundBlur_16_1020"/>
</filter>
<filter id="filter70_f_16_1020" x="235.34" y="23.1349" width="30.6958" height="24.8727" filterUnits="userSpaceOnUse" color-interpolation-filters="sRGB">
<feFlood flood-opacity="0" result="BackgroundImageFix"/>
<feBlend mode="normal" in="SourceGraphic" in2="BackgroundImageFix" result="shape"/>
<feGaussianBlur stdDeviation="3.46875" result="effect1_foregroundBlur_16_1020"/>
</filter>
<filter id="filter71_f_16_1020" x="184.451" y="23.0081" width="31.1389" height="24.9993" filterUnits="userSpaceOnUse" color-interpolation-filters="sRGB">
<feFlood flood-opacity="0" result="BackgroundImageFix"/>
<feBlend mode="normal" in="SourceGraphic" in2="BackgroundImageFix" result="shape"/>
<feGaussianBlur stdDeviation="3.46875" result="effect1_foregroundBlur_16_1020"/>
</filter>
<filter id="filter72_f_16_1020" x="184.451" y="23.0081" width="31.1389" height="24.9993" filterUnits="userSpaceOnUse" color-interpolation-filters="sRGB">
<feFlood flood-opacity="0" result="BackgroundImageFix"/>
<feBlend mode="normal" in="SourceGraphic" in2="BackgroundImageFix" result="shape"/>
<feGaussianBlur stdDeviation="3.46875" result="effect1_foregroundBlur_16_1020"/>
</filter>
</defs>
</svg>
