<svg width="113" height="113" viewBox="0 0 113 113" fill="none" xmlns="http://www.w3.org/2000/svg">
<g filter="url(#filter0_d_52_248)">
<circle cx="56.1815" cy="56.1815" r="30.6815" stroke="white" stroke-width="3" shape-rendering="crispEdges"/>
</g>
<g filter="url(#filter1_f_52_248)">
<path d="M36.0043 55.7531C36.749 56.6042 38.3342 57.2028 39.4992 57.4695C56.019 61.503 69.3386 59.1501 73.9333 57.4695C75.9899 56.828 77.1239 56.1511 77.6342 55.4949M36.0043 55.7531C35.2519 54.8931 35.3576 53.7752 37.6221 52.4813C45.5066 48.7802 66.6389 48.5122 75.9715 52.4278C77.397 53.1463 78.5746 54.2855 77.6342 55.4949M36.0043 55.7531C35.8641 59.3824 37.3644 67.7353 44.4873 72.112C45.329 72.6292 47.3164 73.7822 50.4945 74.6113M77.6342 55.4949C78.192 64.0846 72.9679 69.1084 71.1442 71.0393C69.3728 72.7049 66.8845 73.8437 64.3861 74.5601M50.4945 74.6113C52.379 75.103 54.6822 75.4808 57.4135 75.5447C59.2356 75.5873 61.8162 75.2971 64.3861 74.5601M50.4945 74.6113C49.2608 75.0476 46.4718 76.1347 46.4718 77.2074C46.4718 77.851 46.15 79.1919 50.119 79.3528H65.0834C66.5494 79.3044 68.3015 78.6555 67.2825 76.7783C66.9249 76.2471 65.845 75.0598 64.3861 74.5601" stroke="#BEAF0A" stroke-width="2" stroke-linecap="round"/>
</g>
<g filter="url(#filter2_f_52_248)">
<path d="M36.0043 55.7531C36.749 56.6042 38.3342 57.2028 39.4992 57.4695C56.019 61.503 69.3386 59.1501 73.9333 57.4695C75.9899 56.828 77.1239 56.1511 77.6342 55.4949M36.0043 55.7531C35.2519 54.8931 35.3576 53.7752 37.6221 52.4813C45.5066 48.7802 66.6389 48.5122 75.9715 52.4278C77.397 53.1463 78.5746 54.2855 77.6342 55.4949M36.0043 55.7531C35.8641 59.3824 37.3644 67.7353 44.4873 72.112C45.329 72.6292 47.3164 73.7822 50.4945 74.6113M77.6342 55.4949C78.192 64.0846 72.9679 69.1084 71.1442 71.0393C69.3728 72.7049 66.8845 73.8437 64.3861 74.5601M50.4945 74.6113C52.379 75.103 54.6822 75.4808 57.4135 75.5447C59.2356 75.5873 61.8162 75.2971 64.3861 74.5601M50.4945 74.6113C49.2608 75.0476 46.4718 76.1347 46.4718 77.2074C46.4718 77.851 46.15 79.1919 50.119 79.3528H65.0834C66.5494 79.3044 68.3015 78.6555 67.2825 76.7783C66.9249 76.2471 65.845 75.0598 64.3861 74.5601" stroke="#BEAF0A" stroke-width="2" stroke-linecap="round"/>
</g>
<path d="M36.0043 55.7531C36.749 56.6042 38.3342 57.2028 39.4992 57.4695C56.019 61.503 69.3386 59.1501 73.9333 57.4695C75.9899 56.828 77.1239 56.1511 77.6342 55.4949M36.0043 55.7531C35.2519 54.8931 35.3576 53.7752 37.6221 52.4813C45.5066 48.7802 66.6389 48.5122 75.9715 52.4278C77.397 53.1463 78.5746 54.2855 77.6342 55.4949M36.0043 55.7531C35.8641 59.3824 37.3644 67.7353 44.4873 72.112C45.329 72.6292 47.3164 73.7822 50.4945 74.6113M77.6342 55.4949C78.192 64.0846 72.9679 69.1084 71.1442 71.0393C69.3728 72.7049 66.8845 73.8437 64.3861 74.5601M50.4945 74.6113C52.379 75.103 54.6822 75.4808 57.4135 75.5447C59.2356 75.5873 61.8162 75.2971 64.3861 74.5601M50.4945 74.6113C49.2608 75.0476 46.4718 76.1347 46.4718 77.2074C46.4718 77.851 46.15 79.1919 50.119 79.3528H65.0834C66.5494 79.3044 68.3015 78.6555 67.2825 76.7783C66.9249 76.2471 65.845 75.0598 64.3861 74.5601" stroke="white" stroke-linecap="round"/>
<g filter="url(#filter3_f_52_248)">
<path d="M50.7081 31.1874C49.6175 32.3137 48.0156 35.0921 50.3326 37.1946C51.4947 38.2494 53.1216 40.7989 50.3326 42.5582C49.3137 43.2009 48.8308 44.4676 50.3326 46.0981" stroke="#58FFEF" stroke-width="2" stroke-linecap="round"/>
</g>
<g filter="url(#filter4_f_52_248)">
<path d="M58.1708 30.4362C56.1175 31.5434 54.731 35.1025 57.1446 37.087C58.4581 38.167 59.3639 40.1985 57.7953 41.5924C56.7692 42.5042 56.2934 43.7164 57.7953 45.3469" stroke="#58FFEF" stroke-width="2" stroke-linecap="round"/>
</g>
<g filter="url(#filter5_f_52_248)">
<path d="M64.44 32.7959C62.3482 34.1904 62.0265 36.9259 63.1525 38.0522C64.4394 39.3395 65.255 39.5151 65.4592 41.2167C65.6201 42.5576 64.2252 44.0594 63.1525 45.2394" stroke="#58FFEF" stroke-width="2" stroke-linecap="round"/>
</g>
<g filter="url(#filter6_f_52_248)">
<path d="M44.756 56.0743L51.0851 50.8716M49.8514 55.0552C50.7632 53.1064 53.3914 50.4747 56.6095 55.5379M57.8968 55.0552C58.9874 53.4282 61.6299 51.247 63.4749 55.5379M64.0113 53.1243C65.7276 53.16 69.3212 53.8001 69.9649 56.0743" stroke="#58FFEF" stroke-width="2" stroke-linecap="round"/>
</g>
<g filter="url(#filter7_f_52_248)">
<path d="M50.7081 31.1874C49.6175 32.3137 48.0156 35.0921 50.3326 37.1946C51.4947 38.2494 53.1216 40.7989 50.3326 42.5582C49.3137 43.2009 48.8308 44.4676 50.3326 46.0981" stroke="#58FFEF" stroke-width="2" stroke-linecap="round"/>
</g>
<g filter="url(#filter8_f_52_248)">
<path d="M58.1708 30.4362C56.1175 31.5434 54.731 35.1025 57.1446 37.087C58.4581 38.167 59.3639 40.1985 57.7953 41.5924C56.7692 42.5042 56.2934 43.7164 57.7953 45.3469" stroke="#58FFEF" stroke-width="2" stroke-linecap="round"/>
</g>
<g filter="url(#filter9_f_52_248)">
<path d="M64.44 32.7959C62.3482 34.1904 62.0265 36.9259 63.1525 38.0522C64.4394 39.3395 65.255 39.5151 65.4592 41.2167C65.6201 42.5576 64.2252 44.0594 63.1525 45.2394" stroke="#58FFEF" stroke-width="2" stroke-linecap="round"/>
</g>
<g filter="url(#filter10_f_52_248)">
<path d="M44.756 56.0743L51.0851 50.8716M49.8514 55.0552C50.7632 53.1064 53.3914 50.4747 56.6095 55.5379M57.8968 55.0552C58.9874 53.4282 61.6299 51.247 63.4749 55.5379M64.0113 53.1243C65.7276 53.16 69.3212 53.8001 69.9649 56.0743" stroke="#58FFEF" stroke-width="2" stroke-linecap="round"/>
</g>
<path d="M50.7081 31.1874C49.6175 32.3137 48.0155 35.0921 50.3326 37.1946C51.4947 38.2494 53.1216 40.7989 50.3326 42.5582C49.3136 43.2009 48.8307 44.4676 50.3326 46.0981" stroke="white" stroke-linecap="round"/>
<path d="M58.1708 30.436C56.1175 31.5433 54.731 35.1023 57.1446 37.0869C58.4581 38.1668 59.3639 40.1984 57.7953 41.5923C56.7692 42.5041 56.2934 43.7163 57.7953 45.3468" stroke="white" stroke-linecap="round"/>
<path d="M64.44 32.7959C62.3482 34.1904 62.0266 36.9259 63.1525 38.0522C64.4394 39.3395 65.255 39.5151 65.4592 41.2167C65.6201 42.5576 64.2253 44.0594 63.1526 45.2394" stroke="white" stroke-linecap="round"/>
<path d="M44.756 56.0741L51.085 50.8715M49.8514 55.0551C50.7632 53.1063 53.3914 50.4746 56.6095 55.5378M57.8968 55.0551C58.9874 53.4281 61.6298 51.2469 63.4749 55.5378M64.0113 53.1242C65.7276 53.1599 69.3212 53.8 69.9648 56.0741" stroke="white" stroke-linecap="round"/>
<defs>
<filter id="filter0_d_52_248" x="0" y="0" width="112.363" height="112.363" filterUnits="userSpaceOnUse" color-interpolation-filters="sRGB">
<feFlood flood-opacity="0" result="BackgroundImageFix"/>
<feColorMatrix in="SourceAlpha" type="matrix" values="0 0 0 0 0 0 0 0 0 0 0 0 0 0 0 0 0 0 127 0" result="hardAlpha"/>
<feMorphology radius="4" operator="dilate" in="SourceAlpha" result="effect1_dropShadow_52_248"/>
<feOffset/>
<feGaussianBlur stdDeviation="10"/>
<feComposite in2="hardAlpha" operator="out"/>
<feColorMatrix type="matrix" values="0 0 0 0 0.345098 0 0 0 0 1 0 0 0 0 0.937255 0 0 0 1 0"/>
<feBlend mode="normal" in2="BackgroundImageFix" result="effect1_dropShadow_52_248"/>
<feBlend mode="normal" in="SourceGraphic" in2="effect1_dropShadow_52_248" result="shape"/>
</filter>
<filter id="filter1_f_52_248" x="32.0842" y="46.097" width="49.3874" height="36.7557" filterUnits="userSpaceOnUse" color-interpolation-filters="sRGB">
<feFlood flood-opacity="0" result="BackgroundImageFix"/>
<feBlend mode="normal" in="SourceGraphic" in2="BackgroundImageFix" result="shape"/>
<feGaussianBlur stdDeviation="1.25" result="effect1_foregroundBlur_52_248"/>
</filter>
<filter id="filter2_f_52_248" x="32.0842" y="46.097" width="49.3874" height="36.7557" filterUnits="userSpaceOnUse" color-interpolation-filters="sRGB">
<feFlood flood-opacity="0" result="BackgroundImageFix"/>
<feBlend mode="normal" in="SourceGraphic" in2="BackgroundImageFix" result="shape"/>
<feGaussianBlur stdDeviation="1.25" result="effect1_foregroundBlur_52_248"/>
</filter>
<filter id="filter3_f_52_248" x="45.6463" y="27.6874" width="9.72626" height="21.9108" filterUnits="userSpaceOnUse" color-interpolation-filters="sRGB">
<feFlood flood-opacity="0" result="BackgroundImageFix"/>
<feBlend mode="normal" in="SourceGraphic" in2="BackgroundImageFix" result="shape"/>
<feGaussianBlur stdDeviation="1.25" result="effect1_foregroundBlur_52_248"/>
</filter>
<filter id="filter4_f_52_248" x="52.3682" y="26.9359" width="9.75641" height="21.911" filterUnits="userSpaceOnUse" color-interpolation-filters="sRGB">
<feFlood flood-opacity="0" result="BackgroundImageFix"/>
<feBlend mode="normal" in="SourceGraphic" in2="BackgroundImageFix" result="shape"/>
<feGaussianBlur stdDeviation="1.25" result="effect1_foregroundBlur_52_248"/>
</filter>
<filter id="filter5_f_52_248" x="59.0143" y="29.2958" width="9.95767" height="19.4436" filterUnits="userSpaceOnUse" color-interpolation-filters="sRGB">
<feFlood flood-opacity="0" result="BackgroundImageFix"/>
<feBlend mode="normal" in="SourceGraphic" in2="BackgroundImageFix" result="shape"/>
<feGaussianBlur stdDeviation="1.25" result="effect1_foregroundBlur_52_248"/>
</filter>
<filter id="filter6_f_52_248" x="41.256" y="47.3716" width="32.2091" height="12.2029" filterUnits="userSpaceOnUse" color-interpolation-filters="sRGB">
<feFlood flood-opacity="0" result="BackgroundImageFix"/>
<feBlend mode="normal" in="SourceGraphic" in2="BackgroundImageFix" result="shape"/>
<feGaussianBlur stdDeviation="1.25" result="effect1_foregroundBlur_52_248"/>
</filter>
<filter id="filter7_f_52_248" x="45.6463" y="27.6874" width="9.72626" height="21.9108" filterUnits="userSpaceOnUse" color-interpolation-filters="sRGB">
<feFlood flood-opacity="0" result="BackgroundImageFix"/>
<feBlend mode="normal" in="SourceGraphic" in2="BackgroundImageFix" result="shape"/>
<feGaussianBlur stdDeviation="1.25" result="effect1_foregroundBlur_52_248"/>
</filter>
<filter id="filter8_f_52_248" x="52.3682" y="26.9359" width="9.75641" height="21.911" filterUnits="userSpaceOnUse" color-interpolation-filters="sRGB">
<feFlood flood-opacity="0" result="BackgroundImageFix"/>
<feBlend mode="normal" in="SourceGraphic" in2="BackgroundImageFix" result="shape"/>
<feGaussianBlur stdDeviation="1.25" result="effect1_foregroundBlur_52_248"/>
</filter>
<filter id="filter9_f_52_248" x="59.0143" y="29.2958" width="9.95767" height="19.4436" filterUnits="userSpaceOnUse" color-interpolation-filters="sRGB">
<feFlood flood-opacity="0" result="BackgroundImageFix"/>
<feBlend mode="normal" in="SourceGraphic" in2="BackgroundImageFix" result="shape"/>
<feGaussianBlur stdDeviation="1.25" result="effect1_foregroundBlur_52_248"/>
</filter>
<filter id="filter10_f_52_248" x="41.256" y="47.3716" width="32.2091" height="12.2029" filterUnits="userSpaceOnUse" color-interpolation-filters="sRGB">
<feFlood flood-opacity="0" result="BackgroundImageFix"/>
<feBlend mode="normal" in="SourceGraphic" in2="BackgroundImageFix" result="shape"/>
<feGaussianBlur stdDeviation="1.25" result="effect1_foregroundBlur_52_248"/>
</filter>
</defs>
</svg>
