<svg width="113" height="113" viewBox="0 0 113 113" fill="none" xmlns="http://www.w3.org/2000/svg">
<g filter="url(#filter0_d_52_281)">
<circle cx="56.4661" cy="56.4661" r="30.9661" stroke="white" stroke-width="3" shape-rendering="crispEdges"/>
</g>
<g filter="url(#filter1_f_52_281)">
<path d="M66.4613 66.2019L66.1987 68.6416L66.0915 69.6375H45.2793L45.1631 68.4923L42.8396 45.589H44.8809M44.8809 45.589H67.6349M67.6349 45.589C67.4687 44.2116 67.1674 43.0645 66.6046 42.1036C66.2902 41.5668 65.8941 41.088 65.3944 40.6597C63.2452 38.8175 59.6188 39.0167 55.9841 39.0167C52.1532 39.0167 48.9139 38.7179 46.9223 40.4605C46.279 41.0234 45.8383 41.5655 45.5364 42.1036C44.9038 43.2315 44.8809 44.3418 44.8809 45.589M67.6349 45.589H68.6805L68.0373 51.5637M45.5364 42.1036C53.8218 42.5996 58.4293 42.603 66.6046 42.1036M68.0373 51.5637C69.845 51.1322 73.2114 52.4101 73.3608 58.5841C73.4367 61.7229 72.6125 66.8393 66.4613 66.2019M68.0373 51.5637L66.4613 66.2019M45.1631 68.4923C43.26 68.4923 39.6331 69.1794 40.3501 71.9278C40.5493 72.8406 42.3816 74.5766 48.1174 74.2181H67.3363C68.6474 74.1849 71.3195 73.6206 71.5186 71.629C71.6067 70.683 70.6659 68.7611 66.1987 68.6416" stroke="#58FFEF" stroke-width="2" stroke-linecap="round"/>
</g>
<g filter="url(#filter2_f_52_281)">
<path d="M66.4613 66.2019L66.1987 68.6416L66.0915 69.6375H45.2793L45.1631 68.4923L42.8396 45.589H44.8809M44.8809 45.589H67.6349M67.6349 45.589C67.4687 44.2116 67.1674 43.0645 66.6046 42.1036C66.2902 41.5668 65.8941 41.088 65.3944 40.6597C63.2452 38.8175 59.6188 39.0167 55.9841 39.0167C52.1532 39.0167 48.9139 38.7179 46.9223 40.4605C46.279 41.0234 45.8383 41.5655 45.5364 42.1036C44.9038 43.2315 44.8809 44.3418 44.8809 45.589M67.6349 45.589H68.6805L68.0373 51.5637M45.5364 42.1036C53.8218 42.5996 58.4293 42.603 66.6046 42.1036M68.0373 51.5637C69.845 51.1322 73.2114 52.4101 73.3608 58.5841C73.4367 61.7229 72.6125 66.8393 66.4613 66.2019M68.0373 51.5637L66.4613 66.2019M45.1631 68.4923C43.26 68.4923 39.6331 69.1794 40.3501 71.9278C40.5493 72.8406 42.3816 74.5766 48.1174 74.2181H67.3363C68.6474 74.1849 71.3195 73.6206 71.5186 71.629C71.6067 70.683 70.6659 68.7611 66.1987 68.6416" stroke="#58FFEF" stroke-width="2" stroke-linecap="round"/>
</g>
<path d="M66.4596 66.0768L66.1968 68.4974L66.0896 69.4855H45.2704L45.1542 68.3492L42.8299 45.6248H44.8719M44.8719 45.6248H67.6336M67.6336 45.6248C67.4673 44.2581 67.1659 43.12 66.6029 42.1666C66.2884 41.634 65.8922 41.159 65.3923 40.734C63.2423 38.9062 59.6147 39.1038 55.9788 39.1038C52.1466 39.1038 48.9063 38.8074 46.914 40.5364C46.2705 41.0948 45.8296 41.6327 45.5277 42.1666C44.8948 43.2857 44.8719 44.3873 44.8719 45.6248M67.6336 45.6248H68.6795L68.0361 51.5528M45.5277 42.1666C53.8158 42.6587 58.4249 42.6621 66.6029 42.1666M68.0361 51.5528C69.8444 51.1247 73.2119 52.3927 73.3613 58.5184C73.4373 61.6326 72.6128 66.7091 66.4596 66.0768M68.0361 51.5528L66.4596 66.0768M45.1542 68.3492C43.2505 68.3492 39.6223 69.0309 40.3395 71.7579C40.5388 72.6636 42.3717 74.386 48.1095 74.0303H67.3348C68.6464 73.9974 71.3194 73.4375 71.5186 71.4615C71.6066 70.5228 70.6655 68.616 66.1968 68.4974" stroke="white" stroke-linecap="round"/>
<defs>
<filter id="filter0_d_52_281" x="0" y="0" width="112.932" height="112.932" filterUnits="userSpaceOnUse" color-interpolation-filters="sRGB">
<feFlood flood-opacity="0" result="BackgroundImageFix"/>
<feColorMatrix in="SourceAlpha" type="matrix" values="0 0 0 0 0 0 0 0 0 0 0 0 0 0 0 0 0 0 127 0" result="hardAlpha"/>
<feMorphology radius="4" operator="dilate" in="SourceAlpha" result="effect1_dropShadow_52_281"/>
<feOffset/>
<feGaussianBlur stdDeviation="10"/>
<feComposite in2="hardAlpha" operator="out"/>
<feColorMatrix type="matrix" values="0 0 0 0 0.345098 0 0 0 0 1 0 0 0 0 0.937255 0 0 0 1 0"/>
<feBlend mode="normal" in2="BackgroundImageFix" result="effect1_dropShadow_52_281"/>
<feBlend mode="normal" in="SourceGraphic" in2="effect1_dropShadow_52_281" result="shape"/>
</filter>
<filter id="filter1_f_52_281" x="36.7577" y="35.4972" width="40.1076" height="42.2689" filterUnits="userSpaceOnUse" color-interpolation-filters="sRGB">
<feFlood flood-opacity="0" result="BackgroundImageFix"/>
<feBlend mode="normal" in="SourceGraphic" in2="BackgroundImageFix" result="shape"/>
<feGaussianBlur stdDeviation="1.25" result="effect1_foregroundBlur_52_281"/>
</filter>
<filter id="filter2_f_52_281" x="36.7577" y="35.4972" width="40.1076" height="42.2689" filterUnits="userSpaceOnUse" color-interpolation-filters="sRGB">
<feFlood flood-opacity="0" result="BackgroundImageFix"/>
<feBlend mode="normal" in="SourceGraphic" in2="BackgroundImageFix" result="shape"/>
<feGaussianBlur stdDeviation="1.25" result="effect1_foregroundBlur_52_281"/>
</filter>
</defs>
</svg>
