<svg width="113" height="113" viewBox="0 0 113 113" fill="none" xmlns="http://www.w3.org/2000/svg">
<g filter="url(#filter0_d_58_356)">
<circle cx="56.1815" cy="56.1815" r="30.6815" stroke="white" stroke-width="3" shape-rendering="crispEdges"/>
</g>
<g filter="url(#filter1_f_58_356)">
<path d="M58.0267 40.0113C40.7381 39.544 37 53.7176 37 61.5052C37 70.4766 46.0337 71.4734 50.5505 70.8504H63.1665C73.2593 71.9718 75.471 65.0876 75.3153 61.5052C72.6986 42.8149 65.0356 40.9458 58.0267 40.0113Z" stroke="#EDD906" stroke-width="2"/>
</g>
<g filter="url(#filter2_f_58_356)">
<path d="M55.2232 47.9546C47.7471 48.8891 45.8781 55.1192 45.8781 58.7016C45.8781 64.3087 54.756 64.3087 59.4286 64.3087C65.9702 64.3087 66.7205 60.0213 65.9702 56.8325C64.1012 48.8891 58.4941 47.9546 55.2232 47.9546Z" stroke="#EDD906" stroke-width="2"/>
</g>
<g filter="url(#filter3_f_58_356)">
<path d="M58.0267 40.0113C40.7381 39.544 37 53.7176 37 61.5052C37 70.4766 46.0337 71.4734 50.5505 70.8504H63.1665C73.2593 71.9718 75.471 65.0876 75.3153 61.5052C72.6986 42.8149 65.0356 40.9458 58.0267 40.0113Z" stroke="#EDD906" stroke-width="2"/>
</g>
<g filter="url(#filter4_f_58_356)">
<path d="M55.2232 47.9546C47.7471 48.8891 45.8781 55.1192 45.8781 58.7016C45.8781 64.3087 54.756 64.3087 59.4286 64.3087C65.9702 64.3087 66.7205 60.0213 65.9702 56.8325C64.1012 48.8891 58.4941 47.9546 55.2232 47.9546Z" stroke="#EDD906" stroke-width="2"/>
</g>
<path d="M58.0267 40.0113C40.7381 39.544 37 53.7176 37 61.5052C37 70.4766 46.0337 71.4734 50.5505 70.8504H63.1665C73.2593 71.9718 75.471 65.0876 75.3153 61.5052C72.6986 42.8149 65.0356 40.9458 58.0267 40.0113Z" stroke="white"/>
<path d="M55.2232 47.9546C47.7471 48.8891 45.8781 55.1192 45.8781 58.7016C45.8781 64.3087 54.756 64.3087 59.4286 64.3087C65.9702 64.3087 66.7205 60.0213 65.9702 56.8325C64.1012 48.8891 58.4941 47.9546 55.2232 47.9546Z" stroke="white"/>
<defs>
<filter id="filter0_d_58_356" x="0" y="0" width="112.363" height="112.363" filterUnits="userSpaceOnUse" color-interpolation-filters="sRGB">
<feFlood flood-opacity="0" result="BackgroundImageFix"/>
<feColorMatrix in="SourceAlpha" type="matrix" values="0 0 0 0 0 0 0 0 0 0 0 0 0 0 0 0 0 0 127 0" result="hardAlpha"/>
<feMorphology radius="4" operator="dilate" in="SourceAlpha" result="effect1_dropShadow_58_356"/>
<feOffset/>
<feGaussianBlur stdDeviation="10"/>
<feComposite in2="hardAlpha" operator="out"/>
<feColorMatrix type="matrix" values="0 0 0 0 0.345098 0 0 0 0 1 0 0 0 0 0.937255 0 0 0 1 0"/>
<feBlend mode="normal" in2="BackgroundImageFix" result="effect1_dropShadow_58_356"/>
<feBlend mode="normal" in="SourceGraphic" in2="effect1_dropShadow_58_356" result="shape"/>
</filter>
<filter id="filter1_f_58_356" x="33.5" y="36.5" width="45.3227" height="37.9999" filterUnits="userSpaceOnUse" color-interpolation-filters="sRGB">
<feFlood flood-opacity="0" result="BackgroundImageFix"/>
<feBlend mode="normal" in="SourceGraphic" in2="BackgroundImageFix" result="shape"/>
<feGaussianBlur stdDeviation="1.25" result="effect1_foregroundBlur_58_356"/>
</filter>
<filter id="filter2_f_58_356" x="42.3781" y="44.4546" width="27.3279" height="23.3541" filterUnits="userSpaceOnUse" color-interpolation-filters="sRGB">
<feFlood flood-opacity="0" result="BackgroundImageFix"/>
<feBlend mode="normal" in="SourceGraphic" in2="BackgroundImageFix" result="shape"/>
<feGaussianBlur stdDeviation="1.25" result="effect1_foregroundBlur_58_356"/>
</filter>
<filter id="filter3_f_58_356" x="33.5" y="36.5" width="45.3227" height="37.9999" filterUnits="userSpaceOnUse" color-interpolation-filters="sRGB">
<feFlood flood-opacity="0" result="BackgroundImageFix"/>
<feBlend mode="normal" in="SourceGraphic" in2="BackgroundImageFix" result="shape"/>
<feGaussianBlur stdDeviation="1.25" result="effect1_foregroundBlur_58_356"/>
</filter>
<filter id="filter4_f_58_356" x="42.3781" y="44.4546" width="27.3279" height="23.3541" filterUnits="userSpaceOnUse" color-interpolation-filters="sRGB">
<feFlood flood-opacity="0" result="BackgroundImageFix"/>
<feBlend mode="normal" in="SourceGraphic" in2="BackgroundImageFix" result="shape"/>
<feGaussianBlur stdDeviation="1.25" result="effect1_foregroundBlur_58_356"/>
</filter>
</defs>
</svg>
