<svg width="24" height="24" viewBox="0 0 24 24" fill="none" xmlns="http://www.w3.org/2000/svg">
<g filter="url(#filter0_f_52_724)">
<path d="M20.8448 14.0958C21.3649 12.9611 21.2864 10.2951 20.8448 9.11467C18.7729 3.57668 13.9223 2.37434 11.9444 2.50967C7.38496 2.68455 4.62116 5.57014 3.80919 6.99108C2.16028 9.90165 2.31491 13.2583 2.9395 14.6167M18.8978 18.4267C17.6018 19.6447 16.2902 20.8554 12.2723 21.1224C10.7057 21.2265 6.29678 20.1756 5.20375 18.4267" stroke="#F61546" stroke-width="1.25" stroke-linecap="round"/>
</g>
<g filter="url(#filter1_f_52_724)">
<path d="M20.8448 14.0958C21.3649 12.9611 21.2864 10.2951 20.8448 9.11467C18.7729 3.57668 13.9223 2.37434 11.9444 2.50967C7.38496 2.68455 4.62116 5.57014 3.80919 6.99108C2.16028 9.90165 2.31491 13.2583 2.9395 14.6167M18.8978 18.4267C17.6018 19.6447 16.2902 20.8554 12.2723 21.1224C10.7057 21.2265 6.29678 20.1756 5.20375 18.4267" stroke="#F61546" stroke-width="1.25" stroke-linecap="round"/>
</g>
<path d="M20.8448 14.0958C21.3649 12.9611 21.2864 10.2951 20.8448 9.11467C18.7729 3.57668 13.9223 2.37434 11.9444 2.50967C7.38496 2.68455 4.62116 5.57014 3.80919 6.99108C2.16028 9.90165 2.31491 13.2583 2.9395 14.6167M18.8978 18.4267C17.6018 19.6447 16.2902 20.8554 12.2723 21.1224C10.7057 21.2265 6.29678 20.1756 5.20375 18.4267" stroke="white" stroke-width="0.625" stroke-linecap="round"/>
<g filter="url(#filter2_f_52_724)">
<path d="M17.0307 16.9884C16.9867 16.9884 16.9497 16.9734 16.9197 16.9435C16.8897 16.9135 16.8748 16.8765 16.8748 16.8325V14.8029C16.8748 14.7569 16.8897 14.7199 16.9197 14.6919C16.9497 14.662 16.9867 14.647 17.0307 14.647H18.3858C18.4317 14.647 18.4687 14.661 18.4967 14.6889C18.5247 14.7149 18.5387 14.7499 18.5387 14.7939C18.5387 14.8358 18.5247 14.8698 18.4967 14.8958C18.4687 14.9218 18.4317 14.9348 18.3858 14.9348H17.1865V15.6633H18.047C18.093 15.6633 18.1299 15.6773 18.1579 15.7053C18.1859 15.7313 18.1999 15.7652 18.1999 15.8072C18.1999 15.8492 18.1859 15.8842 18.1579 15.9121C18.1299 15.9381 18.093 15.9511 18.047 15.9511H17.1865V16.7006H18.3858C18.4317 16.7006 18.4687 16.7136 18.4967 16.7396C18.5247 16.7656 18.5387 16.7995 18.5387 16.8415C18.5387 16.8855 18.5247 16.9215 18.4967 16.9494C18.4687 16.9754 18.4317 16.9884 18.3858 16.9884H17.0307Z" fill="#F61546"/>
<path d="M18.3855 14.4907C18.464 14.4907 18.5409 14.5164 18.6023 14.5757L18.6033 14.5747C18.6041 14.5755 18.6044 14.5768 18.6052 14.5776L18.6072 14.5786L18.6062 14.5796C18.6678 14.6391 18.695 14.7152 18.6951 14.7935C18.6951 14.874 18.6663 14.9516 18.6033 15.0103C18.5407 15.0683 18.4624 15.0913 18.3855 15.0913H17.3425V15.5073H18.0466C18.125 15.5073 18.202 15.5323 18.2634 15.5913L18.2644 15.5903C18.3276 15.649 18.3562 15.7265 18.3562 15.8071C18.3562 15.8878 18.3275 15.9638 18.2683 16.0229L18.2644 16.0269C18.2018 16.0849 18.1235 16.1069 18.0466 16.1069H17.3425V16.5444H18.3855C18.4432 16.5444 18.5016 16.5574 18.5535 16.5884L18.6033 16.6255L18.6443 16.6724C18.6789 16.7225 18.695 16.781 18.6951 16.8413C18.6951 16.9217 18.6678 16.9994 18.6072 17.0601L18.6033 17.064C18.5407 17.1221 18.4624 17.145 18.3855 17.145H17.031C16.9474 17.145 16.8698 17.1146 16.8093 17.0542C16.7489 16.9937 16.7185 16.9162 16.7185 16.8325V14.8032C16.7185 14.7214 16.7474 14.6433 16.8103 14.5825L16.8093 14.5815L16.8113 14.5806C16.8121 14.5798 16.8124 14.5784 16.8132 14.5776L16.8142 14.5786C16.8741 14.5207 16.9491 14.4907 17.031 14.4907H18.3855Z" stroke="#F61546" stroke-width="0.3125"/>
</g>
<g filter="url(#filter3_f_52_724)">
<path d="M15.1963 17.0181C15.0204 17.0181 14.8595 16.9891 14.7136 16.9312C14.5677 16.8712 14.4418 16.7883 14.3359 16.6823C14.232 16.5744 14.151 16.4475 14.093 16.3016C14.0351 16.1537 14.0061 15.9918 14.0061 15.8159C14.0061 15.64 14.0351 15.4791 14.093 15.3332C14.151 15.1873 14.232 15.0614 14.3359 14.9555C14.4418 14.8475 14.5677 14.7646 14.7136 14.7066C14.8595 14.6467 15.0204 14.6167 15.1963 14.6167C15.3722 14.6167 15.5321 14.6467 15.676 14.7066C15.8219 14.7646 15.9478 14.8475 16.0537 14.9555C16.1597 15.0614 16.2416 15.1873 16.2996 15.3332C16.3575 15.4791 16.3865 15.64 16.3865 15.8159C16.3865 15.9918 16.3575 16.1537 16.2996 16.3016C16.2416 16.4475 16.1597 16.5744 16.0537 16.6823C15.9478 16.7883 15.8219 16.8712 15.676 16.9312C15.5321 16.9891 15.3722 17.0181 15.1963 17.0181ZM15.1963 16.7363C15.3262 16.7363 15.4452 16.7133 15.5531 16.6673C15.663 16.6194 15.7579 16.5544 15.8379 16.4725C15.9178 16.3885 15.9788 16.2906 16.0208 16.1787C16.0647 16.0667 16.0867 15.9458 16.0867 15.8159C16.0867 15.686 16.0647 15.5651 16.0208 15.4531C15.9788 15.3412 15.9178 15.2443 15.8379 15.1623C15.7579 15.0784 15.663 15.0134 15.5531 14.9675C15.4452 14.9215 15.3262 14.8985 15.1963 14.8985C15.0664 14.8985 14.9465 14.9215 14.8366 14.9675C14.7286 15.0134 14.6347 15.0784 14.5547 15.1623C14.4768 15.2443 14.4158 15.3412 14.3719 15.4531C14.3279 15.5651 14.3059 15.686 14.3059 15.8159C14.3059 15.9458 14.3279 16.0667 14.3719 16.1787C14.4158 16.2906 14.4768 16.3885 14.5547 16.4725C14.6347 16.5544 14.7286 16.6194 14.8366 16.6673C14.9465 16.7133 15.0664 16.7363 15.1963 16.7363Z" fill="#F61546"/>
<path d="M15.1965 14.4604C15.3903 14.4605 15.5714 14.4932 15.7366 14.562L15.7356 14.563C15.8996 14.6285 16.0433 14.7221 16.1643 14.8452L16.2502 14.9409C16.3308 15.0404 16.3956 15.1525 16.4446 15.2759C16.5106 15.4422 16.5432 15.6227 16.5432 15.8159C16.5432 15.9608 16.5252 16.0991 16.4885 16.23L16.4446 16.3589C16.3793 16.5233 16.2863 16.6682 16.1653 16.7915L16.1643 16.7925C16.043 16.9137 15.8995 17.0083 15.7356 17.0757H15.7346C15.5699 17.142 15.3897 17.1743 15.1965 17.1743C15.0033 17.1743 14.8219 17.1427 14.6555 17.0767L14.6545 17.0757C14.4906 17.0083 14.3471 16.9138 14.2258 16.7925L14.2229 16.7905C14.1339 16.698 14.06 16.5936 14.0012 16.478L13.9475 16.3589C13.8817 16.191 13.8499 16.0092 13.8499 15.8159C13.8499 15.6228 13.8815 15.4421 13.9475 15.2759C14.0126 15.1119 14.1047 14.9677 14.2239 14.8462H14.2249C14.3465 14.7223 14.4903 14.6267 14.6555 14.561V14.562C14.822 14.4938 15.0031 14.4604 15.1965 14.4604ZM15.1965 15.0552C15.0854 15.0552 14.9859 15.0745 14.8967 15.1118L14.8958 15.1108C14.8079 15.1485 14.7329 15.2022 14.6682 15.27C14.605 15.3364 14.5539 15.4159 14.5168 15.5103C14.4806 15.6025 14.4622 15.704 14.4622 15.8159C14.4622 15.9278 14.4806 16.0293 14.5168 16.1216C14.554 16.2161 14.6053 16.2969 14.6692 16.3657H14.6682C14.7324 16.4311 14.808 16.4834 14.8958 16.5229H14.8967C14.9859 16.5602 15.0854 16.5796 15.1965 16.5796C15.307 16.5796 15.4043 16.5604 15.4905 16.5239C15.5827 16.4837 15.6607 16.4304 15.7258 16.3638C15.7903 16.2958 15.8396 16.2159 15.8743 16.1235L15.8752 16.1216C15.9115 16.0293 15.9309 15.9279 15.9309 15.8159C15.9309 15.704 15.9115 15.6026 15.8752 15.5103L15.8743 15.5083C15.8396 15.4157 15.79 15.3368 15.7258 15.271L15.7249 15.27C15.6602 15.2022 15.583 15.1497 15.4924 15.1118L15.4915 15.1108C15.405 15.0741 15.3074 15.0552 15.1965 15.0552Z" stroke="#F61546" stroke-width="0.3125"/>
</g>
<g filter="url(#filter4_f_52_724)">
<path d="M12.402 16.9884C12.358 16.9884 12.321 16.9734 12.2911 16.9435C12.2611 16.9135 12.2461 16.8765 12.2461 16.8325V14.8029C12.2461 14.7569 12.2611 14.7199 12.2911 14.6919C12.321 14.662 12.358 14.647 12.402 14.647H13.0016C13.1515 14.647 13.2844 14.68 13.4003 14.7459C13.5163 14.8119 13.6062 14.9038 13.6702 15.0217C13.7361 15.1376 13.7691 15.2716 13.7691 15.4235C13.7691 15.5694 13.7361 15.6993 13.6702 15.8132C13.6062 15.9271 13.5163 16.0161 13.4003 16.08C13.2844 16.144 13.1515 16.176 13.0016 16.176H12.5579V16.8325C12.5579 16.8765 12.5429 16.9135 12.5129 16.9435C12.4849 16.9734 12.448 16.9884 12.402 16.9884ZM12.5579 15.8882H13.0016C13.0935 15.8882 13.1745 15.8682 13.2444 15.8282C13.3144 15.7882 13.3694 15.7333 13.4093 15.6633C13.4493 15.5933 13.4693 15.5134 13.4693 15.4235C13.4693 15.3275 13.4493 15.2436 13.4093 15.1716C13.3694 15.0977 13.3144 15.0397 13.2444 14.9977C13.1745 14.9558 13.0935 14.9348 13.0016 14.9348H12.5579V15.8882Z" fill="#F61546"/>
<path d="M13.002 14.4907C13.1753 14.4908 13.3354 14.529 13.4775 14.6099C13.6189 14.6903 13.7298 14.8035 13.8076 14.9468H13.8066C13.887 15.0888 13.9258 15.2491 13.9258 15.4233C13.9258 15.5929 13.8861 15.7494 13.8057 15.8892C13.7273 16.0288 13.6166 16.1395 13.4756 16.2173C13.3338 16.2954 13.1744 16.3325 13.002 16.3325H12.7139V16.8325C12.7139 16.9145 12.6841 16.9894 12.626 17.0493L12.627 17.0503C12.6262 17.0511 12.6248 17.0514 12.624 17.0522L12.623 17.0542L12.6221 17.0532C12.5614 17.1158 12.4839 17.1449 12.4023 17.145C12.3187 17.145 12.2411 17.1146 12.1807 17.0542C12.1202 16.9937 12.0898 16.9162 12.0898 16.8325V14.8032C12.0898 14.7214 12.1187 14.6433 12.1816 14.5825L12.1807 14.5815L12.1826 14.5806C12.1834 14.5798 12.1838 14.5784 12.1846 14.5776L12.1855 14.5786C12.2454 14.5207 12.3205 14.4907 12.4023 14.4907H13.002ZM12.7139 15.7319H13.002C13.0704 15.7319 13.1239 15.7175 13.167 15.6929C13.2127 15.6667 13.2473 15.6312 13.2734 15.5854C13.2983 15.5418 13.3135 15.4892 13.3135 15.4233C13.3135 15.3496 13.2975 15.2927 13.2725 15.2476L13.2715 15.2456C13.2444 15.1957 13.2091 15.1584 13.1641 15.1313C13.1215 15.1058 13.069 15.0914 13.002 15.0913H12.7139V15.7319Z" stroke="#F61546" stroke-width="0.3125"/>
</g>
<g filter="url(#filter5_f_52_724)">
<path d="M10.9565 16.9884C10.9126 16.9884 10.8756 16.9734 10.8456 16.9435C10.8156 16.9135 10.8006 16.8765 10.8006 16.8325V14.647H11.1124V16.8325C11.1124 16.8765 11.0974 16.9135 11.0675 16.9435C11.0375 16.9734 11.0005 16.9884 10.9565 16.9884ZM10.1531 14.9348C10.1111 14.9348 10.0761 14.9218 10.0481 14.8958C10.0221 14.8678 10.0092 14.8328 10.0092 14.7909C10.0092 14.7489 10.0221 14.7149 10.0481 14.6889C10.0761 14.661 10.1111 14.647 10.1531 14.647H11.757C11.799 14.647 11.8329 14.661 11.8589 14.6889C11.8869 14.7149 11.9009 14.7489 11.9009 14.7909C11.9009 14.8328 11.8869 14.8678 11.8589 14.8958C11.8329 14.9218 11.799 14.9348 11.757 14.9348H10.1531Z" fill="#F61546"/>
<path d="M11.7572 14.4907C11.8342 14.4908 11.9067 14.5183 11.9642 14.5757L11.9652 14.5747C11.9666 14.576 11.9668 14.5783 11.9681 14.5796C11.9694 14.5809 11.9718 14.5812 11.973 14.5825L11.972 14.5835C12.0295 14.641 12.0569 14.7135 12.057 14.7905C12.057 14.8712 12.0283 14.9471 11.9691 15.0063C11.9097 15.0657 11.8341 15.0913 11.7572 15.0913H11.2689V16.8325C11.2689 16.9162 11.2386 16.9937 11.1781 17.0542C11.1176 17.1146 11.0401 17.145 10.9564 17.145C10.8728 17.145 10.7952 17.1146 10.7347 17.0542C10.6743 16.9937 10.6439 16.9162 10.6439 16.8325V15.0913H10.1527C10.0757 15.0912 10.0015 15.0657 9.94177 15.0103L9.93298 15.0024L9.93396 15.0015C9.87851 14.9416 9.85291 14.8676 9.85291 14.7905C9.85298 14.7136 9.87843 14.638 9.93787 14.5786C9.99697 14.5195 10.0722 14.4908 10.1527 14.4907H11.7572Z" stroke="#F61546" stroke-width="0.3125"/>
</g>
<g filter="url(#filter6_f_52_724)">
<path d="M8.98292 17.0181C8.82103 17.0181 8.66913 16.9881 8.52722 16.9282C8.38731 16.8662 8.26439 16.7813 8.15846 16.6733C8.05453 16.5634 7.97259 16.4355 7.91263 16.2896C7.85466 16.1437 7.82568 15.9858 7.82568 15.8159C7.82568 15.648 7.85466 15.4921 7.91263 15.3482C7.97259 15.2023 8.05453 15.0754 8.15846 14.9675C8.26439 14.8575 8.38731 14.7716 8.52722 14.7096C8.66713 14.6477 8.81903 14.6167 8.98292 14.6167C9.13682 14.6167 9.26873 14.6367 9.37866 14.6767C9.49058 14.7166 9.60251 14.7826 9.71443 14.8745C9.73042 14.8865 9.74242 14.8995 9.75041 14.9135C9.7604 14.9255 9.7664 14.9385 9.7684 14.9525C9.7724 14.9645 9.77439 14.9795 9.77439 14.9974C9.77439 15.0354 9.7604 15.0674 9.73242 15.0934C9.70644 15.1174 9.67446 15.1314 9.63649 15.1354C9.59851 15.1374 9.56154 15.1244 9.52556 15.0964C9.45161 15.0324 9.37466 14.9835 9.29471 14.9495C9.21676 14.9155 9.11283 14.8985 8.98292 14.8985C8.865 14.8985 8.75407 14.9225 8.65014 14.9705C8.54621 15.0184 8.45427 15.0844 8.37432 15.1683C8.29637 15.2523 8.23541 15.3502 8.19144 15.4621C8.14747 15.5721 8.12549 15.69 8.12549 15.8159C8.12549 15.9438 8.14747 16.0637 8.19144 16.1757C8.23541 16.2856 8.29637 16.3825 8.37432 16.4665C8.45427 16.5504 8.54621 16.6164 8.65014 16.6643C8.75407 16.7103 8.865 16.7333 8.98292 16.7333C9.08485 16.7333 9.18079 16.7163 9.27073 16.6823C9.36267 16.6464 9.45061 16.5974 9.53455 16.5354C9.57053 16.5094 9.60551 16.4985 9.63948 16.5025C9.67546 16.5045 9.70544 16.5184 9.72942 16.5444C9.75341 16.5684 9.7654 16.6024 9.7654 16.6464C9.7654 16.6663 9.7614 16.6863 9.75341 16.7063C9.74541 16.7243 9.73342 16.7413 9.71743 16.7573C9.6095 16.8432 9.49358 16.9082 9.36966 16.9522C9.24774 16.9961 9.11883 17.0181 8.98292 17.0181Z" fill="#F61546"/>
<path d="M8.98291 14.4604C9.14959 14.4604 9.30064 14.482 9.43213 14.5298L9.43115 14.5308C9.56315 14.578 9.69118 14.6526 9.81396 14.7534H9.81299C9.83352 14.7694 9.85174 14.7898 9.86865 14.813H9.87061C9.87387 14.8169 9.87538 14.8225 9.87842 14.8267C9.88054 14.83 9.88423 14.8329 9.88623 14.8364H9.88525C9.89845 14.8564 9.90784 14.8784 9.91455 14.9028H9.9165C9.91796 14.9072 9.91824 14.9121 9.91943 14.9165C9.92031 14.9207 9.92172 14.9249 9.92236 14.9292C9.92766 14.9534 9.93018 14.9767 9.93018 14.9976C9.93015 15.0792 9.89797 15.1522 9.83838 15.2075V15.2085C9.78569 15.2571 9.72136 15.2833 9.65283 15.2905L9.64502 15.2915C9.5624 15.2959 9.48866 15.2655 9.4292 15.2192L9.42334 15.2144C9.36027 15.1598 9.29703 15.1201 9.23389 15.0933L9.23193 15.0923C9.18126 15.0703 9.10121 15.0552 8.98291 15.0552C8.8869 15.0552 8.7981 15.0746 8.71533 15.1128C8.62981 15.1523 8.55415 15.2063 8.48779 15.2759C8.42432 15.3445 8.3734 15.4249 8.33643 15.519V15.52C8.3003 15.6103 8.28174 15.7086 8.28174 15.8159C8.28174 15.9252 8.30028 16.0253 8.33643 16.1177L8.40283 16.2476C8.42791 16.2874 8.45606 16.3246 8.48779 16.3589L8.59424 16.4517C8.63134 16.4783 8.67063 16.5015 8.7124 16.521C8.79567 16.5578 8.88592 16.5767 8.98291 16.5767C9.06633 16.5767 9.14269 16.563 9.21338 16.5366C9.29185 16.5059 9.36836 16.4639 9.44189 16.4097L9.44287 16.4087C9.49859 16.3684 9.56867 16.3407 9.64795 16.3472V16.3462C9.72146 16.3503 9.78785 16.3806 9.83936 16.4341H9.84033C9.84164 16.4354 9.84297 16.4367 9.84424 16.438H9.84326C9.90156 16.4986 9.92132 16.575 9.92139 16.646C9.92139 16.6872 9.91365 16.7272 9.89893 16.7642L9.896 16.77C9.87915 16.8078 9.85513 16.8402 9.82764 16.8677L9.82178 16.8735L9.81494 16.8794C9.7244 16.9515 9.62782 17.0108 9.52588 17.0571L9.42236 17.0991C9.28271 17.1495 9.13591 17.1743 8.98291 17.1743C8.80121 17.1743 8.62843 17.1403 8.46631 17.0718L8.46436 17.0708C8.30669 17.001 8.16725 16.9048 8.04736 16.7827L8.04443 16.7808V16.7798C7.92711 16.6555 7.83487 16.5117 7.76807 16.3491L7.76709 16.3472C7.70131 16.1815 7.66943 16.0038 7.66943 15.8159C7.66943 15.6297 7.70204 15.4535 7.76807 15.2896V15.2886C7.8351 15.1255 7.92815 14.9817 8.04639 14.8589C8.16632 14.7345 8.30613 14.637 8.46436 14.5669C8.62549 14.4956 8.79891 14.4605 8.98291 14.4604Z" stroke="#F61546" stroke-width="0.3125"/>
</g>
<g filter="url(#filter7_f_52_724)">
<path d="M6.3135 17.0181C6.13762 17.0181 5.97673 16.9891 5.83082 16.9312C5.68492 16.8712 5.559 16.7883 5.45307 16.6823C5.34914 16.5744 5.2682 16.4475 5.21023 16.3016C5.15227 16.1537 5.12329 15.9918 5.12329 15.8159C5.12329 15.64 5.15227 15.4791 5.21023 15.3332C5.2682 15.1873 5.34914 15.0614 5.45307 14.9555C5.559 14.8475 5.68492 14.7646 5.83082 14.7066C5.97673 14.6467 6.13762 14.6167 6.3135 14.6167C6.48939 14.6167 6.64928 14.6467 6.79319 14.7066C6.93909 14.7646 7.06501 14.8475 7.17094 14.9555C7.27687 15.0614 7.35881 15.1873 7.41677 15.3332C7.47474 15.4791 7.50372 15.64 7.50372 15.8159C7.50372 15.9918 7.47474 16.1537 7.41677 16.3016C7.35881 16.4475 7.27687 16.5744 7.17094 16.6823C7.06501 16.7883 6.93909 16.8712 6.79319 16.9312C6.64928 16.9891 6.48939 17.0181 6.3135 17.0181ZM6.3135 16.7363C6.44342 16.7363 6.56234 16.7133 6.67027 16.6673C6.7802 16.6194 6.87513 16.5544 6.95508 16.4725C7.03503 16.3885 7.09599 16.2906 7.13796 16.1787C7.18193 16.0667 7.20392 15.9458 7.20392 15.8159C7.20392 15.686 7.18193 15.5651 7.13796 15.4531C7.09599 15.3412 7.03503 15.2443 6.95508 15.1623C6.87513 15.0784 6.7802 15.0134 6.67027 14.9675C6.56234 14.9215 6.44342 14.8985 6.3135 14.8985C6.18359 14.8985 6.06367 14.9215 5.95374 14.9675C5.84581 15.0134 5.75188 15.0784 5.67193 15.1623C5.59398 15.2443 5.53302 15.3412 5.48905 15.4531C5.44508 15.5651 5.42309 15.686 5.42309 15.8159C5.42309 15.9458 5.44508 16.0667 5.48905 16.1787C5.53302 16.2906 5.59398 16.3885 5.67193 16.4725C5.75188 16.5544 5.84581 16.6194 5.95374 16.6673C6.06367 16.7133 6.18359 16.7363 6.3135 16.7363Z" fill="#F61546"/>
<path d="M6.31372 14.4604C6.50751 14.4605 6.68858 14.4932 6.85376 14.562L6.85278 14.563C7.01683 14.6285 7.16045 14.7221 7.28149 14.8452L7.36743 14.9409C7.448 15.0404 7.51274 15.1525 7.56177 15.2759C7.62779 15.4422 7.6604 15.6227 7.6604 15.8159C7.6604 15.9608 7.6424 16.0991 7.60571 16.23L7.56177 16.3589C7.49645 16.5233 7.40345 16.6682 7.28247 16.7915L7.28149 16.7925C7.16023 16.9137 7.0167 17.0083 6.85278 17.0757H6.85181C6.68709 17.142 6.50687 17.1743 6.31372 17.1743C6.12045 17.1743 5.93905 17.1427 5.77271 17.0767L5.77173 17.0757C5.60776 17.0083 5.46432 16.9138 5.34302 16.7925L5.34009 16.7905C5.25108 16.698 5.17721 16.5936 5.11841 16.478L5.0647 16.3589C4.99889 16.191 4.96704 16.0092 4.96704 15.8159C4.96704 15.6228 4.99873 15.4421 5.0647 15.2759C5.12983 15.1119 5.22189 14.9677 5.34106 14.8462H5.34204C5.46372 14.7223 5.60752 14.6267 5.77271 14.561V14.562C5.93919 14.4938 6.12024 14.4604 6.31372 14.4604ZM6.31372 15.0552C6.20262 15.0552 6.10309 15.0745 6.01392 15.1118L6.01294 15.1108C5.92511 15.1485 5.85006 15.2022 5.7854 15.27C5.72222 15.3364 5.6711 15.4159 5.63403 15.5103C5.5978 15.6025 5.57935 15.704 5.57935 15.8159C5.57935 15.9278 5.5978 16.0293 5.63403 16.1216C5.67117 16.2161 5.72249 16.2969 5.78638 16.3657H5.7854C5.84963 16.4311 5.92523 16.4834 6.01294 16.5229H6.01392C6.10309 16.5602 6.20262 16.5796 6.31372 16.5796C6.42422 16.5796 6.52145 16.5604 6.60767 16.5239C6.69984 16.4837 6.77789 16.4304 6.84302 16.3638C6.90753 16.2958 6.9568 16.2159 6.99146 16.1235L6.99243 16.1216C7.0287 16.0293 7.04809 15.9279 7.0481 15.8159C7.0481 15.704 7.0287 15.6026 6.99243 15.5103L6.99146 15.5083C6.95674 15.4157 6.90718 15.3368 6.84302 15.271L6.84204 15.27C6.77743 15.2022 6.70017 15.1497 6.60962 15.1118L6.60864 15.1108C6.52223 15.0741 6.42457 15.0552 6.31372 15.0552Z" stroke="#F61546" stroke-width="0.3125"/>
</g>
<path d="M17.0307 16.9884C16.9867 16.9884 16.9497 16.9734 16.9197 16.9435C16.8897 16.9135 16.8748 16.8765 16.8748 16.8325V14.8029C16.8748 14.7569 16.8897 14.7199 16.9197 14.6919C16.9497 14.662 16.9867 14.647 17.0307 14.647H18.3858C18.4317 14.647 18.4687 14.661 18.4967 14.6889C18.5247 14.7149 18.5387 14.7499 18.5387 14.7939C18.5387 14.8358 18.5247 14.8698 18.4967 14.8958C18.4687 14.9218 18.4317 14.9348 18.3858 14.9348H17.1865V15.6633H18.047C18.093 15.6633 18.1299 15.6773 18.1579 15.7053C18.1859 15.7313 18.1999 15.7652 18.1999 15.8072C18.1999 15.8492 18.1859 15.8842 18.1579 15.9121C18.1299 15.9381 18.093 15.9511 18.047 15.9511H17.1865V16.7006H18.3858C18.4317 16.7006 18.4687 16.7136 18.4967 16.7396C18.5247 16.7656 18.5387 16.7995 18.5387 16.8415C18.5387 16.8855 18.5247 16.9215 18.4967 16.9494C18.4687 16.9754 18.4317 16.9884 18.3858 16.9884H17.0307Z" fill="white"/>
<path d="M15.1963 17.0181C15.0204 17.0181 14.8595 16.9891 14.7136 16.9312C14.5677 16.8712 14.4418 16.7883 14.3359 16.6823C14.232 16.5744 14.151 16.4475 14.093 16.3016C14.0351 16.1537 14.0061 15.9918 14.0061 15.8159C14.0061 15.64 14.0351 15.4791 14.093 15.3332C14.151 15.1873 14.232 15.0614 14.3359 14.9555C14.4418 14.8475 14.5677 14.7646 14.7136 14.7066C14.8595 14.6467 15.0204 14.6167 15.1963 14.6167C15.3722 14.6167 15.5321 14.6467 15.676 14.7066C15.8219 14.7646 15.9478 14.8475 16.0537 14.9555C16.1597 15.0614 16.2416 15.1873 16.2996 15.3332C16.3575 15.4791 16.3865 15.64 16.3865 15.8159C16.3865 15.9918 16.3575 16.1537 16.2996 16.3016C16.2416 16.4475 16.1597 16.5744 16.0537 16.6823C15.9478 16.7883 15.8219 16.8712 15.676 16.9312C15.5321 16.9891 15.3722 17.0181 15.1963 17.0181ZM15.1963 16.7363C15.3262 16.7363 15.4452 16.7133 15.5531 16.6673C15.663 16.6194 15.7579 16.5544 15.8379 16.4725C15.9178 16.3885 15.9788 16.2906 16.0208 16.1787C16.0647 16.0667 16.0867 15.9458 16.0867 15.8159C16.0867 15.686 16.0647 15.5651 16.0208 15.4531C15.9788 15.3412 15.9178 15.2443 15.8379 15.1623C15.7579 15.0784 15.663 15.0134 15.5531 14.9675C15.4452 14.9215 15.3262 14.8985 15.1963 14.8985C15.0664 14.8985 14.9465 14.9215 14.8366 14.9675C14.7286 15.0134 14.6347 15.0784 14.5547 15.1623C14.4768 15.2443 14.4158 15.3412 14.3719 15.4531C14.3279 15.5651 14.3059 15.686 14.3059 15.8159C14.3059 15.9458 14.3279 16.0667 14.3719 16.1787C14.4158 16.2906 14.4768 16.3885 14.5547 16.4725C14.6347 16.5544 14.7286 16.6194 14.8366 16.6673C14.9465 16.7133 15.0664 16.7363 15.1963 16.7363Z" fill="white"/>
<path d="M12.402 16.9884C12.358 16.9884 12.321 16.9734 12.2911 16.9435C12.2611 16.9135 12.2461 16.8765 12.2461 16.8325V14.8029C12.2461 14.7569 12.2611 14.7199 12.2911 14.6919C12.321 14.662 12.358 14.647 12.402 14.647H13.0016C13.1515 14.647 13.2844 14.68 13.4003 14.7459C13.5163 14.8119 13.6062 14.9038 13.6702 15.0217C13.7361 15.1376 13.7691 15.2716 13.7691 15.4235C13.7691 15.5694 13.7361 15.6993 13.6702 15.8132C13.6062 15.9271 13.5163 16.0161 13.4003 16.08C13.2844 16.144 13.1515 16.176 13.0016 16.176H12.5579V16.8325C12.5579 16.8765 12.5429 16.9135 12.5129 16.9435C12.4849 16.9734 12.448 16.9884 12.402 16.9884ZM12.5579 15.8882H13.0016C13.0935 15.8882 13.1745 15.8682 13.2444 15.8282C13.3144 15.7882 13.3694 15.7333 13.4093 15.6633C13.4493 15.5933 13.4693 15.5134 13.4693 15.4235C13.4693 15.3275 13.4493 15.2436 13.4093 15.1716C13.3694 15.0977 13.3144 15.0397 13.2444 14.9977C13.1745 14.9558 13.0935 14.9348 13.0016 14.9348H12.5579V15.8882Z" fill="white"/>
<path d="M10.9569 16.9884C10.9129 16.9884 10.8759 16.9734 10.846 16.9435C10.816 16.9135 10.801 16.8765 10.801 16.8325V14.647H11.1128V16.8325C11.1128 16.8765 11.0978 16.9135 11.0678 16.9435C11.0378 16.9734 11.0009 16.9884 10.9569 16.9884ZM10.1534 14.9348C10.1115 14.9348 10.0765 14.9218 10.0485 14.8958C10.0225 14.8678 10.0095 14.8328 10.0095 14.7909C10.0095 14.7489 10.0225 14.7149 10.0485 14.6889C10.0765 14.661 10.1115 14.647 10.1534 14.647H11.7574C11.7993 14.647 11.8333 14.661 11.8593 14.6889C11.8873 14.7149 11.9013 14.7489 11.9013 14.7909C11.9013 14.8328 11.8873 14.8678 11.8593 14.8958C11.8333 14.9218 11.7993 14.9348 11.7574 14.9348H10.1534Z" fill="white"/>
<path d="M8.98292 17.0181C8.82103 17.0181 8.66913 16.9881 8.52722 16.9282C8.38731 16.8662 8.26439 16.7813 8.15846 16.6733C8.05453 16.5634 7.97259 16.4355 7.91263 16.2896C7.85466 16.1437 7.82568 15.9858 7.82568 15.8159C7.82568 15.648 7.85466 15.4921 7.91263 15.3482C7.97259 15.2023 8.05453 15.0754 8.15846 14.9675C8.26439 14.8575 8.38731 14.7716 8.52722 14.7096C8.66713 14.6477 8.81903 14.6167 8.98292 14.6167C9.13682 14.6167 9.26873 14.6367 9.37866 14.6767C9.49058 14.7166 9.60251 14.7826 9.71443 14.8745C9.73042 14.8865 9.74242 14.8995 9.75041 14.9135C9.7604 14.9255 9.7664 14.9385 9.7684 14.9525C9.7724 14.9645 9.77439 14.9795 9.77439 14.9974C9.77439 15.0354 9.7604 15.0674 9.73242 15.0934C9.70644 15.1174 9.67446 15.1314 9.63649 15.1354C9.59851 15.1374 9.56154 15.1244 9.52556 15.0964C9.45161 15.0324 9.37466 14.9835 9.29471 14.9495C9.21676 14.9155 9.11283 14.8985 8.98292 14.8985C8.865 14.8985 8.75407 14.9225 8.65014 14.9705C8.54621 15.0184 8.45427 15.0844 8.37432 15.1683C8.29637 15.2523 8.23541 15.3502 8.19144 15.4621C8.14747 15.5721 8.12549 15.69 8.12549 15.8159C8.12549 15.9438 8.14747 16.0637 8.19144 16.1757C8.23541 16.2856 8.29637 16.3825 8.37432 16.4665C8.45427 16.5504 8.54621 16.6164 8.65014 16.6643C8.75407 16.7103 8.865 16.7333 8.98292 16.7333C9.08485 16.7333 9.18079 16.7163 9.27073 16.6823C9.36267 16.6464 9.45061 16.5974 9.53455 16.5354C9.57053 16.5094 9.60551 16.4985 9.63948 16.5025C9.67546 16.5045 9.70544 16.5184 9.72942 16.5444C9.75341 16.5684 9.7654 16.6024 9.7654 16.6464C9.7654 16.6663 9.7614 16.6863 9.75341 16.7063C9.74541 16.7243 9.73342 16.7413 9.71743 16.7573C9.6095 16.8432 9.49358 16.9082 9.36966 16.9522C9.24774 16.9961 9.11883 17.0181 8.98292 17.0181Z" fill="white"/>
<path d="M6.3135 17.0181C6.13762 17.0181 5.97673 16.9891 5.83082 16.9312C5.68492 16.8712 5.559 16.7883 5.45307 16.6823C5.34914 16.5744 5.2682 16.4475 5.21023 16.3016C5.15227 16.1537 5.12329 15.9918 5.12329 15.8159C5.12329 15.64 5.15227 15.4791 5.21023 15.3332C5.2682 15.1873 5.34914 15.0614 5.45307 14.9555C5.559 14.8475 5.68492 14.7646 5.83082 14.7066C5.97673 14.6467 6.13762 14.6167 6.3135 14.6167C6.48939 14.6167 6.64928 14.6467 6.79319 14.7066C6.93909 14.7646 7.06501 14.8475 7.17094 14.9555C7.27687 15.0614 7.35881 15.1873 7.41677 15.3332C7.47474 15.4791 7.50372 15.64 7.50372 15.8159C7.50372 15.9918 7.47474 16.1537 7.41677 16.3016C7.35881 16.4475 7.27687 16.5744 7.17094 16.6823C7.06501 16.7883 6.93909 16.8712 6.79319 16.9312C6.64928 16.9891 6.48939 17.0181 6.3135 17.0181ZM6.3135 16.7363C6.44342 16.7363 6.56234 16.7133 6.67027 16.6673C6.7802 16.6194 6.87513 16.5544 6.95508 16.4725C7.03503 16.3885 7.09599 16.2906 7.13796 16.1787C7.18193 16.0667 7.20392 15.9458 7.20392 15.8159C7.20392 15.686 7.18193 15.5651 7.13796 15.4531C7.09599 15.3412 7.03503 15.2443 6.95508 15.1623C6.87513 15.0784 6.7802 15.0134 6.67027 14.9675C6.56234 14.9215 6.44342 14.8985 6.3135 14.8985C6.18359 14.8985 6.06367 14.9215 5.95374 14.9675C5.84581 15.0134 5.75188 15.0784 5.67193 15.1623C5.59398 15.2443 5.53302 15.3412 5.48905 15.4531C5.44508 15.5651 5.42309 15.686 5.42309 15.8159C5.42309 15.9458 5.44508 16.0667 5.48905 16.1787C5.53302 16.2906 5.59398 16.3885 5.67193 16.4725C5.75188 16.5544 5.84581 16.6194 5.95374 16.6673C6.06367 16.7133 6.18359 16.7363 6.3135 16.7363Z" fill="white"/>
<g filter="url(#filter8_f_52_724)">
<path d="M13.6732 7.35626C13.4015 7.31184 13.0977 7.29718 12.9045 7.29718C11.9408 7.13176 11.784 7.67244 11.7916 7.95196C11.9936 10.6997 10.5296 11.6471 9.80685 11.7887C9.16438 11.9266 8.88877 12.007 8.83166 12.1678C8.68481 12.5814 9.26763 12.7077 9.57739 12.7192C9.80685 12.7767 10.7553 12.723 11.2409 12.6503C11.7916 12.6043 12.8624 11.7926 13.2946 11.3178C13.7764 10.8698 14.1894 9.83589 14.3042 9.23855C14.4694 8.4666 14.3988 7.79114 14.2353 7.57288C14.1407 7.44652 13.9284 7.398 13.6732 7.35626ZM12.9045 7.29718C13.0972 7.07661 13.0307 6.50072 12.9733 6.24035C12.4522 5.7441 12.8633 5.35199 13.1339 5.21797C13.5653 5.08932 13.8032 5.3788 13.8682 5.53962C14.0242 5.90722 13.8032 6.15994 13.6732 6.24035C13.5722 6.40577 13.6311 7.05321 13.6732 7.35626" stroke="url(#paint0_linear_52_724)" stroke-width="0.625"/>
</g>
<g filter="url(#filter9_f_52_724)">
<path d="M13.6732 7.35626C13.4015 7.31184 13.0977 7.29718 12.9045 7.29718C11.9408 7.13176 11.784 7.67244 11.7916 7.95196C11.9936 10.6997 10.5296 11.6471 9.80685 11.7887C9.16438 11.9266 8.88877 12.007 8.83166 12.1678C8.68481 12.5814 9.26763 12.7077 9.57739 12.7192C9.80685 12.7767 10.7553 12.723 11.2409 12.6503C11.7916 12.6043 12.8624 11.7926 13.2946 11.3178C13.7764 10.8698 14.1894 9.83589 14.3042 9.23855C14.4694 8.4666 14.3988 7.79114 14.2353 7.57288C14.1407 7.44652 13.9284 7.398 13.6732 7.35626ZM12.9045 7.29718C13.0972 7.07661 13.0307 6.50072 12.9733 6.24035C12.4522 5.7441 12.8633 5.35199 13.1339 5.21797C13.5653 5.08932 13.8032 5.3788 13.8682 5.53962C14.0242 5.90722 13.8032 6.15994 13.6732 6.24035C13.5722 6.40577 13.6311 7.05321 13.6732 7.35626" stroke="url(#paint1_linear_52_724)" stroke-width="0.625"/>
</g>
<g filter="url(#filter10_f_52_724)">
<path d="M13.6732 7.35589C13.4015 7.31147 13.0977 7.29681 12.9045 7.29681C11.9408 7.13139 11.784 7.67207 11.7916 7.9516C11.9936 10.6994 10.5296 11.6467 9.80685 11.7884C9.16438 11.9262 8.88877 12.0066 8.83166 12.1675C8.68481 12.581 9.26763 12.7074 9.57739 12.7188C9.80685 12.7763 10.7553 12.7227 11.2409 12.6499C11.7916 12.604 12.8624 11.7922 13.2946 11.3174C13.7764 10.8694 14.1894 9.83552 14.3042 9.23818C14.4694 8.46623 14.3988 7.79078 14.2353 7.57252C14.1407 7.44615 13.9284 7.39764 13.6732 7.35589ZM12.9045 7.29681C13.0972 7.07625 13.0307 6.50036 12.9733 6.23998C12.4522 5.74373 12.8633 5.35163 13.1339 5.21761C13.5653 5.08895 13.8032 5.37843 13.8682 5.53925C14.0242 5.90685 13.8032 6.15957 13.6732 6.23998C13.5722 6.4054 13.6311 7.05285 13.6732 7.35589" stroke="url(#paint2_linear_52_724)" stroke-width="0.625"/>
</g>
<path d="M13.6732 7.35626C13.4015 7.31184 13.0977 7.29718 12.9045 7.29718C11.9408 7.13176 11.784 7.67244 11.7916 7.95196C11.9936 10.6997 10.5296 11.6471 9.80685 11.7887C9.16438 11.9266 8.88877 12.007 8.83166 12.1678C8.68481 12.5814 9.26763 12.7077 9.57739 12.7192C9.80685 12.7767 10.7553 12.723 11.2409 12.6503C11.7916 12.6043 12.8624 11.7926 13.2946 11.3178C13.7764 10.8698 14.1894 9.83589 14.3042 9.23855C14.4694 8.4666 14.3988 7.79114 14.2353 7.57288C14.1407 7.44652 13.9284 7.398 13.6732 7.35626ZM12.9045 7.29718C13.0972 7.07661 13.0307 6.50072 12.9733 6.24035C12.4522 5.7441 12.8633 5.35199 13.1339 5.21797C13.5653 5.08932 13.8032 5.3788 13.8682 5.53962C14.0242 5.90722 13.8032 6.15994 13.6732 6.24035C13.5722 6.40577 13.6311 7.05321 13.6732 7.35626" stroke="white" stroke-width="0.3125"/>
<defs>
<filter id="filter0_f_52_724" x="0" y="0" width="23.7061" height="23.6294" filterUnits="userSpaceOnUse" color-interpolation-filters="sRGB">
<feFlood flood-opacity="0" result="BackgroundImageFix"/>
<feBlend mode="normal" in="SourceGraphic" in2="BackgroundImageFix" result="shape"/>
<feGaussianBlur stdDeviation="0.9375" result="effect1_foregroundBlur_52_724"/>
</filter>
<filter id="filter1_f_52_724" x="0" y="0" width="23.7061" height="23.6294" filterUnits="userSpaceOnUse" color-interpolation-filters="sRGB">
<feFlood flood-opacity="0" result="BackgroundImageFix"/>
<feBlend mode="normal" in="SourceGraphic" in2="BackgroundImageFix" result="shape"/>
<feGaussianBlur stdDeviation="0.9375" result="effect1_foregroundBlur_52_724"/>
</filter>
<filter id="filter2_f_52_724" x="15.1873" y="12.9595" width="5.03894" height="5.71643" filterUnits="userSpaceOnUse" color-interpolation-filters="sRGB">
<feFlood flood-opacity="0" result="BackgroundImageFix"/>
<feBlend mode="normal" in="SourceGraphic" in2="BackgroundImageFix" result="shape"/>
<feGaussianBlur stdDeviation="0.6875" result="effect1_foregroundBlur_52_724"/>
</filter>
<filter id="filter3_f_52_724" x="12.3186" y="12.9292" width="5.75537" height="5.77637" filterUnits="userSpaceOnUse" color-interpolation-filters="sRGB">
<feFlood flood-opacity="0" result="BackgroundImageFix"/>
<feBlend mode="normal" in="SourceGraphic" in2="BackgroundImageFix" result="shape"/>
<feGaussianBlur stdDeviation="0.6875" result="effect1_foregroundBlur_52_724"/>
</filter>
<filter id="filter4_f_52_724" x="10.5586" y="12.9595" width="4.89795" height="5.71643" filterUnits="userSpaceOnUse" color-interpolation-filters="sRGB">
<feFlood flood-opacity="0" result="BackgroundImageFix"/>
<feBlend mode="normal" in="SourceGraphic" in2="BackgroundImageFix" result="shape"/>
<feGaussianBlur stdDeviation="0.6875" result="effect1_foregroundBlur_52_724"/>
</filter>
<filter id="filter5_f_52_724" x="8.32166" y="12.9595" width="5.26672" height="5.71643" filterUnits="userSpaceOnUse" color-interpolation-filters="sRGB">
<feFlood flood-opacity="0" result="BackgroundImageFix"/>
<feBlend mode="normal" in="SourceGraphic" in2="BackgroundImageFix" result="shape"/>
<feGaussianBlur stdDeviation="0.6875" result="effect1_foregroundBlur_52_724"/>
</filter>
<filter id="filter6_f_52_724" x="6.13818" y="12.9292" width="5.32373" height="5.77637" filterUnits="userSpaceOnUse" color-interpolation-filters="sRGB">
<feFlood flood-opacity="0" result="BackgroundImageFix"/>
<feBlend mode="normal" in="SourceGraphic" in2="BackgroundImageFix" result="shape"/>
<feGaussianBlur stdDeviation="0.6875" result="effect1_foregroundBlur_52_724"/>
</filter>
<filter id="filter7_f_52_724" x="3.43579" y="12.9292" width="5.75537" height="5.77637" filterUnits="userSpaceOnUse" color-interpolation-filters="sRGB">
<feFlood flood-opacity="0" result="BackgroundImageFix"/>
<feBlend mode="normal" in="SourceGraphic" in2="BackgroundImageFix" result="shape"/>
<feGaussianBlur stdDeviation="0.6875" result="effect1_foregroundBlur_52_724"/>
</filter>
<filter id="filter8_f_52_724" x="7.43335" y="3.81091" width="8.34009" height="10.3075" filterUnits="userSpaceOnUse" color-interpolation-filters="sRGB">
<feFlood flood-opacity="0" result="BackgroundImageFix"/>
<feBlend mode="normal" in="SourceGraphic" in2="BackgroundImageFix" result="shape"/>
<feGaussianBlur stdDeviation="0.53125" result="effect1_foregroundBlur_52_724"/>
</filter>
<filter id="filter9_f_52_724" x="7.43335" y="3.81091" width="8.34009" height="10.3075" filterUnits="userSpaceOnUse" color-interpolation-filters="sRGB">
<feFlood flood-opacity="0" result="BackgroundImageFix"/>
<feBlend mode="normal" in="SourceGraphic" in2="BackgroundImageFix" result="shape"/>
<feGaussianBlur stdDeviation="0.53125" result="effect1_foregroundBlur_52_724"/>
</filter>
<filter id="filter10_f_52_724" x="7.43335" y="3.81055" width="8.34009" height="10.3075" filterUnits="userSpaceOnUse" color-interpolation-filters="sRGB">
<feFlood flood-opacity="0" result="BackgroundImageFix"/>
<feBlend mode="normal" in="SourceGraphic" in2="BackgroundImageFix" result="shape"/>
<feGaussianBlur stdDeviation="0.53125" result="effect1_foregroundBlur_52_724"/>
</filter>
<linearGradient id="paint0_linear_52_724" x1="12.3217" y1="4.73309" x2="10.8695" y2="12.7434" gradientUnits="userSpaceOnUse">
<stop stop-color="#FFF266"/>
<stop offset="0.42634" stop-color="#F61546"/>
</linearGradient>
<linearGradient id="paint1_linear_52_724" x1="12.3217" y1="4.73309" x2="10.8695" y2="12.7434" gradientUnits="userSpaceOnUse">
<stop stop-color="#FFF266"/>
<stop offset="0.42634" stop-color="#F61546"/>
</linearGradient>
<linearGradient id="paint2_linear_52_724" x1="12.3217" y1="4.73272" x2="10.8695" y2="12.743" gradientUnits="userSpaceOnUse">
<stop stop-color="#FFF266"/>
<stop offset="0.42634" stop-color="#F61546"/>
</linearGradient>
</defs>
</svg>
