<svg width="113" height="113" viewBox="0 0 113 113" fill="none" xmlns="http://www.w3.org/2000/svg">
<g filter="url(#filter0_d_52_286)">
<circle cx="56.1815" cy="56.1815" r="30.6815" stroke="white" stroke-width="3" shape-rendering="crispEdges"/>
</g>
<g filter="url(#filter1_f_52_286)">
<circle cx="52.5991" cy="31.814" r="2.81499" stroke="#F61546" stroke-width="0.8"/>
</g>
<g filter="url(#filter2_f_52_286)">
<ellipse cx="49.4828" cy="66.7549" rx="2.24552" ry="2.04592" fill="#F61546"/>
<path d="M49.4824 64.5088C50.8151 64.5088 51.9287 65.4974 51.9287 66.7549C51.9287 68.0124 50.8151 69.001 49.4824 69.001C48.1499 69.0008 47.0371 68.0123 47.0371 66.7549C47.0371 65.4975 48.1499 64.509 49.4824 64.5088Z" stroke="#F61546" stroke-width="0.4"/>
</g>
<g filter="url(#filter3_f_52_286)">
<ellipse cx="60.354" cy="66.2546" rx="2.39522" ry="2.04592" transform="rotate(-45.7133 60.354 66.2546)" fill="#F61546"/>
<path d="M58.7463 64.686C59.7257 63.6822 61.2578 63.5111 62.166 64.3969C63.0742 65.2828 62.9412 66.8186 61.9621 67.8227C60.9827 68.8267 59.45 68.9984 58.5418 68.1125C57.6335 67.2266 57.767 65.6901 58.7463 64.686Z" stroke="#F61546" stroke-width="0.4"/>
</g>
<g filter="url(#filter4_f_52_286)">
<ellipse cx="54.5561" cy="64.3462" rx="1.70197" ry="1.45377" transform="rotate(11.222 54.5561 64.3462)" fill="#F61546"/>
<path d="M54.8781 62.7239C55.8782 62.9224 56.6045 63.7929 56.4212 64.7166C56.2377 65.6401 55.2344 66.1666 54.2344 65.9683C53.2343 65.7698 52.5072 64.9 52.6902 63.9763C52.8735 63.0526 53.8779 62.5254 54.8781 62.7239Z" stroke="#F61546" stroke-width="0.4"/>
</g>
<g filter="url(#filter5_f_52_286)">
<ellipse cx="55.7533" cy="70.0795" rx="1.95415" ry="1.70142" transform="rotate(89.183 55.7533 70.0795)" fill="#F61546"/>
<path d="M57.6547 70.0524C57.6713 71.215 56.8593 72.2181 55.7843 72.2336C54.7092 72.2489 53.869 71.2693 53.8524 70.1066C53.8358 68.9439 54.6477 67.9407 55.7228 67.9254C56.7978 67.9102 57.6381 68.8898 57.6547 70.0524Z" stroke="#F61546" stroke-width="0.4"/>
</g>
<g filter="url(#filter6_f_52_286)">
<ellipse cx="67.9971" cy="78.1824" rx="2.24826" ry="1.84581" transform="rotate(134.928 67.9971 78.1824)" fill="#F61546"/>
<path d="M69.4458 79.6272C68.5183 80.557 67.0931 80.7383 66.2683 79.9157C65.4435 79.093 65.6212 77.6674 66.5488 76.7375C67.4764 75.8077 68.9015 75.6263 69.7263 76.449C70.5509 77.2716 70.3732 78.6973 69.4458 79.6272Z" stroke="#F61546" stroke-width="0.4"/>
</g>
<g filter="url(#filter7_f_52_286)">
<ellipse cx="59.0403" cy="75.294" rx="1.8309" ry="1.59411" transform="rotate(104.139 59.0403 75.294)" fill="#F61546"/>
<path d="M60.7802 75.7324C60.5128 76.7938 59.5297 77.5109 58.5447 77.263C57.5595 77.0148 57.0328 75.9173 57.3001 74.8558C57.5675 73.7942 58.5516 73.0763 59.5368 73.3245C60.5218 73.5729 61.0476 74.671 60.7802 75.7324Z" stroke="#F61546" stroke-width="0.4"/>
</g>
<g filter="url(#filter8_f_52_286)">
<ellipse cx="54.0061" cy="75.9774" rx="1.8309" ry="1.73054" transform="rotate(174.863 54.0061 75.9774)" fill="#F61546"/>
<path d="M54.1788 77.9004C53.0725 77.9998 52.0802 77.2316 51.9838 76.1593C51.8874 75.087 52.7267 74.1542 53.8331 74.0546C54.9395 73.9552 55.9326 74.7233 56.029 75.7957C56.1254 76.868 55.2852 77.801 54.1788 77.9004Z" stroke="#F61546" stroke-width="0.4"/>
</g>
<g filter="url(#filter9_f_52_286)">
<ellipse cx="50.9913" cy="71.3508" rx="1.8309" ry="1.73054" transform="rotate(94.1629 50.9913 71.3508)" fill="#F61546"/>
<path d="M52.917 71.4911C52.8363 72.599 51.9178 73.454 50.844 73.3759C49.7702 73.2978 48.9853 72.3187 49.0658 71.2108C49.1465 70.1029 50.065 69.2469 51.1388 69.3251C52.2127 69.4033 52.9976 70.3832 52.917 71.4911Z" stroke="#F61546" stroke-width="0.4"/>
</g>
<g filter="url(#filter10_f_52_286)">
<ellipse cx="49.8093" cy="74.978" rx="1.37724" ry="1.30175" transform="rotate(51.9735 49.8093 74.978)" fill="#F61546"/>
<path d="M50.9922 74.0525C51.5222 74.7302 51.4422 75.7027 50.7806 76.2201C50.1191 76.7375 49.1559 76.5807 48.626 75.903C48.0962 75.2253 48.176 74.2527 48.8375 73.7354C49.499 73.2181 50.4622 73.375 50.9922 74.0525Z" stroke="#F61546" stroke-width="0.4"/>
</g>
<g filter="url(#filter11_f_52_286)">
<ellipse cx="60.7605" cy="71.1526" rx="1.37724" ry="1.14269" transform="rotate(-9.50177 60.7605 71.1526)" fill="#F61546"/>
<path d="M60.5386 69.8282C61.3616 69.6904 62.1878 70.128 62.3157 70.8922C62.4437 71.6564 61.805 72.3391 60.9819 72.4769C60.1589 72.6145 59.3326 72.177 59.2047 71.4129C59.0769 70.6488 59.7157 69.966 60.5386 69.8282Z" stroke="#F61546" stroke-width="0.4"/>
</g>
<g filter="url(#filter12_f_52_286)">
<path d="M43.7438 51.9331L45.9395 77.0336C46.006 78.381 46.5383 80.3271 50.8299 80.3271H59.2633C61.8083 80.3271 63.3552 79.878 63.7544 77.0336L67.0978 50.6356" stroke="#F61546" stroke-width="2" stroke-linecap="round"/>
</g>
<path d="M43.744 51.9331L45.9396 77.0336C46.0062 78.381 46.5385 80.3271 50.83 80.3271H59.2634C61.8084 80.3271 63.3553 79.878 63.7545 77.0336L67.098 50.6356" stroke="white" stroke-opacity="0.9" stroke-linecap="round"/>
<g filter="url(#filter13_f_52_286)">
<path d="M56.1791 35.149L54.7716 60.4839" stroke="#F61546" stroke-width="2" stroke-linecap="round"/>
</g>
<path d="M56.1791 35.149L54.7716 60.4839" stroke="white" stroke-opacity="0.8"/>
<g filter="url(#filter14_f_52_286)">
<path d="M53.7737 45.9459C48.5441 45.7862 45.0411 47.4098 43.9433 48.2415C42.4962 48.9898 41.2486 52.2334 47.2368 52.5828C50.447 52.849 59.4287 53.3217 65.5003 51.9339C67.2468 51.5347 68.3446 49.1395 65.3506 47.6424C64.3527 46.9938 61.1391 45.9541 57.4664 45.9459" stroke="#F61546" stroke-width="2" stroke-linecap="round"/>
</g>
<path d="M53.724 45.9454C46.7379 45.9454 43.9434 48.241 43.9434 48.241C42.6458 48.8895 41.2487 52.2329 47.2368 52.5824C50.4471 52.8485 59.4288 53.3213 65.5004 51.9335C67.2469 51.5342 68.3447 49.139 65.3507 47.6419C64.2696 47.0721 61.1791 45.935 57.4665 45.9454" stroke="white" stroke-opacity="0.77" stroke-linecap="round"/>
<circle cx="52.599" cy="31.8144" r="2.81499" stroke="white" stroke-width="0.3"/>
<ellipse cx="49.4826" cy="66.7549" rx="2.24552" ry="2.04592" fill="white" fill-opacity="0.59"/>
<ellipse cx="60.3537" cy="66.2546" rx="2.39522" ry="2.04592" transform="rotate(-45.7133 60.3537 66.2546)" fill="white" fill-opacity="0.59"/>
<ellipse cx="54.5559" cy="64.3468" rx="1.70197" ry="1.45377" transform="rotate(11.222 54.5559 64.3468)" fill="white" fill-opacity="0.59"/>
<ellipse cx="55.7532" cy="70.0795" rx="1.95415" ry="1.70142" transform="rotate(89.183 55.7532 70.0795)" fill="white" fill-opacity="0.59"/>
<ellipse cx="67.9969" cy="78.183" rx="2.24826" ry="1.84581" transform="rotate(134.928 67.9969 78.183)" fill="white" fill-opacity="0.59"/>
<ellipse cx="59.0402" cy="75.294" rx="1.8309" ry="1.59411" transform="rotate(104.139 59.0402 75.294)" fill="white" fill-opacity="0.59"/>
<ellipse cx="54.006" cy="75.9781" rx="1.8309" ry="1.73054" transform="rotate(174.863 54.006 75.9781)" fill="white" fill-opacity="0.59"/>
<ellipse cx="50.9912" cy="71.3508" rx="1.8309" ry="1.73054" transform="rotate(94.1629 50.9912 71.3508)" fill="white" fill-opacity="0.59"/>
<ellipse cx="49.8091" cy="74.978" rx="1.37724" ry="1.30175" transform="rotate(51.9735 49.8091 74.978)" fill="white" fill-opacity="0.59"/>
<ellipse cx="60.7604" cy="71.153" rx="1.37724" ry="1.14269" transform="rotate(-9.50177 60.7604 71.153)" fill="white" fill-opacity="0.59"/>
<defs>
<filter id="filter0_d_52_286" x="0" y="0" width="112.363" height="112.363" filterUnits="userSpaceOnUse" color-interpolation-filters="sRGB">
<feFlood flood-opacity="0" result="BackgroundImageFix"/>
<feColorMatrix in="SourceAlpha" type="matrix" values="0 0 0 0 0 0 0 0 0 0 0 0 0 0 0 0 0 0 127 0" result="hardAlpha"/>
<feMorphology radius="4" operator="dilate" in="SourceAlpha" result="effect1_dropShadow_52_286"/>
<feOffset/>
<feGaussianBlur stdDeviation="10"/>
<feComposite in2="hardAlpha" operator="out"/>
<feColorMatrix type="matrix" values="0 0 0 0 0.345098 0 0 0 0 1 0 0 0 0 0.937255 0 0 0 1 0"/>
<feBlend mode="normal" in2="BackgroundImageFix" result="effect1_dropShadow_52_286"/>
<feBlend mode="normal" in="SourceGraphic" in2="effect1_dropShadow_52_286" result="shape"/>
</filter>
<filter id="filter1_f_52_286" x="48.3841" y="27.599" width="8.42999" height="8.43005" filterUnits="userSpaceOnUse" color-interpolation-filters="sRGB">
<feFlood flood-opacity="0" result="BackgroundImageFix"/>
<feBlend mode="normal" in="SourceGraphic" in2="BackgroundImageFix" result="shape"/>
<feGaussianBlur stdDeviation="0.5" result="effect1_foregroundBlur_52_286"/>
</filter>
<filter id="filter2_f_52_286" x="45.1373" y="62.609" width="8.69108" height="8.29185" filterUnits="userSpaceOnUse" color-interpolation-filters="sRGB">
<feFlood flood-opacity="0" result="BackgroundImageFix"/>
<feBlend mode="normal" in="SourceGraphic" in2="BackgroundImageFix" result="shape"/>
<feGaussianBlur stdDeviation="0.85" result="effect1_foregroundBlur_52_286"/>
</filter>
<filter id="filter3_f_52_286" x="56.0303" y="61.9219" width="8.6475" height="8.66526" filterUnits="userSpaceOnUse" color-interpolation-filters="sRGB">
<feFlood flood-opacity="0" result="BackgroundImageFix"/>
<feBlend mode="normal" in="SourceGraphic" in2="BackgroundImageFix" result="shape"/>
<feGaussianBlur stdDeviation="0.85" result="effect1_foregroundBlur_52_286"/>
</filter>
<filter id="filter4_f_52_286" x="50.7616" y="60.7829" width="7.5889" height="7.12656" filterUnits="userSpaceOnUse" color-interpolation-filters="sRGB">
<feFlood flood-opacity="0" result="BackgroundImageFix"/>
<feBlend mode="normal" in="SourceGraphic" in2="BackgroundImageFix" result="shape"/>
<feGaussianBlur stdDeviation="0.85" result="effect1_foregroundBlur_52_286"/>
</filter>
<filter id="filter5_f_52_286" x="51.9519" y="66.0255" width="7.60294" height="8.10813" filterUnits="userSpaceOnUse" color-interpolation-filters="sRGB">
<feFlood flood-opacity="0" result="BackgroundImageFix"/>
<feBlend mode="normal" in="SourceGraphic" in2="BackgroundImageFix" result="shape"/>
<feGaussianBlur stdDeviation="0.85" result="effect1_foregroundBlur_52_286"/>
</filter>
<filter id="filter6_f_52_286" x="63.8395" y="74.0238" width="8.31516" height="8.31724" filterUnits="userSpaceOnUse" color-interpolation-filters="sRGB">
<feFlood flood-opacity="0" result="BackgroundImageFix"/>
<feBlend mode="normal" in="SourceGraphic" in2="BackgroundImageFix" result="shape"/>
<feGaussianBlur stdDeviation="0.85" result="effect1_foregroundBlur_52_286"/>
</filter>
<filter id="filter7_f_52_286" x="55.3319" y="71.3748" width="7.41697" height="7.83835" filterUnits="userSpaceOnUse" color-interpolation-filters="sRGB">
<feFlood flood-opacity="0" result="BackgroundImageFix"/>
<feBlend mode="normal" in="SourceGraphic" in2="BackgroundImageFix" result="shape"/>
<feGaussianBlur stdDeviation="0.85" result="effect1_foregroundBlur_52_286"/>
</filter>
<filter id="filter8_f_52_286" x="50.0758" y="72.1461" width="7.86063" height="7.66282" filterUnits="userSpaceOnUse" color-interpolation-filters="sRGB">
<feFlood flood-opacity="0" result="BackgroundImageFix"/>
<feBlend mode="normal" in="SourceGraphic" in2="BackgroundImageFix" result="shape"/>
<feGaussianBlur stdDeviation="0.85" result="effect1_foregroundBlur_52_286"/>
</filter>
<filter id="filter9_f_52_286" x="47.1602" y="67.4202" width="7.66221" height="7.86118" filterUnits="userSpaceOnUse" color-interpolation-filters="sRGB">
<feFlood flood-opacity="0" result="BackgroundImageFix"/>
<feBlend mode="normal" in="SourceGraphic" in2="BackgroundImageFix" result="shape"/>
<feGaussianBlur stdDeviation="0.85" result="effect1_foregroundBlur_52_286"/>
</filter>
<filter id="filter10_f_52_286" x="46.3786" y="71.5283" width="6.8613" height="6.89939" filterUnits="userSpaceOnUse" color-interpolation-filters="sRGB">
<feFlood flood-opacity="0" result="BackgroundImageFix"/>
<feBlend mode="normal" in="SourceGraphic" in2="BackgroundImageFix" result="shape"/>
<feGaussianBlur stdDeviation="0.85" result="effect1_foregroundBlur_52_286"/>
</filter>
<filter id="filter11_f_52_286" x="57.2882" y="67.9036" width="6.94474" height="6.4979" filterUnits="userSpaceOnUse" color-interpolation-filters="sRGB">
<feFlood flood-opacity="0" result="BackgroundImageFix"/>
<feBlend mode="normal" in="SourceGraphic" in2="BackgroundImageFix" result="shape"/>
<feGaussianBlur stdDeviation="0.85" result="effect1_foregroundBlur_52_286"/>
</filter>
<filter id="filter12_f_52_286" x="40.2438" y="47.1355" width="30.3542" height="36.6917" filterUnits="userSpaceOnUse" color-interpolation-filters="sRGB">
<feFlood flood-opacity="0" result="BackgroundImageFix"/>
<feBlend mode="normal" in="SourceGraphic" in2="BackgroundImageFix" result="shape"/>
<feGaussianBlur stdDeviation="1.25" result="effect1_foregroundBlur_52_286"/>
</filter>
<filter id="filter13_f_52_286" x="51.2716" y="31.649" width="8.40753" height="32.3348" filterUnits="userSpaceOnUse" color-interpolation-filters="sRGB">
<feFlood flood-opacity="0" result="BackgroundImageFix"/>
<feBlend mode="normal" in="SourceGraphic" in2="BackgroundImageFix" result="shape"/>
<feGaussianBlur stdDeviation="1.25" result="effect1_foregroundBlur_52_286"/>
</filter>
<filter id="filter14_f_52_286" x="39.2462" y="42.4349" width="31.4753" height="13.9456" filterUnits="userSpaceOnUse" color-interpolation-filters="sRGB">
<feFlood flood-opacity="0" result="BackgroundImageFix"/>
<feBlend mode="normal" in="SourceGraphic" in2="BackgroundImageFix" result="shape"/>
<feGaussianBlur stdDeviation="1.25" result="effect1_foregroundBlur_52_286"/>
</filter>
</defs>
</svg>
