<svg width="24" height="23" viewBox="0 0 24 23" fill="none" xmlns="http://www.w3.org/2000/svg">
<g filter="url(#filter0_f_52_679)">
<path d="M3.52556 16.7692C1.78605 14.222 -0.139833 8.00637 6.0727 3.52092C7.86915 2.21629 12.4405 0.523396 17.0223 3.35009C19.0414 4.67026 22.7565 8.51268 20.6566 14.5637M20.2373 15.6043L19.5228 16.7692M18.9171 17.5457L18.4046 18.0583M17.5659 18.6951C16.6599 19.3836 14.2855 20.6044 12.4561 20.7141C10.9029 20.8073 7.7097 20.5091 5.62229 18.6951M4.69041 18.0583L4.22447 17.6545" stroke="#FACD37" stroke-width="1.25" stroke-linecap="round"/>
</g>
<g filter="url(#filter1_f_52_679)">
<path d="M3.52556 16.7692C1.78605 14.222 -0.139833 8.00637 6.0727 3.52092C7.86915 2.21629 12.4405 0.523396 17.0223 3.35009C19.0414 4.67026 22.7565 8.51268 20.6566 14.5637M20.2373 15.6043L19.5228 16.7692M18.9171 17.5457L18.4046 18.0583M17.5659 18.6951C16.6599 19.3836 14.2855 20.6044 12.4561 20.7141C10.9029 20.8073 7.7097 20.5091 5.62229 18.6951M4.69041 18.0583L4.22447 17.6545" stroke="#FACD37" stroke-width="1.25" stroke-linecap="round"/>
</g>
<path d="M3.51482 16.7692C1.77531 14.222 -0.150576 8.00637 6.06196 3.52092C7.85841 2.21629 12.4298 0.523396 17.0115 3.35009C19.0306 4.67026 22.7457 8.51268 20.6459 14.5637M20.2265 15.6043L19.5121 16.7692M18.9064 17.5457L18.3938 18.0583M17.5551 18.6951C16.6491 19.3836 14.2747 20.6044 12.4453 20.7141C10.8922 20.8073 7.69896 20.5091 5.61154 18.6951M4.67966 18.0583L4.21372 17.6545" stroke="white" stroke-width="0.625" stroke-linecap="round"/>
<g filter="url(#filter2_f_52_679)">
<path d="M13.8787 16.4269C13.835 16.4269 13.7982 16.4119 13.7684 16.3821C13.7386 16.3523 13.7237 16.3155 13.7237 16.2718V14.0979H14.0338V16.2718C14.0338 16.3155 14.0189 16.3523 13.9891 16.3821C13.9592 16.4119 13.9225 16.4269 13.8787 16.4269ZM13.0795 14.3842C13.0378 14.3842 13.003 14.3713 12.9752 14.3454C12.9493 14.3176 12.9364 14.2828 12.9364 14.241C12.9364 14.1993 12.9493 14.1655 12.9752 14.1396C13.003 14.1118 13.0378 14.0979 13.0795 14.0979H14.6749C14.7167 14.0979 14.7505 14.1118 14.7763 14.1396C14.8041 14.1655 14.8181 14.1993 14.8181 14.241C14.8181 14.2828 14.8041 14.3176 14.7763 14.3454C14.7505 14.3713 14.7167 14.3842 14.6749 14.3842H13.0795Z" fill="#FACD37"/>
<path d="M14.6747 13.9417C14.7516 13.9417 14.8242 13.9692 14.8817 14.0266L14.8827 14.0256C14.884 14.0269 14.8843 14.0292 14.8856 14.0305C14.8869 14.0318 14.8893 14.0321 14.8905 14.0334L14.8895 14.0344C14.9468 14.0919 14.9745 14.1646 14.9745 14.2415C14.9744 14.3217 14.9455 14.3974 14.8866 14.4563C14.8273 14.5155 14.7513 14.5403 14.6747 14.5403H14.1903V16.2717C14.1903 16.3552 14.1598 16.4321 14.0995 16.4924C14.0392 16.5527 13.9622 16.5832 13.8788 16.5833C13.7953 16.5833 13.7184 16.5527 13.6581 16.4924C13.5978 16.4321 13.5673 16.3552 13.5673 16.2717V14.5403H13.08C13.0031 14.5403 12.9287 14.5155 12.869 14.4602L12.8602 14.4524L12.9755 14.345L12.8602 14.4514C12.8051 14.3919 12.7802 14.3181 12.7802 14.2415C12.7802 14.1647 12.8057 14.0889 12.8651 14.0295C12.9242 13.9705 12.9996 13.9417 13.08 13.9417H14.6747Z" stroke="#FACD37" stroke-width="0.3125"/>
</g>
<g filter="url(#filter3_f_52_679)">
<path d="M10.7384 16.4269C10.6947 16.4269 10.6569 16.4119 10.6251 16.3821C10.5933 16.3523 10.5774 16.3155 10.5774 16.2718V14.253C10.5774 14.2072 10.5933 14.1705 10.6251 14.1426C10.6569 14.1128 10.6947 14.0979 10.7384 14.0979C10.7841 14.0979 10.8199 14.1128 10.8458 14.1426C10.8736 14.1705 10.8875 14.2072 10.8875 14.253V15.9438L12.3189 14.1546C12.3507 14.1168 12.3905 14.0979 12.4382 14.0979C12.4839 14.0979 12.5207 14.1128 12.5485 14.1426C12.5783 14.1705 12.5932 14.2072 12.5932 14.253V16.2718C12.5932 16.3155 12.5783 16.3523 12.5485 16.3821C12.5207 16.4119 12.4839 16.4269 12.4382 16.4269C12.3944 16.4269 12.3577 16.4119 12.3278 16.3821C12.298 16.3523 12.2831 16.3155 12.2831 16.2718V14.584L10.8577 16.3732C10.8438 16.3891 10.8259 16.402 10.804 16.4119C10.7822 16.4219 10.7603 16.4269 10.7384 16.4269Z" fill="#FACD37"/>
<path d="M12.4377 13.9417C12.518 13.9417 12.5943 13.97 12.6545 14.0305L12.6555 14.0286C12.7208 14.0896 12.7493 14.1701 12.7493 14.2532V16.2717C12.7493 16.355 12.7195 16.4322 12.6594 16.4924L12.6584 16.4915C12.5978 16.5544 12.5195 16.5833 12.4377 16.5833C12.3544 16.5831 12.2773 16.5526 12.217 16.4924C12.1569 16.4322 12.1272 16.3551 12.1272 16.2717V15.0295L10.9797 16.4709L10.9758 16.4758L10.8577 16.3733L10.9749 16.4758C10.9444 16.5106 10.9077 16.5361 10.8684 16.554C10.8283 16.5722 10.7847 16.5832 10.7385 16.5833C10.6552 16.5833 10.5787 16.5534 10.5178 16.4963C10.4545 16.4369 10.4211 16.3585 10.4211 16.2717V14.2532C10.4211 14.1666 10.4531 14.0848 10.5217 14.0247L10.5227 14.0256C10.5829 13.9709 10.657 13.9417 10.7385 13.9417C10.8183 13.9417 10.8958 13.9696 10.9553 14.0334L10.9563 14.0325C10.9571 14.0333 10.9574 14.0346 10.9583 14.0354C10.9599 14.0372 10.9625 14.0384 10.9641 14.0403L10.9631 14.0413C11.0193 14.1018 11.0442 14.1767 11.0442 14.2532V15.4973L12.1965 14.0569L12.1995 14.054C12.2597 13.9825 12.3423 13.9418 12.4377 13.9417Z" stroke="#FACD37" stroke-width="0.3125"/>
</g>
<g filter="url(#filter4_f_52_679)">
<path d="M8.43386 16.4269C8.38813 16.4269 8.35334 16.4129 8.32949 16.3851C8.30563 16.3553 8.2937 16.3215 8.2937 16.2837C8.2937 16.244 8.30563 16.2082 8.32949 16.1764L9.08095 15.1744L9.21514 15.0551L9.90101 14.1426C9.92884 14.1128 9.96562 14.0979 10.0113 14.0979C10.0531 14.0979 10.0859 14.1108 10.1097 14.1367C10.1336 14.1625 10.1465 14.1943 10.1485 14.2321C10.1505 14.2699 10.1396 14.3066 10.1157 14.3424L9.39108 15.3086L9.26286 15.4219L8.54121 16.3821C8.51139 16.4119 8.4756 16.4269 8.43386 16.4269ZM9.99345 16.4269C9.96761 16.4269 9.94474 16.4229 9.92486 16.4149C9.90697 16.405 9.89007 16.3901 9.87417 16.3702L9.17936 15.407L9.06903 15.3146L8.36825 14.3424C8.3444 14.3106 8.33446 14.2758 8.33843 14.2381C8.34241 14.2003 8.35632 14.1675 8.38018 14.1396C8.40602 14.1118 8.43982 14.0979 8.48157 14.0979C8.53326 14.0979 8.57003 14.1128 8.5919 14.1426L9.25391 15.0611L9.36723 15.1535L10.1038 16.1764C10.1276 16.2082 10.1386 16.244 10.1366 16.2837C10.1346 16.3235 10.1207 16.3573 10.0948 16.3851C10.071 16.4129 10.0372 16.4269 9.99345 16.4269Z" fill="#FACD37"/>
<path d="M10.0115 13.9417C10.0688 13.9417 10.1272 13.9555 10.1775 13.9895L10.2244 14.0305L10.2576 14.0735C10.2865 14.1189 10.3016 14.1703 10.3044 14.2239C10.3084 14.2997 10.2856 14.3692 10.2458 14.429L10.241 14.4368L10.24 14.4358L9.62964 15.2502L10.2283 16.0823C10.274 16.1432 10.2965 16.2152 10.2927 16.2913C10.289 16.3657 10.2617 16.4353 10.2097 16.4915L10.2087 16.4905C10.1499 16.5563 10.0717 16.5832 9.9939 16.5833C9.9522 16.5833 9.90866 16.5765 9.86694 16.5598L9.85718 16.5559L9.84937 16.551C9.80995 16.5291 9.77732 16.5 9.75171 16.468L9.74683 16.4622L9.7478 16.4612L9.22241 15.7336L8.66577 16.4758L8.65991 16.4846L8.6521 16.4924C8.59342 16.5511 8.5178 16.5831 8.43433 16.5833C8.35522 16.5833 8.27136 16.5574 8.21069 16.4866L8.20776 16.4827C8.16201 16.4255 8.13745 16.3571 8.13745 16.2834C8.13751 16.21 8.16075 16.1411 8.20483 16.0823L8.82886 15.2483L8.24292 14.4358L8.21362 14.3879C8.18813 14.3374 8.17714 14.2812 8.18335 14.2219L8.20776 14.1243C8.22081 14.0935 8.23889 14.0647 8.26147 14.0383L8.26538 14.0334C8.32381 13.9705 8.40093 13.9417 8.4812 13.9417C8.54127 13.9417 8.60949 13.9551 8.66577 13.9973L8.71753 14.05L8.71851 14.051L9.23511 14.7678L9.77612 14.0491L9.78101 14.0422L9.78687 14.0364C9.84798 13.9709 9.92823 13.9417 10.0115 13.9417Z" stroke="#FACD37" stroke-width="0.3125"/>
</g>
<path d="M13.8787 16.4269C13.835 16.4269 13.7982 16.4119 13.7684 16.3821C13.7386 16.3523 13.7237 16.3155 13.7237 16.2718V14.0979H14.0338V16.2718C14.0338 16.3155 14.0189 16.3523 13.9891 16.3821C13.9592 16.4119 13.9225 16.4269 13.8787 16.4269ZM13.0795 14.3842C13.0378 14.3842 13.003 14.3713 12.9752 14.3454C12.9493 14.3176 12.9364 14.2828 12.9364 14.241C12.9364 14.1993 12.9493 14.1655 12.9752 14.1396C13.003 14.1118 13.0378 14.0979 13.0795 14.0979H14.6749C14.7167 14.0979 14.7505 14.1118 14.7763 14.1396C14.8041 14.1655 14.8181 14.1993 14.8181 14.241C14.8181 14.2828 14.8041 14.3176 14.7763 14.3454C14.7505 14.3713 14.7167 14.3842 14.6749 14.3842H13.0795Z" fill="white" fill-opacity="0.82"/>
<path d="M10.7384 16.4269C10.6947 16.4269 10.6569 16.4119 10.6251 16.3821C10.5933 16.3523 10.5774 16.3155 10.5774 16.2718V14.253C10.5774 14.2072 10.5933 14.1705 10.6251 14.1426C10.6569 14.1128 10.6947 14.0979 10.7384 14.0979C10.7841 14.0979 10.8199 14.1128 10.8458 14.1426C10.8736 14.1705 10.8875 14.2072 10.8875 14.253V15.9438L12.3189 14.1546C12.3507 14.1168 12.3905 14.0979 12.4382 14.0979C12.4839 14.0979 12.5207 14.1128 12.5485 14.1426C12.5783 14.1705 12.5932 14.2072 12.5932 14.253V16.2718C12.5932 16.3155 12.5783 16.3523 12.5485 16.3821C12.5207 16.4119 12.4839 16.4269 12.4382 16.4269C12.3944 16.4269 12.3577 16.4119 12.3278 16.3821C12.298 16.3523 12.2831 16.3155 12.2831 16.2718V14.584L10.8577 16.3732C10.8438 16.3891 10.8259 16.402 10.804 16.4119C10.7822 16.4219 10.7603 16.4269 10.7384 16.4269Z" fill="white" fill-opacity="0.82"/>
<path d="M8.43386 16.4269C8.38813 16.4269 8.35334 16.4129 8.32949 16.3851C8.30563 16.3553 8.2937 16.3215 8.2937 16.2837C8.2937 16.244 8.30563 16.2082 8.32949 16.1764L9.08095 15.1744L9.21514 15.0551L9.90101 14.1426C9.92884 14.1128 9.96562 14.0979 10.0113 14.0979C10.0531 14.0979 10.0859 14.1108 10.1097 14.1367C10.1336 14.1625 10.1465 14.1943 10.1485 14.2321C10.1505 14.2699 10.1396 14.3066 10.1157 14.3424L9.39108 15.3086L9.26286 15.4219L8.54121 16.3821C8.51139 16.4119 8.4756 16.4269 8.43386 16.4269ZM9.99345 16.4269C9.96761 16.4269 9.94474 16.4229 9.92486 16.4149C9.90697 16.405 9.89007 16.3901 9.87417 16.3702L9.17936 15.407L9.06903 15.3146L8.36825 14.3424C8.3444 14.3106 8.33446 14.2758 8.33843 14.2381C8.34241 14.2003 8.35632 14.1675 8.38018 14.1396C8.40602 14.1118 8.43982 14.0979 8.48157 14.0979C8.53326 14.0979 8.57003 14.1128 8.5919 14.1426L9.25391 15.0611L9.36723 15.1535L10.1038 16.1764C10.1276 16.2082 10.1386 16.244 10.1366 16.2837C10.1346 16.3235 10.1207 16.3573 10.0948 16.3851C10.071 16.4129 10.0372 16.4269 9.99345 16.4269Z" fill="white" fill-opacity="0.82"/>
<g filter="url(#filter5_f_52_679)">
<circle cx="11.6019" cy="5.85095" r="0.667847" stroke="#FACD37" stroke-width="0.625"/>
</g>
<g filter="url(#filter6_f_52_679)">
<circle cx="7.98344" cy="7.41936" r="0.559128" stroke="#FACD37" stroke-width="0.625"/>
</g>
<g filter="url(#filter7_f_52_679)">
<circle cx="15.1276" cy="7.41936" r="0.559128" stroke="#FACD37" stroke-width="0.625"/>
</g>
<g filter="url(#filter8_f_52_679)">
<path d="M8.88397 11.4579L8.18506 7.97884L10.0488 8.91072L11.602 6.53442L13.1861 8.91072L14.9722 7.97884L14.1491 11.4579H8.88397Z" stroke="#FACD37" stroke-width="0.625"/>
</g>
<g filter="url(#filter9_f_52_679)">
<circle cx="11.6019" cy="5.85095" r="0.667847" stroke="#FACD37" stroke-width="0.625"/>
</g>
<g filter="url(#filter10_f_52_679)">
<circle cx="7.98344" cy="7.41936" r="0.559128" stroke="#FACD37" stroke-width="0.625"/>
</g>
<g filter="url(#filter11_f_52_679)">
<circle cx="15.1276" cy="7.41936" r="0.559128" stroke="#FACD37" stroke-width="0.625"/>
</g>
<g filter="url(#filter12_f_52_679)">
<path d="M8.88397 11.4579L8.18506 7.97884L10.0488 8.91072L11.602 6.53442L13.1861 8.91072L14.9722 7.97884L14.1491 11.4579H8.88397Z" stroke="#FACD37" stroke-width="0.625"/>
</g>
<circle cx="11.6019" cy="5.85095" r="0.667847" stroke="white" stroke-opacity="0.7" stroke-width="0.3125"/>
<circle cx="7.98344" cy="7.41936" r="0.559128" stroke="white" stroke-opacity="0.7" stroke-width="0.3125"/>
<circle cx="15.1276" cy="7.41936" r="0.559128" stroke="white" stroke-opacity="0.7" stroke-width="0.3125"/>
<path d="M8.88397 11.4579L8.18506 7.97884L10.0488 8.91072L11.602 6.53442L13.1861 8.91072L14.9722 7.97884L14.1491 11.4579H8.88397Z" stroke="white" stroke-opacity="0.7" stroke-width="0.3125"/>
<defs>
<filter id="filter0_f_52_679" x="0" y="0" width="23.0947" height="22.5417" filterUnits="userSpaceOnUse" color-interpolation-filters="sRGB">
<feFlood flood-opacity="0" result="BackgroundImageFix"/>
<feBlend mode="normal" in="SourceGraphic" in2="BackgroundImageFix" result="shape"/>
<feGaussianBlur stdDeviation="0.59375" result="effect1_foregroundBlur_52_679"/>
</filter>
<filter id="filter1_f_52_679" x="0" y="0" width="23.0947" height="22.5417" filterUnits="userSpaceOnUse" color-interpolation-filters="sRGB">
<feFlood flood-opacity="0" result="BackgroundImageFix"/>
<feBlend mode="normal" in="SourceGraphic" in2="BackgroundImageFix" result="shape"/>
<feGaussianBlur stdDeviation="0.59375" result="effect1_foregroundBlur_52_679"/>
</filter>
<filter id="filter2_f_52_679" x="11.9364" y="13.0979" width="3.88159" height="4.32898" filterUnits="userSpaceOnUse" color-interpolation-filters="sRGB">
<feFlood flood-opacity="0" result="BackgroundImageFix"/>
<feBlend mode="normal" in="SourceGraphic" in2="BackgroundImageFix" result="shape"/>
<feGaussianBlur stdDeviation="0.34375" result="effect1_foregroundBlur_52_679"/>
</filter>
<filter id="filter3_f_52_679" x="9.57739" y="13.0027" width="4.01587" height="4.51941" filterUnits="userSpaceOnUse" color-interpolation-filters="sRGB">
<feFlood flood-opacity="0" result="BackgroundImageFix"/>
<feBlend mode="normal" in="SourceGraphic" in2="BackgroundImageFix" result="shape"/>
<feGaussianBlur stdDeviation="0.34375" result="effect1_foregroundBlur_52_679"/>
</filter>
<filter id="filter4_f_52_679" x="7.2937" y="13.0979" width="3.8551" height="4.32898" filterUnits="userSpaceOnUse" color-interpolation-filters="sRGB">
<feFlood flood-opacity="0" result="BackgroundImageFix"/>
<feBlend mode="normal" in="SourceGraphic" in2="BackgroundImageFix" result="shape"/>
<feGaussianBlur stdDeviation="0.34375" result="effect1_foregroundBlur_52_679"/>
</filter>
<filter id="filter5_f_52_679" x="9.55908" y="3.80811" width="4.08569" height="4.08569" filterUnits="userSpaceOnUse" color-interpolation-filters="sRGB">
<feFlood flood-opacity="0" result="BackgroundImageFix"/>
<feBlend mode="normal" in="SourceGraphic" in2="BackgroundImageFix" result="shape"/>
<feGaussianBlur stdDeviation="0.53125" result="effect1_foregroundBlur_52_679"/>
</filter>
<filter id="filter6_f_52_679" x="6.04932" y="5.48523" width="3.86829" height="3.86829" filterUnits="userSpaceOnUse" color-interpolation-filters="sRGB">
<feFlood flood-opacity="0" result="BackgroundImageFix"/>
<feBlend mode="normal" in="SourceGraphic" in2="BackgroundImageFix" result="shape"/>
<feGaussianBlur stdDeviation="0.53125" result="effect1_foregroundBlur_52_679"/>
</filter>
<filter id="filter7_f_52_679" x="13.1935" y="5.48523" width="3.86829" height="3.86829" filterUnits="userSpaceOnUse" color-interpolation-filters="sRGB">
<feFlood flood-opacity="0" result="BackgroundImageFix"/>
<feBlend mode="normal" in="SourceGraphic" in2="BackgroundImageFix" result="shape"/>
<feGaussianBlur stdDeviation="0.53125" result="effect1_foregroundBlur_52_679"/>
</filter>
<filter id="filter8_f_52_679" x="6.69019" y="4.90466" width="9.80603" height="7.92822" filterUnits="userSpaceOnUse" color-interpolation-filters="sRGB">
<feFlood flood-opacity="0" result="BackgroundImageFix"/>
<feBlend mode="normal" in="SourceGraphic" in2="BackgroundImageFix" result="shape"/>
<feGaussianBlur stdDeviation="0.53125" result="effect1_foregroundBlur_52_679"/>
</filter>
<filter id="filter9_f_52_679" x="9.55908" y="3.80811" width="4.08569" height="4.08569" filterUnits="userSpaceOnUse" color-interpolation-filters="sRGB">
<feFlood flood-opacity="0" result="BackgroundImageFix"/>
<feBlend mode="normal" in="SourceGraphic" in2="BackgroundImageFix" result="shape"/>
<feGaussianBlur stdDeviation="0.53125" result="effect1_foregroundBlur_52_679"/>
</filter>
<filter id="filter10_f_52_679" x="6.04932" y="5.48523" width="3.86829" height="3.86829" filterUnits="userSpaceOnUse" color-interpolation-filters="sRGB">
<feFlood flood-opacity="0" result="BackgroundImageFix"/>
<feBlend mode="normal" in="SourceGraphic" in2="BackgroundImageFix" result="shape"/>
<feGaussianBlur stdDeviation="0.53125" result="effect1_foregroundBlur_52_679"/>
</filter>
<filter id="filter11_f_52_679" x="13.1935" y="5.48523" width="3.86829" height="3.86829" filterUnits="userSpaceOnUse" color-interpolation-filters="sRGB">
<feFlood flood-opacity="0" result="BackgroundImageFix"/>
<feBlend mode="normal" in="SourceGraphic" in2="BackgroundImageFix" result="shape"/>
<feGaussianBlur stdDeviation="0.53125" result="effect1_foregroundBlur_52_679"/>
</filter>
<filter id="filter12_f_52_679" x="6.69019" y="4.90466" width="9.80603" height="7.92822" filterUnits="userSpaceOnUse" color-interpolation-filters="sRGB">
<feFlood flood-opacity="0" result="BackgroundImageFix"/>
<feBlend mode="normal" in="SourceGraphic" in2="BackgroundImageFix" result="shape"/>
<feGaussianBlur stdDeviation="0.53125" result="effect1_foregroundBlur_52_679"/>
</filter>
</defs>
</svg>
