<svg width="113" height="113" viewBox="0 0 113 113" fill="none" xmlns="http://www.w3.org/2000/svg">
<g filter="url(#filter0_d_52_265)">
<circle cx="56.1815" cy="56.1815" r="30.6815" stroke="white" stroke-width="3" shape-rendering="crispEdges"/>
</g>
<g filter="url(#filter1_f_52_265)">
<path d="M38.9972 61.4508V52.9308L52.1383 43.3036M38.9972 52.9308L73.6069 52.642M73.6069 61.5953V52.642L62.6801 43.3036M38.9972 61.4508V71.7038H73.6069V61.5953M38.9972 61.4508C40.6017 60.1672 44.7254 58.0043 48.3837 59.6217L50.8868 60.9695C52.8283 60.1672 57.4718 58.7263 60.514 59.381C61.3804 59.6698 63.1422 60.4881 63.2577 61.4508C64.7981 59.7982 68.3697 57.3882 70.3337 60.9695C70.6386 61.3867 71.72 62.0959 73.6069 61.5953" stroke="#F645F9" stroke-width="2" stroke-linecap="round"/>
<path d="M38.9972 61.4508V52.9308L52.1383 43.3036M38.9972 52.9308L73.6069 52.642M73.6069 61.5953V52.642L62.6801 43.3036M38.9972 61.4508V71.7038H73.6069V61.5953M38.9972 61.4508C40.6017 60.1672 44.7254 58.0043 48.3837 59.6217L50.8868 60.9695C52.8283 60.1672 57.4718 58.7263 60.514 59.381C61.3804 59.6698 63.1422 60.4881 63.2577 61.4508C64.7981 59.7982 68.3697 57.3882 70.3337 60.9695C70.6386 61.3867 71.72 62.0959 73.6069 61.5953" stroke="#F645F9" stroke-width="2" stroke-linecap="round"/>
<path d="M38.9972 61.4508V52.9308L52.1383 43.3036M38.9972 52.9308L73.6069 52.642M73.6069 61.5953V52.642L62.6801 43.3036M38.9972 61.4508V71.7038H73.6069V61.5953M38.9972 61.4508C40.6017 60.1672 44.7254 58.0043 48.3837 59.6217L50.8868 60.9695C52.8283 60.1672 57.4718 58.7263 60.514 59.381C61.3804 59.6698 63.1422 60.4881 63.2577 61.4508C64.7981 59.7982 68.3697 57.3882 70.3337 60.9695C70.6386 61.3867 71.72 62.0959 73.6069 61.5953" stroke="#F645F9" stroke-width="2" stroke-linecap="round"/>
</g>
<g filter="url(#filter2_f_52_265)">
<path d="M38.9972 65.0131C41.5324 65.7351 47.4306 66.8038 50.7424 65.3019C53.3738 65.8956 59.4935 66.669 62.9208 65.0131C64.8622 65.8956 69.1399 67.1888 70.7188 65.3019C70.9916 64.9168 71.9318 64.3199 73.5107 65.0131" stroke="#F645F9" stroke-width="2" stroke-linecap="round"/>
<path d="M38.9972 65.0131C41.5324 65.7351 47.4306 66.8038 50.7424 65.3019C53.3738 65.8956 59.4935 66.669 62.9208 65.0131C64.8622 65.8956 69.1399 67.1888 70.7188 65.3019C70.9916 64.9168 71.9318 64.3199 73.5107 65.0131" stroke="#F645F9" stroke-width="2" stroke-linecap="round"/>
<path d="M38.9972 65.0131C41.5324 65.7351 47.4306 66.8038 50.7424 65.3019C53.3738 65.8956 59.4935 66.669 62.9208 65.0131C64.8622 65.8956 69.1399 67.1888 70.7188 65.3019C70.9916 64.9168 71.9318 64.3199 73.5107 65.0131" stroke="#F645F9" stroke-width="2" stroke-linecap="round"/>
</g>
<g filter="url(#filter3_f_52_265)">
<path d="M52.6203 41.3779C54.0007 38.2491 57.4659 38.1367 58.926 38.5379C62.3148 39.3081 62.6485 42.4208 62.3917 43.881C62.8153 48.0399 58.4281 48.1778 55.9416 47.78C52.3315 47.2023 51.8982 43.0145 52.6203 41.3779Z" stroke="#F645F9" stroke-width="2" stroke-linecap="round"/>
<path d="M52.6203 41.3779C54.0007 38.2491 57.4659 38.1367 58.926 38.5379C62.3148 39.3081 62.6485 42.4208 62.3917 43.881C62.8153 48.0399 58.4281 48.1778 55.9416 47.78C52.3315 47.2023 51.8982 43.0145 52.6203 41.3779Z" stroke="#F645F9" stroke-width="2" stroke-linecap="round"/>
<path d="M52.6203 41.3779C54.0007 38.2491 57.4659 38.1367 58.926 38.5379C62.3148 39.3081 62.6485 42.4208 62.3917 43.881C62.8153 48.0399 58.4281 48.1778 55.9416 47.78C52.3315 47.2023 51.8982 43.0145 52.6203 41.3779Z" stroke="#F645F9" stroke-width="2" stroke-linecap="round"/>
</g>
<g filter="url(#filter4_f_52_265)">
<path d="M38.9972 61.4508V52.9308L52.1383 43.3036M38.9972 52.9308L73.6069 52.642M73.6069 61.5953V52.642L62.6801 43.3036M38.9972 61.4508V71.7038H73.6069V61.5953M38.9972 61.4508C40.6017 60.1672 44.7254 58.0043 48.3837 59.6217L50.8868 60.9695C52.8283 60.1672 57.4718 58.7263 60.514 59.381C61.3804 59.6698 63.1422 60.4881 63.2577 61.4508C64.7981 59.7982 68.3697 57.3882 70.3337 60.9695C70.6386 61.3867 71.72 62.0959 73.6069 61.5953" stroke="#F645F9" stroke-width="2" stroke-linecap="round"/>
<path d="M38.9972 61.4508V52.9308L52.1383 43.3036M38.9972 52.9308L73.6069 52.642M73.6069 61.5953V52.642L62.6801 43.3036M38.9972 61.4508V71.7038H73.6069V61.5953M38.9972 61.4508C40.6017 60.1672 44.7254 58.0043 48.3837 59.6217L50.8868 60.9695C52.8283 60.1672 57.4718 58.7263 60.514 59.381C61.3804 59.6698 63.1422 60.4881 63.2577 61.4508C64.7981 59.7982 68.3697 57.3882 70.3337 60.9695C70.6386 61.3867 71.72 62.0959 73.6069 61.5953" stroke="#F645F9" stroke-width="2" stroke-linecap="round"/>
<path d="M38.9972 61.4508V52.9308L52.1383 43.3036M38.9972 52.9308L73.6069 52.642M73.6069 61.5953V52.642L62.6801 43.3036M38.9972 61.4508V71.7038H73.6069V61.5953M38.9972 61.4508C40.6017 60.1672 44.7254 58.0043 48.3837 59.6217L50.8868 60.9695C52.8283 60.1672 57.4718 58.7263 60.514 59.381C61.3804 59.6698 63.1422 60.4881 63.2577 61.4508C64.7981 59.7982 68.3697 57.3882 70.3337 60.9695C70.6386 61.3867 71.72 62.0959 73.6069 61.5953" stroke="#F645F9" stroke-width="2" stroke-linecap="round"/>
</g>
<g filter="url(#filter5_f_52_265)">
<path d="M38.9972 65.0131C41.5324 65.7351 47.4306 66.8038 50.7424 65.3019C53.3738 65.8956 59.4935 66.669 62.9208 65.0131C64.8622 65.8956 69.1399 67.1888 70.7188 65.3019C70.9916 64.9168 71.9318 64.3199 73.5107 65.0131" stroke="#F645F9" stroke-width="2" stroke-linecap="round"/>
<path d="M38.9972 65.0131C41.5324 65.7351 47.4306 66.8038 50.7424 65.3019C53.3738 65.8956 59.4935 66.669 62.9208 65.0131C64.8622 65.8956 69.1399 67.1888 70.7188 65.3019C70.9916 64.9168 71.9318 64.3199 73.5107 65.0131" stroke="#F645F9" stroke-width="2" stroke-linecap="round"/>
<path d="M38.9972 65.0131C41.5324 65.7351 47.4306 66.8038 50.7424 65.3019C53.3738 65.8956 59.4935 66.669 62.9208 65.0131C64.8622 65.8956 69.1399 67.1888 70.7188 65.3019C70.9916 64.9168 71.9318 64.3199 73.5107 65.0131" stroke="#F645F9" stroke-width="2" stroke-linecap="round"/>
</g>
<g filter="url(#filter6_f_52_265)">
<path d="M52.6203 41.3779C54.0007 38.2491 57.4659 38.1367 58.926 38.5379C62.3148 39.3081 62.6485 42.4208 62.3917 43.881C62.8153 48.0399 58.4281 48.1778 55.9416 47.78C52.3315 47.2023 51.8982 43.0145 52.6203 41.3779Z" stroke="#F645F9" stroke-width="2" stroke-linecap="round"/>
<path d="M52.6203 41.3779C54.0007 38.2491 57.4659 38.1367 58.926 38.5379C62.3148 39.3081 62.6485 42.4208 62.3917 43.881C62.8153 48.0399 58.4281 48.1778 55.9416 47.78C52.3315 47.2023 51.8982 43.0145 52.6203 41.3779Z" stroke="#F645F9" stroke-width="2" stroke-linecap="round"/>
<path d="M52.6203 41.3779C54.0007 38.2491 57.4659 38.1367 58.926 38.5379C62.3148 39.3081 62.6485 42.4208 62.3917 43.881C62.8153 48.0399 58.4281 48.1778 55.9416 47.78C52.3315 47.2023 51.8982 43.0145 52.6203 41.3779Z" stroke="#F645F9" stroke-width="2" stroke-linecap="round"/>
</g>
<path d="M39.1345 61.5522V53.1162L52.1841 43.5841M39.1345 53.1162L73.5031 52.8303M73.5031 61.6952V52.8303L62.6524 43.5841M39.1345 61.5522V71.7039H73.5031V61.6952M39.1345 61.5522C40.7279 60.2812 44.8228 58.1397 48.4556 59.7411L50.9413 61.0756C52.8692 60.2812 57.4804 58.8546 60.5014 59.5028C61.3618 59.7887 63.1113 60.599 63.226 61.5522C64.7556 59.9158 68.3024 57.5296 70.2527 61.0756C70.5554 61.4886 71.6294 62.1908 73.5031 61.6952" stroke="white" stroke-linecap="round"/>
<path d="M39.1345 65.0825C41.659 65.6543 47.5325 66.5006 50.8304 65.3112C53.4508 65.7814 59.5448 66.3939 62.9577 65.0825C64.891 65.7814 69.1507 66.8056 70.723 65.3112C70.9946 65.0063 71.9309 64.5336 73.5031 65.0825" stroke="white" stroke-linecap="round"/>
<path d="M52.5467 41.5332C53.9088 38.4641 57.3279 38.3539 58.7686 38.7474C62.1124 39.5029 62.4417 42.5563 62.1883 43.9886C62.6063 48.0683 58.2773 48.2036 55.8239 47.8133C52.2617 47.2467 51.8342 43.1387 52.5467 41.5332Z" stroke="white" stroke-linecap="round"/>
<defs>
<filter id="filter0_d_52_265" x="0" y="0" width="112.363" height="112.363" filterUnits="userSpaceOnUse" color-interpolation-filters="sRGB">
<feFlood flood-opacity="0" result="BackgroundImageFix"/>
<feColorMatrix in="SourceAlpha" type="matrix" values="0 0 0 0 0 0 0 0 0 0 0 0 0 0 0 0 0 0 127 0" result="hardAlpha"/>
<feMorphology radius="4" operator="dilate" in="SourceAlpha" result="effect1_dropShadow_52_265"/>
<feOffset/>
<feGaussianBlur stdDeviation="10"/>
<feComposite in2="hardAlpha" operator="out"/>
<feColorMatrix type="matrix" values="0 0 0 0 0.345098 0 0 0 0 1 0 0 0 0 0.937255 0 0 0 1 0"/>
<feBlend mode="normal" in2="BackgroundImageFix" result="effect1_dropShadow_52_265"/>
<feBlend mode="normal" in="SourceGraphic" in2="effect1_dropShadow_52_265" result="shape"/>
</filter>
<filter id="filter1_f_52_265" x="35.4972" y="39.8035" width="41.6097" height="35.4004" filterUnits="userSpaceOnUse" color-interpolation-filters="sRGB">
<feFlood flood-opacity="0" result="BackgroundImageFix"/>
<feBlend mode="normal" in="SourceGraphic" in2="BackgroundImageFix" result="shape"/>
<feGaussianBlur stdDeviation="1.25" result="effect1_foregroundBlur_52_265"/>
</filter>
<filter id="filter2_f_52_265" x="35.4969" y="61.1957" width="41.514" height="8.57678" filterUnits="userSpaceOnUse" color-interpolation-filters="sRGB">
<feFlood flood-opacity="0" result="BackgroundImageFix"/>
<feBlend mode="normal" in="SourceGraphic" in2="BackgroundImageFix" result="shape"/>
<feGaussianBlur stdDeviation="1.25" result="effect1_foregroundBlur_52_265"/>
</filter>
<filter id="filter3_f_52_265" x="48.8268" y="34.8723" width="17.1327" height="16.5554" filterUnits="userSpaceOnUse" color-interpolation-filters="sRGB">
<feFlood flood-opacity="0" result="BackgroundImageFix"/>
<feBlend mode="normal" in="SourceGraphic" in2="BackgroundImageFix" result="shape"/>
<feGaussianBlur stdDeviation="1.25" result="effect1_foregroundBlur_52_265"/>
</filter>
<filter id="filter4_f_52_265" x="35.4972" y="39.8035" width="41.6097" height="35.4004" filterUnits="userSpaceOnUse" color-interpolation-filters="sRGB">
<feFlood flood-opacity="0" result="BackgroundImageFix"/>
<feBlend mode="normal" in="SourceGraphic" in2="BackgroundImageFix" result="shape"/>
<feGaussianBlur stdDeviation="1.25" result="effect1_foregroundBlur_52_265"/>
</filter>
<filter id="filter5_f_52_265" x="35.4969" y="61.1957" width="41.514" height="8.57678" filterUnits="userSpaceOnUse" color-interpolation-filters="sRGB">
<feFlood flood-opacity="0" result="BackgroundImageFix"/>
<feBlend mode="normal" in="SourceGraphic" in2="BackgroundImageFix" result="shape"/>
<feGaussianBlur stdDeviation="1.25" result="effect1_foregroundBlur_52_265"/>
</filter>
<filter id="filter6_f_52_265" x="48.8268" y="34.8723" width="17.1327" height="16.5554" filterUnits="userSpaceOnUse" color-interpolation-filters="sRGB">
<feFlood flood-opacity="0" result="BackgroundImageFix"/>
<feBlend mode="normal" in="SourceGraphic" in2="BackgroundImageFix" result="shape"/>
<feGaussianBlur stdDeviation="1.25" result="effect1_foregroundBlur_52_265"/>
</filter>
</defs>
</svg>
