<svg width="113" height="113" viewBox="0 0 113 113" fill="none" xmlns="http://www.w3.org/2000/svg">
<g filter="url(#filter0_d_52_276)">
<circle cx="56.1815" cy="56.1815" r="30.6815" stroke="white" stroke-width="3" shape-rendering="crispEdges"/>
</g>
<g filter="url(#filter1_f_52_276)">
<path d="M68.9166 45.3303C69.156 42.0793 59.3083 40.8718 54.3444 40.8718C44.092 40.8718 40.2879 43.4726 40.288 45.4231C40.2881 50.0674 39.9633 55.1296 41.1412 60.3775C41.8352 63.4695 43.514 65.3777 46.2314 66.4778M40.288 45.4231C40.479 47.0486 44.8344 49.9373 55.4115 49.603C59.0917 49.7268 67.8497 48.8599 68.9166 45.3303M68.9166 45.3303C69.0224 46.9093 69.1443 48.327 69.156 49.603M69.156 49.603C71.564 48.9682 76.5193 49.0456 77.076 54.4329C77.3833 57.3278 76.0175 62.6996 68.0963 61.0277M62.7412 66.7724C63.9268 66.2874 65.1026 65.5084 66.3134 64.2322C67.0045 63.5037 67.6177 62.5507 68.0963 61.0277C68.7965 58.7999 69.2087 55.3522 69.156 49.603M62.7412 66.7724C60.4428 67.7128 58.1163 67.7618 55.4115 67.7618C51.5835 67.7618 48.5344 67.41 46.2314 66.4778M62.7412 66.7724C66.4896 66.9097 67.2875 68.1334 67.2875 69.1087C67.2875 70.9663 65.0144 71.3843 64.0402 71.4772H48.1744C42.9786 71.663 41.7741 69.9446 41.8189 69.1087C41.8909 67.7618 42.5573 67.3454 46.2314 66.4778" stroke="#F645F9" stroke-width="2"/>
</g>
<g filter="url(#filter2_f_52_276)">
<path d="M68.9166 45.3303C69.156 42.0793 59.3083 40.8718 54.3444 40.8718C44.092 40.8718 40.2879 43.4726 40.288 45.4231C40.2881 50.0674 39.9633 55.1296 41.1412 60.3775C41.8352 63.4695 43.514 65.3777 46.2314 66.4778M40.288 45.4231C40.479 47.0486 44.8344 49.9373 55.4115 49.603C59.0917 49.7268 67.8497 48.8599 68.9166 45.3303M68.9166 45.3303C69.0224 46.9093 69.1443 48.327 69.156 49.603M69.156 49.603C71.564 48.9682 76.5193 49.0456 77.076 54.4329C77.3833 57.3278 76.0175 62.6996 68.0963 61.0277M62.7412 66.7724C63.9268 66.2874 65.1026 65.5084 66.3134 64.2322C67.0045 63.5037 67.6177 62.5507 68.0963 61.0277C68.7965 58.7999 69.2087 55.3522 69.156 49.603M62.7412 66.7724C60.4428 67.7128 58.1163 67.7618 55.4115 67.7618C51.5835 67.7618 48.5344 67.41 46.2314 66.4778M62.7412 66.7724C66.4896 66.9097 67.2875 68.1334 67.2875 69.1087C67.2875 70.9663 65.0144 71.3843 64.0402 71.4772H48.1744C42.9786 71.663 41.7741 69.9446 41.8189 69.1087C41.8909 67.7618 42.5573 67.3454 46.2314 66.4778" stroke="#F645F9" stroke-width="2"/>
</g>
<path d="M68.9166 45.3303C69.156 42.0793 59.3083 40.8718 54.3444 40.8718C44.092 40.8718 40.2879 43.4726 40.288 45.4231C40.2881 50.0674 39.9633 55.1296 41.1412 60.3775C41.8352 63.4695 43.514 65.3777 46.2314 66.4778M40.288 45.4231C40.479 47.0486 44.8344 49.9373 55.4115 49.603C59.0917 49.7268 67.8497 48.8599 68.9166 45.3303M68.9166 45.3303C69.0224 46.9093 69.1443 48.327 69.156 49.603M69.156 49.603C71.564 48.9682 76.5193 49.0456 77.076 54.4329C77.3833 57.3278 76.0175 62.6996 68.0963 61.0277M62.7412 66.7724C63.9268 66.2874 65.1026 65.5084 66.3134 64.2322C67.0045 63.5037 67.6177 62.5507 68.0963 61.0277C68.7965 58.7999 69.2087 55.3522 69.156 49.603M62.7412 66.7724C60.4428 67.7128 58.1163 67.7618 55.4115 67.7618C51.5835 67.7618 48.5344 67.41 46.2314 66.4778M62.7412 66.7724C66.4896 66.9097 67.2875 68.1334 67.2875 69.1087C67.2875 70.9663 65.0144 71.3843 64.0402 71.4772H48.1744C42.9786 71.663 41.7741 69.9446 41.8189 69.1087C41.8909 67.7618 42.5573 67.3454 46.2314 66.4778" stroke="white"/>
<defs>
<filter id="filter0_d_52_276" x="0" y="0" width="112.363" height="112.363" filterUnits="userSpaceOnUse" color-interpolation-filters="sRGB">
<feFlood flood-opacity="0" result="BackgroundImageFix"/>
<feColorMatrix in="SourceAlpha" type="matrix" values="0 0 0 0 0 0 0 0 0 0 0 0 0 0 0 0 0 0 127 0" result="hardAlpha"/>
<feMorphology radius="4" operator="dilate" in="SourceAlpha" result="effect1_dropShadow_52_276"/>
<feOffset/>
<feGaussianBlur stdDeviation="10"/>
<feComposite in2="hardAlpha" operator="out"/>
<feColorMatrix type="matrix" values="0 0 0 0 0.345098 0 0 0 0 1 0 0 0 0 0.937255 0 0 0 1 0"/>
<feBlend mode="normal" in2="BackgroundImageFix" result="effect1_dropShadow_52_276"/>
<feBlend mode="normal" in="SourceGraphic" in2="effect1_dropShadow_52_276" result="shape"/>
</filter>
<filter id="filter1_f_52_276" x="36.7463" y="37.3718" width="43.8685" height="37.6193" filterUnits="userSpaceOnUse" color-interpolation-filters="sRGB">
<feFlood flood-opacity="0" result="BackgroundImageFix"/>
<feBlend mode="normal" in="SourceGraphic" in2="BackgroundImageFix" result="shape"/>
<feGaussianBlur stdDeviation="1.25" result="effect1_foregroundBlur_52_276"/>
</filter>
<filter id="filter2_f_52_276" x="36.7463" y="37.3718" width="43.8685" height="37.6193" filterUnits="userSpaceOnUse" color-interpolation-filters="sRGB">
<feFlood flood-opacity="0" result="BackgroundImageFix"/>
<feBlend mode="normal" in="SourceGraphic" in2="BackgroundImageFix" result="shape"/>
<feGaussianBlur stdDeviation="1.25" result="effect1_foregroundBlur_52_276"/>
</filter>
</defs>
</svg>
