<svg width="114" height="114" viewBox="0 0 114 114" fill="none" xmlns="http://www.w3.org/2000/svg">
<g filter="url(#filter0_d_52_219)">
<circle cx="56.6815" cy="56.6815" r="30.6815" stroke="white" stroke-width="3" shape-rendering="crispEdges"/>
</g>
<g filter="url(#filter1_f_52_219)">
<circle cx="56.6815" cy="56.6815" r="24.458" stroke="#F61546" stroke-width="2"/>
</g>
<g filter="url(#filter2_f_52_219)">
<path d="M64.5919 39.9535C65.5359 36.6373 62.9956 35.1416 61.6075 34.8083C56.9646 33.6378 54.7472 37.328 54.2189 39.3194C53.5361 43.104 57.8197 51.2029 60.0468 54.7793C63.0299 59.2092 70.6542 69.4348 74.9947 67.1668C76.6041 66.3258 79.3352 62.5339 76.9211 58.4858C76.381 57.7782 75.3965 56.8948 73.9706 56.1091M73.9706 56.1091C78.3598 57.5283 79.636 54.2696 79.7254 52.4629C79.2182 47.6445 74.572 46.4561 72.3124 46.4642C68.6254 45.9569 62.5991 51.7962 60.0468 54.7793M60.0468 54.7793C66.4558 53.3464 71.1047 54.5302 73.9706 56.1091M60.0468 54.7793C60.2095 50.814 61.3625 43.2673 64.5919 39.9535M72.3124 46.4642C73.5024 46.3915 74.3038 44.857 74.5558 44.0989C75.2971 41.7189 73.2228 39.9209 72.0929 39.3194C70.1226 37.9149 67.728 38.214 66.777 38.5391C65.9606 38.8016 65.2351 39.2936 64.5919 39.9535" stroke="#F61546" stroke-width="2"/>
</g>
<g filter="url(#filter3_f_52_219)">
<path d="M48.269 59.5589L51.9999 62.241C55.2187 64.46 57.5026 63.8258 58.3642 62.9723C60.0224 61.241 61.9488 63.3171 63.2656 64.5573C64.9432 66.1374 65.9073 68.6296 66.2405 69.6293C67.1574 72.8091 65.2752 74.8936 64.119 75.4085C61.2172 76.7009 56.7548 76.5546 54.6821 76.5546C49.732 76.5546 46.1718 74.7989 45.0014 74.0186C41.7826 72.019 39.7433 68.2168 39.149 66.5081C37.7835 62.5821 40.1001 59.9441 41.6606 59.2414C44.0992 57.9493 46.6108 58.4369 48.269 59.5589Z" stroke="#F61546" stroke-width="2"/>
</g>
<g filter="url(#filter4_f_52_219)">
<circle cx="46.8786" cy="66.5816" r="3.73088" stroke="#F61546" stroke-width="2"/>
</g>
<g filter="url(#filter5_f_52_219)">
<path d="M51.7558 54.7304L50.3659 51.1215L52.4386 48.1953L55.6818 46.9517L57.9252 51.4872L55.95 55.0718L51.7558 54.7304Z" stroke="#F61546" stroke-width="2"/>
</g>
<g filter="url(#filter6_f_52_219)">
<path d="M48.171 55.1452L50.2681 50.7072H44.2694L42.1967 53.8528L48.171 55.1452Z" stroke="#F61546" stroke-width="2"/>
</g>
<g filter="url(#filter7_f_52_219)">
<path d="M40.5391 50.951L49.976 50.317L43.4653 46.0497L38.3689 47.7078L40.5391 50.951Z" stroke="#F61546" stroke-width="2"/>
</g>
<g filter="url(#filter8_f_52_219)">
<path d="M41.7825 44.9282L50.6586 50.5124L52.1948 48.269L45.3427 41.6851L41.7825 44.9282Z" stroke="#F61546" stroke-width="2"/>
</g>
<g filter="url(#filter9_f_52_219)">
<path d="M51.2196 39.2465L47.9033 39.1733L48.1471 43.8065L52.1706 47.8056L55.6089 46.6839L51.2196 39.2465Z" stroke="#F61546" stroke-width="2"/>
</g>
<g filter="url(#filter10_f_52_219)">
<circle cx="56.6815" cy="56.6815" r="24.458" stroke="#F61546" stroke-width="2"/>
</g>
<g filter="url(#filter11_f_52_219)">
<path d="M64.5919 39.9535C65.5359 36.6373 62.9956 35.1416 61.6075 34.8083C56.9646 33.6378 54.7472 37.328 54.2189 39.3194C53.5361 43.104 57.8197 51.2029 60.0468 54.7793C63.0299 59.2092 70.6542 69.4348 74.9947 67.1668C76.6041 66.3258 79.3352 62.5339 76.9211 58.4858C76.381 57.7782 75.3965 56.8948 73.9706 56.1091M73.9706 56.1091C78.3598 57.5283 79.636 54.2696 79.7254 52.4629C79.2182 47.6445 74.572 46.4561 72.3124 46.4642C68.6254 45.9569 62.5991 51.7962 60.0468 54.7793M60.0468 54.7793C66.4558 53.3464 71.1047 54.5302 73.9706 56.1091M60.0468 54.7793C60.2095 50.814 61.3625 43.2673 64.5919 39.9535M72.3124 46.4642C73.5024 46.3915 74.3038 44.857 74.5558 44.0989C75.2971 41.7189 73.2228 39.9209 72.0929 39.3194C70.1226 37.9149 67.728 38.214 66.777 38.5391C65.9606 38.8016 65.2351 39.2936 64.5919 39.9535" stroke="#F61546" stroke-width="2"/>
</g>
<g filter="url(#filter12_f_52_219)">
<path d="M48.269 59.5589L51.9999 62.241C55.2187 64.46 57.5026 63.8258 58.3642 62.9723C60.0224 61.241 61.9488 63.3171 63.2656 64.5573C64.9432 66.1374 65.9073 68.6296 66.2405 69.6293C67.1574 72.8091 65.2752 74.8936 64.119 75.4085C61.2172 76.7009 56.7548 76.5546 54.6821 76.5546C49.732 76.5546 46.1718 74.7989 45.0014 74.0186C41.7826 72.019 39.7433 68.2168 39.149 66.5081C37.7835 62.5821 40.1001 59.9441 41.6606 59.2414C44.0992 57.9493 46.6108 58.4369 48.269 59.5589Z" stroke="#F61546" stroke-width="2"/>
</g>
<g filter="url(#filter13_f_52_219)">
<circle cx="46.8786" cy="66.5816" r="3.73088" stroke="#F61546" stroke-width="2"/>
</g>
<g filter="url(#filter14_f_52_219)">
<path d="M51.7558 54.7304L50.3659 51.1215L52.4386 48.1953L55.6818 46.9517L57.9252 51.4872L55.95 55.0718L51.7558 54.7304Z" stroke="#F61546" stroke-width="2"/>
</g>
<g filter="url(#filter15_f_52_219)">
<path d="M48.171 55.1452L50.2681 50.7072H44.2694L42.1967 53.8528L48.171 55.1452Z" stroke="#F61546" stroke-width="2"/>
</g>
<g filter="url(#filter16_f_52_219)">
<path d="M40.5391 50.951L49.976 50.317L43.4653 46.0497L38.3689 47.7078L40.5391 50.951Z" stroke="#F61546" stroke-width="2"/>
</g>
<g filter="url(#filter17_f_52_219)">
<path d="M41.7825 44.9282L50.6586 50.5124L52.1948 48.269L45.3427 41.6851L41.7825 44.9282Z" stroke="#F61546" stroke-width="2"/>
</g>
<g filter="url(#filter18_f_52_219)">
<path d="M51.2196 39.2465L47.9033 39.1733L48.1471 43.8065L52.1706 47.8056L55.6089 46.6839L51.2196 39.2465Z" stroke="#F61546" stroke-width="2"/>
</g>
<circle cx="56.6816" cy="56.6815" r="24.458" stroke="white"/>
<path d="M64.5921 39.9537C65.5361 36.6374 62.9958 35.1417 61.6076 34.8084C56.9647 33.6379 54.7474 37.3281 54.219 39.3196C53.5362 43.1041 57.8198 51.203 60.047 54.7794C63.0301 59.2093 70.6544 69.4349 74.9949 67.1669C76.6043 66.326 79.3354 62.534 76.9213 58.4859C76.3811 57.7783 75.3967 56.8949 73.9707 56.1093M73.9707 56.1093C78.36 57.5284 79.6361 54.2697 79.7255 52.463C79.2183 47.6446 74.5722 46.4562 72.3125 46.4643C68.6256 45.9571 62.5993 51.7964 60.047 54.7794M60.047 54.7794C66.4559 53.3465 71.1049 54.5304 73.9707 56.1093M60.047 54.7794C60.2097 50.8141 61.3627 43.2674 64.5921 39.9537M72.3125 46.4643C73.5025 46.3916 74.304 44.8572 74.5559 44.099C75.2972 41.719 73.2229 39.9211 72.0931 39.3196C70.1228 37.915 67.7282 38.2141 66.7772 38.5393C65.9608 38.8017 65.2352 39.2937 64.5921 39.9537" stroke="white"/>
<path d="M48.2692 59.559L52 62.2412C55.2188 64.4602 57.5028 63.8259 58.3644 62.9724C60.0226 61.2411 61.949 63.3172 63.2658 64.5574C64.9434 66.1375 65.9074 68.6297 66.2407 69.6295C67.1576 72.8092 65.2753 74.8937 64.1192 75.4087C61.2174 76.701 56.755 76.5547 54.6823 76.5547C49.7322 76.5547 46.172 74.799 45.0015 74.0187C41.7827 72.0192 39.7435 68.2169 39.1492 66.5082C37.7837 62.5822 40.1003 59.9443 41.6608 59.2416C44.0994 57.9494 46.611 58.437 48.2692 59.559Z" stroke="white"/>
<circle cx="46.8787" cy="66.5816" r="3.73088" stroke="white"/>
<path d="M51.7559 54.7303L50.366 51.1213L52.4387 48.1952L55.6819 46.9515L57.9253 51.4871L55.9501 55.0717L51.7559 54.7303Z" stroke="white"/>
<path d="M48.1712 55.1453L50.2683 50.7073H44.2696L42.1969 53.8529L48.1712 55.1453Z" stroke="white"/>
<path d="M40.5393 50.9509L49.9762 50.3169L43.4655 46.0496L38.369 47.7077L40.5393 50.9509Z" stroke="white"/>
<path d="M41.7827 44.928L50.6588 50.5121L52.195 48.2687L45.3429 41.6848L41.7827 44.928Z" stroke="white"/>
<path d="M51.2197 39.2466L47.9034 39.1735L48.1473 43.8066L52.1708 47.8057L55.609 46.684L51.2197 39.2466Z" stroke="white"/>
<defs>
<filter id="filter0_d_52_219" x="0" y="0" width="113.363" height="113.363" filterUnits="userSpaceOnUse" color-interpolation-filters="sRGB">
<feFlood flood-opacity="0" result="BackgroundImageFix"/>
<feColorMatrix in="SourceAlpha" type="matrix" values="0 0 0 0 0 0 0 0 0 0 0 0 0 0 0 0 0 0 127 0" result="hardAlpha"/>
<feMorphology radius="4" operator="dilate" in="SourceAlpha" result="effect1_dropShadow_52_219"/>
<feOffset/>
<feGaussianBlur stdDeviation="10.25"/>
<feComposite in2="hardAlpha" operator="out"/>
<feColorMatrix type="matrix" values="0 0 0 0 0.345098 0 0 0 0 1 0 0 0 0 0.937255 0 0 0 1 0"/>
<feBlend mode="normal" in2="BackgroundImageFix" result="effect1_dropShadow_52_219"/>
<feBlend mode="normal" in="SourceGraphic" in2="effect1_dropShadow_52_219" result="shape"/>
</filter>
<filter id="filter1_f_52_219" x="28.7236" y="28.7235" width="55.9159" height="55.9159" filterUnits="userSpaceOnUse" color-interpolation-filters="sRGB">
<feFlood flood-opacity="0" result="BackgroundImageFix"/>
<feBlend mode="normal" in="SourceGraphic" in2="BackgroundImageFix" result="shape"/>
<feGaussianBlur stdDeviation="1.25" result="effect1_foregroundBlur_52_219"/>
</filter>
<filter id="filter2_f_52_219" x="50.6461" y="31.0837" width="32.5819" height="39.9078" filterUnits="userSpaceOnUse" color-interpolation-filters="sRGB">
<feFlood flood-opacity="0" result="BackgroundImageFix"/>
<feBlend mode="normal" in="SourceGraphic" in2="BackgroundImageFix" result="shape"/>
<feGaussianBlur stdDeviation="1.25" result="effect1_foregroundBlur_52_219"/>
</filter>
<filter id="filter3_f_52_219" x="35.2323" y="54.97" width="34.7534" height="25.0897" filterUnits="userSpaceOnUse" color-interpolation-filters="sRGB">
<feFlood flood-opacity="0" result="BackgroundImageFix"/>
<feBlend mode="normal" in="SourceGraphic" in2="BackgroundImageFix" result="shape"/>
<feGaussianBlur stdDeviation="1.25" result="effect1_foregroundBlur_52_219"/>
</filter>
<filter id="filter4_f_52_219" x="39.6477" y="59.3507" width="14.4618" height="14.4618" filterUnits="userSpaceOnUse" color-interpolation-filters="sRGB">
<feFlood flood-opacity="0" result="BackgroundImageFix"/>
<feBlend mode="normal" in="SourceGraphic" in2="BackgroundImageFix" result="shape"/>
<feGaussianBlur stdDeviation="1.25" result="effect1_foregroundBlur_52_219"/>
</filter>
<filter id="filter5_f_52_219" x="46.7401" y="43.1918" width="14.8131" height="15.4292" filterUnits="userSpaceOnUse" color-interpolation-filters="sRGB">
<feFlood flood-opacity="0" result="BackgroundImageFix"/>
<feBlend mode="normal" in="SourceGraphic" in2="BackgroundImageFix" result="shape"/>
<feGaussianBlur stdDeviation="1.25" result="effect1_foregroundBlur_52_219"/>
</filter>
<filter id="filter6_f_52_219" x="38.0585" y="47.2072" width="16.2881" height="11.5834" filterUnits="userSpaceOnUse" color-interpolation-filters="sRGB">
<feFlood flood-opacity="0" result="BackgroundImageFix"/>
<feBlend mode="normal" in="SourceGraphic" in2="BackgroundImageFix" result="shape"/>
<feGaussianBlur stdDeviation="1.25" result="effect1_foregroundBlur_52_219"/>
</filter>
<filter id="filter7_f_52_219" x="34.3029" y="42.4503" width="21.2148" height="12.0372" filterUnits="userSpaceOnUse" color-interpolation-filters="sRGB">
<feFlood flood-opacity="0" result="BackgroundImageFix"/>
<feBlend mode="normal" in="SourceGraphic" in2="BackgroundImageFix" result="shape"/>
<feGaussianBlur stdDeviation="1.25" result="effect1_foregroundBlur_52_219"/>
</filter>
<filter id="filter8_f_52_219" x="37.637" y="37.8158" width="18.3616" height="16.5552" filterUnits="userSpaceOnUse" color-interpolation-filters="sRGB">
<feFlood flood-opacity="0" result="BackgroundImageFix"/>
<feBlend mode="normal" in="SourceGraphic" in2="BackgroundImageFix" result="shape"/>
<feGaussianBlur stdDeviation="1.25" result="effect1_foregroundBlur_52_219"/>
</filter>
<filter id="filter9_f_52_219" x="44.348" y="35.6498" width="15.2551" height="15.7961" filterUnits="userSpaceOnUse" color-interpolation-filters="sRGB">
<feFlood flood-opacity="0" result="BackgroundImageFix"/>
<feBlend mode="normal" in="SourceGraphic" in2="BackgroundImageFix" result="shape"/>
<feGaussianBlur stdDeviation="1.25" result="effect1_foregroundBlur_52_219"/>
</filter>
<filter id="filter10_f_52_219" x="28.7236" y="28.7235" width="55.9159" height="55.9159" filterUnits="userSpaceOnUse" color-interpolation-filters="sRGB">
<feFlood flood-opacity="0" result="BackgroundImageFix"/>
<feBlend mode="normal" in="SourceGraphic" in2="BackgroundImageFix" result="shape"/>
<feGaussianBlur stdDeviation="1.25" result="effect1_foregroundBlur_52_219"/>
</filter>
<filter id="filter11_f_52_219" x="50.6461" y="31.0837" width="32.5819" height="39.9078" filterUnits="userSpaceOnUse" color-interpolation-filters="sRGB">
<feFlood flood-opacity="0" result="BackgroundImageFix"/>
<feBlend mode="normal" in="SourceGraphic" in2="BackgroundImageFix" result="shape"/>
<feGaussianBlur stdDeviation="1.25" result="effect1_foregroundBlur_52_219"/>
</filter>
<filter id="filter12_f_52_219" x="35.2323" y="54.97" width="34.7534" height="25.0897" filterUnits="userSpaceOnUse" color-interpolation-filters="sRGB">
<feFlood flood-opacity="0" result="BackgroundImageFix"/>
<feBlend mode="normal" in="SourceGraphic" in2="BackgroundImageFix" result="shape"/>
<feGaussianBlur stdDeviation="1.25" result="effect1_foregroundBlur_52_219"/>
</filter>
<filter id="filter13_f_52_219" x="39.6477" y="59.3507" width="14.4618" height="14.4618" filterUnits="userSpaceOnUse" color-interpolation-filters="sRGB">
<feFlood flood-opacity="0" result="BackgroundImageFix"/>
<feBlend mode="normal" in="SourceGraphic" in2="BackgroundImageFix" result="shape"/>
<feGaussianBlur stdDeviation="1.25" result="effect1_foregroundBlur_52_219"/>
</filter>
<filter id="filter14_f_52_219" x="46.7401" y="43.1918" width="14.8131" height="15.4292" filterUnits="userSpaceOnUse" color-interpolation-filters="sRGB">
<feFlood flood-opacity="0" result="BackgroundImageFix"/>
<feBlend mode="normal" in="SourceGraphic" in2="BackgroundImageFix" result="shape"/>
<feGaussianBlur stdDeviation="1.25" result="effect1_foregroundBlur_52_219"/>
</filter>
<filter id="filter15_f_52_219" x="38.0585" y="47.2072" width="16.2881" height="11.5834" filterUnits="userSpaceOnUse" color-interpolation-filters="sRGB">
<feFlood flood-opacity="0" result="BackgroundImageFix"/>
<feBlend mode="normal" in="SourceGraphic" in2="BackgroundImageFix" result="shape"/>
<feGaussianBlur stdDeviation="1.25" result="effect1_foregroundBlur_52_219"/>
</filter>
<filter id="filter16_f_52_219" x="34.3029" y="42.4503" width="21.2148" height="12.0372" filterUnits="userSpaceOnUse" color-interpolation-filters="sRGB">
<feFlood flood-opacity="0" result="BackgroundImageFix"/>
<feBlend mode="normal" in="SourceGraphic" in2="BackgroundImageFix" result="shape"/>
<feGaussianBlur stdDeviation="1.25" result="effect1_foregroundBlur_52_219"/>
</filter>
<filter id="filter17_f_52_219" x="37.637" y="37.8158" width="18.3616" height="16.5552" filterUnits="userSpaceOnUse" color-interpolation-filters="sRGB">
<feFlood flood-opacity="0" result="BackgroundImageFix"/>
<feBlend mode="normal" in="SourceGraphic" in2="BackgroundImageFix" result="shape"/>
<feGaussianBlur stdDeviation="1.25" result="effect1_foregroundBlur_52_219"/>
</filter>
<filter id="filter18_f_52_219" x="44.348" y="35.6498" width="15.2551" height="15.7961" filterUnits="userSpaceOnUse" color-interpolation-filters="sRGB">
<feFlood flood-opacity="0" result="BackgroundImageFix"/>
<feBlend mode="normal" in="SourceGraphic" in2="BackgroundImageFix" result="shape"/>
<feGaussianBlur stdDeviation="1.25" result="effect1_foregroundBlur_52_219"/>
</filter>
</defs>
</svg>
