<svg width="25" height="24" viewBox="0 0 25 24" fill="none" xmlns="http://www.w3.org/2000/svg">
<g filter="url(#filter0_f_52_560)">
<path d="M10.9414 7.47039C11.5651 7.47039 12.064 6.72196 12.1108 5.98914C12.1732 6.644 12.6155 7.47039 13.2023 7.47039C12.9322 7.4444 12.1108 7.829 12.1108 9.09196C12.1108 8.35913 11.799 7.56394 10.9414 7.47039Z" stroke="#F645F9" stroke-width="0.625"/>
</g>
<g filter="url(#filter1_f_52_560)">
<path d="M8.25952 10.3642C8.73266 10.3642 9.11117 9.80006 9.14666 9.24768C9.19397 9.7413 9.52954 10.3642 9.97465 10.3642C9.76978 10.3446 9.14666 10.6345 9.14666 11.5865C9.14666 11.0341 8.91009 10.4347 8.25952 10.3642Z" stroke="#F645F9" stroke-width="0.625"/>
</g>
<g filter="url(#filter2_f_52_560)">
<path d="M14.2158 10.3875C14.6201 10.3875 14.9436 9.90606 14.9739 9.43469C15.0144 9.85591 15.3011 10.3875 15.6815 10.3875C15.5064 10.3707 14.9739 10.6181 14.9739 11.4305C14.9739 10.9591 14.7718 10.4476 14.2158 10.3875Z" stroke="#F645F9" stroke-width="0.625"/>
</g>
<path d="M12.1108 5.98914C12.1719 6.63032 12.5972 7.43591 13.1657 7.46931C13.1788 7.46893 13.191 7.4693 13.2023 7.47039C13.19 7.47039 13.1778 7.47002 13.1657 7.46931C12.8651 7.47804 12.1108 7.88172 12.1108 9.09196C12.1108 8.35913 11.799 7.56394 10.9414 7.47039C11.5651 7.47039 12.064 6.72196 12.1108 5.98914Z" fill="white" fill-opacity="0.46"/>
<path d="M9.14666 9.24768C9.19298 9.73098 9.51564 10.3382 9.94689 10.3634C9.95682 10.3631 9.9661 10.3634 9.97465 10.3642C9.96535 10.3642 9.95609 10.3639 9.94689 10.3634C9.71884 10.37 9.14666 10.6743 9.14666 11.5865C9.14666 11.0341 8.91009 10.4347 8.25952 10.3642C8.73266 10.3642 9.11117 9.80006 9.14666 9.24768Z" fill="white" fill-opacity="0.46"/>
<path d="M14.9739 9.43469C15.0135 9.84711 15.2892 10.3653 15.6578 10.3868C15.6662 10.3865 15.6742 10.3868 15.6815 10.3875C15.6735 10.3875 15.6656 10.3872 15.6578 10.3868C15.4629 10.3924 14.9739 10.652 14.9739 11.4305C14.9739 10.9591 14.7718 10.4476 14.2158 10.3875C14.6201 10.3875 14.9436 9.90606 14.9739 9.43469Z" fill="white" fill-opacity="0.46"/>
<g filter="url(#filter3_f_52_560)">
<path d="M2.52151 12.6159C2.35519 10.459 3.0797 5.65563 7.30828 3.69726C9.40802 2.48627 14.6833 1.14015 18.9868 5.44357C20.1718 6.62857 21.8713 9.29481 21.5595 12.6159M18.9868 18.3382C18.1864 19.1958 15.9931 20.9702 13.6231 21.2072C11.6637 21.3995 7.13988 21.0388 4.71999 18.0576" stroke="#F645F9" stroke-width="1.25" stroke-linecap="round"/>
</g>
<g filter="url(#filter4_f_52_560)">
<path d="M2.52151 12.6159C2.35519 10.459 3.0797 5.65563 7.30828 3.69726C9.40802 2.48627 14.6833 1.14015 18.9868 5.44357C20.1718 6.62857 21.8713 9.29481 21.5595 12.6159M18.9868 18.3382C18.1864 19.1958 15.9931 20.9702 13.6231 21.2072C11.6637 21.3995 7.13988 21.0388 4.71999 18.0576" stroke="#F645F9" stroke-width="1.25" stroke-linecap="round"/>
</g>
<path d="M2.52151 12.6159C2.35519 10.459 3.0797 5.65563 7.30828 3.69726C9.40802 2.48627 14.6833 1.14015 18.9868 5.44357C20.1718 6.62857 21.8713 9.29481 21.5595 12.6159M18.9868 18.3382C18.1864 19.1958 15.9931 20.9702 13.6231 21.2072C11.6637 21.3995 7.13988 21.0388 4.71999 18.0576" stroke="white" stroke-width="0.625" stroke-linecap="round"/>
<g filter="url(#filter5_f_52_560)">
<path d="M18.6739 16.1087C18.6181 16.1087 18.5751 16.0847 18.5452 16.0368C18.5153 15.9889 18.5123 15.9381 18.5362 15.8842L19.3775 13.8754C19.4074 13.8056 19.4563 13.7706 19.5241 13.7706C19.596 13.7706 19.6449 13.8056 19.6708 13.8754L20.5151 15.8902C20.537 15.946 20.533 15.9969 20.5031 16.0428C20.4751 16.0867 20.4322 16.1087 20.3744 16.1087C20.3444 16.1087 20.3155 16.1007 20.2875 16.0847C20.2616 16.0668 20.2426 16.0428 20.2307 16.0129L19.4882 14.1688H19.572L18.8176 16.0129C18.8037 16.0448 18.7827 16.0688 18.7548 16.0847C18.7288 16.1007 18.7019 16.1087 18.6739 16.1087ZM18.8326 15.5938L18.9524 15.3363H20.1259L20.2456 15.5938H18.8326Z" fill="#F645F9"/>
<path d="M19.5242 13.6144C19.5861 13.6144 19.65 13.6302 19.7058 13.67C19.7587 13.7079 19.7918 13.7601 19.8132 13.8146H19.8152L20.6589 15.8302L20.6609 15.8331C20.699 15.9303 20.6932 16.0337 20.6335 16.1261L20.6345 16.1271C20.5743 16.2213 20.4786 16.2647 20.3748 16.2648C20.3156 16.2648 20.2594 16.2492 20.2097 16.2208L20.198 16.214L20.199 16.213C20.1732 16.1952 20.1504 16.1743 20.1316 16.1505L20.0857 16.0714L19.9568 15.7501H19.0945L18.9626 16.0724L18.9607 16.0753C18.9345 16.1352 18.8922 16.1868 18.8328 16.2208L18.8318 16.2198C18.7846 16.2479 18.7312 16.2648 18.6736 16.2648C18.5633 16.2647 18.4709 16.2121 18.4128 16.1193C18.3541 16.0251 18.3494 15.9192 18.3933 15.8204L19.2332 13.8146L19.2341 13.8136C19.2574 13.7595 19.2926 13.7079 19.3455 13.67C19.3998 13.6313 19.4621 13.6144 19.5242 13.6144ZM19.3279 15.1798H19.7273L19.5281 14.6866L19.3279 15.1798Z" stroke="#F645F9" stroke-width="0.3125"/>
</g>
<g filter="url(#filter6_f_52_560)">
<path d="M18.2955 16.0693C18.2676 16.0973 18.2297 16.1103 18.1818 16.1083C18.1339 16.1083 18.0959 16.0923 18.068 16.0604L17.0861 14.9168L18.0021 13.8211C18.0301 13.7872 18.066 13.7702 18.1099 13.7702C18.1558 13.7682 18.1927 13.7832 18.2207 13.8151C18.2486 13.847 18.2616 13.881 18.2596 13.9169C18.2596 13.9508 18.2456 13.9837 18.2177 14.0157L17.4603 14.8958L18.2955 15.8658C18.3235 15.8977 18.3384 15.9316 18.3404 15.9676C18.3444 16.0015 18.3295 16.0354 18.2955 16.0693ZM16.7328 16.1083C16.6889 16.1083 16.652 16.0933 16.6221 16.0634C16.5921 16.0334 16.5771 15.9965 16.5771 15.9526V13.9259C16.5771 13.88 16.5921 13.843 16.6221 13.8151C16.652 13.7852 16.6889 13.7702 16.7328 13.7702C16.7787 13.7702 16.8156 13.7852 16.8436 13.8151C16.8735 13.843 16.8885 13.88 16.8885 13.9259V14.7851H17.3795V15.0605H16.8885V15.9526C16.8885 15.9965 16.8735 16.0334 16.8436 16.0634C16.8156 16.0933 16.7787 16.1083 16.7328 16.1083Z" fill="#F645F9"/>
<path d="M18.1104 13.6147C18.1965 13.6128 18.2776 13.6435 18.3379 13.7124C18.3858 13.7671 18.417 13.8364 18.415 13.9165H18.416C18.4159 13.9194 18.4162 13.9224 18.416 13.9253L18.415 13.9243C18.413 14.0012 18.3795 14.0655 18.335 14.1167L18.3359 14.1177L17.666 14.895L18.4131 15.7632L18.4453 15.8052C18.4727 15.8474 18.4895 15.8959 18.4941 15.9497H18.4961C18.5075 16.048 18.4595 16.1269 18.4062 16.1802C18.3426 16.2438 18.2611 16.2652 18.1816 16.2632V16.2642L18.1797 16.2632C18.1782 16.2631 18.1763 16.2642 18.1748 16.2642V16.2632C18.0909 16.2616 18.0102 16.2321 17.9502 16.1636L17.9492 16.1626L17.1367 15.2163H17.0449V15.9526C17.0449 16.0345 17.015 16.1096 16.957 16.1694L16.9551 16.1714L16.9541 16.1743L16.9531 16.1733C16.8924 16.236 16.8141 16.2642 16.7324 16.2642C16.6491 16.2641 16.572 16.2344 16.5117 16.1743C16.4513 16.1139 16.4209 16.0363 16.4209 15.9526V13.9263C16.4209 13.8445 16.4498 13.7663 16.5127 13.7056L16.5117 13.7046L16.5137 13.7036C16.5144 13.7029 16.5149 13.7014 16.5156 13.7007L16.5166 13.7017C16.5763 13.644 16.6508 13.6139 16.7324 13.6138C16.8124 13.6138 16.889 13.6416 16.9492 13.7017L16.9502 13.7007C16.9513 13.7018 16.952 13.7035 16.9531 13.7046C16.9545 13.706 16.9566 13.707 16.958 13.7085L16.957 13.7095C17.0171 13.7697 17.0449 13.8462 17.0449 13.9263V14.6284H17.123L17.8818 13.7212V13.7222C17.9381 13.6539 18.0155 13.6165 18.1035 13.6147V13.6138C18.1048 13.6137 18.1061 13.6148 18.1074 13.6147L18.1104 13.6138V13.6147Z" stroke="#F645F9" stroke-width="0.3125"/>
</g>
<g filter="url(#filter7_f_52_560)">
<path d="M14.1252 16.1087C14.0812 16.1087 14.0443 16.0937 14.0144 16.0638C13.9845 16.0339 13.9695 15.9969 13.9695 15.953V13.9263C13.9695 13.8804 13.9845 13.8435 14.0144 13.8155C14.0443 13.7856 14.0812 13.7706 14.1252 13.7706C14.1711 13.7706 14.208 13.7856 14.2359 13.8155C14.2659 13.8435 14.2808 13.8804 14.2808 13.9263V14.7855H15.6699V13.9263C15.6699 13.8804 15.6849 13.8435 15.7148 13.8155C15.7447 13.7856 15.7817 13.7706 15.8256 13.7706C15.8715 13.7706 15.9084 13.7856 15.9363 13.8155C15.9643 13.8435 15.9782 13.8804 15.9782 13.9263V15.953C15.9782 15.9969 15.9643 16.0339 15.9363 16.0638C15.9084 16.0937 15.8715 16.1087 15.8256 16.1087C15.7817 16.1087 15.7447 16.0937 15.7148 16.0638C15.6849 16.0339 15.6699 15.9969 15.6699 15.953V15.0609H14.2808V15.953C14.2808 15.9969 14.2659 16.0339 14.2359 16.0638C14.208 16.0937 14.1711 16.1087 14.1252 16.1087Z" fill="#F645F9"/>
<path d="M15.8259 13.6144C15.9075 13.6145 15.985 13.6434 16.0457 13.7062L16.0466 13.7052L16.0476 13.7072C16.0484 13.708 16.0498 13.7083 16.0505 13.7091L16.0496 13.7101C16.1087 13.7714 16.1344 13.8476 16.1345 13.9259V15.9532C16.1345 16.0334 16.1074 16.1091 16.0505 16.17C15.9894 16.2355 15.9092 16.2647 15.8259 16.2648C15.7423 16.2648 15.6647 16.2344 15.6042 16.174C15.544 16.1136 15.5135 16.0367 15.5134 15.9532V15.2169H14.4373V15.9532C14.4372 16.0349 14.407 16.1093 14.3494 16.1691L14.3503 16.17C14.3496 16.1708 14.3481 16.1713 14.3474 16.172L14.3464 16.174L14.3455 16.173C14.2847 16.236 14.2066 16.2648 14.1248 16.2648C14.0413 16.2647 13.9644 16.2343 13.9041 16.174C13.8437 16.1136 13.8133 16.0368 13.8132 15.9532V13.9259C13.8133 13.8426 13.8425 13.7624 13.908 13.7013L13.9089 13.7023C13.9687 13.6445 14.0431 13.6145 14.1248 13.6144C14.2048 13.6144 14.2813 13.6421 14.3416 13.7023L14.3425 13.7013C14.3437 13.7024 14.3443 13.7041 14.3455 13.7052C14.3468 13.7066 14.349 13.7077 14.3503 13.7091L14.3494 13.7101C14.4093 13.7702 14.4372 13.8461 14.4373 13.9259V14.629H15.5134V13.9259C15.5135 13.8446 15.5419 13.7667 15.6042 13.7062V13.7052C15.6055 13.7039 15.6069 13.7025 15.6082 13.7013V13.7023C15.6681 13.644 15.7438 13.6144 15.8259 13.6144Z" stroke="#F645F9" stroke-width="0.3125"/>
</g>
<g filter="url(#filter8_f_52_560)">
<path d="M11.5083 16.1087C11.4644 16.1087 11.4265 16.0937 11.3946 16.0638C11.3626 16.0339 11.3467 15.9969 11.3467 15.953V13.9263C11.3467 13.8804 11.3626 13.8435 11.3946 13.8155C11.4265 13.7856 11.4644 13.7706 11.5083 13.7706C11.5542 13.7706 11.5902 13.7856 11.6161 13.8155C11.6441 13.8435 11.658 13.8804 11.658 13.9263V15.6237L13.095 13.8275C13.1269 13.7896 13.1668 13.7706 13.2147 13.7706C13.2606 13.7706 13.2976 13.7856 13.3255 13.8155C13.3554 13.8435 13.3704 13.8804 13.3704 13.9263V15.953C13.3704 15.9969 13.3554 16.0339 13.3255 16.0638C13.2976 16.0937 13.2606 16.1087 13.2147 16.1087C13.1708 16.1087 13.1339 16.0937 13.104 16.0638C13.074 16.0339 13.0591 15.9969 13.0591 15.953V14.2586L11.6281 16.0548C11.6141 16.0708 11.5962 16.0837 11.5742 16.0937C11.5522 16.1037 11.5303 16.1087 11.5083 16.1087Z" fill="#F645F9"/>
<path d="M13.2148 13.6144C13.2948 13.6144 13.3705 13.6423 13.4307 13.7023L13.4316 13.7013C13.4329 13.7025 13.4333 13.705 13.4346 13.7062C13.4358 13.7075 13.4382 13.7078 13.4395 13.7091L13.4385 13.7101C13.4985 13.7702 13.5263 13.846 13.5264 13.9259V15.9532C13.5263 16.035 13.4963 16.1093 13.4385 16.1691L13.4395 16.17C13.4387 16.1709 13.4373 16.1712 13.4365 16.172L13.4355 16.174L13.4346 16.173C13.3739 16.2358 13.2965 16.2647 13.2148 16.2648C13.1312 16.2648 13.0536 16.2344 12.9932 16.174C12.933 16.1136 12.9024 16.0366 12.9023 15.9532V14.7052L11.75 16.1525L11.7461 16.1573C11.7156 16.1922 11.6781 16.2185 11.6387 16.2365C11.5987 16.2546 11.5549 16.2647 11.5088 16.2648C11.4254 16.2648 11.349 16.2349 11.2881 16.1779C11.2246 16.1183 11.1905 16.0401 11.1904 15.9532V13.9259C11.1905 13.8408 11.2228 13.7621 11.2891 13.7023L11.2881 13.7013C11.349 13.6443 11.4255 13.6144 11.5088 13.6144C11.5886 13.6145 11.666 13.6424 11.7256 13.7062L11.7266 13.7052C11.7274 13.706 11.7277 13.7073 11.7285 13.7081C11.7302 13.71 11.7327 13.7111 11.7344 13.713L11.7334 13.714C11.7897 13.7746 11.8144 13.8494 11.8145 13.9259V15.1779L12.9727 13.7296L12.9756 13.7267C13.036 13.655 13.1191 13.6144 13.2148 13.6144Z" stroke="#F645F9" stroke-width="0.3125"/>
</g>
<g filter="url(#filter9_f_52_560)">
<path d="M9.33926 16.1087C9.29536 16.1087 9.25844 16.0937 9.2285 16.0638C9.19856 16.0339 9.18359 15.9969 9.18359 15.953V13.9263C9.18359 13.8804 9.19856 13.8435 9.2285 13.8155C9.25844 13.7856 9.29536 13.7706 9.33926 13.7706H10.0548C10.1905 13.7706 10.3092 13.7976 10.411 13.8515C10.5148 13.9033 10.5956 13.9762 10.6535 14.07C10.7134 14.1638 10.7433 14.2716 10.7433 14.3933C10.7433 14.4911 10.7164 14.5799 10.6625 14.6598C10.6106 14.7376 10.5387 14.7995 10.4469 14.8454C10.5786 14.8773 10.6844 14.9402 10.7643 15.034C10.8441 15.1278 10.884 15.2505 10.884 15.4022C10.884 15.5399 10.8511 15.6616 10.7852 15.7674C10.7213 15.8732 10.6315 15.957 10.5158 16.0189C10.4 16.0788 10.2673 16.1087 10.1176 16.1087H9.33926ZM9.49494 15.8213H10.1176C10.2094 15.8213 10.2903 15.8053 10.3601 15.7734C10.43 15.7415 10.4848 15.6946 10.5248 15.6327C10.5647 15.5708 10.5846 15.494 10.5846 15.4022C10.5846 15.3164 10.5647 15.2455 10.5248 15.1896C10.4848 15.1338 10.43 15.0918 10.3601 15.0639C10.2903 15.034 10.2094 15.019 10.1176 15.019H9.49494V15.8213ZM9.49494 14.7316H10.0548C10.1685 14.7316 10.2613 14.7037 10.3332 14.6478C10.407 14.5919 10.4439 14.5071 10.4439 14.3933C10.4439 14.2796 10.407 14.1957 10.3332 14.1418C10.2613 14.086 10.1685 14.058 10.0548 14.058H9.49494V14.7316Z" fill="#F645F9"/>
<path d="M10.0547 13.6144C10.2113 13.6144 10.3564 13.6452 10.4844 13.713L10.4834 13.714C10.6094 13.7776 10.7109 13.8679 10.7842 13.9855H10.7852C10.8626 14.1067 10.8994 14.2451 10.8994 14.3937C10.8993 14.5214 10.8629 14.6396 10.792 14.7452L10.793 14.7462C10.778 14.7687 10.7605 14.7895 10.7432 14.8097C10.7941 14.8447 10.8416 14.8844 10.8828 14.9327C10.9919 15.0609 11.04 15.2226 11.04 15.4025C11.04 15.566 11.0007 15.7167 10.918 15.8497C10.8388 15.9802 10.728 16.0824 10.5898 16.1564L10.5879 16.1573C10.4469 16.2303 10.2881 16.2648 10.1172 16.2648H9.33887C9.25539 16.2647 9.1785 16.2343 9.11816 16.174C9.05784 16.1136 9.0274 16.0368 9.02734 15.9532V13.9259C9.02744 13.8426 9.05658 13.7624 9.12207 13.7013L9.12305 13.7023C9.18278 13.6445 9.2572 13.6145 9.33887 13.6144H10.0547ZM9.65137 15.6652H10.1172C10.1909 15.6652 10.2491 15.6519 10.2949 15.631C10.3389 15.6109 10.3705 15.5837 10.3936 15.548C10.4135 15.517 10.4287 15.4714 10.4287 15.4025C10.4287 15.341 10.4142 15.3038 10.3975 15.2804C10.3766 15.2512 10.3466 15.227 10.3018 15.2091L10.2988 15.2072C10.252 15.1871 10.1921 15.1749 10.1172 15.1749H9.65137V15.6652ZM9.65137 14.5753H10.0547C10.1425 14.5753 10.1991 14.5542 10.2373 14.5245L10.2393 14.5236C10.265 14.504 10.288 14.4706 10.2881 14.3937C10.2881 14.3162 10.2649 14.285 10.2412 14.2677L10.2373 14.2648C10.1991 14.2351 10.1424 14.214 10.0547 14.214H9.65137V14.5753Z" stroke="#F645F9" stroke-width="0.3125"/>
</g>
<g filter="url(#filter10_f_52_560)">
<path d="M7.5071 16.1392C7.33147 16.1392 7.17081 16.1102 7.02511 16.0523C6.87942 15.9925 6.75369 15.9096 6.64791 15.8039C6.54413 15.6961 6.4633 15.5694 6.40542 15.4237C6.34754 15.276 6.3186 15.1143 6.3186 14.9387C6.3186 14.7631 6.34754 14.6024 6.40542 14.4567C6.4633 14.311 6.54413 14.1853 6.64791 14.0795C6.75369 13.9717 6.87942 13.8889 7.02511 13.831C7.17081 13.7711 7.33147 13.7412 7.5071 13.7412C7.68273 13.7412 7.84239 13.7711 7.98608 13.831C8.13178 13.8889 8.25751 13.9717 8.36329 14.0795C8.46907 14.1853 8.55089 14.311 8.60877 14.4567C8.66665 14.6024 8.69559 14.7631 8.69559 14.9387C8.69559 15.1143 8.66665 15.276 8.60877 15.4237C8.55089 15.5694 8.46907 15.6961 8.36329 15.8039C8.25751 15.9096 8.13178 15.9925 7.98608 16.0523C7.84239 16.1102 7.68273 16.1392 7.5071 16.1392ZM7.5071 15.8577C7.63682 15.8577 7.75557 15.8348 7.86334 15.7889C7.97311 15.741 8.06791 15.6761 8.14774 15.5943C8.22758 15.5105 8.28845 15.4127 8.33036 15.3009C8.37427 15.1892 8.39622 15.0684 8.39622 14.9387C8.39622 14.809 8.37427 14.6882 8.33036 14.5764C8.28845 14.4647 8.22758 14.3679 8.14774 14.2861C8.06791 14.2022 7.97311 14.1374 7.86334 14.0915C7.75557 14.0456 7.63682 14.0226 7.5071 14.0226C7.37737 14.0226 7.25762 14.0456 7.14785 14.0915C7.04008 14.1374 6.94628 14.2022 6.86645 14.2861C6.78861 14.3679 6.72774 14.4647 6.68383 14.5764C6.63993 14.6882 6.61797 14.809 6.61797 14.9387C6.61797 15.0684 6.63993 15.1892 6.68383 15.3009C6.72774 15.4127 6.78861 15.5105 6.86645 15.5943C6.94628 15.6761 7.04008 15.741 7.14785 15.7889C7.25762 15.8348 7.37737 15.8577 7.5071 15.8577Z" fill="#F645F9"/>
<path d="M7.50708 13.585C7.69967 13.585 7.8789 13.6185 8.04321 13.6865C8.20785 13.7519 8.35249 13.8454 8.47388 13.9688L8.55981 14.0645C8.64034 14.1639 8.70516 14.2761 8.75415 14.3994C8.82002 14.5654 8.85178 14.7457 8.85181 14.9385C8.85181 15.1315 8.81983 15.3128 8.75415 15.4805V15.4814C8.68892 15.6456 8.59568 15.7899 8.47485 15.9131L8.47388 15.9141C8.35272 16.0352 8.20894 16.13 8.04517 16.1973H8.04419C7.87968 16.2635 7.69996 16.2949 7.50708 16.2949C7.31407 16.2949 7.13317 16.2633 6.96704 16.1973H6.96606C6.80229 16.13 6.65851 16.0352 6.53735 15.9141L6.5354 15.9121C6.4169 15.789 6.32501 15.6451 6.26001 15.4814V15.4805C6.19433 15.3128 6.16235 15.1315 6.16235 14.9385C6.16238 14.7457 6.19415 14.5654 6.26001 14.3994C6.32511 14.2355 6.41721 14.0912 6.53638 13.9697L6.63208 13.8828C6.73163 13.8009 6.8433 13.7347 6.96704 13.6855V13.6865C7.13332 13.6184 7.31386 13.585 7.50708 13.585ZM7.50708 14.1787C7.3964 14.1787 7.29712 14.1973 7.20825 14.2344C7.12007 14.272 7.04457 14.3255 6.97974 14.3936C6.91667 14.4599 6.86635 14.5396 6.82935 14.6338C6.79321 14.7258 6.77468 14.8269 6.77466 14.9385C6.77466 15.0502 6.79314 15.152 6.82935 15.2441C6.86601 15.3373 6.91604 15.4172 6.97876 15.4854L7.08521 15.5762C7.12287 15.6022 7.16364 15.6249 7.20728 15.6445C7.29628 15.6818 7.39617 15.7012 7.50708 15.7012C7.61758 15.7012 7.71486 15.682 7.80103 15.6455L7.92896 15.5752C7.9674 15.5489 8.00234 15.519 8.03442 15.4863C8.09927 15.4182 8.14908 15.3387 8.18384 15.2461L8.18481 15.2441C8.22102 15.152 8.2395 15.0502 8.2395 14.9385C8.23948 14.8269 8.22096 14.7258 8.18481 14.6338L8.18384 14.6309C8.14927 14.5389 8.10012 14.461 8.03638 14.3955L8.03442 14.3936C7.96997 14.3259 7.89327 14.2731 7.80298 14.2354H7.802C7.71559 14.1986 7.61801 14.1787 7.50708 14.1787Z" stroke="#F645F9" stroke-width="0.3125"/>
</g>
<g filter="url(#filter11_f_52_560)">
<path d="M3.97452 16.1087C3.93061 16.1087 3.89369 16.0937 3.86375 16.0638C3.83382 16.0339 3.81885 15.9969 3.81885 15.953V13.9263C3.81885 13.8804 3.83382 13.8435 3.86375 13.8155C3.89369 13.7856 3.93061 13.7706 3.97452 13.7706C4.02042 13.7706 4.05734 13.7856 4.08529 13.8155C4.11522 13.8435 4.13019 13.8804 4.13019 13.9263V14.7855H5.51926V13.9263C5.51926 13.8804 5.53423 13.8435 5.56416 13.8155C5.5941 13.7856 5.63102 13.7706 5.67493 13.7706C5.72083 13.7706 5.75776 13.7856 5.7857 13.8155C5.81364 13.8435 5.82761 13.8804 5.82761 13.9263V15.953C5.82761 15.9969 5.81364 16.0339 5.7857 16.0638C5.75776 16.0937 5.72083 16.1087 5.67493 16.1087C5.63102 16.1087 5.5941 16.0937 5.56416 16.0638C5.53423 16.0339 5.51926 15.9969 5.51926 15.953V15.0609H4.13019V15.953C4.13019 15.9969 4.11522 16.0339 4.08529 16.0638C4.05734 16.0937 4.02042 16.1087 3.97452 16.1087Z" fill="#F645F9"/>
<path d="M5.67529 13.6144C5.75691 13.6145 5.83437 13.6434 5.89502 13.7062L5.896 13.7052L5.89697 13.7072C5.89773 13.708 5.89915 13.7083 5.8999 13.7091L5.89893 13.7101C5.95802 13.7714 5.9838 13.8476 5.98389 13.9259V15.9532C5.98384 16.0334 5.95674 16.1091 5.8999 16.17C5.83877 16.2355 5.75859 16.2647 5.67529 16.2648C5.59166 16.2648 5.51404 16.2344 5.45361 16.174C5.39337 16.1136 5.36285 16.0367 5.36279 15.9532V15.2169H4.28662V15.9532C4.28657 16.0349 4.2564 16.1093 4.19873 16.1691L4.19971 16.17C4.19901 16.1708 4.19747 16.1713 4.19678 16.172L4.1958 16.174L4.19482 16.173C4.13406 16.236 4.05596 16.2648 3.97412 16.2648C3.89064 16.2647 3.81375 16.2343 3.75342 16.174C3.6931 16.1136 3.66265 16.0368 3.6626 15.9532V13.9259C3.66269 13.8426 3.69183 13.7624 3.75732 13.7013L3.7583 13.7023C3.81803 13.6445 3.89246 13.6145 3.97412 13.6144C4.05418 13.6144 4.13071 13.6421 4.19092 13.7023L4.19189 13.7013C4.19307 13.7024 4.19367 13.7041 4.19482 13.7052C4.1962 13.7066 4.19835 13.7077 4.19971 13.7091L4.19873 13.7101C4.25863 13.7702 4.28653 13.8461 4.28662 13.9259V14.629H5.36279V13.9259C5.36288 13.8446 5.3913 13.7667 5.45361 13.7062V13.7052C5.45488 13.7039 5.45624 13.7025 5.45752 13.7013V13.7023C5.51744 13.644 5.59319 13.6144 5.67529 13.6144Z" stroke="#F645F9" stroke-width="0.3125"/>
</g>
<path d="M18.6739 16.1087C18.6181 16.1087 18.5751 16.0847 18.5452 16.0368C18.5153 15.9889 18.5123 15.9381 18.5362 15.8842L19.3775 13.8754C19.4074 13.8056 19.4563 13.7706 19.5241 13.7706C19.596 13.7706 19.6449 13.8056 19.6708 13.8754L20.5151 15.8902C20.537 15.946 20.533 15.9969 20.5031 16.0428C20.4751 16.0867 20.4322 16.1087 20.3744 16.1087C20.3444 16.1087 20.3155 16.1007 20.2875 16.0847C20.2616 16.0668 20.2426 16.0428 20.2307 16.0129L19.4882 14.1688H19.572L18.8176 16.0129C18.8037 16.0448 18.7827 16.0688 18.7548 16.0847C18.7288 16.1007 18.7019 16.1087 18.6739 16.1087ZM18.8326 15.5938L18.9524 15.3363H20.1259L20.2456 15.5938H18.8326Z" fill="white" fill-opacity="0.82"/>
<path d="M18.2955 16.0693C18.2676 16.0973 18.2297 16.1103 18.1818 16.1083C18.1339 16.1083 18.0959 16.0923 18.068 16.0604L17.0861 14.9168L18.0021 13.8211C18.0301 13.7872 18.066 13.7702 18.1099 13.7702C18.1558 13.7682 18.1927 13.7832 18.2207 13.8151C18.2486 13.847 18.2616 13.881 18.2596 13.9169C18.2596 13.9508 18.2456 13.9837 18.2177 14.0157L17.4603 14.8958L18.2955 15.8658C18.3235 15.8977 18.3384 15.9316 18.3404 15.9676C18.3444 16.0015 18.3295 16.0354 18.2955 16.0693ZM16.7328 16.1083C16.6889 16.1083 16.652 16.0933 16.6221 16.0634C16.5921 16.0334 16.5771 15.9965 16.5771 15.9526V13.9259C16.5771 13.88 16.5921 13.843 16.6221 13.8151C16.652 13.7852 16.6889 13.7702 16.7328 13.7702C16.7787 13.7702 16.8156 13.7852 16.8436 13.8151C16.8735 13.843 16.8885 13.88 16.8885 13.9259V14.7851H17.3795V15.0605H16.8885V15.9526C16.8885 15.9965 16.8735 16.0334 16.8436 16.0634C16.8156 16.0933 16.7787 16.1083 16.7328 16.1083Z" fill="white" fill-opacity="0.82"/>
<path d="M14.1252 16.1087C14.0812 16.1087 14.0443 16.0937 14.0144 16.0638C13.9845 16.0339 13.9695 15.9969 13.9695 15.953V13.9263C13.9695 13.8804 13.9845 13.8435 14.0144 13.8155C14.0443 13.7856 14.0812 13.7706 14.1252 13.7706C14.1711 13.7706 14.208 13.7856 14.2359 13.8155C14.2659 13.8435 14.2808 13.8804 14.2808 13.9263V14.7855H15.6699V13.9263C15.6699 13.8804 15.6849 13.8435 15.7148 13.8155C15.7447 13.7856 15.7817 13.7706 15.8256 13.7706C15.8715 13.7706 15.9084 13.7856 15.9363 13.8155C15.9643 13.8435 15.9782 13.8804 15.9782 13.9263V15.953C15.9782 15.9969 15.9643 16.0339 15.9363 16.0638C15.9084 16.0937 15.8715 16.1087 15.8256 16.1087C15.7817 16.1087 15.7447 16.0937 15.7148 16.0638C15.6849 16.0339 15.6699 15.9969 15.6699 15.953V15.0609H14.2808V15.953C14.2808 15.9969 14.2659 16.0339 14.2359 16.0638C14.208 16.0937 14.1711 16.1087 14.1252 16.1087Z" fill="white" fill-opacity="0.82"/>
<path d="M11.5083 16.1087C11.4644 16.1087 11.4265 16.0937 11.3946 16.0638C11.3626 16.0339 11.3467 15.9969 11.3467 15.953V13.9263C11.3467 13.8804 11.3626 13.8435 11.3946 13.8155C11.4265 13.7856 11.4644 13.7706 11.5083 13.7706C11.5542 13.7706 11.5902 13.7856 11.6161 13.8155C11.6441 13.8435 11.658 13.8804 11.658 13.9263V15.6237L13.095 13.8275C13.1269 13.7896 13.1668 13.7706 13.2147 13.7706C13.2606 13.7706 13.2976 13.7856 13.3255 13.8155C13.3554 13.8435 13.3704 13.8804 13.3704 13.9263V15.953C13.3704 15.9969 13.3554 16.0339 13.3255 16.0638C13.2976 16.0937 13.2606 16.1087 13.2147 16.1087C13.1708 16.1087 13.1339 16.0937 13.104 16.0638C13.074 16.0339 13.0591 15.9969 13.0591 15.953V14.2586L11.6281 16.0548C11.6141 16.0708 11.5962 16.0837 11.5742 16.0937C11.5522 16.1037 11.5303 16.1087 11.5083 16.1087Z" fill="white" fill-opacity="0.82"/>
<path d="M9.33926 16.1087C9.29536 16.1087 9.25844 16.0937 9.2285 16.0638C9.19856 16.0339 9.18359 15.9969 9.18359 15.953V13.9263C9.18359 13.8804 9.19856 13.8435 9.2285 13.8155C9.25844 13.7856 9.29536 13.7706 9.33926 13.7706H10.0548C10.1905 13.7706 10.3092 13.7976 10.411 13.8515C10.5148 13.9033 10.5956 13.9762 10.6535 14.07C10.7134 14.1638 10.7433 14.2716 10.7433 14.3933C10.7433 14.4911 10.7164 14.5799 10.6625 14.6598C10.6106 14.7376 10.5387 14.7995 10.4469 14.8454C10.5786 14.8773 10.6844 14.9402 10.7643 15.034C10.8441 15.1278 10.884 15.2505 10.884 15.4022C10.884 15.5399 10.8511 15.6616 10.7852 15.7674C10.7213 15.8732 10.6315 15.957 10.5158 16.0189C10.4 16.0788 10.2673 16.1087 10.1176 16.1087H9.33926ZM9.49494 15.8213H10.1176C10.2094 15.8213 10.2903 15.8053 10.3601 15.7734C10.43 15.7415 10.4848 15.6946 10.5248 15.6327C10.5647 15.5708 10.5846 15.494 10.5846 15.4022C10.5846 15.3164 10.5647 15.2455 10.5248 15.1896C10.4848 15.1338 10.43 15.0918 10.3601 15.0639C10.2903 15.034 10.2094 15.019 10.1176 15.019H9.49494V15.8213ZM9.49494 14.7316H10.0548C10.1685 14.7316 10.2613 14.7037 10.3332 14.6478C10.407 14.5919 10.4439 14.5071 10.4439 14.3933C10.4439 14.2796 10.407 14.1957 10.3332 14.1418C10.2613 14.086 10.1685 14.058 10.0548 14.058H9.49494V14.7316Z" fill="white" fill-opacity="0.82"/>
<path d="M7.5071 16.1392C7.33147 16.1392 7.17081 16.1102 7.02511 16.0523C6.87942 15.9925 6.75369 15.9096 6.64791 15.8039C6.54413 15.6961 6.4633 15.5694 6.40542 15.4237C6.34754 15.276 6.3186 15.1143 6.3186 14.9387C6.3186 14.7631 6.34754 14.6024 6.40542 14.4567C6.4633 14.311 6.54413 14.1853 6.64791 14.0795C6.75369 13.9717 6.87942 13.8889 7.02511 13.831C7.17081 13.7711 7.33147 13.7412 7.5071 13.7412C7.68273 13.7412 7.84239 13.7711 7.98608 13.831C8.13178 13.8889 8.25751 13.9717 8.36329 14.0795C8.46907 14.1853 8.55089 14.311 8.60877 14.4567C8.66665 14.6024 8.69559 14.7631 8.69559 14.9387C8.69559 15.1143 8.66665 15.276 8.60877 15.4237C8.55089 15.5694 8.46907 15.6961 8.36329 15.8039C8.25751 15.9096 8.13178 15.9925 7.98608 16.0523C7.84239 16.1102 7.68273 16.1392 7.5071 16.1392ZM7.5071 15.8577C7.63682 15.8577 7.75557 15.8348 7.86334 15.7889C7.97311 15.741 8.06791 15.6761 8.14774 15.5943C8.22758 15.5105 8.28845 15.4127 8.33036 15.3009C8.37427 15.1892 8.39622 15.0684 8.39622 14.9387C8.39622 14.809 8.37427 14.6882 8.33036 14.5764C8.28845 14.4647 8.22758 14.3679 8.14774 14.2861C8.06791 14.2022 7.97311 14.1374 7.86334 14.0915C7.75557 14.0456 7.63682 14.0226 7.5071 14.0226C7.37737 14.0226 7.25762 14.0456 7.14785 14.0915C7.04008 14.1374 6.94628 14.2022 6.86645 14.2861C6.78861 14.3679 6.72774 14.4647 6.68383 14.5764C6.63993 14.6882 6.61797 14.809 6.61797 14.9387C6.61797 15.0684 6.63993 15.1892 6.68383 15.3009C6.72774 15.4127 6.78861 15.5105 6.86645 15.5943C6.94628 15.6761 7.04008 15.741 7.14785 15.7889C7.25762 15.8348 7.37737 15.8577 7.5071 15.8577Z" fill="white" fill-opacity="0.82"/>
<path d="M3.97452 16.1087C3.93061 16.1087 3.89369 16.0937 3.86375 16.0638C3.83382 16.0339 3.81885 15.9969 3.81885 15.953V13.9263C3.81885 13.8804 3.83382 13.8435 3.86375 13.8155C3.89369 13.7856 3.93061 13.7706 3.97452 13.7706C4.02042 13.7706 4.05734 13.7856 4.08529 13.8155C4.11522 13.8435 4.13019 13.8804 4.13019 13.9263V14.7855H5.51926V13.9263C5.51926 13.8804 5.53423 13.8435 5.56416 13.8155C5.5941 13.7856 5.63102 13.7706 5.67493 13.7706C5.72083 13.7706 5.75776 13.7856 5.7857 13.8155C5.81364 13.8435 5.82761 13.8804 5.82761 13.9263V15.953C5.82761 15.9969 5.81364 16.0339 5.7857 16.0638C5.75776 16.0937 5.72083 16.1087 5.67493 16.1087C5.63102 16.1087 5.5941 16.0937 5.56416 16.0638C5.53423 16.0339 5.51926 15.9969 5.51926 15.953V15.0609H4.13019V15.953C4.13019 15.9969 4.11522 16.0339 4.08529 16.0638C4.05734 16.0937 4.02042 16.1087 3.97452 16.1087Z" fill="white" fill-opacity="0.82"/>
<defs>
<filter id="filter0_f_52_560" x="9.84497" y="4.89697" width="4.44971" height="5.25745" filterUnits="userSpaceOnUse" color-interpolation-filters="sRGB">
<feFlood flood-opacity="0" result="BackgroundImageFix"/>
<feBlend mode="normal" in="SourceGraphic" in2="BackgroundImageFix" result="shape"/>
<feGaussianBlur stdDeviation="0.53125" result="effect1_foregroundBlur_52_560"/>
</filter>
<filter id="filter1_f_52_560" x="7.16333" y="8.1554" width="3.90356" height="4.49365" filterUnits="userSpaceOnUse" color-interpolation-filters="sRGB">
<feFlood flood-opacity="0" result="BackgroundImageFix"/>
<feBlend mode="normal" in="SourceGraphic" in2="BackgroundImageFix" result="shape"/>
<feGaussianBlur stdDeviation="0.53125" result="effect1_foregroundBlur_52_560"/>
</filter>
<filter id="filter2_f_52_560" x="13.1196" y="8.34229" width="3.65405" height="4.15076" filterUnits="userSpaceOnUse" color-interpolation-filters="sRGB">
<feFlood flood-opacity="0" result="BackgroundImageFix"/>
<feBlend mode="normal" in="SourceGraphic" in2="BackgroundImageFix" result="shape"/>
<feGaussianBlur stdDeviation="0.53125" result="effect1_foregroundBlur_52_560"/>
</filter>
<filter id="filter3_f_52_560" x="0" y="0" width="24.0972" height="23.7498" filterUnits="userSpaceOnUse" color-interpolation-filters="sRGB">
<feFlood flood-opacity="0" result="BackgroundImageFix"/>
<feBlend mode="normal" in="SourceGraphic" in2="BackgroundImageFix" result="shape"/>
<feGaussianBlur stdDeviation="0.9375" result="effect1_foregroundBlur_52_560"/>
</filter>
<filter id="filter4_f_52_560" x="0" y="0" width="24.0972" height="23.7498" filterUnits="userSpaceOnUse" color-interpolation-filters="sRGB">
<feFlood flood-opacity="0" result="BackgroundImageFix"/>
<feBlend mode="normal" in="SourceGraphic" in2="BackgroundImageFix" result="shape"/>
<feGaussianBlur stdDeviation="0.9375" result="effect1_foregroundBlur_52_560"/>
</filter>
<filter id="filter5_f_52_560" x="16.8328" y="12.0831" width="5.38379" height="5.71301" filterUnits="userSpaceOnUse" color-interpolation-filters="sRGB">
<feFlood flood-opacity="0" result="BackgroundImageFix"/>
<feBlend mode="normal" in="SourceGraphic" in2="BackgroundImageFix" result="shape"/>
<feGaussianBlur stdDeviation="0.6875" result="effect1_foregroundBlur_52_560"/>
</filter>
<filter id="filter6_f_52_560" x="14.8896" y="12.0825" width="5.13892" height="5.71338" filterUnits="userSpaceOnUse" color-interpolation-filters="sRGB">
<feFlood flood-opacity="0" result="BackgroundImageFix"/>
<feBlend mode="normal" in="SourceGraphic" in2="BackgroundImageFix" result="shape"/>
<feGaussianBlur stdDeviation="0.6875" result="effect1_foregroundBlur_52_560"/>
</filter>
<filter id="filter7_f_52_560" x="12.282" y="12.0831" width="5.38379" height="5.71301" filterUnits="userSpaceOnUse" color-interpolation-filters="sRGB">
<feFlood flood-opacity="0" result="BackgroundImageFix"/>
<feBlend mode="normal" in="SourceGraphic" in2="BackgroundImageFix" result="shape"/>
<feGaussianBlur stdDeviation="0.6875" result="effect1_foregroundBlur_52_560"/>
</filter>
<filter id="filter8_f_52_560" x="9.65918" y="11.9899" width="5.39868" height="5.89978" filterUnits="userSpaceOnUse" color-interpolation-filters="sRGB">
<feFlood flood-opacity="0" result="BackgroundImageFix"/>
<feBlend mode="normal" in="SourceGraphic" in2="BackgroundImageFix" result="shape"/>
<feGaussianBlur stdDeviation="0.6875" result="effect1_foregroundBlur_52_560"/>
</filter>
<filter id="filter9_f_52_560" x="7.49609" y="12.0831" width="5.07544" height="5.71301" filterUnits="userSpaceOnUse" color-interpolation-filters="sRGB">
<feFlood flood-opacity="0" result="BackgroundImageFix"/>
<feBlend mode="normal" in="SourceGraphic" in2="BackgroundImageFix" result="shape"/>
<feGaussianBlur stdDeviation="0.6875" result="effect1_foregroundBlur_52_560"/>
</filter>
<filter id="filter10_f_52_560" x="4.6311" y="12.0537" width="5.75195" height="5.77295" filterUnits="userSpaceOnUse" color-interpolation-filters="sRGB">
<feFlood flood-opacity="0" result="BackgroundImageFix"/>
<feBlend mode="normal" in="SourceGraphic" in2="BackgroundImageFix" result="shape"/>
<feGaussianBlur stdDeviation="0.6875" result="effect1_foregroundBlur_52_560"/>
</filter>
<filter id="filter11_f_52_560" x="2.13135" y="12.0831" width="5.38379" height="5.71301" filterUnits="userSpaceOnUse" color-interpolation-filters="sRGB">
<feFlood flood-opacity="0" result="BackgroundImageFix"/>
<feBlend mode="normal" in="SourceGraphic" in2="BackgroundImageFix" result="shape"/>
<feGaussianBlur stdDeviation="0.6875" result="effect1_foregroundBlur_52_560"/>
</filter>
</defs>
</svg>
