<svg width="32" height="32" viewBox="0 0 32 32" fill="none" xmlns="http://www.w3.org/2000/svg">
<circle cx="15.625" cy="15.625" r="15" stroke="#FFDAE2" stroke-width="1.25"/>
<g filter="url(#filter0_f_1_679)">
<circle cx="15.625" cy="15.625" r="11.875" stroke="#F61546" stroke-width="0.9375"/>
</g>
<g filter="url(#filter1_f_1_679)">
<path d="M19.4657 7.50312C19.924 5.89298 18.6907 5.16678 18.0167 5.00494C15.7624 4.43665 14.6858 6.22836 14.4293 7.19525C14.0978 9.03273 16.1776 12.965 17.2589 14.7014C18.7073 16.8523 22.4091 21.8171 24.5165 20.7159C25.2979 20.3076 26.624 18.4665 25.4519 16.501C25.1896 16.1575 24.7116 15.7285 24.0193 15.3471M24.0193 15.3471C26.1504 16.0361 26.77 14.4539 26.8134 13.5767C26.5671 11.2373 24.3113 10.6603 23.2142 10.6642C21.4241 10.4179 18.4981 13.2531 17.2589 14.7014M17.2589 14.7014C20.3706 14.0057 22.6279 14.5805 24.0193 15.3471M17.2589 14.7014C17.3379 12.7762 17.8977 9.11201 19.4657 7.50312M23.2142 10.6642C23.792 10.6289 24.1811 9.8839 24.3034 9.51579C24.6633 8.36025 23.6562 7.48729 23.1076 7.19525C22.151 6.51329 20.9884 6.65852 20.5266 6.81638C20.1302 6.9438 19.778 7.1827 19.4657 7.50312" stroke="#F61546" stroke-width="0.9375"/>
</g>
<g filter="url(#filter2_f_1_679)">
<path d="M11.5405 17.0222L13.352 18.3244C14.9148 19.4018 16.0237 19.0939 16.442 18.6795C17.2471 17.8389 18.1824 18.8469 18.8218 19.449C19.6363 20.2162 20.1044 21.4262 20.2662 21.9116C20.7114 23.4555 19.7975 24.4676 19.2362 24.7176C17.8273 25.3451 15.6606 25.2741 14.6543 25.2741C12.2509 25.2741 10.5223 24.4216 9.954 24.0428C8.39119 23.0719 7.40108 21.2258 7.11252 20.3962C6.44954 18.49 7.5743 17.2092 8.33198 16.868C9.51597 16.2407 10.7354 16.4774 11.5405 17.0222Z" stroke="#F61546" stroke-width="0.9375"/>
</g>
<g filter="url(#filter3_f_1_679)">
<circle cx="10.8654" cy="20.4319" r="1.81144" stroke="#F61546" stroke-width="0.9375"/>
</g>
<g filter="url(#filter4_f_1_679)">
<path d="M13.2334 14.6778L12.5586 12.9256L13.5649 11.5048L15.1396 10.901L16.2288 13.1031L15.2698 14.8435L13.2334 14.6778Z" stroke="#F61546" stroke-width="0.9375"/>
</g>
<g filter="url(#filter5_f_1_679)">
<path d="M11.493 14.8793L12.5112 12.7245H9.59864L8.59229 14.2518L11.493 14.8793Z" stroke="#F61546" stroke-width="0.9375"/>
</g>
<g filter="url(#filter6_f_1_679)">
<path d="M7.78736 12.8429L12.3692 12.535L9.20809 10.4631L6.73364 11.2682L7.78736 12.8429Z" stroke="#F61546" stroke-width="0.9375"/>
</g>
<g filter="url(#filter7_f_1_679)">
<path d="M8.39111 9.91828L12.7007 12.6295L13.4466 11.5403L10.1197 8.34363L8.39111 9.91828Z" stroke="#F61546" stroke-width="0.9375"/>
</g>
<g filter="url(#filter8_f_1_679)">
<path d="M12.9731 7.15985L11.3629 7.12433L11.4813 9.37383L13.4348 11.3155L15.1042 10.7709L12.9731 7.15985Z" stroke="#F61546" stroke-width="0.9375"/>
</g>
<g filter="url(#filter9_f_1_679)">
<circle cx="15.625" cy="15.625" r="11.875" stroke="#F61546" stroke-width="0.9375"/>
</g>
<g filter="url(#filter10_f_1_679)">
<path d="M19.4657 7.50294C19.924 5.8928 18.6907 5.1666 18.0167 5.00476C15.7624 4.43646 14.6858 6.22817 14.4293 7.19506C14.0978 9.03255 16.1776 12.9648 17.2589 14.7012C18.7073 16.8521 22.4091 21.8169 24.5165 20.7157C25.2979 20.3074 26.624 18.4663 25.4519 16.5008C25.1896 16.1573 24.7116 15.7284 24.0193 15.3469M24.0193 15.3469C26.1504 16.0359 26.77 14.4538 26.8134 13.5765C26.5671 11.2371 24.3113 10.6601 23.2142 10.664C21.4241 10.4178 18.4981 13.2529 17.2589 14.7012M17.2589 14.7012C20.3706 14.0055 22.6279 14.5803 24.0193 15.3469M17.2589 14.7012C17.3379 12.776 17.8977 9.11183 19.4657 7.50294M23.2142 10.664C23.792 10.6287 24.1811 9.88371 24.3034 9.5156C24.6633 8.36007 23.6562 7.4871 23.1076 7.19506C22.151 6.51311 20.9884 6.65834 20.5266 6.8162C20.1302 6.94362 19.778 7.18252 19.4657 7.50294" stroke="#F61546" stroke-width="0.9375"/>
</g>
<g filter="url(#filter11_f_1_679)">
<path d="M11.5405 17.0222L13.352 18.3244C14.9148 19.4018 16.0237 19.0939 16.442 18.6795C17.2471 17.8389 18.1824 18.8469 18.8218 19.449C19.6363 20.2162 20.1044 21.4262 20.2662 21.9116C20.7114 23.4555 19.7975 24.4676 19.2362 24.7176C17.8273 25.3451 15.6606 25.2741 14.6543 25.2741C12.2509 25.2741 10.5223 24.4216 9.954 24.0428C8.39119 23.0719 7.40108 21.2258 7.11252 20.3962C6.44954 18.49 7.5743 17.2092 8.33198 16.868C9.51597 16.2407 10.7354 16.4774 11.5405 17.0222Z" stroke="#F61546" stroke-width="0.9375"/>
</g>
<g filter="url(#filter12_f_1_679)">
<circle cx="10.8654" cy="20.4319" r="1.81144" stroke="#F61546" stroke-width="0.9375"/>
</g>
<g filter="url(#filter13_f_1_679)">
<path d="M13.2334 14.6778L12.5586 12.9256L13.5649 11.5048L15.1396 10.901L16.2288 13.1031L15.2698 14.8435L13.2334 14.6778Z" stroke="#F61546" stroke-width="0.9375"/>
</g>
<g filter="url(#filter14_f_1_679)">
<path d="M11.493 14.8793L12.5112 12.7245H9.59864L8.59229 14.2518L11.493 14.8793Z" stroke="#F61546" stroke-width="0.9375"/>
</g>
<g filter="url(#filter15_f_1_679)">
<path d="M7.78736 12.8429L12.3692 12.535L9.20809 10.4631L6.73364 11.2682L7.78736 12.8429Z" stroke="#F61546" stroke-width="0.9375"/>
</g>
<g filter="url(#filter16_f_1_679)">
<path d="M8.39111 9.91828L12.7007 12.6295L13.4466 11.5403L10.1197 8.34363L8.39111 9.91828Z" stroke="#F61546" stroke-width="0.9375"/>
</g>
<g filter="url(#filter17_f_1_679)">
<path d="M12.9731 7.15985L11.3629 7.12433L11.4813 9.37383L13.4348 11.3155L15.1042 10.7709L12.9731 7.15985Z" stroke="#F61546" stroke-width="0.9375"/>
</g>
<circle cx="15.625" cy="15.625" r="11.875" stroke="white" stroke-width="0.4375"/>
<path d="M19.4657 7.50294C19.924 5.8928 18.6907 5.1666 18.0167 5.00476C15.7624 4.43646 14.6858 6.22817 14.4293 7.19506C14.0978 9.03255 16.1776 12.9648 17.2589 14.7012C18.7073 16.8521 22.4091 21.8169 24.5165 20.7157C25.2979 20.3074 26.624 18.4663 25.4519 16.5008C25.1896 16.1573 24.7116 15.7284 24.0193 15.3469M24.0193 15.3469C26.1504 16.0359 26.77 14.4538 26.8134 13.5765C26.5671 11.2371 24.3113 10.6601 23.2142 10.664C21.4241 10.4178 18.4981 13.2529 17.2589 14.7012M17.2589 14.7012C20.3706 14.0055 22.6279 14.5803 24.0193 15.3469M17.2589 14.7012C17.3379 12.776 17.8977 9.11183 19.4657 7.50294M23.2142 10.664C23.792 10.6287 24.1811 9.88371 24.3034 9.5156C24.6633 8.36007 23.6562 7.4871 23.1076 7.19506C22.151 6.51311 20.9884 6.65834 20.5266 6.8162C20.1302 6.94362 19.778 7.18252 19.4657 7.50294" stroke="white" stroke-width="0.4375"/>
<path d="M11.5405 17.0222L13.352 18.3244C14.9148 19.4018 16.0237 19.0939 16.442 18.6795C17.2471 17.8389 18.1824 18.8469 18.8218 19.449C19.6363 20.2162 20.1044 21.4262 20.2662 21.9116C20.7114 23.4555 19.7975 24.4676 19.2362 24.7176C17.8273 25.3451 15.6606 25.2741 14.6543 25.2741C12.2509 25.2741 10.5223 24.4216 9.954 24.0428C8.39119 23.0719 7.40108 21.2258 7.11252 20.3962C6.44954 18.49 7.5743 17.2092 8.33198 16.868C9.51597 16.2407 10.7354 16.4774 11.5405 17.0222Z" stroke="white" stroke-width="0.4375"/>
<circle cx="10.8654" cy="20.4319" r="1.81144" stroke="white" stroke-width="0.4375"/>
<path d="M13.2334 14.6778L12.5586 12.9256L13.5649 11.5048L15.1396 10.901L16.2288 13.1031L15.2698 14.8435L13.2334 14.6778Z" stroke="white" stroke-width="0.4375"/>
<path d="M11.493 14.8793L12.5112 12.7245H9.59864L8.59229 14.2518L11.493 14.8793Z" stroke="white" stroke-width="0.4375"/>
<path d="M7.78736 12.8429L12.3692 12.535L9.20809 10.4631L6.73364 11.2682L7.78736 12.8429Z" stroke="white" stroke-width="0.4375"/>
<path d="M8.39111 9.91828L12.7007 12.6295L13.4466 11.5403L10.1197 8.34363L8.39111 9.91828Z" stroke="white" stroke-width="0.4375"/>
<path d="M12.9731 7.15985L11.3629 7.12433L11.4813 9.37383L13.4348 11.3155L15.1042 10.7709L12.9731 7.15985Z" stroke="white" stroke-width="0.4375"/>
<defs>
<filter id="filter0_f_1_679" x="2.21875" y="2.21875" width="26.8125" height="26.8125" filterUnits="userSpaceOnUse" color-interpolation-filters="sRGB">
<feFlood flood-opacity="0" result="BackgroundImageFix"/>
<feBlend mode="normal" in="SourceGraphic" in2="BackgroundImageFix" result="shape"/>
<feGaussianBlur stdDeviation="0.53125" result="effect1_foregroundBlur_1_679"/>
</filter>
<filter id="filter1_f_1_679" x="12.8627" y="3.36467" width="15.4832" height="19.0401" filterUnits="userSpaceOnUse" color-interpolation-filters="sRGB">
<feFlood flood-opacity="0" result="BackgroundImageFix"/>
<feBlend mode="normal" in="SourceGraphic" in2="BackgroundImageFix" result="shape"/>
<feGaussianBlur stdDeviation="0.53125" result="effect1_foregroundBlur_1_679"/>
</filter>
<filter id="filter2_f_1_679" x="5.37903" y="14.9622" width="16.5375" height="11.8455" filterUnits="userSpaceOnUse" color-interpolation-filters="sRGB">
<feFlood flood-opacity="0" result="BackgroundImageFix"/>
<feBlend mode="normal" in="SourceGraphic" in2="BackgroundImageFix" result="shape"/>
<feGaussianBlur stdDeviation="0.53125" result="effect1_foregroundBlur_1_679"/>
</filter>
<filter id="filter3_f_1_679" x="7.52271" y="17.0892" width="6.68542" height="6.68538" filterUnits="userSpaceOnUse" color-interpolation-filters="sRGB">
<feFlood flood-opacity="0" result="BackgroundImageFix"/>
<feBlend mode="normal" in="SourceGraphic" in2="BackgroundImageFix" result="shape"/>
<feGaussianBlur stdDeviation="0.53125" result="effect1_foregroundBlur_1_679"/>
</filter>
<filter id="filter4_f_1_679" x="10.9684" y="9.24794" width="6.85168" height="7.14992" filterUnits="userSpaceOnUse" color-interpolation-filters="sRGB">
<feFlood flood-opacity="0" result="BackgroundImageFix"/>
<feBlend mode="normal" in="SourceGraphic" in2="BackgroundImageFix" result="shape"/>
<feGaussianBlur stdDeviation="0.53125" result="effect1_foregroundBlur_1_679"/>
</filter>
<filter id="filter5_f_1_679" x="6.76184" y="11.1932" width="7.55176" height="5.2854" filterUnits="userSpaceOnUse" color-interpolation-filters="sRGB">
<feFlood flood-opacity="0" result="BackgroundImageFix"/>
<feBlend mode="normal" in="SourceGraphic" in2="BackgroundImageFix" result="shape"/>
<feGaussianBlur stdDeviation="0.53125" result="effect1_foregroundBlur_1_679"/>
</filter>
<filter id="filter6_f_1_679" x="4.93713" y="8.8853" width="9.92041" height="5.50592" filterUnits="userSpaceOnUse" color-interpolation-filters="sRGB">
<feFlood flood-opacity="0" result="BackgroundImageFix"/>
<feBlend mode="normal" in="SourceGraphic" in2="BackgroundImageFix" result="shape"/>
<feGaussianBlur stdDeviation="0.53125" result="effect1_foregroundBlur_1_679"/>
</filter>
<filter id="filter7_f_1_679" x="6.55725" y="6.63927" width="8.56299" height="7.68961" filterUnits="userSpaceOnUse" color-interpolation-filters="sRGB">
<feFlood flood-opacity="0" result="BackgroundImageFix"/>
<feBlend mode="normal" in="SourceGraphic" in2="BackgroundImageFix" result="shape"/>
<feGaussianBlur stdDeviation="0.53125" result="effect1_foregroundBlur_1_679"/>
</filter>
<filter id="filter8_f_1_679" x="9.80579" y="5.58205" width="7.06128" height="7.33051" filterUnits="userSpaceOnUse" color-interpolation-filters="sRGB">
<feFlood flood-opacity="0" result="BackgroundImageFix"/>
<feBlend mode="normal" in="SourceGraphic" in2="BackgroundImageFix" result="shape"/>
<feGaussianBlur stdDeviation="0.53125" result="effect1_foregroundBlur_1_679"/>
</filter>
<filter id="filter9_f_1_679" x="2.21875" y="2.21875" width="26.8125" height="26.8125" filterUnits="userSpaceOnUse" color-interpolation-filters="sRGB">
<feFlood flood-opacity="0" result="BackgroundImageFix"/>
<feBlend mode="normal" in="SourceGraphic" in2="BackgroundImageFix" result="shape"/>
<feGaussianBlur stdDeviation="0.53125" result="effect1_foregroundBlur_1_679"/>
</filter>
<filter id="filter10_f_1_679" x="12.8627" y="3.36449" width="15.4832" height="19.0401" filterUnits="userSpaceOnUse" color-interpolation-filters="sRGB">
<feFlood flood-opacity="0" result="BackgroundImageFix"/>
<feBlend mode="normal" in="SourceGraphic" in2="BackgroundImageFix" result="shape"/>
<feGaussianBlur stdDeviation="0.53125" result="effect1_foregroundBlur_1_679"/>
</filter>
<filter id="filter11_f_1_679" x="5.37903" y="14.9622" width="16.5375" height="11.8455" filterUnits="userSpaceOnUse" color-interpolation-filters="sRGB">
<feFlood flood-opacity="0" result="BackgroundImageFix"/>
<feBlend mode="normal" in="SourceGraphic" in2="BackgroundImageFix" result="shape"/>
<feGaussianBlur stdDeviation="0.53125" result="effect1_foregroundBlur_1_679"/>
</filter>
<filter id="filter12_f_1_679" x="7.52271" y="17.0892" width="6.68542" height="6.68538" filterUnits="userSpaceOnUse" color-interpolation-filters="sRGB">
<feFlood flood-opacity="0" result="BackgroundImageFix"/>
<feBlend mode="normal" in="SourceGraphic" in2="BackgroundImageFix" result="shape"/>
<feGaussianBlur stdDeviation="0.53125" result="effect1_foregroundBlur_1_679"/>
</filter>
<filter id="filter13_f_1_679" x="10.9684" y="9.24794" width="6.85168" height="7.14992" filterUnits="userSpaceOnUse" color-interpolation-filters="sRGB">
<feFlood flood-opacity="0" result="BackgroundImageFix"/>
<feBlend mode="normal" in="SourceGraphic" in2="BackgroundImageFix" result="shape"/>
<feGaussianBlur stdDeviation="0.53125" result="effect1_foregroundBlur_1_679"/>
</filter>
<filter id="filter14_f_1_679" x="6.76184" y="11.1932" width="7.55176" height="5.2854" filterUnits="userSpaceOnUse" color-interpolation-filters="sRGB">
<feFlood flood-opacity="0" result="BackgroundImageFix"/>
<feBlend mode="normal" in="SourceGraphic" in2="BackgroundImageFix" result="shape"/>
<feGaussianBlur stdDeviation="0.53125" result="effect1_foregroundBlur_1_679"/>
</filter>
<filter id="filter15_f_1_679" x="4.93713" y="8.8853" width="9.92041" height="5.50592" filterUnits="userSpaceOnUse" color-interpolation-filters="sRGB">
<feFlood flood-opacity="0" result="BackgroundImageFix"/>
<feBlend mode="normal" in="SourceGraphic" in2="BackgroundImageFix" result="shape"/>
<feGaussianBlur stdDeviation="0.53125" result="effect1_foregroundBlur_1_679"/>
</filter>
<filter id="filter16_f_1_679" x="6.55725" y="6.63927" width="8.56299" height="7.68961" filterUnits="userSpaceOnUse" color-interpolation-filters="sRGB">
<feFlood flood-opacity="0" result="BackgroundImageFix"/>
<feBlend mode="normal" in="SourceGraphic" in2="BackgroundImageFix" result="shape"/>
<feGaussianBlur stdDeviation="0.53125" result="effect1_foregroundBlur_1_679"/>
</filter>
<filter id="filter17_f_1_679" x="9.80579" y="5.58205" width="7.06128" height="7.33051" filterUnits="userSpaceOnUse" color-interpolation-filters="sRGB">
<feFlood flood-opacity="0" result="BackgroundImageFix"/>
<feBlend mode="normal" in="SourceGraphic" in2="BackgroundImageFix" result="shape"/>
<feGaussianBlur stdDeviation="0.53125" result="effect1_foregroundBlur_1_679"/>
</filter>
</defs>
</svg>
