<svg width="32" height="32" viewBox="0 0 32 32" fill="none" xmlns="http://www.w3.org/2000/svg">
<g filter="url(#filter0_f_1_398)">
<circle cx="14.375" cy="4.375" r="1.25" stroke="#F61546" stroke-width="0.3125"/>
</g>
<g filter="url(#filter1_f_1_398)">
<ellipse cx="12.9913" cy="19.8901" rx="0.997129" ry="0.908495" fill="#F61546"/>
<path d="M12.9912 18.9191C13.5707 18.9191 14.0506 19.3484 14.0508 19.8898C14.0508 20.4314 13.5708 20.8615 12.9912 20.8615C12.4116 20.8615 11.9316 20.4314 11.9316 19.8898C11.9318 19.3484 12.4117 18.9192 12.9912 18.9191Z" stroke="#F61546" stroke-width="0.125"/>
</g>
<g filter="url(#filter2_f_1_398)">
<ellipse cx="17.8185" cy="19.6679" rx="1.0636" ry="0.908495" transform="rotate(-45.7133 17.8185 19.6679)" fill="#F61546"/>
<path d="M17.1234 18.99C17.5508 18.5517 18.2142 18.4813 18.6045 18.8617C18.9947 19.2424 18.9414 19.9079 18.5138 20.3463C18.0863 20.7845 17.4223 20.8544 17.032 20.4738C16.6421 20.0932 16.696 19.4282 17.1234 18.99Z" stroke="#F61546" stroke-width="0.125"/>
</g>
<g filter="url(#filter3_f_1_398)">
<ellipse cx="15.2441" cy="18.8208" rx="0.755764" ry="0.645548" transform="rotate(11.222 15.2441 18.8208)" fill="#F61546"/>
<path d="M15.382 18.1263C15.8158 18.2124 16.1247 18.5878 16.0469 18.98C15.9691 19.3722 15.5402 19.6012 15.1064 19.5152C14.6726 19.4291 14.3637 19.0537 14.4415 18.6615C14.5193 18.2692 14.9481 18.0402 15.382 18.1263Z" stroke="#F61546" stroke-width="0.125"/>
</g>
<g filter="url(#filter4_f_1_398)">
<ellipse cx="15.7755" cy="21.3664" rx="0.867745" ry="0.75552" transform="rotate(89.183 15.7755 21.3664)" fill="#F61546"/>
<path d="M16.5934 21.3552C16.6004 21.8603 16.2479 22.2899 15.7884 22.2964C15.3291 22.3028 14.9653 21.8835 14.9579 21.3785C14.9506 20.8733 15.3025 20.443 15.7619 20.4363C16.2215 20.4297 16.5862 20.8499 16.5934 21.3552Z" stroke="#F61546" stroke-width="0.125"/>
</g>
<g filter="url(#filter5_f_1_398)">
<ellipse cx="21.2122" cy="24.9644" rx="0.998346" ry="0.819634" transform="rotate(134.928 21.2122 24.9644)" fill="#F61546"/>
<path d="M21.837 25.5872C21.4318 25.9933 20.8157 26.0675 20.463 25.716C20.1103 25.3642 20.1824 24.7472 20.5876 24.341C20.9928 23.9349 21.609 23.8618 21.9616 24.2136C22.314 24.5653 22.2419 25.181 21.837 25.5872Z" stroke="#F61546" stroke-width="0.125"/>
</g>
<g filter="url(#filter6_f_1_398)">
<ellipse cx="17.2351" cy="23.6819" rx="0.813013" ry="0.707867" transform="rotate(104.139 17.2351 23.6819)" fill="#F61546"/>
<path d="M17.982 23.8705C17.8658 24.331 17.4411 24.6366 17.0211 24.5308C16.6011 24.4249 16.3719 23.9546 16.4877 23.4941C16.6037 23.0334 17.0287 22.7271 17.4488 22.8328C17.869 22.9387 18.0981 23.4098 17.982 23.8705Z" stroke="#F61546" stroke-width="0.125"/>
</g>
<g filter="url(#filter7_f_1_398)">
<ellipse cx="14.9999" cy="23.9855" rx="0.813013" ry="0.768448" transform="rotate(174.863 14.9999 23.9855)" fill="#F61546"/>
<path d="M15.0738 24.8131C14.5958 24.8559 14.1693 24.5239 14.1279 24.0637C14.0866 23.6036 14.447 23.2009 14.925 23.1577C15.4032 23.1147 15.8304 23.4467 15.8719 23.907C15.9132 24.3673 15.552 24.7701 15.0738 24.8131Z" stroke="#F61546" stroke-width="0.125"/>
</g>
<g filter="url(#filter8_f_1_398)">
<ellipse cx="13.6609" cy="21.9309" rx="0.813013" ry="0.768448" transform="rotate(94.1629 13.6609 21.9309)" fill="#F61546"/>
<path d="M14.4896 21.9917C14.4545 22.4704 14.0581 22.8376 13.5972 22.8041C13.1365 22.7705 12.7973 22.3497 12.8319 21.8711C12.8667 21.3922 13.2634 21.0242 13.7243 21.0577C14.1853 21.0913 14.5245 21.5128 14.4896 21.9917Z" stroke="#F61546" stroke-width="0.125"/>
</g>
<g filter="url(#filter9_f_1_398)">
<ellipse cx="13.1362" cy="23.5417" rx="0.611567" ry="0.578044" transform="rotate(51.9735 13.1362 23.5417)" fill="#F61546"/>
<path d="M13.6407 23.1469C13.8679 23.4375 13.8324 23.8524 13.5511 24.0723C13.2699 24.2922 12.8586 24.2268 12.6314 23.9362C12.4043 23.6456 12.4398 23.2307 12.7209 23.0108C13.0021 22.7909 13.4134 22.8565 13.6407 23.1469Z" stroke="#F61546" stroke-width="0.125"/>
</g>
<g filter="url(#filter10_f_1_398)">
<ellipse cx="17.999" cy="21.843" rx="0.611567" ry="0.507414" transform="rotate(-9.50177 17.999 21.843)" fill="#F61546"/>
<path d="M17.9046 21.2809C18.2605 21.2214 18.6097 21.4115 18.6634 21.7322C18.7168 22.0527 18.4485 22.3454 18.0928 22.4049C17.7371 22.4644 17.3881 22.275 17.3342 21.9546C17.2805 21.634 17.5489 21.3406 17.9046 21.2809Z" stroke="#F61546" stroke-width="0.125"/>
</g>
<circle cx="15.625" cy="15.625" r="15" stroke="#EABFFF" stroke-width="1.25"/>
<g filter="url(#filter11_f_1_398)">
<path d="M10.4429 13.3087L11.4178 24.4544C11.4474 25.0526 11.6837 25.9168 13.5894 25.9168H17.3341C18.4642 25.9168 19.1511 25.7174 19.3284 24.4544L20.813 12.7325" stroke="#F61546" stroke-width="0.9375" stroke-linecap="round"/>
</g>
<path d="M10.4429 13.3087L11.4178 24.4544C11.4474 25.0526 11.6837 25.9168 13.5894 25.9168H17.3341C18.4642 25.9168 19.1511 25.7174 19.3284 24.4544L20.813 12.7325" stroke="white" stroke-opacity="0.9" stroke-width="0.4375" stroke-linecap="round"/>
<g filter="url(#filter12_f_1_398)">
<path d="M15.9646 5.85571L15.3396 17.1057" stroke="#F61546" stroke-width="0.9375" stroke-linecap="round"/>
</g>
<path d="M15.9646 5.85571L15.3396 17.1057" stroke="white" stroke-opacity="0.8" stroke-width="0.4375"/>
<g filter="url(#filter13_f_1_398)">
<path d="M14.8966 10.65C12.5744 10.5791 11.0189 11.3 10.5314 11.6694C9.88886 12.0017 9.33486 13.442 11.9939 13.5972C13.4194 13.7153 17.4077 13.9253 20.1039 13.309C20.8794 13.1317 21.3669 12.0681 20.0374 11.4034C19.5943 11.1153 18.1672 10.6537 16.5364 10.65" stroke="#F61546" stroke-width="0.9375" stroke-linecap="round"/>
</g>
<path d="M14.8747 10.6498C11.7725 10.6498 10.5316 11.6691 10.5316 11.6691C9.95543 11.9571 9.33505 13.4417 11.9941 13.5969C13.4196 13.7151 17.4079 13.925 20.1041 13.3088C20.8796 13.1315 21.3671 12.0679 20.0376 11.4031C19.5575 11.1501 18.1852 10.6452 16.5366 10.6498" stroke="white" stroke-opacity="0.77" stroke-width="0.4375" stroke-linecap="round"/>
<circle cx="14.375" cy="4.375" r="1.25" stroke="white" stroke-width="0.1875"/>
<ellipse cx="12.9913" cy="19.8901" rx="0.997129" ry="0.908495" fill="white" fill-opacity="0.59"/>
<ellipse cx="17.8185" cy="19.6679" rx="1.0636" ry="0.908495" transform="rotate(-45.7133 17.8185 19.6679)" fill="white" fill-opacity="0.59"/>
<ellipse cx="15.2441" cy="18.8208" rx="0.755764" ry="0.645548" transform="rotate(11.222 15.2441 18.8208)" fill="white" fill-opacity="0.59"/>
<ellipse cx="15.7755" cy="21.3664" rx="0.867745" ry="0.75552" transform="rotate(89.183 15.7755 21.3664)" fill="white" fill-opacity="0.59"/>
<ellipse cx="21.2122" cy="24.9644" rx="0.998346" ry="0.819634" transform="rotate(134.928 21.2122 24.9644)" fill="white" fill-opacity="0.59"/>
<ellipse cx="17.2351" cy="23.6819" rx="0.813013" ry="0.707867" transform="rotate(104.139 17.2351 23.6819)" fill="white" fill-opacity="0.59"/>
<ellipse cx="14.9999" cy="23.9855" rx="0.813013" ry="0.768448" transform="rotate(174.863 14.9999 23.9855)" fill="white" fill-opacity="0.59"/>
<ellipse cx="13.6609" cy="21.9309" rx="0.813013" ry="0.768448" transform="rotate(94.1629 13.6609 21.9309)" fill="white" fill-opacity="0.59"/>
<ellipse cx="13.1362" cy="23.5417" rx="0.611567" ry="0.578044" transform="rotate(51.9735 13.1362 23.5417)" fill="white" fill-opacity="0.59"/>
<ellipse cx="17.999" cy="21.843" rx="0.611567" ry="0.507414" transform="rotate(-9.50177 17.999 21.843)" fill="white" fill-opacity="0.59"/>
<defs>
<filter id="filter0_f_1_398" x="12.5312" y="2.53125" width="3.6875" height="3.6875" filterUnits="userSpaceOnUse" color-interpolation-filters="sRGB">
<feFlood flood-opacity="0" result="BackgroundImageFix"/>
<feBlend mode="normal" in="SourceGraphic" in2="BackgroundImageFix" result="shape"/>
<feGaussianBlur stdDeviation="0.21875" result="effect1_foregroundBlur_1_398"/>
</filter>
<filter id="filter1_f_1_398" x="10.8066" y="17.7941" width="4.36914" height="4.19199" filterUnits="userSpaceOnUse" color-interpolation-filters="sRGB">
<feFlood flood-opacity="0" result="BackgroundImageFix"/>
<feBlend mode="normal" in="SourceGraphic" in2="BackgroundImageFix" result="shape"/>
<feGaussianBlur stdDeviation="0.53125" result="effect1_foregroundBlur_1_398"/>
</filter>
<filter id="filter2_f_1_398" x="15.6436" y="17.4891" width="4.34985" height="4.35764" filterUnits="userSpaceOnUse" color-interpolation-filters="sRGB">
<feFlood flood-opacity="0" result="BackgroundImageFix"/>
<feBlend mode="normal" in="SourceGraphic" in2="BackgroundImageFix" result="shape"/>
<feGaussianBlur stdDeviation="0.53125" result="effect1_foregroundBlur_1_398"/>
</filter>
<filter id="filter3_f_1_398" x="13.3042" y="16.9834" width="3.87964" height="3.67477" filterUnits="userSpaceOnUse" color-interpolation-filters="sRGB">
<feFlood flood-opacity="0" result="BackgroundImageFix"/>
<feBlend mode="normal" in="SourceGraphic" in2="BackgroundImageFix" result="shape"/>
<feGaussianBlur stdDeviation="0.53125" result="effect1_foregroundBlur_1_398"/>
</filter>
<filter id="filter4_f_1_398" x="13.8325" y="19.3112" width="3.88599" height="4.11044" filterUnits="userSpaceOnUse" color-interpolation-filters="sRGB">
<feFlood flood-opacity="0" result="BackgroundImageFix"/>
<feBlend mode="normal" in="SourceGraphic" in2="BackgroundImageFix" result="shape"/>
<feGaussianBlur stdDeviation="0.53125" result="effect1_foregroundBlur_1_398"/>
</filter>
<filter id="filter5_f_1_398" x="19.1111" y="22.8629" width="4.20215" height="4.20294" filterUnits="userSpaceOnUse" color-interpolation-filters="sRGB">
<feFlood flood-opacity="0" result="BackgroundImageFix"/>
<feBlend mode="normal" in="SourceGraphic" in2="BackgroundImageFix" result="shape"/>
<feGaussianBlur stdDeviation="0.53125" result="effect1_foregroundBlur_1_398"/>
</filter>
<filter id="filter6_f_1_398" x="15.3333" y="21.6867" width="3.80371" height="3.99033" filterUnits="userSpaceOnUse" color-interpolation-filters="sRGB">
<feFlood flood-opacity="0" result="BackgroundImageFix"/>
<feBlend mode="normal" in="SourceGraphic" in2="BackgroundImageFix" result="shape"/>
<feGaussianBlur stdDeviation="0.53125" result="effect1_foregroundBlur_1_398"/>
</filter>
<filter id="filter7_f_1_398" x="12.9995" y="22.0291" width="4.00049" height="3.91269" filterUnits="userSpaceOnUse" color-interpolation-filters="sRGB">
<feFlood flood-opacity="0" result="BackgroundImageFix"/>
<feBlend mode="normal" in="SourceGraphic" in2="BackgroundImageFix" result="shape"/>
<feGaussianBlur stdDeviation="0.53125" result="effect1_foregroundBlur_1_398"/>
</filter>
<filter id="filter8_f_1_398" x="11.7046" y="19.9306" width="3.9126" height="4.0007" filterUnits="userSpaceOnUse" color-interpolation-filters="sRGB">
<feFlood flood-opacity="0" result="BackgroundImageFix"/>
<feBlend mode="normal" in="SourceGraphic" in2="BackgroundImageFix" result="shape"/>
<feGaussianBlur stdDeviation="0.53125" result="effect1_foregroundBlur_1_398"/>
</filter>
<filter id="filter9_f_1_398" x="11.3579" y="21.7549" width="3.55664" height="3.57352" filterUnits="userSpaceOnUse" color-interpolation-filters="sRGB">
<feFlood flood-opacity="0" result="BackgroundImageFix"/>
<feBlend mode="normal" in="SourceGraphic" in2="BackgroundImageFix" result="shape"/>
<feGaussianBlur stdDeviation="0.53125" result="effect1_foregroundBlur_1_398"/>
</filter>
<filter id="filter10_f_1_398" x="16.2021" y="20.1451" width="3.59351" height="3.39566" filterUnits="userSpaceOnUse" color-interpolation-filters="sRGB">
<feFlood flood-opacity="0" result="BackgroundImageFix"/>
<feBlend mode="normal" in="SourceGraphic" in2="BackgroundImageFix" result="shape"/>
<feGaussianBlur stdDeviation="0.53125" result="effect1_foregroundBlur_1_398"/>
</filter>
<filter id="filter11_f_1_398" x="8.91162" y="11.2012" width="13.4326" height="16.2468" filterUnits="userSpaceOnUse" color-interpolation-filters="sRGB">
<feFlood flood-opacity="0" result="BackgroundImageFix"/>
<feBlend mode="normal" in="SourceGraphic" in2="BackgroundImageFix" result="shape"/>
<feGaussianBlur stdDeviation="0.53125" result="effect1_foregroundBlur_1_398"/>
</filter>
<filter id="filter12_f_1_398" x="13.4958" y="4.01196" width="4.3125" height="14.9375" filterUnits="userSpaceOnUse" color-interpolation-filters="sRGB">
<feFlood flood-opacity="0" result="BackgroundImageFix"/>
<feBlend mode="normal" in="SourceGraphic" in2="BackgroundImageFix" result="shape"/>
<feGaussianBlur stdDeviation="0.6875" result="effect1_foregroundBlur_1_398"/>
</filter>
<filter id="filter13_f_1_398" x="8.78101" y="9.42639" width="13.3059" height="5.52167" filterUnits="userSpaceOnUse" color-interpolation-filters="sRGB">
<feFlood flood-opacity="0" result="BackgroundImageFix"/>
<feBlend mode="normal" in="SourceGraphic" in2="BackgroundImageFix" result="shape"/>
<feGaussianBlur stdDeviation="0.375" result="effect1_foregroundBlur_1_398"/>
</filter>
</defs>
</svg>
