<svg width="32" height="32" viewBox="0 0 32 32" fill="none" xmlns="http://www.w3.org/2000/svg">
<circle cx="15.625" cy="15.625" r="15" stroke="#EABFFF" stroke-width="1.25"/>
<g filter="url(#filter0_f_1_386)">
<path d="M22.1854 10.3091C22.3027 8.71654 17.4732 8.12499 15.0388 8.125C10.0107 8.12501 8.14507 9.39908 8.14509 10.3546C8.14514 12.6298 7.98585 15.1097 8.56354 17.6806C8.90391 19.1953 9.7272 20.1301 11.0599 20.669M8.14509 10.3546C8.23876 11.1509 10.3748 12.5661 15.5621 12.4023C17.367 12.4629 21.6621 12.0382 22.1854 10.3091M22.1854 10.3091C22.2372 11.0827 22.297 11.7772 22.3027 12.4023M22.3027 12.4023C23.4837 12.0913 25.9139 12.1292 26.1869 14.7684C26.3376 16.1866 25.6678 18.8182 21.7831 17.9991M19.1568 20.8134C19.7382 20.5757 20.3149 20.1941 20.9086 19.5689C21.2476 19.212 21.5483 18.7452 21.7831 17.9991C22.1264 16.9077 22.3286 15.2188 22.3027 12.4023M19.1568 20.8134C18.0296 21.274 16.8886 21.2981 15.5621 21.2981C13.6847 21.2981 12.1894 21.1257 11.0599 20.669M19.1568 20.8134C20.9951 20.8806 21.3864 21.4801 21.3864 21.9579C21.3864 22.8679 20.2716 23.0727 19.7938 23.1182H12.0128C9.46467 23.2092 8.87394 22.3674 8.89588 21.9579C8.93123 21.2981 9.25802 21.094 11.0599 20.669" stroke="#F645F9" stroke-width="0.9375"/>
</g>
<g filter="url(#filter1_f_1_386)">
<path d="M22.1854 10.3091C22.3027 8.71654 17.4732 8.12499 15.0388 8.125C10.0107 8.12501 8.14507 9.39908 8.14509 10.3546C8.14514 12.6298 7.98585 15.1097 8.56354 17.6806C8.90391 19.1953 9.7272 20.1301 11.0599 20.669M8.14509 10.3546C8.23876 11.1509 10.3748 12.5661 15.5621 12.4023C17.367 12.4629 21.6621 12.0382 22.1854 10.3091M22.1854 10.3091C22.2372 11.0827 22.297 11.7772 22.3027 12.4023M22.3027 12.4023C23.4837 12.0913 25.9139 12.1292 26.1869 14.7684C26.3376 16.1866 25.6678 18.8182 21.7831 17.9991M19.1568 20.8134C19.7382 20.5757 20.3149 20.1941 20.9086 19.5689C21.2476 19.212 21.5483 18.7452 21.7831 17.9991C22.1264 16.9077 22.3286 15.2188 22.3027 12.4023M19.1568 20.8134C18.0296 21.274 16.8886 21.2981 15.5621 21.2981C13.6847 21.2981 12.1894 21.1257 11.0599 20.669M19.1568 20.8134C20.9951 20.8806 21.3864 21.4801 21.3864 21.9579C21.3864 22.8679 20.2716 23.0727 19.7938 23.1182H12.0128C9.46467 23.2092 8.87394 22.3674 8.89588 21.9579C8.93123 21.2981 9.25802 21.094 11.0599 20.669" stroke="#F645F9" stroke-width="0.9375"/>
</g>
<path d="M22.1854 10.3091C22.3027 8.71654 17.4732 8.12499 15.0388 8.125C10.0107 8.12501 8.14507 9.39908 8.14509 10.3546C8.14514 12.6298 7.98585 15.1097 8.56354 17.6806C8.90391 19.1953 9.7272 20.1301 11.0599 20.669M8.14509 10.3546C8.23876 11.1509 10.3748 12.5661 15.5621 12.4023C17.367 12.4629 21.6621 12.0382 22.1854 10.3091M22.1854 10.3091C22.2372 11.0827 22.297 11.7772 22.3027 12.4023M22.3027 12.4023C23.4837 12.0913 25.9139 12.1292 26.1869 14.7684C26.3376 16.1866 25.6678 18.8182 21.7831 17.9991M19.1568 20.8134C19.7382 20.5757 20.3149 20.1941 20.9086 19.5689C21.2476 19.212 21.5483 18.7452 21.7831 17.9991C22.1264 16.9077 22.3286 15.2188 22.3027 12.4023M19.1568 20.8134C18.0296 21.274 16.8886 21.2981 15.5621 21.2981C13.6847 21.2981 12.1894 21.1257 11.0599 20.669M19.1568 20.8134C20.9951 20.8806 21.3864 21.4801 21.3864 21.9579C21.3864 22.8679 20.2716 23.0727 19.7938 23.1182H12.0128C9.46467 23.2092 8.87394 22.3674 8.89588 21.9579C8.93123 21.2981 9.25802 21.094 11.0599 20.669" stroke="white" stroke-width="0.4375"/>
<defs>
<filter id="filter0_f_1_386" x="6.59351" y="6.59375" width="21.1438" height="18.0625" filterUnits="userSpaceOnUse" color-interpolation-filters="sRGB">
<feFlood flood-opacity="0" result="BackgroundImageFix"/>
<feBlend mode="normal" in="SourceGraphic" in2="BackgroundImageFix" result="shape"/>
<feGaussianBlur stdDeviation="0.53125" result="effect1_foregroundBlur_1_386"/>
</filter>
<filter id="filter1_f_1_386" x="6.59351" y="6.59375" width="21.1438" height="18.0625" filterUnits="userSpaceOnUse" color-interpolation-filters="sRGB">
<feFlood flood-opacity="0" result="BackgroundImageFix"/>
<feBlend mode="normal" in="SourceGraphic" in2="BackgroundImageFix" result="shape"/>
<feGaussianBlur stdDeviation="0.53125" result="effect1_foregroundBlur_1_386"/>
</filter>
</defs>
</svg>
