<svg width="32" height="32" viewBox="0 0 32 32" fill="none" xmlns="http://www.w3.org/2000/svg">
<circle cx="15.625" cy="15.625" r="15" stroke="#FFDAE2" stroke-width="1.25"/>
<g filter="url(#filter0_f_1_709)">
<path d="M5.82841 15.4169C6.18997 15.8301 6.95962 16.1208 7.52525 16.2503C15.5461 18.2086 22.0131 17.0663 24.244 16.2503C25.2425 15.9388 25.793 15.6102 26.0408 15.2915M5.82841 15.4169C5.46309 14.9993 5.51442 14.4566 6.61388 13.8284C10.442 12.0314 20.7023 11.9013 25.2335 13.8024C25.9257 14.1513 26.4974 14.7044 26.0408 15.2915M5.82841 15.4169C5.76034 17.179 6.48877 21.2346 9.94709 23.3596C10.3558 23.6107 11.3207 24.1705 12.8638 24.5731M26.0408 15.2915C26.3116 19.4621 23.7752 21.9013 22.8898 22.8388C22.0297 23.6475 20.8216 24.2004 19.6085 24.5482M12.8638 24.5731C13.7787 24.8118 14.897 24.9952 16.2231 25.0262C17.1078 25.0469 18.3608 24.906 19.6085 24.5482M12.8638 24.5731C12.2648 24.7849 10.9106 25.3127 10.9106 25.8335C10.9106 26.146 10.7544 26.7971 12.6815 26.8752H19.9471C20.6589 26.8517 21.5096 26.5367 21.0148 25.6252C20.8412 25.3673 20.3169 24.7908 19.6085 24.5482" stroke="#FFF266" stroke-width="0.9375" stroke-linecap="round"/>
</g>
<g filter="url(#filter1_f_1_709)">
<path d="M5.82841 15.4169C6.18997 15.8301 6.95962 16.1208 7.52525 16.2503C15.5461 18.2086 22.0131 17.0663 24.244 16.2503C25.2425 15.9388 25.793 15.6102 26.0408 15.2915M5.82841 15.4169C5.46309 14.9993 5.51442 14.4566 6.61388 13.8284C10.442 12.0314 20.7023 11.9013 25.2335 13.8024C25.9257 14.1513 26.4974 14.7044 26.0408 15.2915M5.82841 15.4169C5.76034 17.179 6.48877 21.2346 9.94709 23.3596C10.3558 23.6107 11.3207 24.1705 12.8638 24.5731M26.0408 15.2915C26.3116 19.4621 23.7752 21.9013 22.8898 22.8388C22.0297 23.6475 20.8216 24.2004 19.6085 24.5482M12.8638 24.5731C13.7787 24.8118 14.897 24.9952 16.2231 25.0262C17.1078 25.0469 18.3608 24.906 19.6085 24.5482M12.8638 24.5731C12.2648 24.7849 10.9106 25.3127 10.9106 25.8335C10.9106 26.146 10.7544 26.7971 12.6815 26.8752H19.9471C20.6589 26.8517 21.5096 26.5367 21.0148 25.6252C20.8412 25.3673 20.3169 24.7908 19.6085 24.5482" stroke="#FFF266" stroke-width="0.9375" stroke-linecap="round"/>
</g>
<path d="M5.82841 15.4169C6.18997 15.8301 6.95962 16.1208 7.52525 16.2503C15.5461 18.2086 22.0131 17.0663 24.244 16.2503C25.2425 15.9388 25.793 15.6102 26.0408 15.2915M5.82841 15.4169C5.46309 14.9993 5.51442 14.4566 6.61388 13.8284C10.442 12.0314 20.7023 11.9013 25.2335 13.8024C25.9257 14.1513 26.4974 14.7044 26.0408 15.2915M5.82841 15.4169C5.76034 17.179 6.48877 21.2346 9.94709 23.3596C10.3558 23.6107 11.3207 24.1705 12.8638 24.5731M26.0408 15.2915C26.3116 19.4621 23.7752 21.9013 22.8898 22.8388C22.0297 23.6475 20.8216 24.2004 19.6085 24.5482M12.8638 24.5731C13.7787 24.8118 14.897 24.9952 16.2231 25.0262C17.1078 25.0469 18.3608 24.906 19.6085 24.5482M12.8638 24.5731C12.2648 24.7849 10.9106 25.3127 10.9106 25.8335C10.9106 26.146 10.7544 26.7971 12.6815 26.8752H19.9471C20.6589 26.8517 21.5096 26.5367 21.0148 25.6252C20.8412 25.3673 20.3169 24.7908 19.6085 24.5482" stroke="white" stroke-width="0.4375" stroke-linecap="round"/>
<g filter="url(#filter2_f_1_709)">
<path d="M12.9675 3.48969C12.438 4.03656 11.6602 5.38551 12.7852 6.40635C13.3494 6.9185 14.1393 8.15634 12.7852 9.01051C12.2904 9.32258 12.056 9.93759 12.7852 10.7293" stroke="#58FFEF" stroke-width="0.9375" stroke-linecap="round"/>
</g>
<g filter="url(#filter3_f_1_709)">
<path d="M16.5908 3.125C15.5939 3.66262 14.9207 5.39062 16.0926 6.35416C16.7303 6.87852 17.1702 7.86487 16.4085 8.54166C15.9103 8.98436 15.6793 9.5729 16.4085 10.3646" stroke="#58FFEF" stroke-width="0.9375" stroke-linecap="round"/>
</g>
<g filter="url(#filter4_f_1_709)">
<path d="M19.6347 4.27063C18.6191 4.94771 18.4629 6.27583 19.0096 6.82271C19.6344 7.44775 20.0304 7.53298 20.1295 8.35916C20.2077 9.0102 19.5304 9.73937 19.0096 10.3123" stroke="#58FFEF" stroke-width="0.9375" stroke-linecap="round"/>
</g>
<g filter="url(#filter5_f_1_709)">
<path d="M10.0775 15.5729L13.1504 13.0469M12.5515 15.0781C12.9942 14.1319 14.2702 12.8542 15.8327 15.3125M16.4577 15.0781C16.9872 14.2882 18.2702 13.2292 19.166 15.3125M19.4265 14.1406C20.2598 14.158 22.0046 14.4687 22.3171 15.5729" stroke="#58FFEF" stroke-width="0.9375" stroke-linecap="round"/>
</g>
<g filter="url(#filter6_f_1_709)">
<path d="M12.9675 3.48969C12.438 4.03656 11.6602 5.38551 12.7852 6.40635C13.3494 6.9185 14.1393 8.15634 12.7852 9.01051C12.2904 9.32258 12.056 9.93759 12.7852 10.7293" stroke="#58FFEF" stroke-width="0.9375" stroke-linecap="round"/>
</g>
<g filter="url(#filter7_f_1_709)">
<path d="M16.5908 3.125C15.5939 3.66262 14.9207 5.39062 16.0926 6.35416C16.7303 6.87852 17.1702 7.86487 16.4085 8.54166C15.9103 8.98436 15.6793 9.5729 16.4085 10.3646" stroke="#58FFEF" stroke-width="0.9375" stroke-linecap="round"/>
</g>
<g filter="url(#filter8_f_1_709)">
<path d="M19.6347 4.27063C18.6191 4.94771 18.4629 6.27583 19.0096 6.82271C19.6344 7.44775 20.0304 7.53298 20.1295 8.35916C20.2077 9.0102 19.5304 9.73937 19.0096 10.3123" stroke="#58FFEF" stroke-width="0.9375" stroke-linecap="round"/>
</g>
<g filter="url(#filter9_f_1_709)">
<path d="M10.0775 15.5729L13.1504 13.0469M12.5515 15.0781C12.9942 14.1319 14.2702 12.8542 15.8327 15.3125M16.4577 15.0781C16.9872 14.2882 18.2702 13.2292 19.166 15.3125M19.4265 14.1406C20.2598 14.158 22.0046 14.4687 22.3171 15.5729" stroke="#58FFEF" stroke-width="0.9375" stroke-linecap="round"/>
</g>
<path d="M12.9675 3.48969C12.438 4.03656 11.6602 5.38551 12.7852 6.40635C13.3494 6.9185 14.1393 8.15634 12.7852 9.01051C12.2904 9.32258 12.056 9.93759 12.7852 10.7293" stroke="white" stroke-width="0.4375" stroke-linecap="round"/>
<path d="M16.5908 3.125C15.5939 3.66262 14.9207 5.39062 16.0926 6.35416C16.7303 6.87852 17.1702 7.86487 16.4085 8.54166C15.9103 8.98436 15.6793 9.5729 16.4085 10.3646" stroke="white" stroke-width="0.4375" stroke-linecap="round"/>
<path d="M19.6347 4.27063C18.6191 4.94771 18.4629 6.27583 19.0096 6.82271C19.6344 7.44775 20.0304 7.53298 20.1295 8.35916C20.2077 9.0102 19.5304 9.73937 19.0096 10.3123" stroke="white" stroke-width="0.4375" stroke-linecap="round"/>
<path d="M10.0775 15.5729L13.1504 13.0469M12.5515 15.0781C12.9942 14.1319 14.2702 12.8542 15.8327 15.3125M16.4577 15.0781C16.9872 14.2882 18.2702 13.2292 19.166 15.3125M19.4265 14.1406C20.2598 14.158 22.0046 14.4687 22.3171 15.5729" stroke="white" stroke-width="0.4375" stroke-linecap="round"/>
<defs>
<filter id="filter0_f_1_709" x="4.09314" y="10.8967" width="23.6427" height="17.5097" filterUnits="userSpaceOnUse" color-interpolation-filters="sRGB">
<feFlood flood-opacity="0" result="BackgroundImageFix"/>
<feBlend mode="normal" in="SourceGraphic" in2="BackgroundImageFix" result="shape"/>
<feGaussianBlur stdDeviation="0.53125" result="effect1_foregroundBlur_1_709"/>
</filter>
<filter id="filter1_f_1_709" x="4.09314" y="10.8967" width="23.6427" height="17.5097" filterUnits="userSpaceOnUse" color-interpolation-filters="sRGB">
<feFlood flood-opacity="0" result="BackgroundImageFix"/>
<feBlend mode="normal" in="SourceGraphic" in2="BackgroundImageFix" result="shape"/>
<feGaussianBlur stdDeviation="0.53125" result="effect1_foregroundBlur_1_709"/>
</filter>
<filter id="filter2_f_1_709" x="10.6779" y="1.95844" width="4.38623" height="10.3021" filterUnits="userSpaceOnUse" color-interpolation-filters="sRGB">
<feFlood flood-opacity="0" result="BackgroundImageFix"/>
<feBlend mode="normal" in="SourceGraphic" in2="BackgroundImageFix" result="shape"/>
<feGaussianBlur stdDeviation="0.53125" result="effect1_foregroundBlur_1_709"/>
</filter>
<filter id="filter3_f_1_709" x="13.9415" y="1.59366" width="4.40088" height="10.3022" filterUnits="userSpaceOnUse" color-interpolation-filters="sRGB">
<feFlood flood-opacity="0" result="BackgroundImageFix"/>
<feBlend mode="normal" in="SourceGraphic" in2="BackgroundImageFix" result="shape"/>
<feGaussianBlur stdDeviation="0.53125" result="effect1_foregroundBlur_1_709"/>
</filter>
<filter id="filter4_f_1_709" x="17.1685" y="2.73933" width="4.49854" height="9.1042" filterUnits="userSpaceOnUse" color-interpolation-filters="sRGB">
<feFlood flood-opacity="0" result="BackgroundImageFix"/>
<feBlend mode="normal" in="SourceGraphic" in2="BackgroundImageFix" result="shape"/>
<feGaussianBlur stdDeviation="0.53125" result="effect1_foregroundBlur_1_709"/>
</filter>
<filter id="filter5_f_1_709" x="8.54626" y="11.5156" width="15.3021" height="5.58867" filterUnits="userSpaceOnUse" color-interpolation-filters="sRGB">
<feFlood flood-opacity="0" result="BackgroundImageFix"/>
<feBlend mode="normal" in="SourceGraphic" in2="BackgroundImageFix" result="shape"/>
<feGaussianBlur stdDeviation="0.53125" result="effect1_foregroundBlur_1_709"/>
</filter>
<filter id="filter6_f_1_709" x="10.6779" y="1.95844" width="4.38623" height="10.3021" filterUnits="userSpaceOnUse" color-interpolation-filters="sRGB">
<feFlood flood-opacity="0" result="BackgroundImageFix"/>
<feBlend mode="normal" in="SourceGraphic" in2="BackgroundImageFix" result="shape"/>
<feGaussianBlur stdDeviation="0.53125" result="effect1_foregroundBlur_1_709"/>
</filter>
<filter id="filter7_f_1_709" x="13.9415" y="1.59366" width="4.40088" height="10.3022" filterUnits="userSpaceOnUse" color-interpolation-filters="sRGB">
<feFlood flood-opacity="0" result="BackgroundImageFix"/>
<feBlend mode="normal" in="SourceGraphic" in2="BackgroundImageFix" result="shape"/>
<feGaussianBlur stdDeviation="0.53125" result="effect1_foregroundBlur_1_709"/>
</filter>
<filter id="filter8_f_1_709" x="17.1685" y="2.73933" width="4.49854" height="9.1042" filterUnits="userSpaceOnUse" color-interpolation-filters="sRGB">
<feFlood flood-opacity="0" result="BackgroundImageFix"/>
<feBlend mode="normal" in="SourceGraphic" in2="BackgroundImageFix" result="shape"/>
<feGaussianBlur stdDeviation="0.53125" result="effect1_foregroundBlur_1_709"/>
</filter>
<filter id="filter9_f_1_709" x="8.54626" y="11.5156" width="15.3021" height="5.58867" filterUnits="userSpaceOnUse" color-interpolation-filters="sRGB">
<feFlood flood-opacity="0" result="BackgroundImageFix"/>
<feBlend mode="normal" in="SourceGraphic" in2="BackgroundImageFix" result="shape"/>
<feGaussianBlur stdDeviation="0.53125" result="effect1_foregroundBlur_1_709"/>
</filter>
</defs>
</svg>
