<svg width="15" height="15" viewBox="0 0 15 15" fill="none" xmlns="http://www.w3.org/2000/svg">
<rect x="0.3125" y="0.3125" width="13.75" height="13.75" rx="0.9375" fill="#281526" fill-opacity="0.3" stroke="#FFDAE2" stroke-width="0.625"/>
<path d="M12.4062 2.5C12.4062 2.37919 12.3083 2.28125 12.1875 2.28125H10.2188C10.0979 2.28125 10 2.37919 10 2.5C10 2.62081 10.0979 2.71875 10.2188 2.71875H11.9688V4.46875C11.9688 4.58956 12.0667 4.6875 12.1875 4.6875C12.3083 4.6875 12.4062 4.58956 12.4062 4.46875V2.5ZM2.28125 12.1875C2.28125 12.3083 2.37919 12.4062 2.5 12.4062H4.46875C4.58956 12.4062 4.6875 12.3083 4.6875 12.1875C4.6875 12.0667 4.58956 11.9688 4.46875 11.9688H2.71875V10.2188C2.71875 10.0979 2.62081 10 2.5 10C2.37919 10 2.28125 10.0979 2.28125 10.2188V12.1875ZM12.1875 2.5L12.0328 2.34532L2.34532 12.0328L2.5 12.1875L2.65468 12.3422L12.3422 2.65468L12.1875 2.5Z" fill="#FFDAE2"/>
</svg>
