<svg width="32" height="32" viewBox="0 0 32 32" fill="none" xmlns="http://www.w3.org/2000/svg">
<circle cx="15.625" cy="15.625" r="15" stroke="#B8EFFF" stroke-width="1.25"/>
<g filter="url(#filter0_f_57_335)">
<path d="M8.125 17.2939V13.4474L14.0577 9.10107M8.125 13.4474L23.75 13.317M23.75 17.3591V13.317L18.8169 9.10107M8.125 17.2939V21.9227H23.75V17.3591M8.125 17.2939C8.84939 16.7144 10.7111 15.7379 12.3627 16.4681L13.4927 17.0766C14.3692 16.7144 16.4656 16.0639 17.839 16.3594C18.2302 16.4898 19.0256 16.8592 19.0777 17.2939C19.7731 16.5478 21.3856 15.4597 22.2723 17.0766C22.4099 17.2649 22.8981 17.5851 23.75 17.3591" stroke="#F645F9" stroke-width="0.9375" stroke-linecap="round"/>
<path d="M8.125 17.2939V13.4474L14.0577 9.10107M8.125 13.4474L23.75 13.317M23.75 17.3591V13.317L18.8169 9.10107M8.125 17.2939V21.9227H23.75V17.3591M8.125 17.2939C8.84939 16.7144 10.7111 15.7379 12.3627 16.4681L13.4927 17.0766C14.3692 16.7144 16.4656 16.0639 17.839 16.3594C18.2302 16.4898 19.0256 16.8592 19.0777 17.2939C19.7731 16.5478 21.3856 15.4597 22.2723 17.0766C22.4099 17.2649 22.8981 17.5851 23.75 17.3591" stroke="#F645F9" stroke-width="0.9375" stroke-linecap="round"/>
<path d="M8.125 17.2939V13.4474L14.0577 9.10107M8.125 13.4474L23.75 13.317M23.75 17.3591V13.317L18.8169 9.10107M8.125 17.2939V21.9227H23.75V17.3591M8.125 17.2939C8.84939 16.7144 10.7111 15.7379 12.3627 16.4681L13.4927 17.0766C14.3692 16.7144 16.4656 16.0639 17.839 16.3594C18.2302 16.4898 19.0256 16.8592 19.0777 17.2939C19.7731 16.5478 21.3856 15.4597 22.2723 17.0766C22.4099 17.2649 22.8981 17.5851 23.75 17.3591" stroke="#F645F9" stroke-width="0.9375" stroke-linecap="round"/>
</g>
<g filter="url(#filter1_f_57_335)">
<path d="M8.125 18.902C9.26953 19.2279 11.9324 19.7104 13.4275 19.0324C14.6155 19.3004 17.3783 19.6495 18.9256 18.902C19.8021 19.3004 21.7333 19.8842 22.4461 19.0324C22.5693 18.8585 22.9937 18.589 23.7065 18.902" stroke="#F645F9" stroke-width="0.9375" stroke-linecap="round"/>
<path d="M8.125 18.902C9.26953 19.2279 11.9324 19.7104 13.4275 19.0324C14.6155 19.3004 17.3783 19.6495 18.9256 18.902C19.8021 19.3004 21.7333 19.8842 22.4461 19.0324C22.5693 18.8585 22.9937 18.589 23.7065 18.902" stroke="#F645F9" stroke-width="0.9375" stroke-linecap="round"/>
<path d="M8.125 18.902C9.26953 19.2279 11.9324 19.7104 13.4275 19.0324C14.6155 19.3004 17.3783 19.6495 18.9256 18.902C19.8021 19.3004 21.7333 19.8842 22.4461 19.0324C22.5693 18.8585 22.9937 18.589 23.7065 18.902" stroke="#F645F9" stroke-width="0.9375" stroke-linecap="round"/>
</g>
<g filter="url(#filter2_f_57_335)">
<path d="M14.2753 8.2319C14.8985 6.81935 16.4629 6.76865 17.1221 6.94975C18.6521 7.29746 18.8027 8.70276 18.6868 9.36194C18.878 11.2396 16.8973 11.3018 15.7748 11.1222C14.1449 10.8614 13.9493 8.97076 14.2753 8.2319Z" stroke="#F645F9" stroke-width="0.9375" stroke-linecap="round"/>
<path d="M14.2753 8.2319C14.8985 6.81935 16.4629 6.76865 17.1221 6.94975C18.6521 7.29746 18.8027 8.70276 18.6868 9.36194C18.878 11.2396 16.8973 11.3018 15.7748 11.1222C14.1449 10.8614 13.9493 8.97076 14.2753 8.2319Z" stroke="#F645F9" stroke-width="0.9375" stroke-linecap="round"/>
<path d="M14.2753 8.2319C14.8985 6.81935 16.4629 6.76865 17.1221 6.94975C18.6521 7.29746 18.8027 8.70276 18.6868 9.36194C18.878 11.2396 16.8973 11.3018 15.7748 11.1222C14.1449 10.8614 13.9493 8.97076 14.2753 8.2319Z" stroke="#F645F9" stroke-width="0.9375" stroke-linecap="round"/>
</g>
<g filter="url(#filter3_f_57_335)">
<path d="M8.125 17.2939V13.4474L14.0577 9.10107M8.125 13.4474L23.75 13.317M23.75 17.3591V13.317L18.8169 9.10107M8.125 17.2939V21.9227H23.75V17.3591M8.125 17.2939C8.84939 16.7144 10.7111 15.7379 12.3627 16.4681L13.4927 17.0766C14.3692 16.7144 16.4656 16.0639 17.839 16.3594C18.2302 16.4898 19.0256 16.8592 19.0777 17.2939C19.7731 16.5478 21.3856 15.4597 22.2723 17.0766C22.4099 17.2649 22.8981 17.5851 23.75 17.3591" stroke="#F645F9" stroke-width="0.9375" stroke-linecap="round"/>
<path d="M8.125 17.2939V13.4474L14.0577 9.10107M8.125 13.4474L23.75 13.317M23.75 17.3591V13.317L18.8169 9.10107M8.125 17.2939V21.9227H23.75V17.3591M8.125 17.2939C8.84939 16.7144 10.7111 15.7379 12.3627 16.4681L13.4927 17.0766C14.3692 16.7144 16.4656 16.0639 17.839 16.3594C18.2302 16.4898 19.0256 16.8592 19.0777 17.2939C19.7731 16.5478 21.3856 15.4597 22.2723 17.0766C22.4099 17.2649 22.8981 17.5851 23.75 17.3591" stroke="#F645F9" stroke-width="0.9375" stroke-linecap="round"/>
<path d="M8.125 17.2939V13.4474L14.0577 9.10107M8.125 13.4474L23.75 13.317M23.75 17.3591V13.317L18.8169 9.10107M8.125 17.2939V21.9227H23.75V17.3591M8.125 17.2939C8.84939 16.7144 10.7111 15.7379 12.3627 16.4681L13.4927 17.0766C14.3692 16.7144 16.4656 16.0639 17.839 16.3594C18.2302 16.4898 19.0256 16.8592 19.0777 17.2939C19.7731 16.5478 21.3856 15.4597 22.2723 17.0766C22.4099 17.2649 22.8981 17.5851 23.75 17.3591" stroke="#F645F9" stroke-width="0.9375" stroke-linecap="round"/>
</g>
<g filter="url(#filter4_f_57_335)">
<path d="M8.125 18.902C9.26953 19.2279 11.9324 19.7104 13.4275 19.0324C14.6155 19.3004 17.3783 19.6495 18.9256 18.902C19.8021 19.3004 21.7333 19.8842 22.4461 19.0324C22.5693 18.8585 22.9937 18.589 23.7065 18.902" stroke="#F645F9" stroke-width="0.9375" stroke-linecap="round"/>
<path d="M8.125 18.902C9.26953 19.2279 11.9324 19.7104 13.4275 19.0324C14.6155 19.3004 17.3783 19.6495 18.9256 18.902C19.8021 19.3004 21.7333 19.8842 22.4461 19.0324C22.5693 18.8585 22.9937 18.589 23.7065 18.902" stroke="#F645F9" stroke-width="0.9375" stroke-linecap="round"/>
<path d="M8.125 18.902C9.26953 19.2279 11.9324 19.7104 13.4275 19.0324C14.6155 19.3004 17.3783 19.6495 18.9256 18.902C19.8021 19.3004 21.7333 19.8842 22.4461 19.0324C22.5693 18.8585 22.9937 18.589 23.7065 18.902" stroke="#F645F9" stroke-width="0.9375" stroke-linecap="round"/>
</g>
<g filter="url(#filter5_f_57_335)">
<path d="M14.2753 8.2319C14.8985 6.81935 16.4629 6.76865 17.1221 6.94975C18.6521 7.29746 18.8027 8.70276 18.6868 9.36194C18.878 11.2396 16.8973 11.3018 15.7748 11.1222C14.1449 10.8614 13.9493 8.97076 14.2753 8.2319Z" stroke="#F645F9" stroke-width="0.9375" stroke-linecap="round"/>
<path d="M14.2753 8.2319C14.8985 6.81935 16.4629 6.76865 17.1221 6.94975C18.6521 7.29746 18.8027 8.70276 18.6868 9.36194C18.878 11.2396 16.8973 11.3018 15.7748 11.1222C14.1449 10.8614 13.9493 8.97076 14.2753 8.2319Z" stroke="#F645F9" stroke-width="0.9375" stroke-linecap="round"/>
<path d="M14.2753 8.2319C14.8985 6.81935 16.4629 6.76865 17.1221 6.94975C18.6521 7.29746 18.8027 8.70276 18.6868 9.36194C18.878 11.2396 16.8973 11.3018 15.7748 11.1222C14.1449 10.8614 13.9493 8.97076 14.2753 8.2319Z" stroke="#F645F9" stroke-width="0.9375" stroke-linecap="round"/>
</g>
<path d="M8.125 17.2941V13.4476L14.0577 9.10126M8.125 13.4476L23.75 13.3172M23.75 17.3593V13.3172L18.8169 9.10126M8.125 17.2941V21.9229H23.75V17.3593M8.125 17.2941C8.84939 16.7146 10.7111 15.7381 12.3627 16.4683L13.4927 17.0767C14.3692 16.7146 16.4656 16.0641 17.839 16.3596C18.2302 16.49 19.0256 16.8594 19.0777 17.2941C19.7731 16.5479 21.3856 15.4599 22.2723 17.0767C22.4099 17.2651 22.8981 17.5853 23.75 17.3593" stroke="white" stroke-width="0.4375" stroke-linecap="round"/>
<path d="M8.125 18.9022C9.26953 19.2281 11.9324 19.7106 13.4275 19.0325C14.6155 19.3006 17.3783 19.6497 18.9256 18.9022C19.8021 19.3006 21.7333 19.8844 22.4461 19.0325C22.5693 18.8587 22.9937 18.5892 23.7065 18.9022" stroke="white" stroke-width="0.4375" stroke-linecap="round"/>
<path d="M14.2751 8.2319C14.8983 6.81935 16.4627 6.76865 17.1219 6.94975C18.6518 7.29746 18.8024 8.70276 18.6865 9.36194C18.8778 11.2396 16.8971 11.3018 15.7745 11.1222C14.1447 10.8614 13.9491 8.97076 14.2751 8.2319Z" stroke="white" stroke-width="0.4375" stroke-linecap="round"/>
<defs>
<filter id="filter0_f_57_335" x="6.59375" y="7.56979" width="18.6875" height="15.8842" filterUnits="userSpaceOnUse" color-interpolation-filters="sRGB">
<feFlood flood-opacity="0" result="BackgroundImageFix"/>
<feBlend mode="normal" in="SourceGraphic" in2="BackgroundImageFix" result="shape"/>
<feGaussianBlur stdDeviation="0.53125" result="effect1_foregroundBlur_57_335"/>
</filter>
<filter id="filter1_f_57_335" x="6.59375" y="17.2274" width="18.644" height="3.77434" filterUnits="userSpaceOnUse" color-interpolation-filters="sRGB">
<feFlood flood-opacity="0" result="BackgroundImageFix"/>
<feBlend mode="normal" in="SourceGraphic" in2="BackgroundImageFix" result="shape"/>
<feGaussianBlur stdDeviation="0.53125" result="effect1_foregroundBlur_57_335"/>
</filter>
<filter id="filter2_f_57_335" x="12.6116" y="5.34375" width="7.63696" height="7.37639" filterUnits="userSpaceOnUse" color-interpolation-filters="sRGB">
<feFlood flood-opacity="0" result="BackgroundImageFix"/>
<feBlend mode="normal" in="SourceGraphic" in2="BackgroundImageFix" result="shape"/>
<feGaussianBlur stdDeviation="0.53125" result="effect1_foregroundBlur_57_335"/>
</filter>
<filter id="filter3_f_57_335" x="6.59375" y="7.56979" width="18.6875" height="15.8842" filterUnits="userSpaceOnUse" color-interpolation-filters="sRGB">
<feFlood flood-opacity="0" result="BackgroundImageFix"/>
<feBlend mode="normal" in="SourceGraphic" in2="BackgroundImageFix" result="shape"/>
<feGaussianBlur stdDeviation="0.53125" result="effect1_foregroundBlur_57_335"/>
</filter>
<filter id="filter4_f_57_335" x="6.59375" y="17.2274" width="18.644" height="3.77434" filterUnits="userSpaceOnUse" color-interpolation-filters="sRGB">
<feFlood flood-opacity="0" result="BackgroundImageFix"/>
<feBlend mode="normal" in="SourceGraphic" in2="BackgroundImageFix" result="shape"/>
<feGaussianBlur stdDeviation="0.53125" result="effect1_foregroundBlur_57_335"/>
</filter>
<filter id="filter5_f_57_335" x="12.6116" y="5.34375" width="7.63696" height="7.37639" filterUnits="userSpaceOnUse" color-interpolation-filters="sRGB">
<feFlood flood-opacity="0" result="BackgroundImageFix"/>
<feBlend mode="normal" in="SourceGraphic" in2="BackgroundImageFix" result="shape"/>
<feGaussianBlur stdDeviation="0.53125" result="effect1_foregroundBlur_57_335"/>
</filter>
</defs>
</svg>
