<svg width="32" height="32" viewBox="0 0 32 32" fill="none" xmlns="http://www.w3.org/2000/svg">
<circle cx="15.625" cy="15.625" r="15" stroke="#EABFFF" stroke-width="1.25"/>
<g filter="url(#filter0_f_1_392)">
<path d="M20.9862 20.2275L20.8572 21.4249L20.8046 21.9137H10.5897L10.5327 21.3516L9.39228 10.1103H10.3942M10.3942 10.1103H21.5622M21.5622 10.1103C21.4806 9.43429 21.3327 8.87129 21.0565 8.39968C20.9021 8.13618 20.7078 7.90121 20.4625 7.69098C19.4076 6.7868 17.6277 6.88457 15.8438 6.88456C13.9635 6.88456 12.3737 6.73792 11.3962 7.59321C11.0804 7.86948 10.8641 8.13556 10.7159 8.39968C10.4054 8.95323 10.3942 9.49818 10.3942 10.1103M21.5622 10.1103H22.0754L21.7597 13.0428M10.7159 8.39968C14.7825 8.64311 17.0439 8.64476 21.0565 8.39968M21.7597 13.0428C22.6469 12.831 24.2992 13.4582 24.3725 16.4885C24.4098 18.0291 24.0052 20.5403 20.9862 20.2275M21.7597 13.0428L20.9862 20.2275M10.5327 21.3516C9.59864 21.3516 7.8185 21.6888 8.1704 23.0378C8.26816 23.4858 9.16749 24.3379 11.9827 24.1619H21.4156C22.0591 24.1456 23.3706 23.8686 23.4683 22.8911C23.5115 22.4268 23.0498 21.4835 20.8572 21.4249" stroke="#58FFEF" stroke-width="0.9375" stroke-linecap="round"/>
</g>
<g filter="url(#filter1_f_1_392)">
<path d="M20.9862 20.2275L20.8572 21.4249L20.8046 21.9137H10.5897L10.5327 21.3516L9.39228 10.1103H10.3942M10.3942 10.1103H21.5622M21.5622 10.1103C21.4806 9.43429 21.3327 8.87129 21.0565 8.39968C20.9021 8.13618 20.7078 7.90121 20.4625 7.69098C19.4076 6.7868 17.6277 6.88457 15.8438 6.88456C13.9635 6.88456 12.3737 6.73792 11.3962 7.59321C11.0804 7.86948 10.8641 8.13556 10.7159 8.39968C10.4054 8.95323 10.3942 9.49818 10.3942 10.1103M21.5622 10.1103H22.0754L21.7597 13.0428M10.7159 8.39968C14.7825 8.64311 17.0439 8.64476 21.0565 8.39968M21.7597 13.0428C22.6469 12.831 24.2992 13.4582 24.3725 16.4885C24.4098 18.0291 24.0052 20.5403 20.9862 20.2275M21.7597 13.0428L20.9862 20.2275M10.5327 21.3516C9.59864 21.3516 7.8185 21.6888 8.1704 23.0378C8.26816 23.4858 9.16749 24.3379 11.9827 24.1619H21.4156C22.0591 24.1456 23.3706 23.8686 23.4683 22.8911C23.5115 22.4268 23.0498 21.4835 20.8572 21.4249" stroke="#58FFEF" stroke-width="0.9375" stroke-linecap="round"/>
</g>
<path d="M20.9864 20.2275L20.8575 21.4249L20.8049 21.9137H10.59L10.5329 21.3516L9.39252 10.1103H10.3945M10.3945 10.1103H21.5624M21.5624 10.1103C21.4808 9.43429 21.3329 8.87129 21.0567 8.39968C20.9024 8.13618 20.708 7.90121 20.4627 7.69098C19.4079 6.7868 17.628 6.88457 15.844 6.88456C13.9638 6.88456 12.3739 6.73792 11.3964 7.59321C11.0807 7.86948 10.8644 8.13556 10.7162 8.39968C10.4057 8.95323 10.3945 9.49818 10.3945 10.1103M21.5624 10.1103H22.0756L21.7599 13.0428M10.7162 8.39968C14.7828 8.64311 17.0442 8.64476 21.0567 8.39968M21.7599 13.0428C22.6471 12.831 24.2994 13.4582 24.3727 16.4885C24.41 18.0291 24.0055 20.5403 20.9864 20.2275M21.7599 13.0428L20.9864 20.2275M10.5329 21.3516C9.59888 21.3516 7.81874 21.6888 8.17064 23.0378C8.26841 23.4858 9.16774 24.3379 11.9829 24.1619H21.4158C22.0594 24.1456 23.3708 23.8686 23.4686 22.8911C23.5118 22.4268 23.0501 21.4835 20.8575 21.4249" stroke="white" stroke-width="0.4375" stroke-linecap="round"/>
<defs>
<filter id="filter0_f_1_392" x="6.59375" y="5.34375" width="19.3123" height="20.373" filterUnits="userSpaceOnUse" color-interpolation-filters="sRGB">
<feFlood flood-opacity="0" result="BackgroundImageFix"/>
<feBlend mode="normal" in="SourceGraphic" in2="BackgroundImageFix" result="shape"/>
<feGaussianBlur stdDeviation="0.53125" result="effect1_foregroundBlur_1_392"/>
</filter>
<filter id="filter1_f_1_392" x="6.59375" y="5.34375" width="19.3123" height="20.373" filterUnits="userSpaceOnUse" color-interpolation-filters="sRGB">
<feFlood flood-opacity="0" result="BackgroundImageFix"/>
<feBlend mode="normal" in="SourceGraphic" in2="BackgroundImageFix" result="shape"/>
<feGaussianBlur stdDeviation="0.53125" result="effect1_foregroundBlur_1_392"/>
</filter>
</defs>
</svg>
